<svg width="108" height="108" viewBox="0 0 108 108" fill="none" xmlns="http://www.w3.org/2000/svg">
<rect width="107.065" height="107.065" transform="translate(0.933594)" fill=""/>
<path d="M88.9728 23.4204C89.3518 23.4148 89.7308 23.4108 90.1098 23.4074C90.3209 23.4049 90.532 23.4025 90.7494 23.4C91.273 23.4204 91.273 23.4204 91.4821 23.6296C91.4857 24.142 91.4761 24.6478 91.4568 25.1595C91.4519 25.3124 91.4469 25.4652 91.4419 25.6227C91.4258 26.1129 91.4082 26.6029 91.3907 27.093C91.3795 27.4245 91.3685 27.756 91.3576 28.0875C91.3305 28.9018 91.3021 29.716 91.273 30.5302C91.4342 30.5405 91.5954 30.5507 91.7615 30.5613C91.9712 30.5769 92.1809 30.5925 92.397 30.6086C92.71 30.6305 92.71 30.6305 93.0292 30.6528C93.5732 30.7393 93.5732 30.7393 93.9915 31.1576C94.5977 33.0139 94.714 34.8658 94.7364 36.8036C94.7624 38.5434 94.8648 40.2028 95.1783 41.917C95.2461 42.4496 95.2461 42.4496 95.037 42.8678C94.6515 42.9523 94.2631 43.0242 93.8738 43.09C92.5677 43.3863 92.0079 43.898 91.2346 44.9671C90.8548 45.3771 90.8548 45.3771 90.3361 45.5797C89.8092 45.5862 89.8092 45.5862 89.3796 45.3232C88.3488 44.2659 88.3488 44.2659 88.3324 43.5605C88.537 43.1152 88.7477 42.6757 88.9728 42.2405C88.9728 42.1024 88.9728 41.9644 88.9728 41.8222C88.7399 41.9646 88.7399 41.9646 88.5023 42.1098C88.0382 42.384 87.576 42.6342 87.0908 42.8678C87.1598 43.0058 87.2288 43.1438 87.2999 43.286C87.9138 47.1586 87.9138 47.1586 87.0777 48.4877C86.6224 49.0889 86.6224 49.0889 86.6856 49.677C86.8796 50.2162 86.8796 50.2162 87.2215 50.801C87.57 51.5771 87.5313 51.8861 87.2999 52.696C87.1076 53.1943 86.8961 53.674 86.6726 54.1598C86.9249 54.231 86.9249 54.231 87.1823 54.3036C89.1158 55.0159 89.1158 55.0159 89.8092 55.6236C90.0435 56.2593 90.0844 56.8334 90.0184 57.5056C89.9494 57.6436 89.8803 57.7816 89.8092 57.9238C89.6618 57.9269 89.5144 57.9299 89.3625 57.933C88.6836 57.9488 88.0049 57.9689 87.326 57.9892C87.0942 57.9939 86.8624 57.9986 86.6236 58.0034C85.3115 58.0459 84.1724 58.186 82.933 58.6281C82.4904 58.7603 82.4904 58.7603 81.6539 58.7603C81.7341 59.4619 81.8276 59.7663 82.3074 60.3024C82.6995 60.8514 82.6995 60.8514 82.6618 61.5164C82.4765 62.3795 82.1806 63.1379 81.8116 63.9341C81.7432 64.085 81.6748 64.236 81.6043 64.3914C81.3833 64.8766 81.1594 65.3603 80.9351 65.8439C80.8598 66.0084 80.7844 66.1728 80.7068 66.3423C79.7904 68.3422 78.8707 70.3261 77.6273 72.1494C76.5869 73.731 77.1251 75.4674 77.4578 77.2041C77.9916 80.15 77.9916 80.15 77.198 81.3778C76.9848 81.6536 76.7666 81.9256 76.5438 82.1938C76.4398 82.3349 76.3359 82.476 76.2289 82.6214C76.1217 82.7544 76.0146 82.8875 75.9042 83.0245C75.8089 83.1439 75.7136 83.2634 75.6155 83.3864C74.1285 84.2507 71.7461 83.4172 70.1348 83.1274C69.8092 83.0701 69.4836 83.013 69.1579 82.9559C68.2588 82.7981 67.36 82.6382 66.4613 82.478C65.498 82.3066 64.5344 82.1368 63.5708 81.967C62.2906 81.7411 61.0104 81.5152 59.7303 81.2885C56.3073 80.6826 52.8828 80.0849 49.4579 79.4896C47.4179 79.135 45.3781 78.7793 43.3383 78.4235C41.7733 78.1506 40.2083 77.8782 38.6431 77.6068C37.2945 77.373 35.946 77.1381 34.5978 76.9019C33.9001 76.7797 33.2022 76.6581 32.5042 76.5377C31.7401 76.4056 30.9764 76.2718 30.2128 76.1375C29.8743 76.0796 29.8743 76.0796 29.5289 76.0207C29.3236 75.9842 29.1183 75.9477 28.9067 75.91C28.6396 75.8635 28.6396 75.8635 28.3671 75.8161C27.9123 75.6983 27.9123 75.6983 27.285 75.28C27.1125 74.7488 27.1125 74.7488 26.9782 74.069C26.9264 73.8148 26.8746 73.5607 26.8212 73.2989C26.7945 73.1626 26.7679 73.0263 26.7404 72.8859C26.656 72.4578 26.5675 72.0307 26.4776 71.6037C26.2224 70.3896 25.9708 69.1749 25.7315 67.9576C25.5847 67.2125 25.4298 66.4694 25.2697 65.7271C25.2105 65.4454 25.1544 65.1632 25.1015 64.8803C24.8147 63.3525 24.5368 62.319 23.2973 61.3221C22.9573 61.09 22.6141 60.8625 22.2663 60.6423C21.9084 60.3512 21.551 60.0595 21.1946 59.7666C20.3781 59.0968 19.5594 58.4299 18.7389 57.7649C18.0319 57.1916 17.3258 56.6171 16.6203 56.0418C16.4912 55.9365 16.3621 55.8313 16.229 55.7228C15.8751 55.4336 15.5222 55.1433 15.1696 54.8525C14.9693 54.6878 14.769 54.5231 14.5627 54.3534C13.658 53.5469 13.7925 52.5214 13.7189 51.376C13.7011 51.1772 13.6833 50.9784 13.665 50.7736C13.574 49.2945 13.574 49.2945 14.1722 48.522C14.359 48.3813 14.5458 48.2405 14.7383 48.0956C14.8534 47.9713 14.9685 47.847 15.0871 47.719C15.762 47.0476 16.2436 46.756 17.2084 46.7364C17.5709 46.7608 17.9327 46.796 18.2932 46.8409C18.4859 46.8636 18.6787 46.8862 18.8772 46.9095C20.2865 47.1292 20.2865 47.1292 20.6522 47.6153C20.8553 48.2643 20.9019 48.6698 20.8025 49.3502C20.476 49.9134 20.0731 50.3973 19.6524 50.8924C19.5427 51.0264 19.433 51.1604 19.32 51.2984C19.0501 51.6271 18.7766 51.9528 18.5023 52.2778C18.7568 52.2735 19.0112 52.2692 19.2734 52.2647C19.9544 52.2641 20.5536 52.3466 21.2207 52.4869C21.9383 52.5324 22.6547 52.5686 23.3731 52.5951C24.1498 52.6336 24.5324 52.6733 25.1939 53.1142C25.3419 53.5165 25.3419 53.5165 25.4381 54.0022C25.4738 54.1772 25.5095 54.3523 25.5463 54.5327C25.581 54.7159 25.6156 54.899 25.6513 55.0877C25.6884 55.2701 25.7254 55.4524 25.7636 55.6403C25.9042 56.3465 26.0303 56.9928 26.0303 57.7147C26.9037 57.7567 27.7765 57.7867 28.6506 57.8066C28.9465 57.8149 29.2424 57.8262 29.5381 57.8409C31.8864 57.9543 33.3756 57.5498 35.2312 56.0418C35.5668 55.6775 35.5668 55.6775 35.8193 55.323C36.3217 54.7346 36.4372 54.6935 37.1655 54.5911C37.4243 54.5868 37.683 54.5825 37.9497 54.578C38.0187 54.647 38.0877 54.716 38.1588 54.7871C38.7995 54.8305 39.4367 54.8614 40.0783 54.8843C40.4751 54.9008 40.8718 54.9172 41.2685 54.9338C41.8967 54.9588 42.5249 54.9832 43.1532 55.0066C43.7577 55.0295 44.362 55.0548 44.9663 55.0804C45.1545 55.0867 45.3427 55.0931 45.5367 55.0996C45.7993 55.1111 45.7993 55.1111 46.0673 55.1228C46.2213 55.1287 46.3753 55.1345 46.534 55.1406C46.9414 55.2054 46.9414 55.2054 47.5688 55.6236C48.0731 55.665 48.579 55.6889 49.0848 55.702C50.7861 55.7712 50.7861 55.7712 51.5157 56.264C52.7855 57.0512 54.5032 56.6617 55.9463 56.5123C56.1033 56.4994 56.2603 56.4864 56.4221 56.4731C57.5478 56.3563 58.5666 56.1015 59.4881 55.4145C59.7152 54.9464 59.7152 54.9464 59.6711 54.4473C59.6701 54.1423 59.6772 53.8369 59.6972 53.5325C59.8352 53.3945 59.9733 53.2564 60.1154 53.1142C60.8351 53.1881 61.1754 53.3329 61.7883 53.7416C62.836 53.6909 63.6972 53.6222 64.5068 52.9051C64.6765 52.486 64.8054 52.0771 64.9111 51.6374C65.1341 51.2322 65.1341 51.2322 65.7435 50.9472C66.7587 50.4087 66.8944 49.615 67.2661 48.5751C67.4247 47.9259 67.4472 47.6042 67.2906 46.9716C67.2252 46.2136 67.2252 46.2136 67.509 45.868C68.4599 45.0703 69.4386 44.3769 70.4902 43.718C72.773 42.2877 74.4025 40.8536 75.9189 38.6186C76.3604 38.0985 76.8152 38.1166 77.4717 38.0582C77.4782 37.8636 77.4846 37.669 77.4913 37.4685C77.666 36.264 78.383 35.3168 79.04 34.3204C79.1629 34.1193 79.2859 33.9182 79.4125 33.711C80.3486 32.2827 80.3486 32.2827 81.1065 32.0506C81.6123 32.012 81.6123 32.012 82.0789 32.0368C82.5202 32.0363 82.5202 32.0363 82.8083 31.6551C82.8888 31.5254 82.9694 31.3957 83.0523 31.2621C83.6384 30.3405 84.3529 29.8476 85.2611 29.2756C85.3923 29.1924 85.5235 29.1092 85.6586 29.0236C86.6096 28.4391 86.6096 28.4391 87.0908 28.4391C87.0714 28.2361 87.052 28.0332 87.032 27.824C87.032 26.7744 87.5232 25.9977 88.0318 25.1064C88.1216 24.9435 88.2113 24.7805 88.3038 24.6126C88.5241 24.2137 88.7481 23.8169 88.9728 23.4204ZM89.8092 24.466C89.5663 24.9176 89.3275 25.3706 89.0904 25.8252C89.0224 25.9508 88.9543 26.0765 88.8842 26.2059C88.5155 26.9204 88.3219 27.449 88.3005 28.257C88.1219 29.1378 88.0862 29.2002 87.3898 29.6668C87.075 29.8504 86.7573 30.0292 86.4373 30.2035C85.1318 30.9685 84.2678 31.6275 83.4232 32.9056C83.1177 33.2487 83.1177 33.2487 82.2943 33.3271C82.1552 33.3282 82.0161 33.3292 81.8728 33.3304C80.8539 33.6337 80.3161 34.9103 79.7719 35.758C79.5686 36.0162 79.3641 36.2734 79.1576 36.5291C78.6317 37.3739 78.5689 37.9126 78.5172 38.8947C78.2674 38.9656 78.0175 39.0365 77.76 39.1095C76.6882 39.5125 76.2217 40.1926 75.5766 41.1034C74.2702 42.8283 72.8289 43.8626 70.9892 44.9589C69.4873 45.7466 69.4873 45.7466 68.5853 47.0582C68.6053 47.5118 68.6053 47.5118 68.6719 47.9763C68.7087 49.1318 68.1977 50.2382 67.6435 51.2322C67.2628 51.5402 67.2628 51.5402 66.8724 51.7289C66.6438 51.841 66.4152 51.9532 66.1797 52.0687C66.0298 52.5535 65.8906 53.0417 65.7615 53.5325C64.7612 54.6042 63.76 54.9545 62.3087 55.0199C61.8554 55.0221 61.4047 55.0151 60.9519 54.9962C60.9174 55.1817 60.8829 55.3672 60.8473 55.5582C60.4117 56.5203 59.8029 56.8563 58.8608 57.2965C58.1477 57.4903 57.4381 57.5828 56.7043 57.6624C56.5102 57.6859 56.316 57.7093 56.116 57.7335C55.7356 57.7789 55.355 57.8226 54.9741 57.8646C54.5607 57.9131 54.1491 57.9768 53.7384 58.0447C52.4529 58.2416 51.8756 58.0318 50.801 57.3251C49.9567 56.9344 49.1309 57.0429 48.2198 57.1119C47.5688 57.0874 47.5688 57.0874 47.0247 56.7812C46.1085 56.3671 45.3251 56.3437 44.3308 56.3146C44.0495 56.3028 44.0495 56.3028 43.7625 56.2907C43.1668 56.266 42.571 56.2452 41.975 56.2248C41.3762 56.2022 40.7774 56.1788 40.1786 56.1544C39.8067 56.1394 39.4349 56.1257 39.0629 56.1132C37.7868 56.0649 37.7868 56.0649 37.3223 55.8327C37.1781 55.9871 37.0339 56.1416 36.8853 56.3007C36.2877 56.8979 35.63 57.3193 34.9045 57.7539C34.6713 57.8949 34.4381 58.0359 34.1979 58.1811C33.9868 58.3032 33.7758 58.4253 33.5583 58.5511C33.4252 58.6358 33.292 58.7204 33.1548 58.8076C32.4931 59.0548 31.8366 59.0213 31.1405 59.0086C30.911 59.0065 30.911 59.0065 30.677 59.0045C28.847 58.9798 27.0202 58.8725 25.1939 58.7603C24.7766 57.1663 24.4203 55.576 24.1483 53.9507C23.9461 53.938 23.744 53.9254 23.5357 53.9123C23.2634 53.8948 22.9912 53.8773 22.7107 53.8592C22.5675 53.8501 22.4244 53.8409 22.2769 53.8315C21.4727 53.7784 20.6746 53.7073 19.8746 53.6109C18.9611 53.5114 18.1528 53.5907 17.2476 53.7416C16.9279 52.3127 16.9279 52.3127 17.2106 51.6893C17.4712 51.3256 17.7474 50.9913 18.0449 50.6572C18.9094 49.6607 18.9094 49.6607 19.5479 48.5138C19.0401 48.006 17.9911 48.1048 17.3154 48.0662C16.4603 48.1023 15.9852 48.1904 15.3942 48.8201C14.8058 50.1324 14.826 51.7294 15.1565 53.1142C15.6347 53.9117 16.2636 54.2933 17.0385 54.7871C17.394 55.0567 17.7422 55.3342 18.0905 55.613C18.4661 55.9135 18.8453 56.2091 19.2252 56.5041C20.1123 57.1978 20.9731 57.9209 21.8285 58.6532C22.2979 59.0344 22.7538 59.3744 23.253 59.7102C23.4504 59.8487 23.4504 59.8487 23.6517 59.99C23.9017 60.1643 24.1564 60.3323 24.4162 60.4915C25.7726 61.457 25.9117 63.0886 26.2394 64.6154C26.3245 64.992 26.41 65.3685 26.4958 65.7449C26.7783 66.992 27.0518 68.241 27.3242 69.4903C27.4652 70.1362 27.6064 70.7821 27.7483 71.4278C27.8359 71.8263 27.923 72.225 28.0095 72.6237C28.0682 72.8911 28.0682 72.8911 28.1281 73.1639C28.1623 73.3206 28.1964 73.4774 28.2316 73.6389C28.3201 74.0414 28.3201 74.0414 28.5396 74.4436C29.1411 74.5874 29.7312 74.704 30.34 74.8079C30.5323 74.8422 30.7246 74.8765 30.9228 74.9119C31.5744 75.0277 32.2266 75.1408 32.8787 75.2539C33.3439 75.336 33.8091 75.4182 34.2743 75.5006C35.7066 75.7535 37.1394 76.0031 38.5724 76.2521C39.1467 76.3519 39.7211 76.4519 40.2955 76.552C42.7337 76.9765 45.1719 77.4005 47.6104 77.823C51.3934 78.4785 55.1743 79.1441 58.9523 79.8282C62.1774 80.4117 65.4031 80.9917 68.6314 81.5576C69.0572 81.6324 69.4829 81.7075 69.9086 81.7828C70.4922 81.8861 71.076 81.9882 71.6599 82.09C71.9175 82.136 71.9175 82.136 72.1804 82.1828C73.3559 82.3983 73.3559 82.3983 74.5441 82.3898C75.4004 81.6087 76.2979 80.5455 76.5225 79.3806C76.4706 78.8306 76.3508 78.3259 76.217 77.7894C76.1268 77.3147 76.0442 76.8392 75.9636 76.3629C75.9071 76.0306 75.8474 75.6988 75.7843 75.3677C75.43 73.4121 76.0028 72.3293 77.0012 70.6665C78.1336 68.7217 79.1313 66.7414 80.0594 64.6938C80.1206 64.5616 80.1817 64.4294 80.2446 64.2933C80.4186 63.9158 80.5879 63.5362 80.757 63.1565C80.8547 62.9385 80.9524 62.7205 81.053 62.496C81.254 61.8369 81.2427 61.4995 81.0266 60.8514C80.9144 60.7306 80.8023 60.6098 80.6868 60.4854C80.225 59.7298 80.4588 58.9761 80.6084 58.1329C80.926 58.0013 81.2441 57.8708 81.5624 57.7408C81.8281 57.6317 81.8281 57.6317 82.0991 57.5203C83.5735 56.9706 84.8904 56.7987 86.4504 56.7476C86.6532 56.7395 86.8561 56.7314 87.0651 56.723C87.5615 56.7035 88.058 56.6856 88.5546 56.6691C87.9606 56.0378 87.2915 55.6665 86.5288 55.2707C86.402 55.2037 86.2752 55.1367 86.1445 55.0677C85.8331 54.9035 85.521 54.7406 85.2088 54.578C85.3203 53.9297 85.4346 53.5023 85.7577 52.9182C86.1044 52.146 86.0707 51.8274 85.8361 51.0231C85.6679 50.7126 85.6679 50.7126 85.4963 50.3958C85.1447 49.6286 85.1681 49.3131 85.4179 48.5138C85.5637 48.3426 85.7096 48.1715 85.8598 47.9951C86.4328 46.9262 86.2101 46.0678 86.0714 44.8936C85.8898 42.7287 85.8898 42.7287 86.4496 41.7234C87.3811 40.8721 88.134 40.5024 89.391 40.3585C90.4412 41.8229 90.4412 41.8229 90.4235 42.6195C90.2275 43.0769 90.2275 43.0769 89.8092 43.7042C89.9473 43.8423 90.0853 43.9803 90.2275 44.1225C90.3496 43.9522 90.3496 43.9522 90.4742 43.7786C91.4312 42.5547 92.2653 42.1153 93.7824 41.8222C93.7495 41.6058 93.7166 41.3893 93.6827 41.1663C93.4889 39.62 93.5067 38.0524 93.4834 36.496C93.4422 34.9071 93.2389 33.504 92.7368 31.994C92.5985 31.9619 92.4601 31.9299 92.3176 31.8968C91.9877 31.8203 91.6577 31.7438 91.3278 31.6673C90.8324 31.5559 90.8324 31.5559 90.2275 31.5758C90.0341 29.942 90.0183 28.3681 90.1098 26.727C90.1208 26.508 90.1317 26.289 90.1429 26.0633C90.1697 25.5308 90.1979 24.9984 90.2275 24.466C90.0895 24.466 89.9514 24.466 89.8092 24.466Z" fill="#DDDDDD"/>
</svg>
