<svg width="108" height="108" viewBox="0 0 108 108" fill="none" xmlns="http://www.w3.org/2000/svg">
<rect width="107.065" height="107.065" transform="translate(0.738281)" fill=""/>
<path d="M36.5476 10.2073C37.5975 10.8417 38.5059 11.6678 39.4129 12.4885C40.3017 13.2842 41.1364 13.9249 42.3504 14.102C43.0074 14.0544 43.0074 14.0544 43.5528 13.6053C44.5998 12.9409 45.6304 12.8427 46.8472 13.0572C47.6256 13.2816 48.1285 13.5246 48.7414 14.0627C49.1365 14.8186 49.1585 15.2567 49.042 16.1016C48.3843 17.6744 47.0454 18.9588 45.4871 19.6565C45.4871 20.0705 45.4871 20.4846 45.4871 20.9111C45.6079 20.9629 45.7286 21.0147 45.8531 21.068C46.4232 21.3847 46.773 21.6355 47.16 22.1658C47.1731 22.9108 47.1731 22.9108 46.9509 23.6296C46.1603 24.3504 45.4708 24.2775 44.4416 24.2569C44.5321 24.4634 44.6227 24.6699 44.716 24.8826C44.8337 25.1533 44.9513 25.4239 45.0689 25.6946C45.1287 25.8307 45.1886 25.9668 45.2502 26.1071C45.6962 27.1371 45.6962 27.1371 45.6962 27.6027C45.9334 27.62 46.1707 27.6372 46.415 27.655C47.7076 27.8203 48.827 28.2551 49.787 29.1449C50.161 29.828 50.1954 30.1779 50.0876 30.9485C49.9323 31.2914 49.9323 31.2914 49.7739 31.6412C49.3976 32.5662 49.2697 33.3094 49.4602 34.2943C50.4332 35.8109 51.8242 36.4685 53.4726 37.0127C53.8434 37.1378 54.2143 37.2631 54.5851 37.3885C54.901 37.4946 54.901 37.4946 55.2233 37.6029C55.8982 37.8339 56.5699 38.0721 57.2413 38.3132C61.3421 39.8439 61.3421 39.8439 65.5879 40.8551C65.7334 40.8789 65.8788 40.9027 66.0287 40.9272C67.0722 41.0555 68.1366 40.9584 69.1167 40.5676C69.6216 39.8102 69.5561 39.5122 69.5088 38.6203C69.485 37.0969 69.485 37.0969 69.9009 36.4377C70.3591 35.9794 70.5692 35.8037 71.2078 35.758C71.376 36.0492 71.376 36.0492 71.5476 36.3462C71.6242 36.4774 71.7007 36.6087 71.7796 36.744C71.9757 37.0981 72.159 37.4593 72.335 37.8238C72.4375 38.0306 72.5399 38.2373 72.6455 38.4503C72.787 38.7471 72.787 38.7471 72.9313 39.0499C73.2702 39.5731 73.2702 39.5731 73.9018 39.7328C74.5537 39.7879 74.5537 39.7879 75.0265 39.4395C75.8725 38.9435 76.6866 38.9852 77.6511 38.9601C77.8358 38.9529 78.0206 38.9458 78.211 38.9384C78.6647 38.9212 79.1185 38.9076 79.5723 38.8947C79.4698 38.6648 79.3674 38.4348 79.2619 38.1979C78.9449 37.4309 78.9449 37.4309 78.8926 36.8689C79.2671 36.1761 79.7748 36.0989 80.4896 35.8185C81.7468 35.1983 82.8137 34.1066 83.663 33.0004C84.6701 31.8383 85.4838 31.1695 87.0627 31.0498C87.4367 31.0374 87.8109 31.0298 88.185 31.0269C88.3665 31.0246 88.5479 31.0224 88.7348 31.0201C89.8903 31.0456 90.5766 31.2289 91.4916 31.994C92.1189 32.705 92.1189 32.705 92.1189 33.2487C92.2785 33.2703 92.4381 33.2918 92.6025 33.3141C93.2367 33.4763 93.4177 33.5561 93.7918 34.0852C93.8457 34.7648 93.8457 34.7648 93.818 35.5489C93.7737 36.6138 93.7737 36.6138 94.0009 37.64C92.9106 37.9227 91.8291 38.1561 90.7172 38.3384C90.1576 38.4993 89.8284 38.711 89.4005 39.1038C89.2045 39.6918 89.178 39.9935 89.2004 40.5946C89.2107 41.5962 89.0631 42.5085 88.8385 43.4821C88.8012 43.6458 88.7638 43.8094 88.7253 43.9781C88.3021 45.7323 87.7204 47.356 86.2638 48.5138C85.8137 48.6437 85.8137 48.6437 85.4274 48.7229C85.4349 48.9922 85.4425 49.2615 85.4502 49.539C85.4494 50.5962 85.2854 51.5742 85.0614 52.6046C85.0285 52.7716 84.9957 52.9385 84.9618 53.1106C84.7165 54.2682 84.321 55.212 83.7545 56.2509C83.4785 56.2509 83.2024 56.2509 82.918 56.2509C82.652 55.7188 82.6364 55.271 82.5807 54.6777C82.5449 54.3316 82.5449 54.3316 82.5084 53.9785C82.4593 53.4913 82.4125 53.0039 82.3679 52.5163C82.3432 52.2851 82.3186 52.0538 82.2932 51.8155C82.2726 51.6035 82.252 51.3916 82.2308 51.1732C82.0522 50.4931 81.7752 50.2168 81.2451 49.7685C81.1546 50.0661 81.1546 50.0661 81.0622 50.3697C80.8269 51.0232 80.8269 51.0232 80.4087 51.4414C79.9121 51.4414 79.9121 51.4414 79.3632 51.2323C78.8537 50.696 78.5652 50.2799 78.4703 49.5349C78.5217 48.1225 79.2208 47.3707 80.1996 46.4227C80.3883 46.234 80.577 46.0453 80.7714 45.8509C80.9277 45.6946 81.0841 45.5382 81.2451 45.3772C81.0158 45.3742 81.0158 45.3742 80.7819 45.3712C80.0866 45.36 79.3917 45.3425 78.6966 45.3249C78.456 45.3219 78.2154 45.319 77.9676 45.3159C77.6188 45.3058 77.6188 45.3058 77.2631 45.2955C77.0495 45.2911 76.836 45.2867 76.616 45.2822C75.7447 45.1161 75.2122 44.6584 74.6925 43.9518C74.6208 43.8313 74.549 43.7108 74.4752 43.5866C73.9315 42.7949 73.395 42.5138 72.4625 42.2405C71.6694 42.1878 71.6694 42.1878 70.9987 42.2405C71.0936 42.3958 71.1885 42.551 71.2862 42.711C71.4544 42.9956 71.4544 42.9956 71.626 43.286C71.708 43.4154 71.7899 43.5448 71.8744 43.6781C72.1303 44.3474 72.1202 44.8776 72.0443 45.5863C71.626 46.096 71.626 46.096 71.2078 46.4227C71.4941 47.1792 71.84 47.8699 72.2272 48.5792C73.1788 50.473 74.3397 53.5086 73.7171 55.6236C72.8698 56.3413 71.8239 56.4754 70.7634 56.6822C70.4272 56.7488 70.0912 56.8165 69.7555 56.8856C69.6077 56.9145 69.46 56.9434 69.3077 56.9731C68.8445 57.0834 68.8445 57.0834 68.2803 57.5056C68.0516 58.0152 68.0516 58.0152 67.8751 58.6034C67.5565 59.5313 67.2066 60.2739 66.6074 61.0605C66.4202 61.3084 66.4202 61.3084 66.2292 61.5612C64.9874 63.0376 63.2901 64.1314 61.7325 65.2509C60.2312 66.3463 58.8255 67.5361 57.4596 68.7952C57.082 69.1322 56.707 69.421 56.2956 69.7125C55.5865 70.4051 55.2977 71.1214 54.9339 72.0339C54.6911 72.555 54.5183 72.8466 54.0607 73.189C53.6539 73.2829 53.6539 73.2829 53.1981 73.3327C52.0973 73.5368 51.5244 74.1173 50.7647 74.9084C50.1941 75.3615 49.7584 75.4226 49.042 75.4892C49.0359 76.1906 49.0322 76.892 49.0289 77.5934C49.0272 77.7906 49.0254 77.9877 49.0236 78.1909C49.0199 79.2662 49.0783 80.2801 49.2511 81.3443C49.3953 83.1126 49.1682 84.5408 48.4147 86.1539C48.3457 86.2229 48.2767 86.2919 48.2056 86.363C48.1777 86.8593 48.1572 87.3561 48.1402 87.8529C48.0273 89.899 47.3979 90.76 45.9372 92.1527C45.2574 92.8831 44.7495 93.7084 44.2235 94.5534C43.4012 95.7433 42.3551 96.7748 41.0043 97.3152C40.1494 97.4652 39.7768 97.4137 39.0047 97.0276C36.5742 95.0121 35.6153 91.4355 34.5741 88.5717C33.9306 86.8028 33.1864 85.1285 32.3392 83.4485C28.4722 75.6712 26.9032 66.9348 26.2489 58.3421C25.9482 58.3713 25.6476 58.4018 25.3471 58.4327C25.1797 58.4496 25.0123 58.4664 24.8398 58.4837C24.3321 58.5402 24.3321 58.5402 23.7395 58.7733C22.6162 59.1244 21.6371 59.1609 20.5637 58.6557C19.9416 58.1028 19.4997 57.5292 19.0215 56.853C18.6379 56.3516 18.1681 56.0153 17.6753 55.6236C17.2724 55.1667 16.8853 54.7148 16.6298 54.1598C16.7333 53.7458 16.7333 53.7458 16.8389 53.3234C17.736 53.1164 18.633 52.9093 19.5573 52.6961C19.3454 52.6303 19.1336 52.5645 18.9153 52.4967C18.6326 52.4065 18.35 52.316 18.0674 52.2256C17.9283 52.1827 17.7892 52.1398 17.6459 52.0957C16.4261 51.701 15.1652 51.161 14.5386 49.9776C14.4228 49.1995 14.4752 48.8346 14.8654 48.1479C15.7673 47.3153 16.7148 47.2241 17.8983 47.2714C18.2816 47.2953 18.6647 47.3218 19.0476 47.3506C20.7735 47.4796 20.7735 47.4796 22.4849 47.2592C22.5539 46.7761 22.6229 46.2931 22.694 45.7954C22.556 45.7954 22.418 45.7954 22.2758 45.7954C21.0995 44.5936 20.6365 43.3905 20.5767 41.7177C20.5854 41.5452 20.594 41.3727 20.6029 41.1949C20.1198 41.1259 19.6368 41.0569 19.1391 40.9858C18.777 40.2235 18.6591 39.7044 18.9169 38.9078C19.4304 37.708 20.3716 36.8881 21.4393 36.1763C22.4952 36.0803 22.9197 36.1751 23.7395 36.8036C25.1043 36.8415 26.2955 35.5217 27.2291 34.6471C28.3274 33.5229 29.2411 32.2437 30.182 30.9885C30.7285 30.2624 31.3017 29.5718 31.8949 28.8835C32.6394 27.9912 33.0877 27.1105 33.5269 26.0401C33.9041 25.2425 34.4247 24.6829 35.0316 24.0478C34.8323 23.9616 34.6331 23.8753 34.4279 23.7864C31.7553 22.5803 31.7553 22.5803 31.1916 21.4307C30.6442 19.2948 31.0636 17.258 31.8949 15.2651C31.7663 15.1818 31.6377 15.0986 31.5053 15.0127C31.2517 14.8466 31.2517 14.8466 30.9931 14.677C30.8257 14.5678 30.6583 14.4587 30.4858 14.3462C30.2517 14.18 30.2517 14.18 30.0129 14.0105C29.8848 13.9234 29.7568 13.8363 29.6249 13.7466C29.3855 13.3831 29.3855 13.3831 29.37 12.6749C29.6484 11.7386 30.0931 11.405 30.8885 10.913C31.0067 10.8334 31.1249 10.7537 31.2467 10.6716C32.9736 9.54214 34.6683 9.26934 36.5476 10.2073ZM29.8038 12.5467C30.0876 13.4805 30.4624 13.8523 31.2675 14.3895C31.5457 14.5791 31.5457 14.5791 31.8295 14.7726C32.2798 15.0913 32.2798 15.0913 32.7313 15.056C32.6218 15.3132 32.6218 15.3132 32.51 15.5755C32.4148 15.8009 32.3197 16.0262 32.2216 16.2584C32.127 16.4816 32.0324 16.7048 31.9349 16.9348C31.4337 18.2034 31.1868 19.5849 31.6123 20.9177C32.3695 22.3934 33.6037 22.974 35.123 23.4858C35.51 23.6059 35.8975 23.7244 36.2862 23.8387C36.1752 23.9099 36.0641 23.981 35.9497 24.0543C34.8211 24.8287 34.2893 25.5114 33.7769 26.7663C33.2576 27.9804 32.6112 28.8509 31.7127 29.8188C31.2588 30.331 30.8652 30.8602 30.4703 31.419C27.0536 36.201 27.0536 36.201 24.7851 37.2218C23.723 37.3336 23.3081 37.2256 22.4849 36.5945C21.5609 36.6182 21.0427 37.0073 20.3938 37.64C19.8435 38.3606 19.4004 39.0129 19.2437 39.9141C19.3137 40.4386 19.3137 40.4386 19.9755 40.7767C20.5245 40.8117 20.5245 40.8117 21.0211 40.7767C21.0219 40.9894 21.0219 40.9894 21.0227 41.2064C21.093 42.8987 21.5814 44.3088 22.8353 45.5013C23.1122 45.7954 23.1122 45.7954 23.1776 46.4227C23.1122 47.05 23.1122 47.05 22.694 47.6774C21.9959 47.9101 21.4957 47.9007 20.7613 47.8849C20.3752 47.8796 20.3752 47.8796 19.9813 47.8742C19.4388 47.865 18.8965 47.8541 18.3541 47.8416C18.0961 47.8386 17.8382 47.8356 17.5724 47.8326C17.3366 47.828 17.1007 47.8234 16.8578 47.8186C16.1241 47.8957 15.7376 48.0501 15.166 48.5138C15.0078 49.3755 15.0078 49.3755 15.166 50.1867C15.9843 51.029 16.94 51.3344 18.0282 51.6897C19.7486 52.2689 19.7486 52.2689 20.1847 52.4869C20.1847 52.694 20.1847 52.901 20.1847 53.1143C19.1496 53.3213 18.1144 53.5283 17.048 53.7416C17.8208 54.8088 18.5811 55.7817 19.5573 56.6692C19.6953 56.6692 19.8333 56.6692 19.9755 56.6692C20.0467 56.9021 20.0467 56.9021 20.1193 57.1397C20.4714 57.8774 20.7157 58.1592 21.4393 58.5512C23.225 58.6985 25.1647 57.9622 26.8762 57.5056C26.8733 57.6573 26.8705 57.8091 26.8675 57.9654C26.851 59.512 26.9413 61.0153 27.1245 62.5504C27.1522 62.7838 27.1799 63.0172 27.2084 63.2576C27.7269 67.4138 28.5992 71.4793 29.8038 75.4892C29.8514 75.6495 29.899 75.8099 29.948 75.9751C30.917 79.1912 32.2391 82.3042 33.7777 85.288C34.4459 86.6109 34.9441 87.973 35.4367 89.3689C36.7536 93.6437 36.7536 93.6437 39.632 96.8185C40.5031 96.9672 41.0501 96.7882 41.7885 96.348C43.2216 95.3313 44.1479 93.8306 45.091 92.3749C45.5113 91.7647 45.9576 91.4235 46.5327 90.9634C47.4435 89.749 47.5866 88.9528 47.6436 87.4608C47.7116 86.3829 47.8245 85.5986 48.4277 84.6982C48.9951 83.4643 48.8276 82.1458 48.6369 80.8477C48.3772 78.873 48.3686 77.0489 48.6238 75.071C48.9036 75.0443 48.9036 75.0443 49.189 75.0171C49.9756 74.84 50.2834 74.5905 50.8717 74.0515C51.6108 73.4185 52.1418 73.0891 53.0935 72.8884C53.8503 72.708 53.8503 72.708 54.3556 72.1442C54.564 71.6616 54.7368 71.1801 54.8971 70.6796C55.3399 69.7277 55.9501 69.2818 56.7848 68.6849C57.3262 68.2839 57.7726 67.8157 58.2429 67.3338C59.4149 66.2081 60.6473 65.2921 62.0085 64.4071C62.9639 63.7673 63.8522 63.0623 64.7254 62.3152C64.8609 62.1998 64.9965 62.0844 65.1362 61.9656C66.3453 60.8544 67.3321 59.3646 67.6137 57.7278C67.8896 57.0163 67.9693 56.9441 68.6201 56.6169C69.8359 56.1525 71.1246 55.963 72.4037 55.7519C73.056 55.6968 73.056 55.6968 73.2989 55.4145C73.3256 52.0708 72.2023 49.1691 70.3714 46.4227C70.5827 46.2804 70.794 46.1381 71.0118 45.9914C71.3634 45.715 71.3634 45.715 71.626 45.3772C71.668 44.2217 71.2289 43.579 70.5805 42.6587C70.5805 42.4517 70.5805 42.2447 70.5805 42.0314C71.3015 41.6709 72.0908 41.7438 72.8807 41.8223C73.5864 42.1229 73.5864 42.1229 74.1354 42.4496C74.3424 42.5186 74.5494 42.5876 74.7627 42.6587C74.8468 42.8916 74.8468 42.8916 74.9326 43.1292C75.2696 43.9096 75.6858 44.3682 76.4356 44.7498C77.3325 44.9067 78.219 44.9151 79.1279 44.9197C79.3716 44.925 79.6153 44.9302 79.8663 44.9357C80.4654 44.9479 81.0642 44.9555 81.6634 44.9589C81.4088 45.8887 81.1437 46.4011 80.4218 47.037C79.6442 47.7861 79.1739 48.2819 78.9449 49.3503C79.1447 49.9625 79.4305 50.485 79.7814 51.0232C79.9194 51.0232 80.0574 51.0232 80.1996 51.0232C80.4853 50.6639 80.4853 50.6639 80.7485 50.2129C80.8418 50.0624 80.935 49.912 81.0311 49.7571C81.2776 49.3652 81.2776 49.3652 81.2451 48.9321C82.0424 49.4986 82.408 49.8867 82.7089 50.8141C82.7882 51.3517 82.7882 51.3517 82.8266 51.9152C82.85 52.22 82.85 52.22 82.8739 52.5311C82.9036 52.958 82.933 53.3849 82.9622 53.8119C82.9856 54.1151 82.9856 54.1151 83.0095 54.4245C83.0222 54.6095 83.0349 54.7945 83.0479 54.985C83.0741 55.1268 83.1002 55.2685 83.1272 55.4145C83.2652 55.4835 83.4032 55.5525 83.5454 55.6236C84.4984 53.1486 84.8683 51.1804 84.8 48.5138C84.9936 48.4575 85.1871 48.4012 85.3865 48.3431C86.5114 47.9265 87.0578 47.1694 87.5593 46.0976C88.3336 44.0731 88.6056 42.1193 88.7013 39.9615C88.7694 39.3466 88.854 38.9878 89.1914 38.4765C90.3528 37.6604 91.7914 37.6041 93.1645 37.4309C93.2222 36.9213 93.2735 36.4124 93.3213 35.9018C93.3383 35.7575 93.3553 35.6131 93.3728 35.4644C93.4237 34.9881 93.4237 34.9881 93.3736 34.2943C92.9681 33.8734 92.6537 33.7143 92.1189 33.497C91.5098 33.1354 91.2533 32.5776 90.8643 31.994C89.7269 31.1789 87.8081 31.403 86.4729 31.5758C85.375 31.932 84.6854 32.7316 83.8942 33.5362C83.7678 33.6645 83.6414 33.7928 83.5112 33.9249C83.2616 34.182 83.0155 34.4425 82.7737 34.7069C81.879 35.6547 80.9926 36.1329 79.7814 36.5945C79.6434 36.6635 79.5053 36.7325 79.3632 36.8036C79.6167 37.5824 79.8877 38.3464 80.1996 39.1038C79.8802 39.4233 79.5825 39.3467 79.1377 39.357C78.9638 39.363 78.79 39.3689 78.6108 39.375C78.2444 39.3858 77.8779 39.3951 77.5114 39.4028C76.4733 39.4412 75.8438 39.5399 74.9718 40.1494C74.3864 40.2924 73.8857 40.2895 73.2989 40.1494C72.1643 39.1768 71.6259 37.7174 70.9987 36.3854C70.8607 36.3854 70.7227 36.3854 70.5805 36.3854C69.88 37.436 69.904 38.3178 69.9515 39.5629C69.953 40.0871 69.8986 40.4887 69.744 40.9858C65.8816 42.3903 61.4773 40.3851 57.8247 39.1038C57.603 39.0268 57.3813 38.9497 57.1529 38.8703C56.4569 38.6278 55.7618 38.3827 55.067 38.1367C54.8523 38.0614 54.6376 37.9862 54.4164 37.9086C53.0582 37.4217 51.7828 36.8465 50.5058 36.1763C50.3534 36.1052 50.2009 36.0341 50.0439 35.9608C49.4368 35.6321 49.3256 35.124 49.0967 34.5017C48.7782 33.3272 48.9097 32.582 49.3009 31.4419C49.527 30.7416 49.5909 30.2104 49.4602 29.4847C48.4629 28.5641 47.033 28.0644 45.6832 27.9817C45.5495 27.9947 45.4158 28.0076 45.278 28.0209C45.2424 27.9118 45.2068 27.8026 45.1702 27.6901C44.7443 26.3965 44.2848 25.1167 43.8142 23.8387C44.0687 23.8516 44.3232 23.8646 44.5853 23.8779C45.3971 23.875 45.9112 23.7746 46.5327 23.2114C46.7246 22.7072 46.7246 22.7072 46.5327 22.1658C46.2196 21.9208 45.9057 21.6764 45.5851 21.4413C45.012 20.8422 44.9605 20.0354 44.8598 19.2383C45.0102 19.1878 45.1606 19.1374 45.3156 19.0855C45.9885 18.7826 46.432 18.4141 46.977 17.9182C47.1544 17.7595 47.3318 17.6007 47.5145 17.4371C47.9898 16.9449 48.3199 16.5042 48.6238 15.8925C48.608 15.1191 48.5112 14.7569 48.0226 14.1542C47.0905 13.4141 45.9969 13.4881 44.8598 13.5922C44.0609 13.908 44.0609 13.908 43.396 14.4287C42.2787 14.6038 41.35 14.5562 40.39 13.9321C39.7309 13.4421 39.1085 12.9111 38.4825 12.3799C36.4255 10.6073 36.4255 10.6073 33.8226 10.1672C32.2344 10.4385 31.0121 11.551 29.8038 12.5467Z" fill="#06C270"/>
</svg>
