<svg width="108" height="108" viewBox="0 0 108 108" fill="none" xmlns="http://www.w3.org/2000/svg">
<rect width="107.065" height="107.065" transform="translate(0.804688)" fill=""/>
<path d="M50.5741 0.836426C51.2015 0.836426 51.2015 0.836426 51.7242 1.32C51.8968 1.50545 52.0693 1.69091 52.247 1.88198C52.3721 1.99843 52.4972 2.11488 52.626 2.23486C52.8743 2.50932 52.8743 2.50932 52.8743 2.92754C53.0684 2.98792 53.2625 3.0483 53.4625 3.11051C54.129 3.34576 54.129 3.34576 54.7563 3.76398C55.2915 3.74254 55.8016 3.65743 56.3304 3.57448C56.9116 3.55244 57.194 3.67302 57.6839 3.97309C57.6839 4.11111 57.6839 4.24912 57.6839 4.39132C57.8155 4.35142 57.947 4.31153 58.0825 4.27043C59.3065 3.95336 60.0212 3.9343 61.1351 4.5506C61.4479 4.80954 61.4479 4.80954 61.657 5.43687C61.4327 5.9632 61.1242 6.41302 60.8206 6.90065C60.5446 6.90065 60.2685 6.90065 59.9841 6.90065C59.9841 7.31469 59.9841 7.72873 59.9841 8.15532C60.1912 8.22433 60.3982 8.29333 60.6115 8.36443C60.97 9.08154 60.8319 9.87362 60.8206 10.6647C61.6487 10.8027 62.4767 10.9407 63.3299 11.0829C63.3299 11.3589 63.3299 11.6349 63.3299 11.9193C64.2215 12.4126 64.2215 12.4126 65.2119 12.5467C65.3499 12.7537 65.4879 12.9607 65.6301 13.174C66.4355 13.4321 67.162 13.3741 67.9957 13.2916C68.2192 13.2703 68.4426 13.249 68.6729 13.2271C68.8419 13.2096 69.0109 13.192 69.185 13.174C69.185 13.312 69.185 13.45 69.185 13.5922C69.8061 13.7992 69.8061 13.7992 70.4397 14.0104C70.4397 14.2175 70.4397 14.4245 70.4397 14.6378C69.819 15.2585 69.5245 15.5331 68.6623 15.7095C68.4962 15.7445 68.3302 15.7795 68.1591 15.8157C67.7212 15.8924 67.7212 15.8924 67.303 15.8924C67.1499 16.369 67.0636 16.6379 67.2246 17.121C67.3322 17.7308 67.1368 17.9513 66.7933 18.4541C66.6449 18.6756 66.6449 18.6756 66.4935 18.9017C66.4156 19.0127 66.3377 19.1238 66.2575 19.2382C66.1195 19.1002 65.9814 18.9622 65.8392 18.82C65.7702 19.027 65.7012 19.234 65.6301 19.4473C65.4231 19.4473 65.2161 19.4473 65.0028 19.4473C65.0028 19.0333 65.0028 18.6192 65.0028 18.1927C64.7958 18.1927 64.5888 18.1927 64.3755 18.1927C64.3755 18.3307 64.3755 18.4687 64.3755 18.6109C63.7544 18.5419 63.1333 18.4729 62.4935 18.4018C62.4935 18.5398 62.4935 18.6778 62.4935 18.82C62.8385 18.889 63.1835 18.958 63.539 19.0291C63.539 19.6564 63.539 19.6564 63.3299 20.0747C62.7089 19.8676 62.0878 19.6606 61.4479 19.4473C61.5169 19.7234 61.5859 19.9994 61.657 20.2838C61.381 20.2838 61.105 20.2838 60.8206 20.2838C60.8206 20.4218 60.8206 20.5598 60.8206 20.702C60.6136 20.84 60.4065 20.978 60.1932 21.1202C60.1249 21.616 60.1249 21.616 60.1671 22.1658C60.2111 23.1755 60.2111 23.1755 59.9841 23.6296C59.7383 23.677 59.4925 23.7244 59.2392 23.7733C58.2595 23.9858 57.7331 24.4989 57.0476 25.2061C56.5326 25.5905 56.2206 25.5701 55.5928 25.5116C55.5604 25.7897 55.5604 25.7897 55.5274 26.0735C55.3837 26.7662 55.3837 26.7662 55.07 27.2237C54.6508 28.0096 54.6414 28.7245 54.5913 29.6047C54.5472 30.112 54.5472 30.112 54.3381 30.5302C54.2001 30.5302 54.0621 30.5302 53.9199 30.5302C53.9199 30.8753 53.9199 31.2203 53.9199 31.5758C53.7129 31.5758 53.5059 31.5758 53.2926 31.5758C53.367 32.2273 53.4644 32.5751 53.8807 33.0918C54.2967 33.6148 54.4956 33.9997 54.7433 34.6079C55.4596 36.2747 56.9587 37.2937 58.5612 38.0721C58.9386 38.2673 58.9386 38.2673 59.213 38.6333C59.3568 39.1038 59.3568 39.1038 59.2261 39.6788C59.0889 40.868 59.6941 41.6573 60.3934 42.559C61.2862 43.6004 62.1623 44.4035 63.3618 45.0741C63.7481 45.3771 63.7481 45.3771 63.945 45.8705C64.6061 47.5197 66.6114 48.6711 68.1068 49.5087C68.6515 49.8225 69.1188 50.2059 69.6033 50.6049C69.7585 50.6825 69.9138 50.7602 70.0737 50.8402C70.4397 51.0231 70.4397 51.0231 70.6488 51.4414C70.8558 51.5104 71.0628 51.5794 71.2761 51.6505C71.2761 51.7885 71.2761 51.9265 71.2761 52.0687C71.6212 52.0687 71.9662 52.0687 72.3217 52.0687C72.3217 52.2757 72.3217 52.4827 72.3217 52.696C72.1837 52.696 72.0457 52.696 71.9035 52.696C71.994 52.847 72.0846 52.9979 72.1779 53.1535C72.394 53.5135 72.608 53.8748 72.8183 54.2382C73.1821 54.8258 73.582 55.3745 73.997 55.9266C74.2037 56.2509 74.2037 56.2509 74.2037 56.6691C74.4107 56.6691 74.6177 56.6691 74.831 56.6691C74.9 56.8071 74.969 56.9452 75.0401 57.0874C75.1652 57.1046 75.2903 57.1219 75.4192 57.1396C76.1754 57.3989 76.3633 57.8517 76.713 58.5511C76.7286 58.9792 76.7286 58.9792 76.7 59.4399C76.6436 60.4853 77.0199 61.1354 77.5144 62.0358C77.8362 62.6795 77.8914 63.2757 77.9677 63.988C78.2045 64.8819 78.4928 65.7609 78.7756 66.6411C78.8324 66.8223 78.8893 67.0034 78.9479 67.19C79.0005 67.3531 79.053 67.5162 79.1072 67.6842C79.3395 68.6646 79.2199 69.3519 78.8041 70.2614C78.9422 70.2614 79.0802 70.2614 79.2224 70.2614C79.4576 71.4638 79.4576 71.4638 79.2224 71.9343C79.266 72.419 79.266 72.419 79.3792 72.9537C79.4126 73.1343 79.4461 73.3149 79.4805 73.501C79.6117 74.0395 79.6117 74.0395 79.9706 74.4583C80.2679 74.8618 80.2679 74.8618 80.2679 75.6983C80.1299 75.8363 79.9919 75.9743 79.8497 76.1165C80.0567 76.427 80.0567 76.427 80.2679 76.7438C80.1895 77.3058 80.1895 77.3058 80.0588 77.7894C79.7138 77.7204 79.3687 77.6514 79.0133 77.5803C79.0133 77.3042 79.0133 77.0282 79.0133 76.7438C78.7498 77.1562 78.7498 77.1562 78.921 77.6146C78.9816 77.7844 79.0423 77.9542 79.1047 78.1292C79.1649 78.3001 79.225 78.471 79.2869 78.6471C79.3346 78.7781 79.3823 78.9091 79.4315 79.044C79.2245 79.1131 79.0174 79.1821 78.8041 79.2532C78.8041 79.3912 78.8041 79.5292 78.8041 79.6714C79.0112 79.7404 79.2182 79.8094 79.4315 79.8805C79.4315 80.0185 79.4315 80.1565 79.4315 80.2987C79.1555 80.2987 78.8794 80.2987 78.595 80.2987C78.664 80.4842 78.733 80.6696 78.8041 80.8607C78.9968 81.4989 79.0863 81.9412 79.0133 82.5989C78.8752 82.7369 78.7372 82.875 78.595 83.0172C78.664 83.2242 78.733 83.4312 78.8041 83.6445C78.4382 84.311 78.4382 84.311 77.9677 84.8992C77.7607 84.8992 77.5537 84.8992 77.3404 84.8992C77.2951 85.255 77.2951 85.255 77.2489 85.618C77.1313 86.3629 77.1313 86.3629 76.9221 86.572C76.4343 86.5806 75.9462 86.5809 75.4584 86.572C75.3894 86.9171 75.3204 87.2621 75.2493 87.6176C75.0207 87.6349 74.7921 87.6521 74.5566 87.6699C73.7779 87.7455 73.7779 87.7455 73.4195 88.258C73.3333 88.3917 73.247 88.5254 73.1581 88.6632C72.9511 88.6632 72.7441 88.6632 72.5308 88.6632C72.4618 88.8702 72.3928 89.0772 72.3217 89.2905C71.7094 89.4946 71.2853 89.5168 70.6488 89.4996C70.5755 89.7368 70.5022 89.974 70.4266 90.2184C70.251 90.6277 70.251 90.6277 70.0215 90.9634C69.368 91.0941 69.368 91.0941 68.5577 91.1725C67.9045 91.4762 67.2959 91.8524 66.6757 92.2181C65.721 92.7302 64.7885 93.1582 63.7481 93.4727C63.5411 93.5417 63.3341 93.6107 63.1208 93.6818C63.1208 93.4058 63.1208 93.1298 63.1208 92.8454C62.9612 92.9446 62.8016 93.0438 62.6372 93.146C62.0752 93.4727 62.0752 93.4727 61.4479 93.6818C61.4652 93.9018 61.4824 94.1217 61.5002 94.3484C61.4391 95.2798 61.207 95.5054 60.6115 96.1912C60.5296 96.537 60.4608 96.8861 60.4024 97.2367C59.7957 98.9123 59.7957 98.9123 58.9386 99.3278C58.6578 99.2664 58.3788 99.1965 58.1021 99.1187C57.6316 99.2233 57.6316 99.2233 57.2657 99.5369C57.1324 100.069 57.1324 100.069 57.0566 100.583C56.9045 100.628 56.7525 100.674 56.5959 100.721C53.2818 101.707 53.2818 101.707 51.0512 104.168C50.718 104.65 50.506 104.659 49.9468 104.765C49.8821 104.898 49.8174 105.032 49.7507 105.17C49.5286 105.601 49.5286 105.601 49.0842 105.863C48.2112 106.09 47.222 106.225 46.3919 105.81C46.3919 105.603 46.3919 105.396 46.3919 105.183C46.5299 105.183 46.6679 105.183 46.8101 105.183C46.8228 104.93 46.8355 104.677 46.8485 104.417C46.9028 103.348 46.9606 102.279 47.0192 101.21C47.0271 101.062 47.0349 100.914 47.0429 100.761C47.2038 97.7827 47.2038 97.7827 47.6466 96.6094C48.1955 96.2173 48.1955 96.2173 48.6921 95.9821C48.6921 95.844 48.6921 95.706 48.6921 95.5638C48.4894 95.5078 48.2867 95.4517 48.0779 95.3939C47.8665 95.312 47.6552 95.23 47.4375 95.1456C47.3339 94.8351 47.3339 94.8351 47.2283 94.5183C47.1076 94.5485 46.9868 94.5787 46.8624 94.6098C46.4268 94.7187 45.9911 94.8276 45.5555 94.9365C45.4606 94.6993 45.3657 94.4621 45.2679 94.2177C45.0178 93.4628 45.0178 93.4628 44.5099 93.2636C44.5099 93.0566 44.5099 92.8496 44.5099 92.6363C45.0196 92.2965 45.0196 92.2965 45.5555 92.0089C45.6245 91.9399 45.6935 91.8709 45.7646 91.7998C46.1171 91.7848 46.4703 91.7823 46.8232 91.7868C47.0154 91.7887 47.2076 91.7905 47.4056 91.7925C47.5541 91.7949 47.7027 91.7973 47.8557 91.7998C47.9117 91.6661 47.9678 91.5324 48.0256 91.3947C48.2739 90.9634 48.2739 90.9634 48.9012 90.7543C48.8322 90.2022 48.7632 89.6502 48.6921 89.0814C49.529 88.7466 50.1654 89.0202 50.9923 89.2905C51.1304 89.1525 51.2684 89.0145 51.4106 88.8723C52.3109 88.5857 53.401 88.2887 54.3381 88.454C54.5527 88.7287 54.7621 89.0075 54.9655 89.2905C55.2415 89.2905 55.5175 89.2905 55.8019 89.2905C56.2724 89.4996 56.2724 89.4996 56.6384 89.7087C56.7074 89.2257 56.7764 88.7426 56.8475 88.2449C56.5024 88.1759 56.1574 88.1069 55.8019 88.0358C55.7329 87.8288 55.6639 87.6218 55.5928 87.4085C55.3858 87.3395 55.1788 87.2705 54.9655 87.1994C54.9655 87.0614 54.9655 86.9234 54.9655 86.7812C54.8274 86.7812 54.6894 86.7812 54.5472 86.7812C54.5211 85.3697 54.5211 85.3697 54.7563 84.8992C54.5493 84.8302 54.3423 84.7611 54.129 84.69C54.2859 84.2849 54.2859 84.2849 54.5472 83.8536C54.8239 83.7758 55.1029 83.7059 55.3837 83.6445C55.5217 83.4375 55.6597 83.2305 55.8019 83.0172C56.0982 83.0824 56.3944 83.1477 56.6906 83.2132C56.9381 83.2678 56.9381 83.2678 57.1905 83.3235C57.6352 83.4243 58.078 83.5339 58.5204 83.6445C58.5204 82.9544 58.5204 82.2644 58.5204 81.5534C58.684 81.5431 58.8476 81.5329 59.0162 81.5223C59.2278 81.5067 59.4394 81.4911 59.6574 81.475C59.8685 81.4604 60.0795 81.4458 60.297 81.4309C60.4698 81.4023 60.6426 81.3737 60.8206 81.3443C60.8896 81.2063 60.9586 81.0682 61.0297 80.926C61.5817 80.926 62.1338 80.926 62.7026 80.926C62.7026 80.788 62.7026 80.65 62.7026 80.5078C62.8406 80.5078 62.9786 80.5078 63.1208 80.5078C63.1682 80.3827 63.2157 80.2577 63.2646 80.1288C63.6261 79.5262 63.9409 79.322 64.5846 79.044C65.2511 79.1225 65.2511 79.1225 65.8392 79.2532C66.2908 79.0884 66.2908 79.0884 66.3857 78.6716C66.4687 78.1954 66.5017 77.7498 66.5058 77.2666C66.5088 77.1092 66.5117 76.9518 66.5148 76.7896C66.4608 76.2701 66.2905 75.9473 66.0484 75.4892C65.9313 74.5141 66.0929 73.8603 66.4797 72.9798C66.8777 72.0483 66.9639 71.4695 66.6757 70.4705C66.3467 69.6813 66.3467 69.6813 65.8392 69.0067C65.8307 68.5886 65.8304 68.1702 65.8392 67.752C65.6322 67.683 65.4252 67.614 65.2119 67.5429C64.8177 66.1093 65.3766 65.1506 65.983 63.8704C66.2827 63.0855 66.3055 62.5206 66.2575 61.6878C66.2575 61.4808 66.2575 61.2738 66.2575 61.0605C66.1925 60.711 66.1235 60.3623 66.0484 60.0149C66.2554 59.9459 66.4624 59.8769 66.6757 59.8058C66.7447 59.1157 66.8137 58.4257 66.8848 57.7147C66.6778 57.6457 66.4708 57.5767 66.2575 57.5056C66.2575 57.3676 66.2575 57.2296 66.2575 57.0874C65.9124 57.0184 65.5674 56.9493 65.2119 56.8782C65.1429 56.6022 65.0739 56.3262 65.0028 56.0418C64.8648 56.0418 64.7268 56.0418 64.5846 56.0418C64.2693 55.5411 64.1652 55.2547 64.1794 54.6564C64.3755 54.1598 64.3755 54.1598 64.8852 53.9376C65.062 53.8729 65.2388 53.8082 65.421 53.7416C65.7021 53.3197 65.7021 53.3197 65.8392 52.9051C65.7271 52.9569 65.615 53.0086 65.4994 53.062C64.7153 53.1445 64.3434 52.7566 63.7481 52.2778C63.6748 52.1268 63.6015 51.9759 63.526 51.8204C63.4613 51.6953 63.3966 51.5702 63.3299 51.4414C63.166 51.4112 63.0021 51.381 62.8333 51.3499C62.0815 51.1888 61.8739 50.8021 61.4479 50.1867C61.1029 50.2557 60.7578 50.3247 60.4024 50.3958C60.3075 50.2017 60.2126 50.0076 60.1148 49.8077C59.7871 49.1329 59.7871 49.1329 59.3568 48.5138C59.2702 47.9951 59.2702 47.9951 59.2261 47.429C59.2027 47.1464 59.2027 47.1464 59.1787 46.8581C59.1685 46.7144 59.1582 46.5707 59.1477 46.4227C58.9407 46.3537 58.7336 46.2847 58.5204 46.2136C58.3276 45.8547 58.1355 45.4949 57.9674 45.1239C57.6883 44.6972 57.6883 44.6972 57.0958 44.4623C56.3176 44.0655 55.9083 43.6088 55.3445 42.9462C54.6567 42.0911 54.6567 42.0911 53.7108 41.6131C52.9938 40.4928 52.4587 39.3208 52.0379 38.0582C51.6929 38.0582 51.3478 38.0582 50.9923 38.0582C50.9233 37.8512 50.8543 37.6442 50.7832 37.4309C50.5956 37.3403 50.5956 37.3403 50.4042 37.2479C49.7616 36.9174 49.4719 36.5929 49.1103 35.9671C49.2982 35.1985 49.2982 35.1985 49.5286 34.5033C49.2063 34.4192 49.2063 34.4192 48.8775 34.3334C47.1515 33.8555 45.8182 33.3203 44.398 32.1884C43.4827 31.4719 42.4789 30.9124 41.3863 30.5172C40.955 30.3211 40.955 30.3211 40.6805 29.8768C40.6094 29.6827 40.6094 29.6827 40.5368 29.4847C41.5301 28.8573 41.5301 28.8573 42.0006 28.8573C41.8971 27.9257 41.8971 27.9257 41.7915 26.9753C42.2619 26.964 42.7324 26.9559 43.203 26.9492C43.465 26.9443 43.727 26.9395 43.9969 26.9345C44.674 26.9728 44.988 27.0568 45.5555 27.3936C45.6935 27.3936 45.8315 27.3936 45.9737 27.3936C46.0513 27.193 46.0513 27.193 46.1305 26.9884C46.3919 26.5571 46.3919 26.5571 46.8363 26.4003C46.9656 26.383 47.095 26.3658 47.2283 26.348C47.2499 26.197 47.2715 26.0461 47.2937 25.8906C47.4375 25.3024 47.4375 25.3024 48.0648 24.2569C47.3057 23.9809 46.5466 23.7048 45.7646 23.4204C45.7646 23.0064 45.7646 22.5924 45.7646 22.1658C45.04 22.2693 45.04 22.2693 44.3008 22.3749C44.2318 22.0299 44.1628 21.6848 44.0917 21.3293C44.2944 21.1956 44.4971 21.0619 44.7059 20.9242C45.2962 20.5563 45.2962 20.5563 45.5555 20.2838C45.1414 20.0768 45.1414 20.0768 44.719 19.8656C44.719 19.7275 44.719 19.5895 44.719 19.4473C44.5982 19.4258 44.4775 19.4042 44.3531 19.382C43.8826 19.2382 43.8826 19.2382 43.4774 18.9115C42.7312 18.3914 42.1227 18.5916 41.2556 18.7285C40.282 19.1356 40.1353 19.5533 39.7003 20.4929C39.1696 20.3946 38.8288 20.2616 38.3673 19.9701C37.7533 19.6193 37.26 19.5381 36.5637 19.4473C36.3566 19.3783 36.1496 19.3093 35.9363 19.2382C35.8673 19.1002 35.7983 18.9622 35.7272 18.82C35.572 18.7337 35.4167 18.6475 35.2567 18.5586C34.5295 18.0958 34.1442 17.6348 33.6361 16.938C33.6361 16.731 33.6361 16.524 33.6361 16.3107C33.4291 16.3107 33.2221 16.3107 33.0088 16.3107C33.0088 16.1036 33.0088 15.8966 33.0088 15.6833C33.1468 15.6833 33.2848 15.6833 33.427 15.6833C33.4141 15.4936 33.4011 15.3038 33.3878 15.1083C33.4314 14.3518 33.5735 14.15 34.0543 13.5922C34.1233 13.3852 34.1923 13.1782 34.2634 12.9649C34.0694 13.0166 34.0694 13.0166 33.8714 13.0694C33.427 13.174 33.427 13.174 33.0088 13.174C32.6596 13.2405 32.311 13.3099 31.9632 13.3831C31.9301 13.2594 31.8969 13.1356 31.8628 13.0082C31.531 11.8845 31.184 11.2526 30.2903 10.4555C30.2903 10.3175 30.2903 10.1795 30.2903 10.0373C29.9453 9.89931 29.6003 9.7613 29.2448 9.6191C29.2448 9.48109 29.2448 9.34307 29.2448 9.20088C29.1068 9.20088 28.9687 9.20088 28.8266 9.20088C28.8266 9.06286 28.8266 8.92485 28.8266 8.78265C28.6885 8.78265 28.5505 8.78265 28.4083 8.78265C28.3393 8.43762 28.2703 8.09259 28.1992 7.7371C28.3211 7.69019 28.4429 7.64329 28.5684 7.59497C29.1694 7.23982 29.4341 6.82572 29.8198 6.24718C29.9481 6.05687 30.0764 5.86656 30.2086 5.67049C30.3046 5.52439 30.4006 5.37829 30.4994 5.22776C31.7609 5.30828 32.8448 5.68593 33.8452 6.48243C34.0037 6.93578 34.0037 6.93578 34.0543 7.31888C34.5532 7.19846 35.0302 7.06328 35.5181 6.90065C35.5959 6.62399 35.6658 6.34496 35.7272 6.06421C35.8652 5.9952 36.0033 5.92619 36.1454 5.8551C36.3825 5.43338 36.3825 5.43338 36.5637 5.01865C37.0603 5.07093 37.0603 5.07093 37.6092 5.22776C37.8837 5.65905 37.8837 5.65905 38.0274 6.06421C38.2345 5.71917 38.4415 5.37414 38.6548 5.01865C39.4062 5.13783 39.7364 5.4084 40.2493 5.95965C40.7534 6.50712 40.7534 6.50712 41.3732 6.90065C41.4315 6.50602 41.4315 6.50602 41.4909 6.10342C41.6211 5.55843 41.6825 5.30501 42.1451 4.97699C42.5495 4.80954 42.5495 4.80954 43.2552 4.60043C43.4623 5.01447 43.4623 5.01447 43.6735 5.43687C44.4337 5.35016 44.4337 5.35016 45.0196 4.90103C45.3463 4.60043 45.3463 4.60043 46.0129 4.56122C46.207 4.57416 46.401 4.5871 46.601 4.60043C46.67 4.46242 46.739 4.3244 46.8101 4.18221C46.9481 4.18221 47.0861 4.18221 47.2283 4.18221C47.1248 3.45764 47.1248 3.45764 47.0192 2.71843C47.2263 2.71843 47.4333 2.71843 47.6466 2.71843C47.6466 2.58041 47.6466 2.4424 47.6466 2.3002C48.531 1.79481 49.1361 1.60003 50.1559 1.67287C50.1559 1.53486 50.1559 1.39684 50.1559 1.25465C50.2939 1.25465 50.4319 1.25465 50.5741 1.25465C50.5741 1.11663 50.5741 0.978621 50.5741 0.836426ZM50.7832 1.25465C50.6452 1.53068 50.5072 1.8067 50.365 2.09109C50.158 2.02209 49.951 1.95308 49.7377 1.88198C49.202 2.08632 49.202 2.08632 48.6529 2.39169C48.4645 2.49062 48.2761 2.58955 48.0819 2.69147C47.8664 2.80832 47.8664 2.80832 47.6466 2.92754C47.6025 3.74194 47.6025 3.74194 47.8557 4.39132C47.5106 4.52933 47.1656 4.66734 46.8101 4.80954C46.8101 4.94755 46.8101 5.08557 46.8101 5.22776C46.5858 5.17601 46.3616 5.12425 46.1305 5.07093C45.8717 5.05368 45.613 5.03643 45.3463 5.01865C45.0592 5.28889 44.7796 5.56744 44.5099 5.8551C43.961 5.84203 43.961 5.84203 43.4643 5.64599C43.2573 5.33545 43.2573 5.33545 43.0461 5.01865C42.504 5.21427 42.504 5.21427 42.0006 5.64599C41.8408 6.21626 41.8208 6.72117 41.7915 7.31888C40.6954 6.91053 40.1084 6.49527 39.2821 5.64599C39.0751 5.64599 38.8681 5.64599 38.6548 5.64599C38.5858 5.92201 38.5168 6.19804 38.4457 6.48243C38.2387 6.48243 38.0316 6.48243 37.8183 6.48243C37.6029 6.13777 37.3936 5.78922 37.191 5.43687C37.053 5.43687 36.915 5.43687 36.7728 5.43687C36.7038 5.7129 36.6348 5.98893 36.5637 6.27332C36.43 6.29488 36.2963 6.31645 36.1585 6.33867C36.0162 6.38611 35.8739 6.43355 35.7272 6.48243C35.6237 6.79296 35.6237 6.79296 35.5181 7.10976C35.3801 7.17877 35.2421 7.24778 35.0999 7.31888C35.0999 7.45689 35.0999 7.5949 35.0999 7.7371C34.6168 7.66809 34.1338 7.59908 33.6361 7.52799C33.6178 7.39914 33.5995 7.27029 33.5806 7.13754C33.4676 6.66954 33.4676 6.66954 33.0774 6.44159C32.934 6.37743 32.7906 6.31328 32.6428 6.24718C32.493 6.17871 32.3431 6.11024 32.1887 6.0397C31.6979 5.83121 31.2079 5.62413 30.7086 5.43687C30.618 5.63096 30.5274 5.82504 30.4341 6.025C30.1324 6.59494 29.8937 6.8791 29.4539 7.31888C29.4539 7.5259 29.4539 7.73292 29.4539 7.94621C29.2469 7.94621 29.0398 7.94621 28.8266 7.94621C28.9366 8.77167 29.295 9.07403 29.9244 9.59296C31.8527 11.251 31.8527 11.251 32.1331 12.416C32.1461 12.5971 32.159 12.7782 32.1723 12.9649C32.5864 12.8614 32.5864 12.8614 33.0088 12.7558C33.0088 12.4107 33.0088 12.0657 33.0088 11.7102C33.1468 11.7792 33.2848 11.8482 33.427 11.9193C33.496 12.1263 33.565 12.3334 33.6361 12.5467C33.9121 12.5467 34.1882 12.5467 34.4726 12.5467C34.3842 13.2831 34.2894 13.9413 34.0282 14.6378C33.8016 15.4148 33.8767 15.9445 34.0543 16.7289C34.1923 16.9359 34.3304 17.1429 34.4726 17.3562C34.6106 17.3562 34.7486 17.3562 34.8908 17.3562C35.0288 17.7013 35.1668 18.0463 35.309 18.4018C35.585 18.4018 35.8611 18.4018 36.1454 18.4018C36.2145 18.6088 36.2835 18.8158 36.3546 19.0291C37.0419 19.1963 37.3395 19.2584 38.0274 19.0291C38.0274 19.1671 38.0274 19.3051 38.0274 19.4473C38.5105 19.6543 38.9935 19.8614 39.4912 20.0747C39.4912 19.9366 39.4912 19.7986 39.4912 19.6564C39.6292 19.6564 39.7673 19.6564 39.9095 19.6564C39.9264 19.5262 39.9434 19.396 39.9609 19.2619C40.1186 18.82 40.1186 18.82 40.4919 18.5937C41.6576 18.2198 42.4783 18.0883 43.6735 18.4018C44.3116 18.8079 44.8128 19.3321 45.3463 19.8656C45.6569 19.9691 45.6569 19.9691 45.9737 20.0747C45.9737 20.2817 45.9737 20.4887 45.9737 20.702C45.4906 20.978 45.0076 21.2541 44.5099 21.5384C44.5789 21.7455 44.6479 21.9525 44.719 22.1658C44.9584 22.0623 44.9584 22.0623 45.2026 21.9567C45.7646 21.7476 45.7646 21.7476 46.3919 21.7476C46.4609 21.9546 46.5299 22.1616 46.601 22.3749C46.463 22.3749 46.325 22.3749 46.1828 22.3749C46.0793 22.6854 46.0793 22.6854 45.9737 23.0022C46.2695 23.1381 46.5659 23.273 46.8624 23.4074C47.1099 23.5202 47.1099 23.5202 47.3623 23.6353C47.8051 23.8178 48.2251 23.946 48.6921 24.0478C48.5886 24.2117 48.4851 24.3756 48.3785 24.5444C48.0302 25.0485 48.0302 25.0485 48.0648 25.5116C47.9268 25.5116 47.7888 25.5116 47.6466 25.5116C47.6466 25.8566 47.6466 26.2016 47.6466 26.5571C47.4007 26.6412 47.4007 26.6412 47.1499 26.727C46.5422 26.9436 46.5422 26.9436 46.1828 27.6027C45.3856 27.6999 44.7255 27.5559 43.961 27.3543C43.2266 27.1767 43.2266 27.1767 42.5103 27.4066C42.1569 27.796 42.1569 27.796 42.2227 28.3215C42.2184 28.4983 42.2141 28.6751 42.2097 28.8573C41.6869 29.3148 41.6869 29.3148 41.1641 29.6938C41.1641 29.8318 41.1641 29.9698 41.1641 30.112C41.2975 30.1349 41.431 30.1578 41.5685 30.1814C41.7412 30.2146 41.914 30.2477 42.092 30.2819C42.2643 30.3134 42.4365 30.345 42.614 30.3775C42.7566 30.4279 42.8992 30.4783 43.0461 30.5302C43.1151 30.7372 43.1841 30.9443 43.2552 31.1576C43.7054 31.4344 43.7054 31.4344 44.2485 31.6673C44.8714 31.9607 45.3496 32.2058 45.8822 32.6475C46.6125 33.2092 47.3995 33.405 48.2739 33.6669C48.6271 33.7834 48.98 33.901 49.3325 34.0198C49.4902 34.0723 49.6479 34.1249 49.8104 34.1791C49.9244 34.2171 50.0384 34.2551 50.1559 34.2942C50.1559 34.5013 50.1559 34.7083 50.1559 34.9216C50.0179 34.9216 49.8799 34.9216 49.7377 34.9216C49.575 35.4028 49.575 35.4028 49.5286 35.9671C49.7786 36.4575 49.7786 36.4575 50.1559 36.8036C50.2939 36.8036 50.4319 36.8036 50.5741 36.8036C50.5741 36.9416 50.5741 37.0796 50.5741 37.2218C51.1475 37.6746 51.1475 37.6746 51.7112 37.6923C52.247 37.8491 52.247 37.8491 52.7044 38.4111C53.0585 39.0581 53.2784 39.6587 53.5017 40.3585C53.8627 41.1206 53.8627 41.1206 54.5219 41.5911C55.0516 41.8671 55.3294 42.1879 55.7104 42.6456C55.9489 42.9297 56.1884 43.213 56.4292 43.4951C56.5303 43.6162 56.6314 43.7372 56.7356 43.8619C57.0959 44.2103 57.0959 44.2103 57.893 44.1225C57.9461 44.2384 57.9992 44.3543 58.0539 44.4737C58.1259 44.6252 58.1979 44.7767 58.272 44.9328C58.3424 45.0832 58.4127 45.2336 58.4852 45.3886C58.7283 45.8592 58.7283 45.8592 59.3568 46.2136C59.4948 46.1446 59.6328 46.0756 59.775 46.0045C59.7319 46.1382 59.6888 46.2719 59.6443 46.4096C59.5367 47.2885 59.6893 48.0974 59.9841 48.932C60.1221 49.001 60.2602 49.07 60.4024 49.1411C60.5331 49.5724 60.5331 49.5724 60.6115 49.9776C60.7365 49.9129 60.8616 49.8482 60.9905 49.7815C61.4479 49.5594 61.4479 49.5594 62.0752 49.3502C62.1443 49.7643 62.2133 50.1783 62.2844 50.6049C62.4224 50.6049 62.5604 50.6049 62.7026 50.6049C62.7026 50.7429 62.7026 50.8809 62.7026 51.0231C62.8665 51.0404 63.0304 51.0576 63.1992 51.0754C63.3804 51.1272 63.5615 51.1789 63.7481 51.2322C63.8944 51.5075 64.034 51.7864 64.1664 52.0687C64.595 52.2371 64.595 52.2371 65.0028 52.2778C65.0028 52.4158 65.0028 52.5538 65.0028 52.696C65.3478 52.627 65.6929 52.558 66.0484 52.4869C66.0222 53.1796 66.0222 53.1796 65.8392 53.9507C65.1988 54.3558 65.1988 54.3558 64.5846 54.578C64.6536 54.9921 64.7226 55.4061 64.7937 55.8327C65.0007 55.8327 65.2077 55.8327 65.421 55.8327C65.434 55.9578 65.4469 56.0828 65.4602 56.2117C65.7018 56.8621 66.0627 57.0046 66.6757 57.2965C66.8827 57.2965 67.0897 57.2965 67.303 57.2965C67.303 58.2626 67.303 59.2287 67.303 60.224C66.958 60.293 66.613 60.362 66.2575 60.4331C66.3615 60.5189 66.4656 60.6046 66.5728 60.6929C66.8848 61.0605 66.8848 61.0605 66.9224 61.4673C66.7578 62.6449 66.4564 63.7094 66.0484 64.8245C65.9293 65.1638 65.8117 65.5036 65.6955 65.8439C65.6429 65.9943 65.5904 66.1447 65.5362 66.2997C65.3925 66.7366 65.3925 66.7366 65.421 67.3338C65.628 67.4028 65.8351 67.4718 66.0484 67.5429C66.1174 68.026 66.1864 68.509 66.2575 69.0067C66.3955 69.0067 66.5335 69.0067 66.6757 69.0067C67.3112 70.8338 67.2672 72.2573 66.4666 74.0254C66.4027 74.7669 66.3762 75.2864 66.6806 75.9695C66.9309 76.6622 66.9181 77.1868 66.8717 77.9201C66.8607 78.1557 66.8496 78.3913 66.8382 78.634C66.6757 79.2532 66.6757 79.2532 66.1407 79.6501C65.888 79.7642 65.888 79.7642 65.6301 79.8805C65.4921 79.7425 65.3541 79.6045 65.2119 79.4623C64.7211 79.4193 64.7211 79.4193 64.1664 79.6714C63.9238 79.9081 63.6892 80.1531 63.4606 80.4033C62.95 80.952 62.6305 81.2325 61.8792 81.3312C61.5622 81.3377 61.5622 81.3377 61.2388 81.3443C61.1698 81.5513 61.1008 81.7583 61.0297 81.9716C60.3396 81.9716 59.6496 81.9716 58.9386 81.9716C58.9386 82.6617 58.9386 83.3517 58.9386 84.0627C57.4894 83.7522 57.4894 83.7522 56.011 83.4354C55.873 83.6424 55.735 83.8494 55.5928 84.0627C55.0439 84.2065 55.0439 84.2065 54.5472 84.2718C54.6119 84.4875 54.6766 84.7031 54.7433 84.9253C54.8941 85.4365 54.9782 85.8652 55.0308 86.4021C55.1316 87.0302 55.1316 87.0302 55.6581 87.4869C56.23 87.8988 56.23 87.8988 57.0566 87.8267C57.1256 88.2408 57.1946 88.6548 57.2657 89.0814C57.1277 89.1504 56.9897 89.2194 56.8475 89.2905C56.9165 89.5665 56.9855 89.8425 57.0566 90.1269C56.6482 90.0112 56.2397 89.8955 55.8313 89.7798C55.3378 89.7014 55.019 89.7659 54.5472 89.9178C54.4092 89.5038 54.2712 89.0897 54.129 88.6632C53.754 88.7221 53.3794 88.7836 53.005 88.8461C52.7964 88.8801 52.5878 88.9141 52.3728 88.9491C51.799 89.0387 51.799 89.0387 51.4106 89.4996C50.8666 89.4947 50.8666 89.4947 50.2343 89.4212C50.0246 89.398 49.8149 89.3748 49.5988 89.3509C49.4376 89.331 49.2764 89.311 49.1103 89.2905C49.2139 90.0151 49.2139 90.0151 49.3195 90.7543C49.1556 90.8448 48.9917 90.9354 48.8228 91.0287C48.2285 91.3591 48.2285 91.3591 47.8557 92.0089C47.3574 92.1159 47.3574 92.1159 46.784 92.1527C46.5937 92.1665 46.4034 92.1802 46.2073 92.1944C46.0612 92.2022 45.9151 92.21 45.7646 92.2181C45.7646 92.3561 45.7646 92.4941 45.7646 92.6363C45.5575 92.7053 45.3505 92.7743 45.1372 92.8454C45.5513 93.6735 45.5513 93.6735 45.9737 94.5183C46.1678 94.4708 46.3618 94.4234 46.5618 94.3745C46.7818 94.353 47.0017 94.3314 47.2283 94.3092C47.5551 94.5836 47.5551 94.5836 47.8557 94.9365C48.0282 94.9969 48.2007 95.0573 48.3785 95.1195C49.0401 95.4172 49.2101 95.7632 49.5286 96.4003C49.4078 96.4218 49.287 96.4434 49.1626 96.4656C48.5831 96.6427 48.2906 96.8089 47.8557 97.2367C47.6682 97.9243 47.6682 97.9243 47.6074 98.7266C47.592 98.8718 47.5767 99.017 47.5609 99.1665C47.3951 100.819 47.3064 102.479 47.2283 104.137C47.5044 104.137 47.7804 104.137 48.0648 104.137C47.9225 104.258 47.7801 104.379 47.6335 104.503C47.4998 104.659 47.3661 104.814 47.2283 104.974C47.2955 105.417 47.2955 105.417 47.4375 105.81C48.7384 105.62 49.5032 105.405 50.365 104.347C50.585 104.088 50.585 104.088 50.8094 103.824C51.2106 103.324 51.2106 103.324 51.4465 102.793C51.9473 102.089 52.5473 101.828 53.3187 101.497C53.4588 101.434 53.5989 101.371 53.7433 101.306C54.5052 100.968 55.262 100.685 56.0633 100.452C56.8653 100.235 56.8653 100.235 57.2657 99.6415C57.4172 99.2627 57.5549 98.8784 57.6839 98.4914C57.8909 98.6294 58.0979 98.7674 58.3112 98.9096C58.8484 98.9591 58.8484 98.9591 59.3568 98.7005C59.7348 97.9812 59.7348 97.9812 59.9841 97.2367C60.0531 97.1677 60.1221 97.0987 60.1932 97.0276C60.2191 96.7904 60.245 96.5532 60.2717 96.3088C60.3148 96.063 60.3579 95.8171 60.4024 95.5638C60.6094 95.4258 60.8164 95.2878 61.0297 95.1456C61.1058 94.636 61.1058 94.636 61.0689 94.0739C61.0632 93.8836 61.0576 93.6933 61.0517 93.4972C61.0445 93.3511 61.0372 93.205 61.0297 93.0545C61.2669 93.0286 61.5041 93.0027 61.7485 92.9761C61.9943 92.933 62.2402 92.8898 62.4935 92.8454C62.5625 92.7074 62.6315 92.5694 62.7026 92.4272C62.8535 92.5005 63.0045 92.5738 63.16 92.6493C64.411 93.0664 65.5548 92.3521 66.6757 91.7998C67.0036 91.6145 67.3304 91.4272 67.6559 91.2378C68.3734 90.8275 68.9761 90.6095 69.8124 90.5452C69.8426 90.3468 69.8727 90.1484 69.9038 89.944C70.2306 89.2905 70.2306 89.2905 70.67 89.1288C71.01 89.0629 71.352 89.0066 71.6952 88.9605C71.8329 88.9314 71.9707 88.9023 72.1126 88.8723C72.1816 88.7343 72.2506 88.5962 72.3217 88.454C72.6005 88.3146 72.8793 88.1752 73.1581 88.0358C73.253 87.9323 73.3479 87.8288 73.4457 87.7222C73.9157 87.2883 74.4382 87.1909 75.0401 86.9903C75.148 86.8824 75.2558 86.7746 75.3669 86.6635C75.7743 86.2561 76.1578 86.2561 76.713 86.1538C76.9963 85.5874 76.9357 85.1063 76.9221 84.4809C77.2672 84.4119 77.6122 84.3429 77.9677 84.2718C78.1211 83.4401 78.1211 83.4401 78.1768 82.5989C78.3148 82.5299 78.4528 82.4609 78.595 82.3898C78.5465 82.2253 78.5465 82.2253 78.497 82.0574C78.3087 81.2031 78.291 80.3328 78.2356 79.4614C78.1997 78.8247 78.1997 78.8247 77.9677 78.2076C78.1057 78.2076 78.2437 78.2076 78.3859 78.2076C78.3406 77.8906 78.3406 77.8906 78.2944 77.5672C78.4213 76.4257 78.9986 75.9944 79.8497 75.28C79.6492 74.9695 79.6492 74.9695 79.4445 74.6527C78.9575 73.8068 78.8962 73.1096 78.8041 72.1434C78.6761 71.7215 78.5407 71.3015 78.3859 70.8887C78.5239 70.8887 78.662 70.8887 78.8041 70.8887C78.6661 70.2676 78.5281 69.6466 78.3859 69.0067C78.5239 69.0067 78.662 69.0067 78.8041 69.0067C78.3819 66.7924 78.3819 66.7924 77.7586 64.6284C77.5883 64.107 77.4721 63.6218 77.3665 63.0862C77.2216 62.3985 77.0155 61.8121 76.713 61.1781C76.3076 60.3221 76.1151 59.4966 75.9591 58.565C75.8948 58.1219 75.8948 58.1219 75.6675 57.7147C75.5402 57.6869 75.413 57.6592 75.2819 57.6306C74.4013 57.3865 73.8914 56.5434 73.3673 55.8327C73.1304 55.4045 72.9228 54.9726 72.7203 54.5274C72.4641 54.0304 72.1077 53.6939 71.6944 53.3234C71.6254 53.1853 71.5564 53.0473 71.4853 52.9051C71.2782 52.8361 71.0712 52.7671 70.8579 52.696C70.7142 52.2647 70.7142 52.2647 70.6488 51.8596C70.5108 51.8596 70.3728 51.8596 70.2306 51.8596C70.1616 51.6526 70.0926 51.4455 70.0215 51.2322C69.6636 51.0189 69.3045 50.807 68.9375 50.6098C68.4144 50.3151 67.9777 49.9383 67.5121 49.5594C67.1777 49.3271 66.8421 49.0963 66.5058 48.8667C63.8976 47.046 63.8976 47.046 63.5619 46.1156C63.2556 45.4166 62.8649 45.1926 62.2321 44.7759C61.2458 44.0887 60.4714 43.4281 59.775 42.4496C59.689 42.3339 59.603 42.2183 59.5144 42.0991C58.9298 41.2191 58.8684 40.5406 58.95 39.5253C58.9741 39.0366 58.9741 39.0366 58.5204 38.4765C58.0539 38.1746 57.5769 37.9032 57.086 37.6433C55.2884 36.626 54.3655 35.0724 53.5017 33.2487C53.3637 33.1107 53.2257 32.9726 53.0835 32.8305C53.0573 32.177 53.0573 32.177 53.0835 31.5758C53.2215 31.5068 53.3595 31.4378 53.5017 31.3667C54.0213 30.5769 54.1661 29.9248 54.2205 29.0011C54.2847 27.9781 54.5306 27.2286 54.999 26.3219C55.2173 25.906 55.2173 25.906 55.1746 25.3024C55.2983 25.2868 55.422 25.2712 55.5495 25.2551C56.8627 25.0366 57.2524 24.6753 58.1021 23.6296C58.6643 23.4034 59.1725 23.3135 59.775 23.2113C59.775 22.3833 59.775 21.5552 59.775 20.702C59.982 20.633 60.1891 20.564 60.4024 20.4929C60.764 20.2184 60.764 20.2184 61.0297 19.8656C61.0297 19.6585 61.0297 19.4515 61.0297 19.2382C61.2367 19.2382 61.4437 19.2382 61.657 19.2382C61.726 19.0312 61.795 18.8242 61.8661 18.6109C62.4935 18.1927 62.4935 18.1927 63.1731 18.2057C64.3854 18.1855 65.146 17.817 66.0353 17.0033C66.1776 16.8438 66.3199 16.6842 66.4666 16.5198C66.3976 16.3128 66.3286 16.1057 66.2575 15.8924C66.3739 15.8795 66.4904 15.8666 66.6103 15.8532C67.1497 15.7081 67.1497 15.7081 67.5644 15.1475C68.1798 14.602 68.2713 14.567 69.0413 14.5724C69.423 14.6048 69.423 14.6048 69.8124 14.6378C69.8124 14.4998 69.8124 14.3617 69.8124 14.2195C69.5795 14.0772 69.3466 13.9349 69.1066 13.7883C68.9756 13.7082 68.8446 13.6281 68.7096 13.5457C68.5905 13.492 68.4713 13.4384 68.3486 13.3831C68.1416 13.4866 68.1416 13.4866 67.9304 13.5922C67.609 13.6392 67.2864 13.6775 66.9632 13.7098C66.7923 13.7274 66.6214 13.7449 66.4453 13.7629C66.3143 13.7756 66.1833 13.7883 66.0484 13.8013C65.9794 13.6633 65.9103 13.5253 65.8392 13.3831C65.6322 13.5211 65.4252 13.6591 65.2119 13.8013C65.2033 13.6719 65.1947 13.5425 65.1858 13.4092C65.0952 13.1893 65.0952 13.1893 65.0028 12.9649C64.4095 12.7148 64.4095 12.7148 63.7481 12.5467C63.4664 12.4132 63.1862 12.2762 62.9117 12.1284C62.9117 11.9214 62.9117 11.7144 62.9117 11.5011C62.6357 11.5011 62.3596 11.5011 62.0752 11.5011C62.0752 11.3631 62.0752 11.2251 62.0752 11.0829C61.2093 11.039 61.2093 11.039 60.4024 11.292C60.4024 10.4639 60.4024 9.63583 60.4024 8.78265C60.1263 8.71365 59.8503 8.64464 59.5659 8.57354C59.6349 7.88348 59.7039 7.19341 59.775 6.48243C60.051 6.48243 60.3271 6.48243 60.6115 6.48243C61.107 5.86476 61.107 5.86476 61.0297 5.01865C60.6847 4.94964 60.3396 4.88064 59.9841 4.80954C59.9841 4.67153 59.9841 4.53351 59.9841 4.39132C59.8418 4.42582 59.6995 4.46032 59.5528 4.49587C58.8391 4.61735 58.1973 4.65496 57.4748 4.60043C57.2678 4.2899 57.2678 4.2899 57.0566 3.97309C56.1286 3.86765 55.4121 4.06185 54.5472 4.39132C54.5472 4.2533 54.5472 4.11529 54.5472 3.97309C53.8324 3.44209 53.3432 3.26972 52.4561 3.34576C52.4561 3.06973 52.4561 2.79371 52.4561 2.50932C51.8251 1.8658 51.8251 1.8658 50.9923 1.67287C50.8888 1.46585 50.8888 1.46585 50.7832 1.25465ZM68.3486 14.8469C68.2796 14.9849 68.2106 15.1229 68.1395 15.2651C68.2775 15.2651 68.4155 15.2651 68.5577 15.2651C68.4887 15.1271 68.4197 14.9891 68.3486 14.8469ZM66.0484 17.3562C65.9103 17.6322 65.7723 17.9083 65.6301 18.1927C65.8372 18.0546 66.0442 17.9166 66.2575 17.7744C66.1885 17.6364 66.1195 17.4984 66.0484 17.3562ZM62.0752 18.82C62.2844 19.2382 62.2844 19.2382 62.2844 19.2382L62.0752 18.82ZM62.4935 19.0291C62.7005 19.3396 62.7005 19.3396 62.9117 19.6564C62.9117 19.4494 62.9117 19.2424 62.9117 19.0291C62.7737 19.0291 62.6357 19.0291 62.4935 19.0291ZM71.067 52.0687C71.2761 52.4869 71.2761 52.4869 71.2761 52.4869L71.067 52.0687ZM78.3859 78.2076C78.5239 78.3456 78.662 78.4836 78.8041 78.6258C78.8041 78.4878 78.8041 78.3498 78.8041 78.2076C78.6661 78.2076 78.5281 78.2076 78.3859 78.2076Z" fill="white"/>
<path d="M41.1646 92.4272C41.9749 92.6102 41.9749 92.6102 42.2101 92.8455C42.2444 93.8576 42.2004 94.7761 42.001 95.773C41.794 95.773 41.587 95.773 41.3737 95.773C41.3508 95.6396 41.3279 95.5062 41.3042 95.3687C41.2711 95.1959 41.2379 95.0231 41.2038 94.8451C41.1565 94.5867 41.1565 94.5867 41.1082 94.3231C41.0326 94.1092 41.0326 94.1092 40.9555 93.891C40.7484 93.822 40.5414 93.753 40.3281 93.6819C40.3281 93.4749 40.3281 93.2679 40.3281 93.0546C40.5351 92.9856 40.7422 92.9166 40.9555 92.8455C41.0245 92.7075 41.0935 92.5694 41.1646 92.4272ZM41.3737 92.8455C41.0977 93.0525 40.8216 93.2595 40.5372 93.4728C40.8478 93.6798 40.8478 93.6798 41.1646 93.891C41.2336 94.098 41.3026 94.3051 41.3737 94.5184C41.5117 94.5184 41.6497 94.5184 41.7919 94.5184C41.8609 94.1043 41.9299 93.6903 42.001 93.2637C41.794 93.1257 41.587 92.9877 41.3737 92.8455Z" fill="white"/>
<path d="M68.9752 17.3562C68.9062 17.6322 68.8372 17.9083 68.7661 18.1926C68.4901 18.2617 68.2141 18.3307 67.9297 18.4018C67.9297 18.1257 67.9297 17.8497 67.9297 17.5653C68.557 17.3562 68.557 17.3562 68.9752 17.3562Z" fill="white"/>
<path d="M73.1602 53.3232C73.3672 53.3232 73.5742 53.3232 73.7875 53.3232C73.7875 53.5303 73.7875 53.7373 73.7875 53.9506C73.5805 53.8816 73.3734 53.8126 73.1602 53.7415C73.1602 53.6035 73.1602 53.4654 73.1602 53.3232Z" fill="white"/>
</svg>
