<svg width="108" height="108" viewBox="0 0 108 108" fill="none" xmlns="http://www.w3.org/2000/svg">
<rect width="107.065" height="107.065" transform="translate(0.0625)" fill=""/>
<path d="M92.0721 37.8491C92.4861 37.9526 92.4861 37.9526 92.9085 38.0582C92.9775 38.5413 93.0465 39.0243 93.1176 39.522C93.5822 39.0574 93.7295 38.6678 93.9541 38.0582C94.7905 38.0582 94.7905 38.0582 95.2087 38.2673C95.3394 38.8032 95.3394 38.8032 95.4178 39.3129C95.7629 39.3129 96.1079 39.3129 96.4634 39.3129C96.5151 39.4725 96.5669 39.6321 96.6202 39.7965C96.8321 40.3823 96.8321 40.3823 97.326 40.646C97.5201 40.8142 97.5201 40.8142 97.7181 40.9858C97.7703 41.7569 97.7703 41.7569 97.7181 42.4496C97.511 42.3806 97.304 42.3116 97.0907 42.2405C97.1597 42.5165 97.2287 42.7925 97.2998 43.0769C97.4378 43.0769 97.5759 43.0769 97.7181 43.0769C97.7181 43.2149 97.7181 43.3529 97.7181 43.4951C97.9574 43.3334 97.9574 43.3334 98.2016 43.1684C98.3871 43.0692 98.5725 42.97 98.7636 42.8678C98.9706 42.9368 99.1777 43.0058 99.3909 43.0769C99.4686 43.2775 99.4686 43.2775 99.5478 43.4821C99.9516 44.1484 100.539 44.136 101.273 44.3316C101.701 44.5955 102.119 44.8759 102.528 45.168C103.543 45.8851 104.171 46.3053 105.455 46.2136C105.873 46.6318 105.873 46.6318 105.952 47.2461C105.873 47.8865 105.873 47.8865 105.56 48.2393C104.17 48.9691 102.847 49.338 101.273 49.3502C101.204 49.2812 101.135 49.2122 101.064 49.1411C100.788 49.2791 100.512 49.4172 100.227 49.5594C100.296 49.8354 100.365 50.1114 100.437 50.3958C100.631 50.3527 100.825 50.3095 101.025 50.2651C101.691 50.1867 101.691 50.1867 102.319 50.6049C102.319 50.8119 102.319 51.019 102.319 51.2322C102.595 51.3013 102.871 51.3703 103.155 51.4414C103.155 51.5794 103.155 51.7174 103.155 51.8596C102.487 52.0694 101.818 52.2765 101.148 52.4796C100.74 52.6038 100.332 52.731 99.9276 52.8667C99.1449 53.1093 98.8077 53.1316 98.0317 52.8267C97.8592 52.7146 97.6867 52.6024 97.5089 52.4869C97.3019 52.901 97.3019 52.901 97.0907 53.3234C96.1398 53.4026 96.1398 53.4026 95.6792 53.017C94.3445 52.1064 92.1424 52.4554 90.6083 52.696C90.5393 52.627 90.4703 52.558 90.3992 52.4869C89.9234 52.5334 89.4549 52.6092 88.9828 52.6838C88.5172 52.696 88.5172 52.696 87.8898 52.2778C87.6828 52.6918 87.6828 52.6918 87.4716 53.1142C87.2646 53.1142 87.0576 53.1142 86.8443 53.1142C86.8529 53.2609 86.8615 53.4075 86.8704 53.5586C86.8443 54.1598 86.8443 54.1598 86.6221 54.7349C86.3624 55.635 86.485 56.3836 86.6352 57.2965C86.4971 57.2965 86.3591 57.2965 86.2169 57.2965C86.2342 57.5207 86.2514 57.745 86.2692 57.9761C86.2169 58.7603 86.2169 58.7603 85.8771 59.2569C85.2888 59.6594 84.8298 59.7418 84.1258 59.8058C84.0747 61.0181 84.0747 61.0181 84.544 62.106C84.268 62.175 83.992 62.244 83.7076 62.3151C83.7076 62.4532 83.7076 62.5912 83.7076 62.7334C83.2383 63.1409 82.8008 63.5004 82.2438 63.7789C82.2438 63.9859 82.2438 64.193 82.2438 64.4063C82.3818 64.4063 82.5198 64.4063 82.662 64.4063C82.593 64.7513 82.524 65.0963 82.4529 65.4518C82.1769 65.5208 81.9009 65.5898 81.6165 65.6609C81.6165 66.075 81.6165 66.489 81.6165 66.9156C81.4785 66.9156 81.3405 66.9156 81.1983 66.9156C81.1594 67.1161 81.1594 67.1161 81.1198 67.3207C81.0767 67.4631 81.0336 67.6054 80.9892 67.752C80.5709 67.9611 80.5709 67.9611 80.0874 67.8566C79.4641 67.7406 79.0915 67.812 78.4798 67.9611C78.2728 67.9827 78.0658 68.0043 77.8525 68.0265C77.1949 68.1213 77.1949 68.1213 76.7416 68.6277C76.1796 69.0067 76.1796 69.0067 75.7401 68.983C74.8195 68.7813 73.9343 68.4741 73.0429 68.1703C72.6956 68.0948 72.3474 68.0229 71.9974 67.9611C72.0664 67.7541 72.1354 67.5471 72.2065 67.3338C71.7709 67.3225 71.3352 67.3144 70.8995 67.3077C70.6569 67.3028 70.4143 67.298 70.1644 67.293C69.5147 67.3322 69.1691 67.3657 68.6516 67.752C68.4633 68.1446 68.4633 68.1446 68.3641 68.5885C68.217 69.0402 68.217 69.0402 68.0243 69.4249C67.3708 69.7255 67.3708 69.7255 66.7696 69.8431C66.7006 69.9122 66.6316 69.9812 66.5605 70.0523C66.2094 70.1345 65.8561 70.2072 65.5018 70.2744C65.3097 70.3114 65.1175 70.3483 64.9194 70.3863C64.7709 70.4141 64.6224 70.4419 64.4694 70.4705C64.4694 70.3325 64.4694 70.1945 64.4694 70.0523C64.1078 70.0409 63.7462 70.0328 63.3846 70.0261C63.1832 70.0213 62.9819 70.0164 62.7744 70.0114C62.1349 70.0546 61.6934 70.181 61.1236 70.4705C61.0546 70.6085 60.9856 70.7465 60.9145 70.8887C59.0679 70.9855 59.0679 70.9855 58.196 70.6404C57.7107 70.2006 57.5966 69.8164 57.3596 69.2158C56.9328 69.0303 56.9328 69.0303 56.5231 69.0067C56.5231 68.8687 56.5231 68.7307 56.5231 68.5885C56.3851 68.5885 56.2471 68.5885 56.1049 68.5885C56.1049 68.3815 56.1049 68.1744 56.1049 67.9611C55.9841 67.9439 55.8634 67.9266 55.739 67.9089C55.121 67.7029 54.8367 67.4214 54.432 66.9156C54.432 66.6396 54.432 66.3635 54.432 66.0791C54.2703 65.9239 54.2703 65.9239 54.1053 65.7655C53.9565 65.6102 53.9565 65.6102 53.8047 65.4518C53.87 64.9944 53.87 64.9944 54.0138 64.6154C54.1518 64.6154 54.2898 64.6154 54.432 64.6154C54.5355 64.4083 54.5355 64.4083 54.6411 64.1971C54.7569 64.6312 54.8502 65.0009 54.8502 65.4518C55.1953 65.5208 55.5403 65.5898 55.8958 65.6609C55.8958 65.7989 55.8958 65.9369 55.8958 66.0791C56.5859 66.0791 57.2759 66.0791 57.9869 66.0791C57.9869 65.9411 57.9869 65.8031 57.9869 65.6609C58.47 65.7299 58.953 65.7989 59.4507 65.87C59.3817 66.1461 59.3127 66.4221 59.2416 66.7065C59.6568 66.6929 60.072 66.6793 60.4873 66.6656C60.9145 66.7065 60.9145 66.7065 61.5418 67.1247C61.6108 66.8487 61.6798 66.5726 61.7509 66.2883C61.8889 66.2883 62.0269 66.2883 62.1691 66.2883C62.1648 66.1201 62.1605 65.9518 62.1561 65.7785C62.1691 65.2427 62.1691 65.2427 62.3783 65.0336C62.3739 64.8136 62.3696 64.5937 62.3652 64.367C62.378 63.5843 62.5141 63.0387 62.7965 62.3151C62.9345 62.3151 63.0725 62.3151 63.2147 62.3151C63.1112 61.4871 63.1112 61.4871 63.0056 60.6423C63.5434 60.3036 63.7744 60.2148 64.4171 60.3024C64.5723 60.3456 64.7276 60.3887 64.8876 60.4331C64.8876 60.2951 64.8876 60.1571 64.8876 60.0149C65.0879 59.9793 65.2881 59.9438 65.4945 59.9071C66.4091 59.7421 67.3214 59.5666 68.2334 59.3876C68.4762 59.3406 68.4762 59.3406 68.7239 59.2926C69.2018 59.1981 69.6782 59.0977 70.1546 58.9955C70.3021 58.9669 70.4497 58.9382 70.6017 58.9087C71.6358 58.6783 72.1523 58.3041 72.8338 57.5056C72.9508 57.3784 73.0678 57.2511 73.1883 57.12C73.6517 56.5832 74.0664 56.0792 74.4283 55.4667C74.744 54.9501 75.0385 54.6838 75.5523 54.3689C75.6903 54.3689 75.8283 54.3689 75.9705 54.3689C76.0222 54.2525 76.074 54.136 76.1273 54.016C76.3887 53.5325 76.3887 53.5325 76.82 53.062C77.3617 52.2931 77.3712 51.7446 77.4343 50.814C78.1139 50.7356 78.1139 50.7356 78.898 50.814C79.3424 51.376 79.3424 51.376 79.7345 52.0687C80.2714 52.6449 80.7517 53.0954 81.4074 53.5325C82.1279 52.4661 82.0368 51.6923 81.8526 50.4775C81.8392 50.23 81.8392 50.23 81.8256 49.9776C82.0326 49.7706 82.0326 49.7706 82.2438 49.5594C82.4508 49.5594 82.6579 49.5594 82.8712 49.5594C82.8712 49.4213 82.8712 49.2833 82.8712 49.1411C83.0092 49.1411 83.1472 49.1411 83.2894 49.1411C83.4964 49.9692 83.7034 50.7973 83.9167 51.6505C84.0547 51.6505 84.1927 51.6505 84.3349 51.6505C84.2494 50.9236 84.1633 50.2804 83.8906 49.5986C83.8 49.3721 83.8 49.3721 83.7076 49.1411C83.7766 49.0031 83.8456 48.8651 83.9167 48.7229C84.0763 48.7704 84.2359 48.8178 84.4003 48.8667C84.5857 48.8882 84.7712 48.9098 84.9623 48.932C85.3461 48.6531 85.3461 48.6531 85.5896 48.3047C85.4325 47.6193 85.4325 47.6193 84.7532 47.2591C84.8593 46.3396 85.3978 45.8226 86.0078 45.168C86.1458 45.168 86.2839 45.168 86.426 45.168C86.4951 45.306 86.5641 45.444 86.6352 45.5862C86.9112 45.5172 87.1872 45.4482 87.4716 45.3771C87.5039 45.1895 87.5039 45.1895 87.5369 44.9981C87.6807 44.5407 87.6807 44.5407 88.0075 44.227C88.4045 43.8851 88.4045 43.8851 88.308 43.0769C88.4461 43.0769 88.5841 43.0769 88.7263 43.0769C88.7651 42.9303 88.8039 42.7836 88.8439 42.6325C89.2036 41.9132 89.6384 41.5841 90.257 41.0887C90.6992 40.6959 90.9491 40.2439 91.2356 39.7311C91.3736 39.7311 91.5116 39.7311 91.6538 39.7311C91.684 39.4982 91.7142 39.2653 91.7453 39.0254C91.8629 38.2673 91.8629 38.2673 92.0721 37.8491ZM92.2812 38.2673C92.1502 38.5591 92.0196 38.851 91.8891 39.143C91.7734 39.4002 91.7734 39.4002 91.6555 39.6625C91.4302 40.1649 91.4302 40.1649 91.2356 40.7636C90.9737 41.3038 90.7162 41.3585 90.19 41.6131C90.0217 42.0418 90.0217 42.0418 89.9809 42.4496C89.8429 42.4496 89.7049 42.4496 89.5627 42.4496C88.9614 43.2497 88.9614 43.2497 88.6086 44.1747C88.5172 44.5407 88.5172 44.5407 87.8898 44.9589C87.8208 45.2349 87.7518 45.511 87.6807 45.7954C86.7491 45.8989 86.7491 45.8989 85.7987 46.0045C85.9367 46.0735 86.0747 46.1425 86.2169 46.2136C86.0789 46.4206 85.9409 46.6276 85.7987 46.8409C85.9832 47.4436 85.9832 47.4436 86.2169 47.8865C86.2959 48.1628 86.3637 48.4424 86.426 48.7229C86.4735 48.9256 86.5209 49.1283 86.5698 49.3372C86.643 50.0546 86.4852 50.3691 86.2169 51.0231C86.2787 51.5948 86.2787 51.5948 86.426 52.0687C86.5641 52.0687 86.7021 52.0687 86.8443 52.0687C86.8443 52.2757 86.8443 52.4827 86.8443 52.696C87.1548 52.5925 87.1548 52.5925 87.4716 52.4869C87.4716 52.2799 87.4716 52.0729 87.4716 51.8596C87.9547 51.9976 88.4377 52.1356 88.9354 52.2778C89.0389 52.1743 89.0389 52.1743 89.1445 52.0687C90.0051 52.0231 90.8665 52.0298 91.7282 52.0299C92.161 52.0295 92.5937 52.0257 93.0265 52.0217C93.4335 52.0211 93.4335 52.0211 93.8487 52.0205C94.0992 52.0196 94.3498 52.0188 94.6079 52.0179C95.2087 52.0687 95.2087 52.0687 95.6269 52.4869C96.0646 52.469 96.0646 52.469 96.4634 52.2778C96.5669 51.9673 96.5669 51.9673 96.6725 51.6505C97.3783 51.7027 97.3783 51.7027 98.1363 51.8596C98.4369 52.2909 98.4369 52.2909 98.5545 52.696C98.7809 52.6507 98.7809 52.6507 99.0119 52.6045C99.399 52.5271 99.7867 52.453 100.175 52.3824C100.637 52.3239 100.637 52.3239 100.855 52.0687C101.132 51.9931 101.411 51.9229 101.691 51.8596C101.244 51.28 100.809 50.7726 100.267 50.2782C100.04 50.0259 100.04 50.0259 99.8092 49.7685C99.8484 49.2849 99.8484 49.2849 100.018 48.932C100.871 48.7844 101.488 48.7178 102.319 48.932C103.47 48.8517 104.428 48.3771 105.455 47.8865C105.455 47.4724 105.455 47.0584 105.455 46.6318C104.627 46.6318 103.799 46.6318 102.946 46.6318C102.842 46.2178 102.842 46.2178 102.737 45.7954C102.599 45.7263 102.461 45.6573 102.319 45.5862C102.111 45.7933 102.111 45.7933 101.9 46.0045C101.59 45.901 101.59 45.901 101.273 45.7954C101.273 45.6573 101.273 45.5193 101.273 45.3771C101.48 45.3081 101.687 45.2391 101.9 45.168C101.762 45.168 101.624 45.168 101.482 45.168C101.482 45.03 101.482 44.892 101.482 44.7498C101.068 44.7498 100.654 44.7498 100.227 44.7498C100.158 44.9568 100.089 45.1638 100.018 45.3771C99.8371 45.3189 99.8371 45.3189 99.6523 45.2595C99.1386 45.1596 98.8381 45.2188 98.3454 45.3771C98.2764 45.0321 98.2074 44.6871 98.1363 44.3316C98.4123 44.2626 98.6883 44.1936 98.9727 44.1225C98.8692 43.8119 98.8692 43.8119 98.7636 43.4951C98.7636 43.6331 98.7636 43.7712 98.7636 43.9133C98.1588 44.0862 97.7416 44.1225 97.0907 44.1225C96.741 44.186 96.3921 44.2545 96.0452 44.3316C96.0452 44.1936 96.0452 44.0555 96.0452 43.9133C96.1832 43.8443 96.3212 43.7753 96.4634 43.7042C96.4634 43.5662 96.4634 43.4282 96.4634 43.286C96.6864 42.5531 96.9365 41.8697 97.2998 41.1949C96.8434 40.9583 96.3955 40.7508 95.9145 40.5676C95.4178 40.3585 95.4178 40.3585 94.9996 39.9402C94.9159 39.4545 94.8449 38.9663 94.7905 38.4765C94.5835 38.4765 94.3765 38.4765 94.1632 38.4765C94.1632 38.7525 94.1632 39.0285 94.1632 39.3129C94.0252 39.3819 93.8871 39.4509 93.7449 39.522C93.7449 39.66 93.7449 39.798 93.7449 39.9402C93.5379 40.0092 93.3309 40.0782 93.1176 40.1493C93.1176 40.2874 93.1176 40.4254 93.1176 40.5676C92.7726 40.5676 92.4275 40.5676 92.0721 40.5676C92.1842 40.3433 92.2963 40.119 92.4119 39.888C92.7811 39.1536 92.7811 39.1536 92.5082 38.6366C92.3958 38.4538 92.3958 38.4538 92.2812 38.2673ZM85.3805 48.932C85.3805 49.07 85.3805 49.208 85.3805 49.3502C85.0355 49.3502 84.6904 49.3502 84.3349 49.3502C84.3943 49.7165 84.4557 50.0823 84.5179 50.4481C84.5519 50.6519 84.5858 50.8556 84.6208 51.0656C84.7424 51.6029 84.9013 52.0103 85.1714 52.4869C85.0118 52.4179 84.8522 52.3489 84.6878 52.2778C84.1278 52.0322 84.1278 52.0322 83.4985 52.0687C83.4508 51.6535 83.4032 51.2382 83.3555 50.823C83.2953 50.3552 83.2953 50.3552 83.0803 49.7685C82.8732 49.7685 82.6662 49.7685 82.4529 49.7685C82.1438 50.3867 82.2312 50.9692 82.2438 51.6505C82.3818 51.6505 82.5198 51.6505 82.662 51.6505C82.6017 51.7815 82.5413 51.9125 82.4791 52.0475C82.3626 52.3038 82.3626 52.3038 82.2438 52.5653C82.1662 52.7351 82.0886 52.905 82.0086 53.0799C81.7995 53.5157 81.7995 53.5157 81.8256 53.9507C81.5496 54.0197 81.2735 54.0887 80.9892 54.1598C80.9892 54.0218 80.9892 53.8838 80.9892 53.7416C80.8511 53.7416 80.7131 53.7416 80.5709 53.7416C80.5709 53.6036 80.5709 53.4656 80.5709 53.3234C80.4329 53.3234 80.2949 53.3234 80.1527 53.3234C80.0492 53.0128 80.0492 53.0128 79.9436 52.696C79.7366 52.696 79.5296 52.696 79.3163 52.696C79.2947 52.5364 79.2731 52.3769 79.2509 52.2125C79.0966 51.609 78.9772 51.3866 78.4798 51.0231C78.2728 51.0231 78.0658 51.0231 77.8525 51.0231C77.8218 51.1396 77.791 51.256 77.7594 51.376C77.309 52.9083 76.6269 54.0603 75.3636 55.0567C74.6434 55.642 74.2138 56.3362 73.7225 57.1135C73.0939 58.0541 72.633 58.7057 71.5007 59.0347C71.1798 59.0917 70.8573 59.1404 70.5336 59.1785C70.2544 59.2467 69.9756 59.3166 69.6971 59.3876C69.4764 59.4323 69.2556 59.4771 69.0282 59.5232C68.7874 59.5733 68.5467 59.6235 68.2987 59.6751C68.0564 59.7242 67.814 59.7732 67.5644 59.8238C67.3711 59.8869 67.1778 59.9499 66.9787 60.0149C66.9097 60.2219 66.8407 60.429 66.7696 60.6423C66.4936 60.5042 66.2175 60.3662 65.9331 60.224C65.9331 60.362 65.9331 60.5001 65.9331 60.6423C65.8167 60.5905 65.7002 60.5387 65.5803 60.4854C65.0521 60.3774 65.0521 60.3774 64.5216 60.7991C64.3664 60.9543 64.2111 61.1096 64.0511 61.2696C64.0511 61.4766 64.0511 61.6836 64.0511 61.8969C64.3962 61.9659 64.7412 62.0349 65.0967 62.106C65.0967 62.244 65.0967 62.3821 65.0967 62.5243C64.8897 62.5243 64.6827 62.5243 64.4694 62.5243C64.4694 62.6623 64.4694 62.8003 64.4694 62.9425C64.2623 63.0115 64.0553 63.0805 63.842 63.1516C64.1871 63.2896 64.5321 63.4276 64.8876 63.5698C64.5683 64.2084 64.0613 64.3349 63.4238 64.6154C63.2168 64.6154 63.0098 64.6154 62.7965 64.6154C62.7275 65.1674 62.6585 65.7195 62.5874 66.2883C62.8634 66.3573 63.1394 66.4263 63.4238 66.4974C63.4238 66.6354 63.4238 66.7734 63.4238 66.9156C62.9408 66.7776 62.4577 66.6396 61.96 66.4974C62.029 66.8424 62.098 67.1874 62.1691 67.5429C62.6522 67.6119 63.1352 67.6809 63.6329 67.752C63.6329 67.9591 63.6329 68.1661 63.6329 68.3794C63.0119 68.2414 62.3908 68.1033 61.7509 67.9611C61.7509 67.8231 61.7509 67.6851 61.7509 67.5429C61.4059 67.4049 61.0608 67.2669 60.7054 67.1247C60.645 67.3619 60.5846 67.5991 60.5224 67.8435C60.4059 68.2123 60.4059 68.2123 60.2871 68.5885C60.0801 68.692 60.0801 68.692 59.8689 68.7976C59.7999 68.3836 59.7309 67.9695 59.6598 67.5429C59.9703 67.4394 59.9703 67.4394 60.2871 67.3338C60.0111 67.1958 59.7351 67.0578 59.4507 66.9156C59.3817 67.1226 59.3127 67.3296 59.2416 67.5429C59.3451 67.7499 59.3451 67.7499 59.4507 67.9611C59.3127 67.9611 59.1747 67.9611 59.0325 67.9611C59.0325 67.8231 59.0325 67.6851 59.0325 67.5429C58.8254 67.5429 58.6184 67.5429 58.4051 67.5429C58.3016 67.3359 58.3016 67.3359 58.196 67.1247C57.989 67.2282 57.989 67.2282 57.7778 67.3338C57.7088 67.1268 57.6398 66.9198 57.5687 66.7065C56.6828 66.4955 56.6828 66.4955 55.8174 66.6934C55.7052 66.7667 55.5931 66.84 55.4776 66.9156C55.5466 66.6396 55.6156 66.3635 55.6867 66.0791C55.4107 65.9411 55.1346 65.8031 54.8502 65.6609C54.7624 66.1394 54.7624 66.1394 54.8502 66.7065C55.3251 67.2685 55.3251 67.2685 55.8958 67.752C56.0122 67.8771 56.1287 68.0022 56.2487 68.1311C56.5131 68.4261 56.5131 68.4261 56.9414 68.3794C56.9414 68.5174 56.9414 68.6554 56.9414 68.7976C57.1484 68.8666 57.3554 68.9356 57.5687 69.0067C57.7083 69.2854 57.8477 69.5642 57.9869 69.8431C58.4984 70.2558 59.0225 70.5183 59.6598 70.6796C60.2433 70.5624 60.6003 70.3575 61.1236 70.0523C61.1236 69.9142 61.1236 69.7762 61.1236 69.634C62.3208 69.6115 63.4797 69.6468 64.6679 69.7966C65.2304 69.8577 65.7862 69.8576 66.3514 69.8431C66.4204 69.7051 66.4894 69.5671 66.5605 69.4249C66.7632 69.3775 66.9659 69.33 67.1747 69.2812C67.3861 69.1906 67.5974 69.1 67.8151 69.0067C67.8755 68.7695 67.9359 68.5323 67.9981 68.2879C68.2334 67.5429 68.2334 67.5429 68.913 67.1378C70.1775 66.7537 71.528 66.8661 72.8338 66.9156C72.9028 67.1916 72.9718 67.4676 73.0429 67.752C73.2192 67.7949 73.3955 67.8378 73.5771 67.8819C73.8063 67.9383 74.0354 67.9946 74.2715 68.0526C74.4995 68.1084 74.7275 68.1642 74.9625 68.2217C75.5523 68.3794 75.5523 68.3794 75.9705 68.5885C76.591 68.4423 76.591 68.4423 76.8592 68.069C77.4158 67.5869 77.9684 67.5837 78.6889 67.4906C78.9477 67.4551 79.2065 67.4195 79.4731 67.3828C80.1527 67.3338 80.1527 67.3338 80.78 67.5429C80.78 67.2669 80.78 66.9909 80.78 66.7065C80.9871 66.6375 81.1941 66.5685 81.4074 66.4974C81.4074 66.0833 81.4074 65.6693 81.4074 65.2427C81.6144 65.2427 81.8214 65.2427 82.0347 65.2427C82.1037 65.0357 82.1727 64.8287 82.2438 64.6154C82.1058 64.6154 81.9678 64.6154 81.8256 64.6154C81.6876 64.2703 81.5496 63.9253 81.4074 63.5698C81.5454 63.5698 81.6834 63.5698 81.8256 63.5698C81.8256 63.4318 81.8256 63.2938 81.8256 63.1516C82.1016 63.1516 82.3777 63.1516 82.662 63.1516C82.662 62.9446 82.662 62.7375 82.662 62.5243C82.7871 62.5027 82.9122 62.4811 83.0411 62.4589C83.5575 62.2966 83.775 62.0912 84.1258 61.6878C83.9188 61.6878 83.7118 61.6878 83.4985 61.6878C83.5757 60.1436 83.5757 60.1436 84.2434 59.4921C84.4958 59.3369 84.4958 59.3369 84.7532 59.1785C84.8912 59.2475 85.0292 59.3165 85.1714 59.3876C85.3094 59.3186 85.4474 59.2496 85.5896 59.1785C85.7264 58.7084 85.7264 58.7084 85.8118 58.1591C85.9164 57.566 86.026 57.0328 86.2169 56.46C86.2499 56.0508 86.2499 56.0508 86.2431 55.6236C86.2436 55.4813 86.2442 55.3389 86.2447 55.1923C86.2308 54.7414 86.2308 54.7414 86.0078 54.1598C86.1458 54.1598 86.2839 54.1598 86.426 54.1598C86.426 53.5387 86.426 52.9177 86.426 52.2778C86.288 52.2778 86.15 52.2778 86.0078 52.2778C85.9555 50.6833 85.9555 50.6833 86.426 49.9776C86.3608 49.4242 86.3608 49.4242 86.2169 48.932C85.9409 48.932 85.6649 48.932 85.3805 48.932ZM63.4238 60.8514C63.6329 61.6878 63.6329 61.6878 63.6329 61.6878L63.4238 60.8514ZM54.2229 65.0336C54.432 65.4518 54.432 65.4518 54.432 65.4518L54.2229 65.0336Z" fill="white"/>
<path d="M4.24531 39.313C5.02779 39.6638 5.02779 39.6638 5.34314 40.0579C5.77886 40.4159 6.00557 40.4204 6.5586 40.4762C7.38198 40.5677 7.38198 40.5677 7.8002 40.9859C7.94605 41.2614 8.0866 41.5398 8.21842 41.8223C8.56346 41.8223 8.90849 41.8223 9.26398 41.8223C9.31616 42.1222 9.36308 42.423 9.40774 42.7241C9.44777 42.9752 9.44777 42.9752 9.48861 43.2314C9.47309 43.7043 9.47309 43.7043 9.16351 44.0793C9.05865 44.1625 8.95379 44.2458 8.84576 44.3317C9.05278 44.5387 9.2598 44.7457 9.47309 44.959C9.51622 44.8296 9.55935 44.7002 9.60379 44.5669C10.0173 43.9278 10.4152 43.8619 11.146 43.7043C11.7472 43.7827 11.7472 43.7827 12.1915 43.9134C12.1915 44.0514 12.1915 44.1895 12.1915 44.3317C12.8658 44.1312 13.1797 43.9913 13.603 43.4168C13.8269 42.9468 13.9792 42.541 14.0735 42.0314C15.1949 41.9295 15.1949 41.9295 15.7726 42.3712C16.1647 42.8679 16.1647 42.8679 16.5306 43.456C17.2386 44.459 18.1285 45.2874 19.209 45.8796C19.8032 46.2684 20.03 46.6163 20.373 47.2331C20.4728 47.4094 20.5725 47.5857 20.6752 47.7673C20.7739 47.9447 20.8726 48.122 20.9742 48.3048C21.0845 48.4673 21.1947 48.6299 21.3083 48.7973C21.6804 49.4991 21.7723 50.1194 21.876 50.9056C21.914 51.1727 21.952 51.4399 21.9912 51.7151C22.0209 52.5181 21.885 52.9989 21.6015 53.7417C21.4944 54.2996 21.4944 54.2996 21.4447 54.8395C21.4242 55.0174 21.4037 55.1953 21.3826 55.3786C21.341 55.8778 21.341 55.8778 21.8107 56.251C21.8215 56.9952 21.7991 57.7281 21.7576 58.4708C21.7327 59.3113 21.7466 59.703 22.2036 60.4373C22.601 60.8832 22.601 60.8832 23.0784 60.9299C23.2121 60.973 23.3458 61.0161 23.4835 61.0606C23.8234 61.7532 23.8234 61.7532 24.1109 62.5243C24.2474 62.8046 24.3853 63.0842 24.5291 63.3608C24.6671 63.3608 24.8051 63.3608 24.9473 63.3608C24.9473 63.2228 24.9473 63.0848 24.9473 62.9426C25.0853 62.9426 25.2234 62.9426 25.3655 62.9426C25.262 63.3566 25.262 63.3566 25.1564 63.779C25.0184 63.779 24.8804 63.779 24.7382 63.779C24.8264 63.9383 24.9145 64.0976 25.0053 64.2618C25.7165 65.6021 26.1513 66.6501 26.202 68.1703C25.7184 68.301 25.7184 68.301 25.1564 68.3795C24.8459 68.1724 24.8459 68.1724 24.5291 67.9612C24.1006 67.8668 24.1006 67.8668 23.6535 67.8305C23.3904 67.8047 23.1273 67.7788 22.8562 67.7521C22.7872 67.9591 22.7182 68.1662 22.6471 68.3795C22.4401 68.3795 22.2331 68.3795 22.0198 68.3795C21.9508 68.5175 21.8818 68.6555 21.8107 68.7977C21.2044 68.2968 21.0784 67.8959 20.9742 67.1248C20.7025 67.0407 20.7025 67.0407 20.4253 66.9549C19.7367 66.7126 19.1108 66.4176 18.4649 66.0792C18.4649 65.9412 18.4649 65.8032 18.4649 65.661C18.3139 65.6869 18.163 65.7128 18.0074 65.7394C17.4193 65.661 17.4193 65.661 16.9619 65.086C16.8781 64.9714 16.7942 64.8568 16.7079 64.7388C16.1529 64.1866 15.4567 64.0075 14.7237 63.77C14.5782 63.704 14.4326 63.6379 14.2827 63.5699C14.2136 63.3629 14.1446 63.1559 14.0735 62.9426C13.4525 62.8391 13.4525 62.8391 12.8189 62.7335C12.7499 62.3884 12.6809 62.0434 12.6098 61.6879C12.4502 61.6577 12.2906 61.6275 12.1262 61.5964C10.9972 61.3601 10.9972 61.3601 10.5186 60.6423C10.2081 60.5388 10.2081 60.5388 9.89131 60.4332C9.47309 59.8059 9.47309 59.8059 9.55151 59.3485C9.59464 59.2234 9.63777 59.0983 9.6822 58.9694C9.82022 58.9694 9.95823 58.9694 10.1004 58.9694C9.81693 58.119 9.39013 57.4876 8.85066 56.7844C8.63665 56.4601 8.63665 56.4601 8.63665 56.0419C8.50726 55.9772 8.37787 55.9125 8.24456 55.8458C7.95704 55.7021 7.66951 55.5583 7.38198 55.4146C7.38198 55.2765 7.38198 55.1385 7.38198 54.9963C7.07145 54.8928 7.07145 54.8928 6.75465 54.7872C6.75465 54.5112 6.75465 54.2352 6.75465 53.9508C6.89266 53.9508 7.03067 53.9508 7.17287 53.9508C6.88179 53.3686 6.51296 53.3278 5.9182 53.1143C5.94448 52.936 5.94448 52.936 5.97129 52.7541C6.10828 51.7154 6.17575 50.7988 5.9182 49.7686C5.77587 49.596 5.63355 49.4235 5.48691 49.2458C4.95555 48.5601 5.01546 48.1045 5.08176 47.2592C4.5642 47.3627 4.5642 47.3627 4.0362 47.4683C4.0362 46.9853 4.0362 46.5022 4.0362 46.0045C4.31223 45.9355 4.58825 45.8665 4.87264 45.7954C4.95543 44.2501 4.69023 43.117 3.82709 41.8223C3.71799 40.104 3.71799 40.104 4.24531 39.313ZM4.24531 39.9403C4.1763 40.4234 4.1073 40.9064 4.0362 41.4041C4.24322 41.4041 4.45024 41.4041 4.66353 41.4041C4.66353 41.2661 4.66353 41.1281 4.66353 40.9859C4.80155 40.9859 4.93956 40.9859 5.08176 40.9859C4.94374 40.6408 4.80573 40.2958 4.66353 39.9403C4.52552 39.9403 4.38751 39.9403 4.24531 39.9403ZM5.29087 40.7768C4.87683 41.3978 4.87683 41.3978 4.45442 42.0314C4.60322 42.2708 4.60322 42.2708 4.75502 42.515C5.24412 43.4724 5.23641 44.5309 5.29087 45.5863C5.56689 45.5863 5.84292 45.5863 6.12731 45.5863C6.11869 45.8149 6.11006 46.0435 6.10117 46.279C6.06024 47.0687 6.06024 47.0687 6.54553 47.6774C7.44556 47.0936 7.75281 46.5871 8.07466 45.6051C8.21318 45.184 8.37735 44.7883 8.55823 44.3839C8.77597 43.8693 8.946 43.4122 9.05487 42.8679C8.91686 42.8679 8.77884 42.8679 8.63665 42.8679C8.70565 42.6609 8.77466 42.4538 8.84576 42.2405C8.43172 42.2405 8.01768 42.2405 7.59109 42.2405C7.52208 41.8955 7.45308 41.5505 7.38198 41.195C7.23103 41.1648 7.08007 41.1346 6.92455 41.1035C6.37999 40.9946 5.83543 40.8857 5.29087 40.7768ZM14.4918 42.4497C14.0403 42.9763 13.6893 43.3978 13.4593 44.0572C13.2371 44.5408 13.2371 44.5408 12.6882 44.8152C12.5243 44.8627 12.3604 44.9101 12.1915 44.959C12.2605 45.6491 12.3296 46.3391 12.4007 47.0501C12.1246 47.1191 11.8486 47.1881 11.5642 47.2592C11.2842 47.8655 11.2842 47.8655 11.1068 48.5923C11.0053 48.957 11.0053 48.957 10.9017 49.3291C10.8443 49.5431 10.7869 49.7571 10.7278 49.9777C10.6588 50.1847 10.5897 50.3917 10.5186 50.605C11.2178 50.8546 11.2178 50.8546 11.9824 51.0232C12.1894 50.8852 12.3965 50.7472 12.6098 50.605C12.6098 50.329 12.6098 50.0529 12.6098 49.7686C12.7478 49.7686 12.8858 49.7686 13.028 49.7686C13.097 49.9756 13.166 50.1826 13.2371 50.3959C13.3579 50.3183 13.4786 50.2406 13.603 50.1606C13.7583 50.1003 13.9136 50.0399 14.0735 49.9777C14.2612 50.0779 14.2612 50.0779 14.4526 50.1802C15.0295 50.4522 15.3807 50.4 16.0078 50.3175C16.1944 50.2943 16.3809 50.2711 16.5731 50.2472C16.7143 50.2273 16.8556 50.2073 17.0011 50.1868C17.0701 49.9798 17.1391 49.7727 17.2102 49.5594C16.9342 49.4904 16.6582 49.4214 16.3738 49.3503C16.3824 49.1735 16.391 48.9967 16.3999 48.8145C16.4034 48.088 16.4034 48.088 16.1647 47.3899C15.921 46.5068 15.8957 45.8719 15.9555 44.959C16.0375 44.8167 16.1194 44.6743 16.2039 44.5277C16.4444 44.0704 16.4444 44.0704 16.1647 43.3514C15.816 42.5977 15.816 42.5977 15.0799 42.4627C14.8858 42.4584 14.6917 42.4541 14.4918 42.4497ZM10.1004 44.5408C10.0314 44.7478 9.96241 44.9548 9.89131 45.1681C9.46002 45.4164 9.46002 45.4164 9.05487 45.5863C8.98586 45.3793 8.91686 45.1723 8.84576 44.959C8.40202 45.4027 8.32237 45.6301 8.14001 46.2137C7.85277 47.0162 7.85277 47.0162 7.39505 47.3115C7.25272 47.3632 7.1104 47.415 6.96376 47.4683C6.67709 47.7391 6.39635 48.0165 6.12731 48.3048C5.92029 48.2358 5.71327 48.1668 5.49998 48.0957C5.56898 48.3717 5.63799 48.6477 5.70909 48.9321C5.98512 49.0011 6.26114 49.0701 6.54553 49.1412C6.70134 50.4739 6.77629 51.7725 6.75465 53.1143C6.89266 53.1833 7.03067 53.2523 7.17287 53.3234C7.17287 53.7375 7.17287 54.1515 7.17287 54.5781C7.81048 54.7895 7.81048 54.7895 8.42754 54.5781C8.42754 54.7161 8.42754 54.8541 8.42754 54.9963C9.03521 55.2591 9.43044 55.4146 10.1004 55.4146C10.1004 55.2765 10.1004 55.1385 10.1004 54.9963C10.2255 55.0653 10.3506 55.1343 10.4794 55.2054C10.9481 55.458 10.9481 55.458 11.5642 55.4146C11.4727 54.0229 11.3421 52.6831 10.3095 51.6506C10.2073 50.6277 10.3735 49.8877 10.7555 48.9599C10.9553 48.4686 11.124 47.972 11.2897 47.4683C11.3423 47.3087 11.3949 47.1492 11.449 46.9848C11.487 46.8683 11.525 46.7519 11.5642 46.6319C11.8402 46.7009 12.1163 46.7699 12.4007 46.841C12.359 46.6554 12.359 46.6554 12.3165 46.4661C12.1267 45.6168 11.9387 44.7679 11.7733 43.9134C11.1969 43.9134 10.6037 44.2981 10.1004 44.5408ZM16.5829 44.5408C16.0959 44.9357 16.0959 44.9357 16.1238 45.5945C16.1287 45.8419 16.1335 46.0894 16.1385 46.3444C16.1423 46.5929 16.1461 46.8414 16.1499 47.0975C16.1548 47.2889 16.1597 47.4803 16.1647 47.6774C16.3717 47.7809 16.3717 47.7809 16.5829 47.8866C16.6131 48.0849 16.6433 48.2833 16.6744 48.4877C16.8002 49.187 16.8864 49.3381 17.4193 49.7686C17.5228 49.885 17.6263 50.0014 17.733 50.1214C18.0559 50.4647 18.0559 50.4647 18.674 50.3959C18.674 50.7409 18.674 51.086 18.674 51.4414C18.881 51.5104 19.088 51.5795 19.3013 51.6506C19.1619 52.2082 19.0225 52.7658 18.8831 53.3234C19.5042 53.5305 20.1252 53.7375 20.7651 53.9508C20.7651 53.6057 20.7651 53.2607 20.7651 52.9052C20.9721 52.9052 21.1791 52.9052 21.3924 52.9052C21.897 51.3429 21.3786 49.6067 20.6611 48.1877C19.6737 46.4003 18.3982 45.4235 16.5829 44.5408ZM5.29087 45.7954C5.40253 46.6143 5.54111 47.1324 5.9182 47.8866C5.9182 47.2655 5.9182 46.6444 5.9182 46.0045C5.71118 45.9355 5.50416 45.8665 5.29087 45.7954ZM4.45442 46.4228C4.66353 47.0501 4.66353 47.0501 4.66353 47.0501L4.45442 46.4228ZM13.6553 50.3959C13.5863 50.5339 13.5173 50.6719 13.4462 50.8141C13.2392 50.6761 13.0322 50.5381 12.8189 50.3959C12.7154 50.5512 12.7154 50.5512 12.6098 50.7096C11.9457 51.2076 11.3337 51.0633 10.5186 51.0232C10.5186 51.2992 10.5186 51.5753 10.5186 51.8597C10.7257 51.9632 10.7257 51.9632 10.9369 52.0688C11.0889 52.4826 11.2292 52.9009 11.3551 53.3234C11.4931 53.3234 11.6311 53.3234 11.7733 53.3234C11.7787 53.4496 11.7841 53.5757 11.7897 53.7057C11.8698 54.8345 11.996 55.2456 12.8189 56.0419C12.8712 56.8261 12.8712 56.8261 12.8189 57.5057C13.2189 57.6818 13.6199 57.8556 14.0213 58.0284C14.2445 58.1255 14.4676 58.2225 14.6976 58.3225C15.3475 58.5988 15.3475 58.5988 16.1647 58.5512C16.2337 58.7582 16.3027 58.9653 16.3738 59.1786C16.8782 59.5946 16.8782 59.5946 17.4847 60.0019C18.0817 60.4156 18.6139 60.7865 19.1077 61.3203C19.4785 61.7263 19.4785 61.7263 19.9744 61.7622C20.1318 61.7506 20.2892 61.739 20.4514 61.7271C21.0981 61.6861 21.6055 61.7114 22.2289 61.897C22.1144 61.1913 22.0083 60.8342 21.6015 60.2241C21.5415 59.8173 21.5415 59.8173 21.5297 59.3615C21.5235 59.1966 21.5173 59.0316 21.5109 58.8616C21.5016 58.5153 21.4924 58.1689 21.4831 57.8226C21.4769 57.6576 21.4707 57.4927 21.4643 57.3227C21.4585 57.0971 21.4585 57.0971 21.4525 56.8669C21.4121 56.3928 21.4121 56.3928 20.9742 55.8328C20.9742 55.4843 20.9742 55.1357 20.9742 54.7872C20.5255 54.1141 20.2237 53.8892 19.5104 53.5326C19.2344 53.5326 18.9584 53.5326 18.674 53.5326C18.812 52.9115 18.95 52.2904 19.0922 51.6506C18.8162 51.6506 18.5402 51.6506 18.2558 51.6506C18.2558 51.3055 18.2558 50.9605 18.2558 50.605C17.7382 50.398 17.7382 50.398 17.2102 50.1868C17.2102 50.3248 17.2102 50.4628 17.2102 50.605C16.5891 50.5015 16.5891 50.5015 15.9555 50.3959C15.9555 50.5339 15.9555 50.6719 15.9555 50.8141C15.5415 50.8141 15.1275 50.8141 14.7009 50.8141C14.6319 50.6071 14.5629 50.4001 14.4918 50.1868C14.2055 50.1758 14.2055 50.1758 13.6553 50.3959ZM8.21842 55.4146C8.40604 55.641 8.40604 55.641 8.59744 55.872C9.05487 56.4601 9.05487 56.4601 9.39468 57.0352C9.64064 57.5311 9.64064 57.5311 10.1004 57.7148C10.2711 58.0717 10.2711 58.0717 10.4272 58.512C10.4792 58.6557 10.5312 58.7994 10.5848 58.9474C10.722 59.37 10.8317 59.7926 10.9369 60.2241C11.0728 60.6878 11.0728 60.6878 11.3551 61.0606C11.8894 61.2303 11.8894 61.2303 12.4007 61.2697C12.4736 60.4923 12.4736 60.4923 12.087 59.8451C11.9835 59.7632 11.88 59.6812 11.7733 59.5968C12.0493 59.5968 12.3254 59.5968 12.6098 59.5968C12.6098 59.7348 12.6098 59.8728 12.6098 60.015C12.8168 59.946 13.0238 59.877 13.2371 59.8059C13.5203 59.2395 13.4598 58.7584 13.4462 58.133C13.2392 58.064 13.0322 57.995 12.8189 57.9239C12.6098 56.5385 12.6098 56.5385 12.6098 55.8328C12.0049 55.66 11.5877 55.6237 10.9369 55.6237C10.7989 55.5547 10.6608 55.4857 10.5186 55.4146C10.4496 55.5526 10.3806 55.6906 10.3095 55.8328C9.6125 55.6934 8.91546 55.554 8.21842 55.4146ZM13.8644 58.3421C13.7264 58.9632 13.5884 59.5842 13.4462 60.2241C13.2392 60.2241 13.0322 60.2241 12.8189 60.2241C12.7806 61.0665 12.8311 61.5799 13.2371 62.3152C13.4643 62.2889 13.4643 62.2889 13.6962 62.2621C14.7709 62.1489 15.7284 62.0565 16.792 62.3152C16.8973 62.0105 17.0017 61.7055 17.1057 61.4004C17.1639 61.2305 17.2221 61.0607 17.2821 60.8858C17.4395 60.4453 17.4395 60.4453 17.4193 60.015C16.3317 59.1927 15.1922 58.674 13.8644 58.3421ZM17.6284 60.4332C17.5856 60.5968 17.5427 60.7605 17.4986 60.929C17.414 61.2465 17.414 61.2465 17.3278 61.5703C17.272 61.7813 17.2162 61.9924 17.1587 62.2099C17.0011 62.7335 17.0011 62.7335 16.792 62.9426C16.6927 63.9853 16.6927 63.9853 17.1318 64.903C17.7201 65.3055 18.1791 65.3879 18.8831 65.4519C18.8831 65.5899 18.8831 65.7279 18.8831 65.8701C19.0467 65.9558 19.2103 66.0416 19.3789 66.1299C19.5905 66.2425 19.8021 66.3552 20.0201 66.4713C20.2312 66.5829 20.4423 66.6945 20.6597 66.8095C21.1833 67.1248 21.1833 67.1248 21.3924 67.543C22.0259 67.6805 22.0259 67.6805 22.6471 67.7521C22.6471 67.6141 22.6471 67.4761 22.6471 67.3339C23.1992 67.4029 23.7512 67.4719 24.32 67.543C24.182 67.06 24.044 66.5769 23.9018 66.0792C24.0398 66.0792 24.1778 66.0792 24.32 66.0792C24.458 66.3553 24.596 66.6313 24.7382 66.9157C25.0142 66.9157 25.2903 66.9157 25.5747 66.9157C25.5747 67.0537 25.5747 67.1917 25.5747 67.3339C25.3676 67.4374 25.3676 67.4374 25.1564 67.543C25.2945 67.543 25.4325 67.543 25.5747 67.543C25.6437 67.681 25.7127 67.819 25.7838 67.9612C25.8775 67.0002 25.699 66.4847 25.1875 65.6757C24.7942 64.9667 24.5613 64.2022 24.3053 63.4351C24.1371 62.9133 24.1371 62.9133 23.6927 62.5243C23.5448 62.1793 23.4042 61.831 23.2744 61.4788C23.0674 61.4788 22.8604 61.4788 22.6471 61.4788C22.6471 61.7548 22.6471 62.0308 22.6471 62.3152C22.5234 62.2675 22.3996 62.2198 22.2722 62.1706C21.2986 61.8165 20.7408 61.67 19.7195 61.897C18.9359 61.5248 18.2945 60.9851 17.6284 60.4332ZM14.0735 62.7335C14.2116 62.7335 14.3496 62.7335 14.4918 62.7335C14.5608 62.9405 14.6298 63.1475 14.7009 63.3608C15.4353 63.6179 15.4353 63.6179 16.1647 63.779C16.3027 63.365 16.4407 62.9509 16.5829 62.5243C15.6854 62.2252 14.78 62.0269 14.0735 62.7335ZM21.6015 67.7521C21.8107 68.1703 21.8107 68.1703 21.8107 68.1703L21.6015 67.7521Z" fill="white"/>
<path d="M93.5357 35.967C93.7427 36.036 93.9497 36.1051 94.163 36.1762C94.7146 36.0938 94.7146 36.0938 95.2086 35.967C95.3466 36.3121 95.4846 36.6571 95.6268 37.0126C94.7003 37.656 94.7003 37.656 94.0977 37.5746C93.9812 37.5271 93.8648 37.4797 93.7448 37.4308C93.7448 37.2928 93.7448 37.1548 93.7448 37.0126C93.3997 37.0816 93.0547 37.1506 92.6992 37.2217C92.7646 36.8296 92.7646 36.8296 92.9083 36.3853C93.1154 36.2473 93.3224 36.1092 93.5357 35.967ZM94.163 36.5944C94.163 36.7324 94.163 36.8704 94.163 37.0126C94.439 36.9436 94.7151 36.8746 94.9994 36.8035C94.9994 36.6655 94.9994 36.5275 94.9994 36.3853C94.5656 36.3541 94.5656 36.3541 94.163 36.5944Z" fill="white"/>
<path d="M2.99138 40.9859C2.99138 41.3309 2.99138 41.6759 2.99138 42.0314C2.85336 42.0314 2.71535 42.0314 2.57315 42.0314C2.50415 42.2384 2.43514 42.4455 2.36404 42.6588C2.08802 42.6588 1.81199 42.6588 1.5276 42.6588C1.5276 42.3137 1.5276 41.9687 1.5276 41.6132C1.38958 41.6132 1.25157 41.6132 1.10938 41.6132C1.10938 41.4062 1.10938 41.1992 1.10938 40.9859C1.81579 40.8093 2.29601 40.7541 2.99138 40.9859ZM2.15493 41.195C2.08592 41.333 2.01692 41.471 1.94582 41.6132C2.15284 41.5442 2.35986 41.4752 2.57315 41.4041C2.43514 41.3351 2.29713 41.2661 2.15493 41.195Z" fill="white"/>
<path d="M12.1937 57.9238C12.4008 57.9928 12.6078 58.0618 12.8211 58.1329C12.7521 58.547 12.6831 58.961 12.612 59.3876C12.3359 59.3186 12.0599 59.2496 11.7755 59.1785C11.7065 58.9025 11.6375 58.6264 11.5664 58.3421C11.7734 58.204 11.9804 58.066 12.1937 57.9238ZM11.9846 58.3421C12.0536 58.5491 12.1226 58.7561 12.1937 58.9694C12.2627 58.7624 12.3318 58.5553 12.4029 58.3421C12.2648 58.3421 12.1268 58.3421 11.9846 58.3421Z" fill="white"/>
<path d="M25.1583 59.8059C25.3654 59.8749 25.5724 59.9439 25.7857 60.015C25.7857 60.3601 25.7857 60.7051 25.7857 61.0606C25.5096 60.9916 25.2336 60.9226 24.9492 60.8515C25.0182 60.5064 25.0872 60.1614 25.1583 59.8059Z" fill="white"/>
<path d="M84.5435 46.4226C84.5435 46.8366 84.5435 47.2507 84.5435 47.6773C84.2674 47.6083 83.9914 47.5393 83.707 47.4682C83.7854 47.063 83.7854 47.063 83.9161 46.6317C84.3344 46.4226 84.3344 46.4226 84.5435 46.4226Z" fill="white"/>
<path d="M18.8828 44.3315C19.0898 44.3315 19.2969 44.3315 19.5101 44.3315C19.5101 44.5386 19.5101 44.7456 19.5101 44.9589C19.3031 44.8899 19.0961 44.8209 18.8828 44.7498C18.8828 44.6118 18.8828 44.4737 18.8828 44.3315Z" fill="white"/>
<path d="M95.2091 37.4309C95.3471 37.4999 95.4851 37.5689 95.6273 37.64C95.6273 37.778 95.6273 37.916 95.6273 38.0582C95.4203 38.0582 95.2133 38.0582 95 38.0582C95.069 37.8512 95.138 37.6442 95.2091 37.4309Z" fill="white"/>
<path d="M26.2013 61.2695C26.3393 61.4075 26.4773 61.5456 26.6195 61.6878C26.4125 61.7568 26.2055 61.8258 25.9922 61.8969C26.0612 61.6898 26.1302 61.4828 26.2013 61.2695Z" fill="white"/>
<path d="M102.738 50.605C102.945 50.605 103.152 50.605 103.366 50.605C103.366 50.743 103.366 50.881 103.366 51.0232C103.159 51.0232 102.952 51.0232 102.738 51.0232C102.738 50.8852 102.738 50.7472 102.738 50.605Z" fill="white"/>
<path d="M100.855 49.5593C101.062 49.6283 101.27 49.6973 101.483 49.7684C101.276 49.8374 101.069 49.9065 100.855 49.9775C100.855 49.8395 100.855 49.7015 100.855 49.5593Z" fill="white"/>
<path d="M27.0391 62.106C27.1771 62.106 27.3151 62.106 27.4573 62.106C27.4573 62.244 27.4573 62.382 27.4573 62.5242C27.3193 62.5242 27.1813 62.5242 27.0391 62.5242C27.0391 62.3862 27.0391 62.2482 27.0391 62.106Z" fill="white"/>
<path d="M23.9023 60.8513C24.0404 60.8513 24.1784 60.8513 24.3206 60.8513C24.3206 60.9893 24.3206 61.1273 24.3206 61.2695C24.1826 61.2695 24.0445 61.2695 23.9023 61.2695C23.9023 61.1315 23.9023 60.9935 23.9023 60.8513Z" fill="white"/>
</svg>
