<svg width="108" height="108" viewBox="0 0 108 108" fill="none" xmlns="http://www.w3.org/2000/svg">
<rect width="107.065" height="107.065" transform="translate(0.128906)" fill=""/>
<path d="M46.34 6.27332C46.6053 6.33154 46.6053 6.33154 46.8759 6.39094C47.5914 6.52673 47.5914 6.52673 48.2612 6.31252C49.3069 6.2611 49.8088 6.6354 50.6938 7.15632C51.4472 7.57746 52.2096 7.92802 53.0054 8.25987C53.1373 8.31825 53.2691 8.37662 53.4049 8.43677C54.0354 8.69413 54.4167 8.80067 55.0876 8.64706C55.7155 8.25557 55.891 7.78111 56.1683 7.10976C57.0047 7.10976 57.0047 7.10976 57.4752 7.55412C57.9077 8.26466 57.9774 8.5927 57.8411 9.40998C57.7047 9.56606 57.5683 9.72213 57.4278 9.88294C56.6074 10.9931 56.6879 12.5974 56.8707 13.9312C57.0022 14.4741 57.1729 14.9743 57.4229 15.4742C57.836 15.6934 58.2541 15.9033 58.6776 16.1015C58.6776 16.4466 58.6776 16.7916 58.6776 17.1471C58.9881 17.2506 58.9881 17.2506 59.3049 17.3562C59.0899 19.0334 58.5743 20.3917 57.6467 21.7941C57.2718 22.4166 57.2324 23.0253 57.1615 23.7341C56.8958 24.62 56.2636 25.1297 55.4756 25.5769C55.3591 25.6243 55.2427 25.6718 55.1227 25.7207C54.9847 25.5136 54.8467 25.3066 54.7045 25.0933C54.438 25.218 54.1724 25.3448 53.9072 25.4723C53.7592 25.5427 53.6113 25.6131 53.4588 25.6855C53.0234 25.9344 52.7222 26.1701 52.4042 26.5571C52.4411 26.9834 52.4411 26.9834 52.6134 27.3936C52.6824 27.6006 52.7514 27.8076 52.8225 28.0209C52.5872 28.4783 52.5872 28.4783 52.1951 29.0664C52.0065 29.3575 51.8193 29.6494 51.6332 29.9421C51.5418 30.0831 51.4504 30.2241 51.3562 30.3693C51.1156 30.7296 51.1156 30.7296 51.1496 31.1576C51.2423 31.2438 51.335 31.3301 51.4306 31.4189C52.0332 32.0557 52.2453 32.8974 52.5545 33.7061C52.8065 34.2591 53.027 34.5086 53.4498 34.9216C53.4498 35.1286 53.4498 35.3356 53.4498 35.5489C53.2428 35.6179 53.0358 35.6869 52.8225 35.758C52.8815 36.0633 52.943 36.3682 53.0054 36.6729C53.0394 36.8427 53.0734 37.0125 53.1084 37.1875C53.2128 37.6791 53.2128 37.6791 53.6589 38.0582C53.7365 38.4076 53.7365 38.4076 53.8157 38.764C54.1355 39.6913 54.4766 39.913 55.3318 40.3585C55.4698 40.3585 55.6078 40.3585 55.75 40.3585C55.5818 40.2808 55.4136 40.2032 55.2403 40.1232C54.7045 39.7311 54.7045 39.7311 54.5346 39.0646C54.5216 38.8705 54.5087 38.6764 54.4954 38.4765C55.0949 38.5964 55.3028 38.6566 55.75 39.1038C56.1857 39.0689 56.1857 39.0689 56.5865 38.8947C56.6555 38.7567 56.7245 38.6186 56.7956 38.4765C57.0716 38.5455 57.3476 38.6145 57.632 38.6856C57.7485 38.485 57.7485 38.485 57.8673 38.2804C58.3868 37.709 58.7587 37.7029 59.514 37.64C60.747 37.64 61.52 37.9035 62.4024 38.7509C62.9278 39.3235 63.3315 39.7893 63.4871 40.5676C63.4087 41.3648 63.4087 41.3648 63.278 42.0313C63.6921 41.9623 64.1061 41.8933 64.5327 41.8222C64.4594 41.6713 64.3861 41.5203 64.3105 41.3648C64.0927 40.7114 64.1373 40.3832 64.3236 39.7311C64.6686 39.6621 65.0137 39.5931 65.3691 39.522C65.4166 39.6557 65.464 39.7894 65.5129 39.9272C65.7537 40.4047 65.7537 40.4047 66.284 40.5284C66.8111 40.566 67.1718 40.5243 67.6694 40.3585C67.6694 40.4965 67.6694 40.6345 67.6694 40.7767C67.7815 40.8327 67.8936 40.8888 68.0092 40.9466C68.1731 41.0285 68.337 41.1105 68.5058 41.1949C68.7258 41.2941 68.9457 41.3933 69.1724 41.4955C69.7605 41.8222 69.7605 41.8222 69.9696 42.4496C68.9141 42.9613 67.9488 43.0306 66.8329 42.6587C67.0842 43.3738 67.3114 43.8299 67.8785 44.3316C68.1573 44.6104 68.4361 44.8892 68.7149 45.168C68.8529 45.099 68.991 45.03 69.1331 44.9589C69.6266 45.1546 70.1152 45.3632 70.5969 45.5862C70.5279 45.8623 70.4589 46.1383 70.3878 46.4227C69.6977 46.3537 69.0077 46.2847 68.2967 46.2136C68.2967 46.4206 68.2967 46.6276 68.2967 46.8409C68.5167 46.8021 68.7366 46.7633 68.9632 46.7233C69.6807 46.6409 70.1199 46.6694 70.806 46.8409C71.0131 46.8409 71.2201 46.8409 71.4334 46.8409C71.2705 49.9318 71.2705 49.9318 70.806 51.2322C70.0797 51.2983 69.6819 51.3205 69.0678 50.9055C68.6171 50.2544 68.5659 49.7127 68.5058 48.932C68.2406 48.9644 68.2406 48.9644 67.97 48.9974C67.1121 48.9194 66.795 48.6496 66.1378 48.1323C65.6902 47.8183 65.2797 47.7406 64.7418 47.6773C64.5327 47.4682 64.5327 47.4682 64.4412 46.7625C64.3752 45.9867 64.3752 45.9867 63.9054 45.3771C63.9054 45.1701 63.9054 44.9631 63.9054 44.7498C63.6466 44.6786 63.6466 44.6786 63.3826 44.606C62.4978 44.2742 61.7616 43.8072 60.9778 43.286C61.0468 43.01 61.1158 42.734 61.1869 42.4496C60.9799 42.4496 60.7729 42.4496 60.5596 42.4496C60.5596 42.3116 60.5596 42.1735 60.5596 42.0313C60.4302 41.971 60.3008 41.9106 60.1675 41.8484C59.7231 41.6131 59.7231 41.6131 59.3049 41.1949C59.2487 42.0354 59.2487 42.0354 59.3049 42.8678C59.6926 43.3078 59.6926 43.3078 60.1414 43.7042C60.5274 44.697 60.6028 45.3881 60.3505 46.4227C59.3572 46.6579 59.3572 46.6579 58.8867 46.4227C58.7096 45.9572 58.5796 45.4851 58.4432 45.0063C58.2435 44.5004 58.0515 44.254 57.632 43.9133C57.4595 43.853 57.287 43.7926 57.1093 43.7304C56.5865 43.4951 56.5865 43.4951 56.3382 43.0116C55.6769 42.031 54.5231 41.6371 53.4318 41.2488C52.7858 41.1618 52.4127 41.442 51.8741 41.77C51.4366 42.1433 51.4459 42.5246 51.3587 43.0769C50.5679 43.5059 49.9786 43.5228 49.0977 43.4167C48.8936 43.3935 48.6896 43.3703 48.4793 43.3465C48.3254 43.3265 48.1715 43.3066 48.0129 43.286C47.9439 43.01 47.8749 42.734 47.8038 42.4496C47.3898 42.6566 47.3898 42.6566 46.9674 42.8678C46.8638 42.1432 46.8638 42.1432 46.7582 41.404C46.3524 41.4618 46.3524 41.4618 45.9218 41.6131C45.7838 41.8201 45.6458 42.0272 45.5036 42.2405C45.3656 42.2405 45.2275 42.2405 45.0854 42.2405C44.5471 41.164 44.5232 39.8584 44.6671 38.6856C45.2536 37.9265 45.9448 37.5028 46.7582 37.0127C47.162 36.7489 47.162 36.7489 47.3856 36.3853C47.2821 35.8678 47.2821 35.8678 47.1765 35.3398C46.4174 35.1328 45.6583 34.9257 44.8762 34.7124C44.9798 35.0424 44.9798 35.0424 45.0854 35.379C45.2609 36.0484 45.3358 36.5403 45.2945 37.2218C44.6018 37.457 44.6018 37.457 43.8307 37.64C43.5202 37.433 43.5202 37.433 43.2034 37.2218C43.1641 36.5683 43.1641 36.5683 43.2034 35.9671C43.0912 35.9154 42.9791 35.8636 42.8635 35.8103C41.2667 34.9698 41.2667 34.9698 40.8378 34.255C40.6737 33.5837 40.6197 32.9286 40.5576 32.2415C40.5028 31.7416 40.5028 31.7416 40.1712 31.1837C39.7116 30.2262 39.718 29.2784 39.6485 28.23C39.5862 27.6711 39.513 27.1146 39.4393 26.5571C39.1633 26.4881 38.8873 26.4191 38.6029 26.348C38.5609 23.942 38.5609 23.942 38.812 23.2113C39.4393 22.7931 39.4393 22.7931 40.0928 22.8585C40.694 23.0022 40.694 23.0022 40.9031 23.2113C40.9116 23.5597 40.9121 23.9085 40.9031 24.2569C41.1101 24.3259 41.3172 24.3949 41.5305 24.466C41.5305 24.742 41.5305 25.018 41.5305 25.3024C42.0825 25.0954 42.6346 24.8884 43.2034 24.6751C43.1376 24.5274 43.0718 24.3797 43.004 24.2275C42.4318 22.6644 42.3946 20.8021 42.9942 19.2382C43.1323 19.1002 43.2703 18.9622 43.4125 18.82C43.4555 18.297 43.4555 18.297 43.4255 17.7091C43.406 17.0864 43.4043 16.5577 43.535 15.9472C43.5636 15.7911 43.5921 15.635 43.6216 15.4742C43.4728 15.2801 43.4728 15.2801 43.321 15.0821C42.8568 14.4508 42.9503 13.9362 42.9942 13.174C43.1323 13.174 43.2703 13.174 43.4125 13.174C43.434 12.9023 43.4556 12.6306 43.4778 12.3506C43.6065 11.1718 43.9269 10.054 44.458 8.99176C44.505 8.67042 44.5433 8.34777 44.5756 8.02462C44.5932 7.85372 44.6107 7.68282 44.6287 7.50675C44.6477 7.31024 44.6477 7.31024 44.6671 7.10976C45.0229 7.01919 45.0229 7.01919 45.386 6.92679C45.6318 6.84916 45.8776 6.77152 46.1309 6.69154C46.1999 6.55352 46.2689 6.41551 46.34 6.27332ZM46.5491 6.90065C46.4111 7.03866 46.2731 7.17668 46.1309 7.31887C45.582 7.44957 45.582 7.44957 45.0854 7.52798C45.0595 7.78245 45.0336 8.03691 45.0069 8.29908C44.9549 8.81051 44.8734 9.20777 44.6786 9.68608C44.3181 10.6019 44.1798 11.5656 43.9941 12.5295C43.8307 13.174 43.8307 13.174 43.4125 13.5922C43.4125 13.8682 43.4125 14.1443 43.4125 14.4287C43.5505 14.4977 43.6885 14.5667 43.8307 14.6378C44.0641 15.5503 43.9922 16.2317 43.8307 17.1471C43.8358 17.4652 43.8447 17.7833 43.8568 18.1012C43.8696 18.9522 43.6743 19.3588 43.2034 20.0747C42.8199 21.5789 43.0922 23.1106 43.8307 24.466C43.5599 24.9737 43.3375 25.2543 42.7892 25.4511C42.3724 25.5529 41.9515 25.6378 41.5305 25.7207C41.4873 25.5568 41.4442 25.3929 41.3998 25.224C41.1526 24.6105 41.1526 24.6105 40.4588 24.4006C40.2604 24.3532 40.062 24.3058 39.8576 24.2569C39.8576 23.9809 39.8576 23.7048 39.8576 23.4204C39.6506 23.4204 39.4435 23.4204 39.2302 23.4204C38.9793 24.6955 38.9793 24.6955 39.2302 25.9298C39.4373 25.9988 39.6443 26.0678 39.8576 26.1389C39.8805 26.3737 39.9034 26.6085 39.927 26.8504C40.1455 29.0254 40.1455 29.0254 40.7512 31.1167C41.0141 31.9111 41.1112 32.7355 41.2315 33.5615C41.2949 34.0827 41.2949 34.0827 41.5305 34.5033C41.6685 34.5033 41.8065 34.5033 41.9487 34.5033C41.9487 34.2963 41.9487 34.0893 41.9487 33.876C42.2247 34.014 42.5007 34.152 42.7851 34.2942C42.7657 34.5401 42.7657 34.5401 42.7459 34.7909C42.7653 35.0626 42.7653 35.0626 42.7851 35.3398C43.0957 35.5468 43.0957 35.5468 43.4125 35.758C43.6608 36.4115 43.6608 36.4115 43.8307 37.0127C44.1757 37.0127 44.5208 37.0127 44.8762 37.0127C44.8072 36.1156 44.7382 35.2185 44.6671 34.2942C45.0812 34.2252 45.4952 34.1562 45.9218 34.0851C45.9218 34.2231 45.9218 34.3611 45.9218 34.5033C46.2711 34.581 46.2711 34.581 46.6275 34.6602C47.3856 34.9216 47.3856 34.9216 47.6862 35.3659C47.725 35.4953 47.7638 35.6247 47.8038 35.758C47.9418 35.758 48.0798 35.758 48.222 35.758C47.9378 36.9208 47.9378 36.9208 47.3464 37.3263C47.1523 37.4298 46.9582 37.5334 46.7582 37.64C46.1686 37.9923 45.6929 38.3297 45.2945 38.8947C45.1717 39.6767 45.2065 40.4103 45.2945 41.1949C45.4325 41.1949 45.5705 41.1949 45.7127 41.1949C45.7127 41.0569 45.7127 40.9189 45.7127 40.7767C45.9878 40.8299 46.2621 40.8874 46.5361 40.9466C46.7653 40.9939 46.7653 40.9939 46.9992 41.0421C47.1267 41.0926 47.2542 41.143 47.3856 41.1949C47.4546 41.4019 47.5236 41.6089 47.5947 41.8222C47.7327 41.8912 47.8707 41.9602 48.0129 42.0313C48.1509 42.1003 48.2889 42.1694 48.4311 42.2405C48.5001 42.4475 48.5691 42.6545 48.6402 42.8678C49.6203 43.0619 49.6203 43.0619 50.6007 42.9593C51.1071 42.5113 51.0928 42.0566 51.1496 41.404C51.486 41.3134 51.486 41.3134 51.8292 41.221C52.5753 41.0372 52.5753 41.0372 53.0144 40.7252C53.4498 40.5676 53.4498 40.5676 53.9669 40.7938C54.1456 40.9132 54.3243 41.0327 54.5084 41.1557C55.0763 41.5289 55.5213 41.8157 56.1683 42.0313C56.4261 42.3502 56.6836 42.6694 56.9369 42.9919C57.2158 43.3321 57.2158 43.3321 57.7497 43.4821C58.677 43.8863 58.9803 44.8966 59.3572 45.7823C59.409 45.9246 59.4607 46.0669 59.514 46.2136C59.7211 46.0065 59.9281 45.7995 60.1414 45.5862C60.0508 45.362 59.9602 45.1377 59.8669 44.9066C59.816 44.7805 59.765 44.6543 59.7125 44.5243C59.5248 44.105 59.5248 44.105 59.1938 43.7369C58.799 43.1573 58.736 42.6702 58.6384 41.9791C58.6052 41.7537 58.5721 41.5284 58.5379 41.2962C58.5035 41.039 58.5035 41.039 58.4685 40.7767C58.9635 40.7505 58.9635 40.7505 59.514 40.7767C59.8012 41.0469 60.0808 41.3255 60.3505 41.6131C60.5575 41.6131 60.7645 41.6131 60.9778 41.6131C60.9778 41.7511 60.9778 41.8891 60.9778 42.0313C61.1158 42.1003 61.2538 42.1694 61.396 42.2405C61.4231 42.4871 61.4231 42.4871 61.4508 42.7387C61.5525 43.3382 61.5525 43.3382 62.1451 43.6111C62.4795 43.7478 62.4795 43.7478 62.8206 43.8872C64.257 44.5533 64.257 44.5533 64.6895 45.2726C64.9475 45.9949 65.025 46.4999 64.9509 47.2591C65.242 47.3497 65.242 47.3497 65.539 47.4421C66.2056 47.6773 66.2056 47.6773 66.8329 48.0956C67.4864 48.1305 67.4864 48.1305 68.0876 48.0956C68.0876 48.2336 68.0876 48.3716 68.0876 48.5138C68.2946 48.4448 68.5016 48.3758 68.7149 48.3047C68.7839 48.1667 68.8529 48.0287 68.924 47.8865C69.4599 47.7558 69.4599 47.7558 69.9696 47.6773C69.8316 47.4703 69.6936 47.2633 69.5514 47.05C69.3444 47.05 69.1373 47.05 68.924 47.05C68.924 47.188 68.924 47.326 68.924 47.4682C68.579 47.4682 68.234 47.4682 67.8785 47.4682C67.913 47.2397 67.9475 47.0111 67.983 46.7756C68.1016 46.0305 68.1016 46.0305 68.0876 45.3771C67.9496 45.3771 67.8116 45.3771 67.6694 45.3771C67.6176 45.2175 67.5659 45.058 67.5125 44.8936C67.3007 44.3077 67.3007 44.3077 66.8068 44.044C66.6774 43.9319 66.548 43.8198 66.4147 43.7042C66.3624 42.9331 66.3624 42.9331 66.4147 42.2405C67.1738 42.3095 67.9328 42.3785 68.7149 42.4496C68.7149 42.2425 68.7149 42.0355 68.7149 41.8222C67.8842 41.2684 67.1226 41.236 66.146 41.1034C65.5783 40.9858 65.5783 40.9858 65.16 40.5676C64.9549 41.2059 64.9549 41.6021 65.16 42.2405C63.5934 42.523 63.5934 42.523 63.1277 42.2012C62.7966 41.7328 62.7573 41.411 62.716 40.842C62.7023 40.673 62.6886 40.504 62.6744 40.3299C62.6666 40.2013 62.6588 40.0727 62.6507 39.9402C62.5127 39.9402 62.3747 39.9402 62.2325 39.9402C62.185 39.772 62.1376 39.6038 62.0887 39.4305C61.9529 39.1653 61.9529 39.1653 61.8143 38.8947C61.2874 38.7405 61.2874 38.7405 60.7687 38.6856C60.6997 38.5476 60.6307 38.4095 60.5596 38.2673C60.4216 38.3363 60.2836 38.4054 60.1414 38.4765C60.0034 38.4074 59.8653 38.3384 59.7231 38.2673C59.305 38.259 58.8866 38.2583 58.4685 38.2673C58.163 38.8209 58.0503 39.0817 58.0503 39.7311C57.9122 39.7311 57.7742 39.7311 57.632 39.7311C57.6148 39.895 57.5975 40.0589 57.5798 40.2278C57.4229 40.7767 57.4229 40.7767 57.0586 41.0405C56.2734 41.2973 55.7415 40.945 55.0149 40.6247C54.2907 40.2535 53.7965 39.9126 53.2407 39.3129C53.2015 38.7901 53.2015 38.7901 53.2407 38.2673C53.0984 38.0344 53.0984 38.0344 52.9532 37.7968C52.4922 37.0167 52.3588 36.2235 52.1951 35.3398C52.3331 35.3398 52.4712 35.3398 52.6134 35.3398C52.4742 34.9912 52.3347 34.6427 52.1951 34.2942C52.111 34.0842 52.0269 33.8743 51.9403 33.6579C51.8519 33.4409 51.7635 33.2239 51.6724 33.0004C51.5839 32.7817 51.4955 32.5631 51.4044 32.3379C51.1801 31.7671 51.1801 31.7671 50.7314 31.3667C50.6007 30.8178 50.6007 30.8178 50.5222 30.3211C50.7293 30.2521 50.9363 30.1831 51.1496 30.112C51.4006 29.7446 51.4006 29.7446 51.5939 29.3017C51.6635 29.1556 51.733 29.0095 51.8047 28.859C52.1106 28.1507 52.2156 27.8891 52.0122 27.1191C51.986 26.348 51.986 26.348 52.2237 26.0033C53.187 25.1186 54.3171 24.6755 55.5409 24.2569C55.5409 24.1189 55.5409 23.9809 55.5409 23.8387C55.7048 23.8042 55.8687 23.7697 56.0376 23.7341C56.6779 23.4535 56.6779 23.4535 56.8087 22.6232C56.8372 22.4733 56.8658 22.3235 56.8952 22.169C57.0547 21.5548 57.4355 21.1814 57.8411 20.702C58.3013 19.7462 58.6158 18.7953 58.8867 17.7744C58.6797 17.7744 58.4727 17.7744 58.2594 17.7744C58.1559 17.0499 58.1559 17.0499 58.0503 16.3107C57.8109 16.2718 57.8109 16.2718 57.5667 16.2322C56.7771 15.7548 56.7023 15.2398 56.4811 14.3698C56.329 13.5364 56.3184 12.7621 56.3774 11.9193C56.3838 11.7522 56.3903 11.5851 56.397 11.4129C56.4671 10.3397 56.6221 9.94835 57.4229 9.20087C57.4584 8.64646 57.4584 8.64646 57.2138 8.15532C56.8024 7.87088 56.8024 7.87088 56.3774 7.73709C56.2868 7.90099 56.1962 8.06488 56.1029 8.23373C55.75 8.78265 55.75 8.78265 55.1227 9.20087C54.4962 9.22538 54.4962 9.22538 53.7765 9.17473C53.4211 9.15452 53.4211 9.15452 53.0585 9.13389C52.2896 8.96686 52.0816 8.73196 51.5678 8.15532C51.0874 7.84737 51.0874 7.84737 50.5876 7.59333C49.7003 7.12428 49.7003 7.12428 49.4767 6.90065C48.8076 6.8754 48.1947 6.85521 47.5424 7.01827C47.1765 7.10976 47.1765 7.10976 46.5491 6.90065ZM70.5969 47.6773C70.5279 48.0224 70.4589 48.3674 70.3878 48.7229C70.2627 48.7445 70.1377 48.766 70.0088 48.7882C69.4923 48.9506 69.2748 49.1559 68.924 49.5593C69.2982 50.3438 69.2982 50.3438 70.0088 50.7748C70.1339 50.7877 70.259 50.8007 70.3878 50.814C70.8278 49.7414 70.8515 48.8147 70.806 47.6773C70.737 47.6773 70.668 47.6773 70.5969 47.6773Z" fill="white"/>
<path d="M81.4711 66.2883C81.7471 66.2883 82.0231 66.2883 82.3075 66.2883C82.3039 66.4893 82.3039 66.4893 82.3002 66.6943C82.2889 67.7696 82.3496 68.7783 82.5166 69.8432C82.582 70.4183 82.582 70.4183 82.5166 70.8888C82.0984 71.2678 82.0984 71.2678 81.6802 71.5161C81.7492 71.7921 81.8182 72.0682 81.8893 72.3526C82.0877 72.3827 82.2861 72.4129 82.4905 72.444C83.1439 72.5617 83.1439 72.5617 83.5622 72.7708C83.5837 72.5638 83.6053 72.3567 83.6275 72.1434C83.8009 70.9417 84.1083 69.8373 85.0259 69.0068C85.7658 69.7788 85.7769 70.4902 85.8624 71.5161C85.6942 71.5636 85.526 71.611 85.3527 71.6599C85.1759 71.7504 84.999 71.841 84.8168 71.9343C84.6626 72.4612 84.6626 72.4612 84.6077 72.9799C84.4007 73.0834 84.4007 73.0834 84.1895 73.189C84.6035 74.0171 84.6035 74.0171 85.0259 74.8619C85.647 74.7584 85.647 74.7584 86.2806 74.6528C86.2806 75.3428 86.2806 76.0329 86.2806 76.7439C86.4876 76.8129 86.6947 76.8819 86.908 76.953C87.2017 77.5404 87.1691 77.9752 87.1171 78.6259C86.7449 79.2817 86.5895 79.4291 85.8624 79.6715C85.8624 79.8095 85.8624 79.9475 85.8624 80.0897C86.3454 80.0897 86.8285 80.0897 87.3262 80.0897C87.5099 80.8706 87.5539 81.5885 87.5353 82.3899C87.7423 82.3899 87.9493 82.3899 88.1626 82.3899C88.1475 82.5462 88.1324 82.7026 88.1169 82.8637C88.0975 83.0696 88.0781 83.2755 88.0581 83.4877C88.0387 83.6915 88.0192 83.8953 87.9993 84.1053C87.9623 84.5778 87.9535 85.0526 87.9535 85.5266C88.0829 85.6085 88.2123 85.6905 88.3456 85.7749C89.0575 86.3821 89.0884 87.1375 89.2082 88.0359C89.2421 88.2712 89.2421 88.2712 89.2768 88.5113C89.3709 89.7306 88.9829 90.4475 88.2892 91.434C87.9535 91.7999 87.9535 91.7999 87.3262 92.009C87.3262 92.4231 87.3262 92.8371 87.3262 93.2637C87.1192 93.2637 86.9121 93.2637 86.6988 93.2637C86.5608 94.4368 86.4228 95.6099 86.2806 96.8186C86.0736 96.8876 85.8666 96.9566 85.6533 97.0277C85.1705 96.0412 84.9427 95.2191 84.8609 94.1238C84.7866 93.3793 84.7288 92.9666 84.1895 92.4272C84.0501 92.009 83.9107 91.5908 83.7713 91.1726C83.6333 91.0346 83.4953 90.8965 83.3531 90.7543C83.2841 91.3064 83.215 91.8585 83.1439 92.4272C82.7519 92.375 82.7519 92.375 82.3075 92.2181C82.0461 91.7868 82.0461 91.7868 81.8893 91.3817C81.4677 91.5313 81.4677 91.5313 81.0528 91.7999C80.9144 92.214 80.9144 92.214 80.8437 92.6364C80.7057 92.7744 80.5677 92.9124 80.4255 93.0546C80.2901 93.5921 80.2901 93.5921 80.2164 94.1001C80.4234 94.1691 80.6304 94.2381 80.8437 94.3092C80.9127 94.4473 80.9817 94.5853 81.0528 94.7275C81.2599 94.7965 81.4669 94.8655 81.6802 94.9366C82.3434 96.1155 82.8772 97.4012 82.6604 98.7659C82.3581 99.8298 81.7645 100.592 81.0528 101.419C80.9062 101.626 80.7596 101.833 80.6085 102.046C80.4791 102.184 80.3497 102.322 80.2164 102.465C79.9404 102.465 79.6643 102.465 79.3799 102.465C79.3627 102.266 79.3454 102.068 79.3277 101.863C79.2439 101.188 79.2439 101.188 78.7395 100.922C78.6058 100.879 78.4721 100.836 78.3344 100.792C78.4748 99.9957 78.6956 99.2543 78.9617 98.4915C78.8237 98.4915 78.6857 98.4915 78.5435 98.4915C78.4874 98.6855 78.4314 98.8796 78.3736 99.0796C78.1366 99.7157 78.0262 99.9763 77.4979 100.373C76.1929 100.371 74.8791 99.6886 73.7339 99.1188C73.5407 99.0258 73.3474 98.9328 73.1483 98.837C71.7708 98.138 70.6749 97.392 69.9699 95.9821C69.8533 95.3322 69.7556 94.6802 69.6563 94.0274C69.6091 93.4909 69.6091 93.4909 69.3426 93.2637C69.3532 92.861 69.3532 92.861 69.408 92.3619C69.4244 92.1988 69.4408 92.0357 69.4578 91.8677C69.5564 91.3574 69.6988 90.9877 69.9699 90.5452C70.108 90.4805 70.246 90.4158 70.3882 90.3492C70.9632 90.0437 71.034 89.6852 71.2246 89.0815C70.2011 87.7547 69.5279 86.9997 67.8788 86.5721C67.6657 86.3672 67.4559 86.1585 67.2515 85.9448C66.7065 85.7938 66.7065 85.7938 66.2059 85.7357C66.2448 85.8608 66.2836 85.9858 66.3236 86.1147C66.415 86.5721 66.415 86.5721 66.2059 87.1995C65.8792 87.5523 65.8792 87.5523 65.5786 87.8268C65.7856 88.0338 65.7856 88.0338 65.9968 88.245C65.9968 88.521 65.9968 88.7971 65.9968 89.0815C65.5002 89.0161 65.5002 89.0161 64.9513 88.8723C64.8133 88.6653 64.6752 88.4583 64.533 88.245C63.8882 88.1927 63.8882 88.1927 63.2784 88.245C63.2784 88.107 63.2784 87.969 63.2784 87.8268C63.1404 87.8268 63.0023 87.8268 62.8602 87.8268C62.8041 88.0597 62.748 88.2926 62.6903 88.5325C62.4419 89.2906 62.4419 89.2906 61.8146 89.7088C61.5386 89.7088 61.2625 89.7088 60.9782 89.7088C60.8355 88.5857 60.7449 87.4953 60.769 86.363C60.1541 86.4015 60.1541 86.4015 59.5144 86.5721C59.2046 86.9998 59.1105 87.3389 59.0047 87.8529C58.887 88.245 58.887 88.245 58.2597 88.6632C58.1083 89.0938 58.1083 89.0938 58.0506 89.4997C57.9126 89.4997 57.7746 89.4997 57.6324 89.4997C57.6194 89.7067 57.6065 89.9137 57.5932 90.127C57.46 91.1137 56.9408 91.8364 56.3777 92.6364C55.6653 92.5716 55.215 92.4926 54.6264 92.0744C54.1791 91.4378 54.1594 91.0992 54.2866 90.3361C54.5654 90.0573 54.8442 89.7785 55.123 89.4997C55.5507 88.5997 55.7917 87.7646 55.7112 86.7682C55.765 85.6372 56.234 85.0687 57.005 84.2719C57.8336 83.6178 58.7113 83.4586 59.7235 83.2263C59.9305 83.1228 59.9305 83.1228 60.1417 83.0172C60.463 82.9702 60.7857 82.9319 61.1088 82.8996C61.2797 82.8821 61.4506 82.8646 61.6267 82.8465C61.7577 82.8338 61.8887 82.8212 62.0237 82.8081C61.9814 82.686 61.9391 82.5639 61.8955 82.4381C61.7546 81.6254 62.2094 81.1767 62.651 80.5079C63.3232 80.1718 63.9969 80.2868 64.7422 80.2988C64.8802 79.8157 65.0182 79.3327 65.1604 78.835C65.7814 78.9385 65.7814 78.9385 66.415 79.0441C66.415 79.1821 66.415 79.3201 66.415 79.4623C66.5272 79.4106 66.6393 79.3588 66.7549 79.3055C67.2515 79.2532 67.2515 79.2532 67.8919 79.5669C68.6243 80.1902 68.8541 80.6375 69.1335 81.5535C69.1727 82.3768 69.1727 82.3768 69.1335 83.0172C69.2645 82.987 69.3955 82.9569 69.5305 82.9257C69.7868 82.8675 69.7868 82.8675 70.0484 82.8081C70.3031 82.7499 70.3031 82.7499 70.563 82.6905C71.0155 82.599 71.0155 82.599 71.4337 82.599C71.4542 82.4578 71.4747 82.3165 71.4958 82.171C71.7525 80.6394 71.7525 80.6394 72.2571 79.972C72.6884 79.6715 72.6884 79.6715 73.3157 79.4623C73.6825 79.6175 73.6825 79.6175 74.0607 79.8544C74.186 79.9315 74.3114 80.0086 74.4405 80.088C74.5524 80.1576 74.6642 80.2271 74.7795 80.2988C74.9175 80.3678 75.0555 80.4368 75.1977 80.5079C75.2667 79.3348 75.3357 78.1617 75.4068 76.953C76.4524 76.7439 76.4524 76.7439 77.0013 77.0184C77.1652 77.1348 77.3291 77.2513 77.4979 77.3712C77.8085 77.5782 77.8085 77.5782 78.1253 77.7894C78.1943 77.3064 78.2633 76.8234 78.3344 76.3257C78.9617 76.3257 78.9617 76.3257 79.5891 76.7439C80.138 76.7788 80.138 76.7788 80.6346 76.7439C80.6878 75.4956 80.4418 74.4544 80.0771 73.2789C79.8419 72.4734 79.761 71.9064 80.0073 71.0979C80.4213 71.0979 80.8354 71.0979 81.2619 71.0979C81.2619 70.5458 81.2619 69.9938 81.2619 69.425C81.0549 69.425 80.8479 69.425 80.6346 69.425C80.3862 68.7079 80.4669 68.3004 80.7261 67.5953C80.7862 67.4281 80.8463 67.261 80.9083 67.0888C80.956 66.9627 81.0037 66.8365 81.0528 66.7066C81.1908 66.7066 81.3289 66.7066 81.4711 66.7066C81.4711 66.5685 81.4711 66.4305 81.4711 66.2883ZM81.4711 67.1248C81.4021 67.2628 81.333 67.4008 81.2619 67.543C81.469 67.543 81.676 67.543 81.8893 67.543C81.8893 67.405 81.8893 67.267 81.8893 67.1248C81.7513 67.1248 81.6133 67.1248 81.4711 67.1248ZM81.2619 67.7521C81.1929 68.0971 81.1239 68.4422 81.0528 68.7977C81.1908 68.7977 81.3289 68.7977 81.4711 68.7977C81.5401 68.5216 81.6091 68.2456 81.6802 67.9612C81.5422 67.8922 81.4041 67.8232 81.2619 67.7521ZM81.6802 68.7977C81.8893 69.2159 81.8893 69.2159 81.8893 69.2159L81.6802 68.7977ZM84.8168 70.0523C84.7478 70.3974 84.6788 70.7424 84.6077 71.0979C84.8147 71.0979 85.0218 71.0979 85.2351 71.0979C85.2351 70.7529 85.2351 70.4078 85.2351 70.0523C85.097 70.0523 84.959 70.0523 84.8168 70.0523ZM80.4255 71.5161C80.3687 72.4058 80.4223 73.0455 80.7392 73.8817C81.1114 74.9019 81.164 75.8751 81.0528 76.953C80.8437 77.1621 80.8437 77.1621 80.138 77.1883C79.3799 77.1621 79.3799 77.1621 78.7526 76.953C78.6836 77.4361 78.6146 77.9191 78.5435 78.4168C78.1985 78.4168 77.8534 78.4168 77.4979 78.4168C77.4505 78.2874 77.4031 78.158 77.3542 78.0247C77.0004 77.4519 76.6631 77.3607 76.0342 77.1621C75.5857 77.6106 75.6704 78.539 75.6029 79.1617C75.5839 79.3304 75.5649 79.499 75.5453 79.6727C75.4983 80.0904 75.4525 80.5082 75.4068 80.9261C74.8322 80.801 74.4688 80.6599 73.9431 80.3641C73.3524 80.0296 73.3524 80.0296 72.8452 80.2073C72.0369 80.8713 71.9183 81.8346 71.6428 82.8081C71.3158 83.1351 70.9315 83.0968 70.4796 83.161C69.4296 83.3535 68.8126 83.7473 68.0234 84.4508C67.9067 84.5298 67.79 84.6087 67.6697 84.6901C67.4627 84.6211 67.2557 84.5521 67.0424 84.481C67.3307 83.9045 67.7481 83.7568 68.297 83.4355C68.7602 83.0667 68.7602 83.0667 68.7324 82.6015C68.6207 81.6382 68.5253 80.8558 67.8788 80.0897C67.4428 79.906 67.4428 79.906 67.0424 79.8806C67.0424 80.0186 67.0424 80.1566 67.0424 80.2988C66.5263 80.0579 66.1959 79.8706 65.7877 79.4623C65.7877 79.6004 65.7877 79.7384 65.7877 79.8806C65.5807 79.9496 65.3737 80.0186 65.1604 80.0897C65.1604 80.2277 65.1604 80.3657 65.1604 80.5079C64.9711 80.5087 64.9711 80.5087 64.7781 80.5095C63.6079 80.5629 63.6079 80.5629 62.7295 81.3182C62.3599 81.9597 62.3599 81.9597 62.651 82.599C62.3023 83.069 62.02 83.3968 61.4282 83.5082C61.2797 83.5187 61.1312 83.5292 60.9782 83.54C59.5651 83.6498 58.0855 83.9231 56.9773 84.8568C56.352 85.6071 56.1566 85.9683 56.2209 86.9642C56.2726 87.1799 56.3244 87.3955 56.3777 87.6177C56.1707 87.8247 56.1707 87.8247 55.9595 88.0359C55.7894 88.5053 55.6542 88.98 55.5159 89.4597C55.3321 89.9179 55.3321 89.9179 54.994 90.2495C54.8508 90.3959 54.8508 90.3959 54.7048 90.5452C54.7535 91.2038 54.7535 91.2038 54.9139 91.7999C55.328 91.9379 55.742 92.0759 56.1686 92.2181C56.6193 91.3457 57.0062 90.4687 57.3579 89.552C57.4493 89.3158 57.5407 89.0797 57.6348 88.8364C57.8645 88.2836 57.8645 88.2836 57.8415 87.8268C58.152 87.7233 58.152 87.7233 58.4688 87.6177C58.5335 87.4538 58.5982 87.2899 58.6649 87.121C58.9284 86.4699 59.1005 86.2647 59.7235 85.9448C60.5077 85.9056 60.5077 85.9056 61.1873 85.9448C61.2563 86.5658 61.3253 87.1869 61.3964 87.8268C61.7414 87.8268 62.0864 87.8268 62.4419 87.8268C62.5713 87.5227 62.5713 87.5227 62.7033 87.2125C63.0693 86.5721 63.0693 86.5721 63.5267 86.3892C63.6518 86.3805 63.7768 86.3719 63.9057 86.363C63.9057 86.7771 63.9057 87.1911 63.9057 87.6177C64.2507 87.6177 64.5958 87.6177 64.9513 87.6177C65.0548 87.3071 65.0548 87.3071 65.1604 86.9903C65.3674 86.9903 65.5744 86.9903 65.7877 86.9903C65.7877 86.5073 65.7877 86.0243 65.7877 85.5266C66.871 85.4628 67.4026 85.5576 68.297 86.1539C68.7756 86.3677 69.2578 86.5695 69.7429 86.7682C70.519 87.1635 70.8735 87.6708 71.2246 88.4541C71.4316 88.4541 71.6386 88.4541 71.8519 88.4541C71.7712 89.1058 71.6643 89.7198 71.4337 90.3361C71.0155 90.6149 70.5973 90.8938 70.179 91.1726C69.9484 91.7889 69.8416 92.4029 69.7608 93.0546C69.8988 93.0546 70.0369 93.0546 70.179 93.0546C70.1772 93.229 70.1753 93.4034 70.1733 93.5831C70.2122 95.0565 70.3483 96.1159 71.3455 97.2368C72.3742 98.0863 73.5621 98.6001 74.7795 99.1188C74.9526 99.1945 75.1256 99.2703 75.3039 99.3483C76.0523 99.6542 76.6883 99.822 77.4979 99.7461C77.774 99.2631 78.05 98.78 78.3344 98.2824C78.6104 98.2824 78.8864 98.2824 79.1708 98.2824C79.3015 98.7659 79.3015 98.7659 79.3799 99.3279C79.2419 99.5349 79.1039 99.742 78.9617 99.9552C79.041 100.721 79.4459 101.372 79.7982 102.046C81.5274 100.376 81.5274 100.376 82.2422 98.1647C82.1514 97.1431 81.8166 96.2162 81.2619 95.3548C80.7376 94.9428 80.4631 94.7275 79.7982 94.7275C79.8165 94.4266 79.8391 94.1261 79.8635 93.8257C79.8756 93.6583 79.8878 93.4909 79.9003 93.3184C80.0265 92.7603 80.2211 92.5976 80.6346 92.2181C80.7381 91.9076 80.7381 91.9076 80.8437 91.5908C81.0162 91.4657 81.1888 91.3406 81.3665 91.2118C81.9561 90.7985 81.9561 90.7985 81.9677 90.1139C82.0984 89.4997 82.0984 89.4997 82.4341 89.28C82.8026 89.1248 83.1822 88.9967 83.5622 88.8723C83.5875 89.0034 83.6128 89.1344 83.639 89.2693C83.6915 89.5257 83.6915 89.5257 83.7451 89.7872C83.7961 90.0419 83.7961 90.0419 83.8481 90.3018C83.9525 90.7934 83.9525 90.7934 84.3986 91.1726C84.6118 91.6587 84.8211 92.1466 85.0259 92.6364C85.095 92.7054 85.164 92.7744 85.2351 92.8455C85.2946 93.4872 85.3289 94.1289 85.3649 94.7724C85.3882 95.3832 85.3882 95.3832 85.8624 95.773C86.012 94.792 86.1242 94.0233 85.8624 93.0546C85.7927 92.7061 85.723 92.3575 85.6533 92.009C85.8042 92.022 85.9552 92.0349 86.1107 92.0482C86.8502 91.9989 87.1636 91.8433 87.7444 91.3817C88.6887 90.1566 88.6904 89.1281 88.5808 87.6177C88.5679 87.3805 88.555 87.1433 88.5416 86.8989C88.4189 86.3098 88.4189 86.3098 87.8228 86.0232C87.3262 85.5266 87.3262 85.5266 87.3041 84.9172C87.3602 84.2789 87.4348 83.65 87.5353 83.0172C87.2593 83.0172 86.9832 83.0172 86.6988 83.0172C86.7478 82.7981 86.7478 82.7981 86.7977 82.5745C86.8587 82.289 86.8587 82.289 86.921 81.9978C86.9623 81.8086 87.0035 81.6194 87.046 81.4244C87.1656 80.924 87.1656 80.924 86.908 80.5079C86.4249 80.5079 85.9419 80.5079 85.4442 80.5079C85.3752 80.1629 85.3062 79.8178 85.2351 79.4623C85.6491 79.2553 85.6491 79.2553 86.0715 79.0441C86.0715 78.9061 86.0715 78.7681 86.0715 78.6259C86.2785 78.5569 86.4855 78.4879 86.6988 78.4168C86.5888 77.6247 86.41 77.1262 85.8624 76.5348C85.7244 76.5348 85.5864 76.5348 85.4442 76.5348C85.5132 76.1207 85.5822 75.7067 85.6533 75.2801C85.3083 75.2801 84.9632 75.2801 84.6077 75.2801C84.5444 75.1515 84.481 75.023 84.4158 74.8905C83.7416 73.5631 83.7416 73.5631 82.5166 72.7708C82.37 72.7449 82.2233 72.719 82.0723 72.6924C81.4812 72.4953 81.3597 72.0364 81.0528 71.5161C80.8458 71.5161 80.6388 71.5161 80.4255 71.5161ZM63.2784 86.7812C63.4875 87.1995 63.4875 87.1995 63.4875 87.1995L63.2784 86.7812ZM82.9348 89.2906C82.7203 89.5652 82.5109 89.844 82.3075 90.127C82.8251 90.334 82.8251 90.334 83.3531 90.5452C83.2841 90.1312 83.215 89.7172 83.1439 89.2906C83.0749 89.2906 83.0059 89.2906 82.9348 89.2906ZM82.5166 90.5452C82.7257 91.1726 82.7257 91.1726 82.7257 91.1726L82.5166 90.5452ZM86.0715 92.4272C86.1405 92.6343 86.2095 92.8413 86.2806 93.0546C86.2806 92.8476 86.2806 92.6405 86.2806 92.4272C86.2116 92.4272 86.1426 92.4272 86.0715 92.4272Z" fill="white"/>
<path d="M78.702 50.5926C79.2423 51.0069 79.563 51.2992 79.6953 51.9772C79.7471 52.2295 79.7471 52.2295 79.7999 52.4869C80.0112 52.612 80.2225 52.737 80.4403 52.8659C80.643 53.0168 80.8457 53.1678 81.0545 53.3233C81.1446 54.1339 81.1189 54.7131 80.9402 55.4994C80.8358 56.0967 80.8546 56.602 80.9108 57.205C80.9272 57.3993 80.9437 57.5937 80.9606 57.7939C81.1117 58.6755 81.4437 59.209 82.1001 59.8058C82.0311 60.0128 81.9621 60.2198 81.891 60.4331C81.9816 60.5151 82.0721 60.597 82.1654 60.6814C82.5735 61.1197 82.8508 61.5865 83.1457 62.106C82.7316 62.2095 82.7316 62.2095 82.3092 62.3151C82.2402 62.1081 82.1712 61.9011 82.1001 61.6878C81.8692 61.7104 81.8692 61.7104 81.6337 61.7335C81.4296 61.7529 81.2256 61.7723 81.0153 61.7923C80.814 61.8117 80.6126 61.8311 80.4052 61.8511C79.2561 61.938 79.2561 61.938 78.7543 61.8969C78.4014 61.3872 78.4014 61.3872 78.127 60.8513C77.989 60.7823 77.851 60.7133 77.7088 60.6422C77.6804 61.2133 77.6598 61.7829 77.6434 62.3543C77.6347 62.5151 77.6259 62.6759 77.6169 62.8416C77.5974 63.7509 77.6015 64.0749 78.225 64.7852C78.3997 64.9362 78.5743 65.0871 78.7543 65.2427C78.9242 66.0399 78.9242 66.0399 78.9634 66.7064C79.1014 66.7064 79.2395 66.7064 79.3816 66.7064C79.3816 67.0515 79.3816 67.3965 79.3816 67.752C78.9676 67.959 78.9676 67.959 78.5452 68.1702C78.6444 68.2392 78.7436 68.3082 78.8458 68.3793C79.3519 69.0272 79.3151 69.6591 79.3816 70.4704C78.3628 70.0489 77.9517 69.3529 77.4996 68.3793C77.5687 68.7934 77.6377 69.2074 77.7088 69.634C76.7543 69.5204 76.0416 69.2587 75.1994 68.7976C75.2062 68.3687 75.213 67.9399 75.2198 67.511C75.2424 67.121 75.2424 67.121 74.9903 66.9156C75.0317 66.4488 75.081 65.9827 75.1341 65.5171C75.2651 64.2796 75.2651 64.2796 74.7943 63.1777C74.6519 63.0311 74.5096 62.8844 74.363 62.7333C74.225 62.9403 74.087 63.1474 73.9448 63.3607C73.5307 63.2917 73.1167 63.2226 72.6901 63.1516C72.5896 62.5896 72.4894 62.0276 72.3895 61.4656C72.3613 61.3083 72.3332 61.151 72.3041 60.989C72.1355 60.0389 71.9844 59.0889 71.8536 58.1329C72.0607 58.0294 72.0607 58.0294 72.2719 57.9238C72.2719 57.6477 72.2719 57.3717 72.2719 57.0873C73.5807 56.9866 73.5807 56.9866 74.2584 57.4271C74.5721 57.9238 74.5721 57.9238 74.5329 58.5642C74.4175 58.9812 74.2907 59.3953 74.1539 59.8058C74.9363 59.7272 74.9363 59.7272 75.5131 59.2307C75.6779 58.7335 75.6779 58.7335 75.3301 58.2374C75.218 58.0649 75.1058 57.8924 74.9903 57.7147C74.9903 57.4386 74.9903 57.1626 74.9903 56.8782C75.2663 57.0162 75.5424 57.1542 75.8268 57.2964C75.8268 57.4344 75.8268 57.5725 75.8268 57.7147C76.1028 57.7147 76.3788 57.7147 76.6632 57.7147C76.7322 57.5766 76.8012 57.4386 76.8723 57.2964C76.5963 57.1584 76.3203 57.0204 76.0359 56.8782C76.0359 56.7402 76.0359 56.6022 76.0359 56.46C75.9065 56.4082 75.7771 56.3565 75.6438 56.3032C75.1994 56.0418 75.1994 56.0418 75.0295 55.6366C74.6989 55.0625 74.29 54.9978 73.6956 54.7618C73.019 54.433 72.614 53.9737 72.2719 53.3233C72.0089 52.4965 71.8138 51.6645 71.6445 50.814C72.3784 50.5693 72.7347 50.6561 73.4873 50.8009C74.3536 50.9667 75.1533 51.0455 76.0359 51.0231C76.0359 50.8851 76.0359 50.7471 76.0359 50.6049C76.9052 50.3267 77.8674 50.1436 78.702 50.5926ZM76.0097 51.2453C74.7585 51.548 73.5429 51.3627 72.2719 51.2322C72.459 52.5142 72.6545 53.3429 73.7356 54.1598C73.9898 54.2753 74.247 54.3842 74.5067 54.4865C75.1994 54.7871 75.1994 54.7871 75.5 55.2445C75.5388 55.3696 75.5777 55.4947 75.6176 55.6235C75.7557 55.6235 75.8937 55.6235 76.0359 55.6235C76.1006 55.7572 76.1653 55.8909 76.2319 56.0287C76.4195 56.4466 76.4195 56.4466 76.6632 56.6691C77.0116 56.6776 77.3604 56.678 77.7088 56.6691C77.1337 58.0806 77.1337 58.0806 76.6632 58.5511C76.8012 58.6891 76.9392 58.8271 77.0814 58.9693C77.2121 59.5182 77.2121 59.5182 77.2905 60.0149C77.4889 60.0666 77.6873 60.1184 77.8917 60.1717C78.5452 60.4331 78.5452 60.4331 78.7412 60.8644C78.8146 60.9981 78.8879 61.1318 78.9634 61.2696C79.7704 61.4603 80.2633 61.5333 81.0545 61.2696C81.3324 60.0577 81.3324 60.0577 80.8454 58.9432C80.3807 58.1752 80.3602 57.5754 80.4182 56.6928C80.4473 56.2466 80.4473 56.2466 80.3128 55.8122C80.1763 55.239 80.3912 54.888 80.6363 54.3689C80.4983 54.3689 80.3603 54.3689 80.2181 54.3689C80.3561 54.0929 80.4941 53.8168 80.6363 53.5324C80.2223 53.3944 79.8082 53.2564 79.3816 53.1142C79.3644 52.8856 79.3471 52.657 79.3294 52.4215C79.2376 51.6675 79.2376 51.6675 78.8458 51.2453C77.8806 50.8246 76.9785 50.9159 76.0097 51.2453ZM72.8992 57.5055C72.9399 57.9133 72.9399 57.9133 73.1083 58.342C73.5231 58.6106 73.5231 58.6106 73.9448 58.7602C74.0138 58.6222 74.0828 58.4842 74.1539 58.342C73.8831 57.9112 73.8831 57.9112 73.5265 57.5055C73.3195 57.5055 73.1125 57.5055 72.8992 57.5055ZM72.481 58.9693C72.5087 59.0833 72.5365 59.1974 72.5651 59.3148C72.8039 60.3343 72.9639 61.3224 73.0364 62.3674C73.0601 62.4881 73.0839 62.6089 73.1083 62.7333C73.2463 62.8023 73.3843 62.8713 73.5265 62.9424C73.6645 62.7354 73.8026 62.5284 73.9448 62.3151C74.3107 62.3412 74.3107 62.3412 74.7812 62.5242C75.4354 63.3279 75.7825 63.9926 75.8268 65.0336C75.7578 65.1888 75.6887 65.3441 75.6176 65.5041C75.2912 66.4018 75.3733 67.2533 75.6176 68.1702C76.0863 68.7344 76.0863 68.7344 76.6632 69.0067C76.8012 69.0067 76.9392 69.0067 77.0814 69.0067C77.0124 68.2476 76.9434 67.4885 76.8723 66.7064C77.7088 66.9156 77.7088 66.9156 77.9701 67.3468C78.0219 67.4805 78.0737 67.6142 78.127 67.752C78.541 67.6485 78.541 67.6485 78.9634 67.5429C78.903 67.4394 78.8427 67.3359 78.7805 67.2292C78.5107 66.6298 78.4096 66.0576 78.3059 65.4109C78.147 64.9738 78.147 64.9738 77.5887 64.7738C77.4213 64.7215 77.2539 64.6692 77.0814 64.6153C77.1014 64.4258 77.1213 64.2363 77.1419 64.0411C77.2803 62.5194 77.3028 61.2746 76.8723 59.8058C76.4797 59.6708 76.4797 59.6708 76.0359 59.5967C75.8677 59.7002 75.6995 59.8037 75.5262 59.9103C74.9903 60.224 74.9903 60.224 74.4283 60.1979C73.9448 60.0149 73.9448 60.0149 73.5265 59.3875C73.5265 59.5256 73.5265 59.6636 73.5265 59.8058C73.3885 59.8058 73.2505 59.8058 73.1083 59.8058C72.9703 59.5297 72.8323 59.2537 72.6901 58.9693C72.6211 58.9693 72.5521 58.9693 72.481 58.9693Z" fill="white"/>
<path d="M36.7232 59.1785C36.8612 59.1785 36.9992 59.1785 37.1414 59.1785C37.1414 59.3855 37.1414 59.5925 37.1414 59.8058C37.3484 59.8748 37.5554 59.9438 37.7687 60.0149C37.6058 62.4242 37.6058 62.4242 37.1414 63.5698C37.5554 63.6733 37.5554 63.6733 37.9778 63.7789C37.8743 64.0894 37.8743 64.0894 37.7687 64.4062C38.0793 64.5098 38.0793 64.5098 38.3961 64.6154C38.3961 64.8224 38.3961 65.0294 38.3961 65.2427C38.5039 65.1694 38.6117 65.0961 38.7228 65.0205C39.4291 64.7489 39.9654 64.893 40.6963 65.0336C40.6963 65.3786 40.6963 65.7236 40.6963 66.0791C40.1343 66.4189 40.1343 66.4189 39.4416 66.7065C38.8404 66.5366 38.8404 66.5366 38.3961 66.2882C38.2343 66.4823 38.2343 66.4823 38.0693 66.6803C37.4448 67.2248 36.8876 67.327 36.0958 67.5429C35.5091 67.9411 35.4663 68.1796 35.2986 68.8891C35.1532 69.2746 35.1532 69.2746 34.8412 69.634C33.8855 70.0226 32.9234 70.2557 31.9136 70.4705C31.923 70.6584 31.9325 70.8462 31.9422 71.0398C31.8735 72.6877 30.4803 74.4131 29.3389 75.5545C28.7947 75.8962 28.5505 75.9573 27.9405 76.0511C27.3535 76.1709 27.1619 76.2446 26.8084 76.7397C26.639 77.0745 26.4738 77.4114 26.3125 77.7502C25.9467 78.4089 25.4529 78.685 24.8038 79.044C24.6615 79.1648 24.5192 79.2856 24.3725 79.41C23.8615 79.7397 23.5183 79.7211 22.9218 79.6714C22.9261 79.8266 22.9305 79.9819 22.9349 80.1419C22.7127 80.7169 22.7127 80.7169 22.2945 80.9579C21.9578 81.1009 21.6182 81.2372 21.2759 81.3663C20.7967 81.5347 20.7967 81.5347 20.4125 81.9716C20.2055 81.9716 19.9984 81.9716 19.7852 81.9716C19.8053 79.7847 21.2869 78.436 22.7127 76.9529C22.8156 76.8365 22.9184 76.72 23.0244 76.6C23.34 76.3256 23.34 76.3256 23.9674 76.3256C24.0105 76.2048 24.0536 76.0841 24.0981 75.9596C24.4964 75.3079 24.9852 75.0327 25.6403 74.6527C25.7759 74.6271 25.9114 74.6015 26.0511 74.5751C26.6295 74.3964 26.8603 74.0922 27.2478 73.6333C27.3737 73.4872 27.4996 73.3411 27.6293 73.1906C27.9786 72.7648 27.9786 72.7648 28.1496 72.1434C28.4682 71.8828 28.4682 71.8828 28.8554 71.6337C29.5616 71.1503 30.1535 70.7266 30.3191 69.8431C30.5163 69.2122 30.9791 68.9788 31.4954 68.5885C31.6334 68.3815 31.7714 68.1744 31.9136 67.9611C32.1896 67.9611 32.4657 67.9611 32.7501 67.9611C32.8191 67.4781 32.8881 66.995 32.9592 66.4974C33.2697 66.3939 33.2697 66.3939 33.5865 66.2882C33.69 66.0812 33.69 66.0812 33.7956 65.87C33.9336 65.87 34.0716 65.87 34.2138 65.87C34.2138 66.008 34.2138 66.1461 34.2138 66.2882C34.9962 65.6337 34.9962 65.6337 35.3639 64.7199C35.2399 64.0998 34.9573 63.689 34.6321 63.1516C34.7356 62.8411 34.7356 62.8411 34.8412 62.5242C34.9792 62.5242 35.1172 62.5242 35.2594 62.5242C35.3564 62.2719 35.3564 62.2719 35.4554 62.0145C35.6776 61.4787 35.6776 61.4787 35.8867 61.2696C35.9971 60.8475 36.0879 60.4226 36.18 59.9961C36.3049 59.5967 36.3049 59.5967 36.7232 59.1785ZM36.7232 60.0149C36.6542 60.0839 36.5852 60.1529 36.5141 60.224C36.5208 60.6486 36.5283 61.0733 36.5475 61.4975C36.5141 61.8969 36.5141 61.8969 36.0958 62.3151C36.1628 62.8594 36.1628 62.8594 36.3049 63.3607C36.443 63.3607 36.581 63.3607 36.7232 63.3607C37.0516 62.3096 37.2352 61.3195 37.3505 60.224C37.1435 60.155 36.9365 60.086 36.7232 60.0149ZM36.9323 63.988C36.9323 64.195 36.9323 64.4021 36.9323 64.6154C36.6563 64.5464 36.3802 64.4773 36.0958 64.4062C36.0198 64.5728 36.0198 64.5728 35.9423 64.7428C35.1812 66.3469 35.1812 66.3469 34.4229 66.9156C34.1469 66.9156 33.8709 66.9156 33.5865 66.9156C33.4571 67.2196 33.4571 67.2196 33.3251 67.5298C32.9592 68.1703 32.9592 68.1703 32.5017 68.3532C32.3767 68.3618 32.2516 68.3705 32.1227 68.3794C32.1033 68.6252 32.1033 68.6252 32.0835 68.876C32.0274 69.0571 31.9714 69.2383 31.9136 69.4249C31.754 69.4853 31.5945 69.5457 31.43 69.6079C30.6999 69.9135 30.5835 70.2733 30.2366 70.9557C29.9722 71.4087 29.6244 71.643 29.1952 71.9343C29.1952 72.0723 29.1952 72.2103 29.1952 72.3525C28.9881 72.4215 28.7811 72.4905 28.5678 72.5616C28.2416 72.9298 27.9295 73.3108 27.6268 73.6986C26.4608 75.1892 26.4608 75.1892 25.6533 75.3715C25.1142 75.5186 24.7939 75.7374 24.3856 76.1165C24.3856 76.3235 24.3856 76.5305 24.3856 76.7438C23.8681 76.8473 23.8681 76.8473 23.34 76.9529C23.271 77.1599 23.202 77.367 23.1309 77.5803C22.8204 77.6838 22.8204 77.6838 22.5036 77.7894C22.0182 78.2846 22.0182 78.2846 21.5365 78.8872C21.3699 79.0867 21.2033 79.2861 21.0317 79.4917C20.5448 80.1177 20.5448 80.1177 20.4125 81.1352C21.1026 80.7901 21.7926 80.4451 22.5036 80.0896C22.5036 79.8136 22.5036 79.5375 22.5036 79.2531C22.702 79.2575 22.9004 79.2618 23.1048 79.2662C23.7388 79.3003 23.7388 79.3003 24.1765 79.044C24.1765 78.906 24.1765 78.768 24.1765 78.6258C25.0129 78.2076 25.0129 78.2076 25.4312 78.0418C25.9639 77.7203 26.0716 77.4256 26.3199 76.8614C26.6976 76.1327 26.9307 75.7979 27.7183 75.5414C27.8615 75.5007 28.0046 75.46 28.1521 75.4181C29.3472 75.0213 30.0327 74.0086 30.6589 72.9798C30.797 72.7728 30.935 72.5658 31.0772 72.3525C31.0855 72.0041 31.0863 71.6553 31.0772 71.3069C31.1462 71.2379 31.2152 71.1689 31.2863 71.0978C31.2948 70.7494 31.2952 70.4007 31.2863 70.0523C31.5205 70.0137 31.7548 69.9752 31.9961 69.9354C33.3489 69.6902 33.3489 69.6902 34.6321 69.2158C34.9519 68.7139 35.0113 68.3455 35.1009 67.7626C35.2594 67.3338 35.2594 67.3338 35.7315 67.0945C36.3049 66.9417 36.3049 66.9417 36.8539 66.8388C37.4124 66.69 37.6385 66.5433 37.9778 66.0791C37.9296 65.524 37.9296 65.524 37.7687 65.0336C37.6307 65.0336 37.4927 65.0336 37.3505 65.0336C37.3505 64.6885 37.3505 64.3435 37.3505 63.988C37.2125 63.988 37.0745 63.988 36.9323 63.988ZM39.4416 65.2427C39.3036 65.5187 39.1656 65.7947 39.0234 66.0791C39.2304 66.0101 39.4374 65.9411 39.6507 65.87C39.5817 65.663 39.5127 65.456 39.4416 65.2427Z" fill="white"/>
<path d="M70.3905 60.0149C70.3862 60.265 70.3819 60.5152 70.3775 60.7729C70.3756 61.3183 70.4069 61.7751 70.5082 62.3151C70.6006 62.949 70.5409 63.4661 70.442 64.095C70.3498 65.0275 70.4101 65.9649 70.4444 66.9C70.3905 67.5429 70.3905 67.5429 70.13 67.935C69.4856 68.3483 68.844 68.3176 68.0903 68.3793C68.0084 68.6424 67.9264 68.9055 67.842 69.1766C67.2798 70.8605 66.5525 72.5358 65.581 74.0253C65.374 74.0944 65.1669 74.1634 64.9536 74.2345C65.0226 74.4415 65.0917 74.6485 65.1628 74.8618C64.9299 75.6874 64.6109 76.2444 63.9081 76.7438C63.1798 76.8762 62.497 76.9009 61.8431 76.5085C61.6079 76.1165 61.6079 76.1165 61.4772 75.5022C61.2647 74.8469 61.2647 74.8469 60.7967 74.6682C60.6374 74.6113 60.4781 74.5544 60.314 74.4958C59.0835 74.022 58.3896 73.117 57.8439 71.9342C57.7631 71.1311 57.766 70.5026 58.2621 69.8431C58.6779 69.6994 58.6779 69.6994 59.1639 69.634C60.0397 69.4687 60.5966 69.2963 61.1896 68.5885C61.3023 67.5932 61.1414 66.6461 60.9805 65.6609C61.1875 65.5229 61.3946 65.3849 61.6079 65.2427C61.7208 64.7079 61.7208 64.7079 61.7647 64.1056C61.8635 63.4816 61.8635 63.4816 62.0261 62.9425C63.1036 62.203 64.1388 62.1951 65.4029 62.3813C66.5277 62.6066 66.5277 62.6066 66.9051 63.0903C67.1015 63.7645 66.9354 64.154 66.7049 64.8114C66.6332 65.0246 66.5615 65.2378 66.4877 65.4575C66.2083 66.0791 66.2083 66.0791 65.7868 66.5945C65.2995 67.2171 65.1353 67.7504 64.9275 68.51C64.7156 69.2753 64.5597 69.8067 64.1172 70.4705C64.0587 71.0851 64.0587 71.0851 64.078 71.7513C64.0793 71.9761 64.0807 72.2009 64.0821 72.4325C64.0557 72.9643 64.0557 72.9643 64.3263 73.1889C64.7604 71.7298 64.7604 71.7298 65.019 70.2352C65.2107 69.4336 65.6292 68.8838 66.1095 68.2217C66.4301 67.7327 66.6362 67.2547 66.8356 66.7065C66.9737 66.7065 67.1117 66.7065 67.2539 66.7065C67.3036 66.5391 67.3036 66.5391 67.3543 66.3683C67.6389 65.4596 67.967 64.6322 68.417 63.792C68.8872 62.8964 69.0912 62.0889 69.2086 61.0874C69.3704 60.5593 69.7755 60.0149 70.3905 60.0149ZM69.5541 61.8969C69.5282 62.0115 69.5023 62.126 69.4757 62.2441C68.9424 64.2938 67.8658 66.1043 66.7874 67.9105C66.0091 69.2186 65.3364 70.3951 65.1628 71.9342C65.1404 72.0946 65.118 72.255 65.095 72.4203C65.0419 72.8151 64.9968 73.2111 64.9536 73.6071C66.1044 72.6619 66.5139 71.2757 66.9402 69.8954C67.2374 68.9865 67.5745 68.2398 68.4546 67.7643C68.5845 67.6998 68.7145 67.6354 68.8483 67.569C69.5992 67.0963 69.6987 66.9179 69.9022 66.0887C70.0277 65.323 70.0157 64.5657 69.9985 63.792C69.9966 63.629 69.9947 63.4661 69.9927 63.2982C69.9879 62.9008 69.9804 62.5034 69.9723 62.106C69.8343 62.037 69.6963 61.968 69.5541 61.8969ZM62.4443 63.3607C62.2787 63.8872 62.1967 64.3866 62.1347 64.9347C62.0101 65.5277 61.7593 65.8114 61.3988 66.2882C61.4551 66.9971 61.4551 66.9971 61.6079 67.752C61.6863 68.5362 61.6863 68.5362 61.6079 69.2158C60.8063 69.9915 59.7438 69.985 58.6803 70.0522C58.3143 70.8699 58.3143 70.8699 58.3928 71.7251C58.4877 71.8631 58.5825 72.0012 58.6803 72.1433C58.814 72.3547 58.9477 72.566 59.0855 72.7837C59.7675 73.8126 59.7675 73.8126 60.9152 74.1691C61.1438 74.1907 61.3723 74.2122 61.6079 74.2345C61.6507 74.3679 61.6936 74.5013 61.7377 74.6388C61.7941 74.8116 61.8504 74.9844 61.9085 75.1624C61.9643 75.3346 62.0201 75.5069 62.0775 75.6844C62.1979 76.1086 62.1979 76.1086 62.4443 76.3256C63.0451 76.4303 63.0451 76.4303 63.699 76.3256C64.2367 75.893 64.2367 75.893 64.5354 75.28C64.4548 74.4895 64.1872 73.9097 63.7905 73.2281C63.6953 73.0629 63.6002 72.8976 63.5021 72.7274C63.4291 72.6037 63.356 72.4799 63.2808 72.3525C63.3498 72.2835 63.4188 72.2144 63.4899 72.1433C63.5071 71.8759 63.5244 71.6085 63.5421 71.333C63.645 70.2744 64.0304 69.4499 64.4938 68.5019C64.7086 68.0385 64.858 67.6182 64.9798 67.1247C65.1628 66.4973 65.1628 66.4973 65.4658 66.2253C65.9241 65.7232 65.9944 65.2338 66.143 64.5761C66.2218 64.2353 66.2218 64.2353 66.3022 63.8875C66.3403 63.7137 66.3783 63.5398 66.4174 63.3607C64.9488 62.7633 63.8325 62.3118 62.4443 63.3607Z" fill="white"/>
<path d="M54.7056 55.2053C54.825 55.2665 54.9444 55.3277 55.0675 55.3907C55.5206 55.613 55.9782 55.8082 56.4438 56.0026C57.3581 56.4067 58.1101 56.8768 58.8878 57.5055C58.8878 57.6436 58.8878 57.7816 58.8878 57.9238C59.3709 57.9928 59.8539 58.0618 60.3516 58.1329C60.3516 57.9949 60.3516 57.8569 60.3516 57.7147C60.8221 57.6754 60.8221 57.6754 61.3972 57.7147C61.5222 57.8268 61.6473 57.9389 61.7762 58.0545C62.2045 58.3907 62.2045 58.3907 62.6576 58.2905C63.078 58.1834 63.4928 58.0548 63.9065 57.9238C63.9284 59.1279 63.8522 60.2847 63.6974 61.4787C63.5656 61.507 63.4338 61.5353 63.298 61.5644C62.8463 61.6535 62.8463 61.6535 62.5603 61.9884C62.2336 62.3151 62.2336 62.3151 61.6847 62.485C61.5208 62.567 61.3569 62.6489 61.1881 62.7333C61.0133 63.346 61.0133 63.346 60.9789 63.988C60.9099 64.195 60.8409 64.402 60.7698 64.6153C60.7396 64.8569 60.7095 65.0984 60.6783 65.3472C60.5607 66.0791 60.5607 66.0791 60.1425 66.7064C59.489 66.8502 59.489 66.8502 58.8878 66.9156C58.6526 66.4451 58.6526 66.4451 58.4696 65.87C58.6673 65.4158 58.6673 65.4158 58.8878 65.0336C57.4977 65.2144 56.6924 65.39 55.7512 66.4973C55.2937 66.7849 55.2937 66.7849 54.9147 66.9156C54.7767 66.8465 54.6387 66.7775 54.4965 66.7064C54.5228 66.4946 54.5228 66.4946 54.5496 66.2784C54.5709 66.0919 54.5922 65.9054 54.6141 65.7132C54.636 65.5288 54.6578 65.3444 54.6803 65.1544C54.7385 64.6305 54.7385 64.6305 54.5676 64.22C54.4716 63.6243 54.7128 63.2616 54.9619 62.7302C55.2524 61.9857 55.2918 61.2109 55.3591 60.42C55.3898 60.0952 55.4208 59.7703 55.4522 59.4455C55.4666 59.2932 55.4809 59.1409 55.4957 58.9839C55.5564 58.4169 55.6489 57.8573 55.7512 57.2964C55.514 57.2662 55.2767 57.2361 55.0323 57.2049C54.2874 57.0873 54.2874 57.0873 54.0783 56.8782C54.026 56.3816 54.026 56.3816 54.0783 55.8327C54.3919 55.4536 54.3919 55.4536 54.7056 55.2053ZM54.7056 55.8327C54.6366 56.0397 54.5676 56.2467 54.4965 56.46C55.2211 56.7705 55.2211 56.7705 55.9603 57.0873C55.9797 58.3048 55.9124 59.4849 55.7773 60.6945C55.7609 60.8595 55.7444 61.0244 55.7275 61.1944C55.6368 62.0198 55.5144 62.622 55.1238 63.3607C55.0812 63.8745 55.0812 63.8745 55.1108 64.4062C55.1344 65.0817 55.1086 65.6388 54.9147 66.2882C55.0527 66.2882 55.1907 66.2882 55.3329 66.2882C55.3459 66.1588 55.3588 66.0294 55.3721 65.8961C55.542 65.4518 55.542 65.4518 55.988 65.2345C56.8788 64.936 57.7887 64.761 58.7073 64.5696C59.328 64.4534 59.328 64.4534 59.7243 63.988C60.1686 63.8573 60.1686 63.8573 60.5607 63.7789C60.6297 63.2958 60.6987 62.8128 60.7698 62.3151C60.9294 62.2547 61.089 62.1943 61.2534 62.1321C61.8468 61.9047 61.8468 61.9047 62.4427 61.4787C62.4427 61.3406 62.4427 61.2026 62.4427 61.0604C62.6497 60.9914 62.8568 60.9224 63.0701 60.8513C63.2385 60.411 63.2385 60.411 63.3184 59.8973C63.3515 59.7245 63.3847 59.5517 63.4188 59.3737C63.4418 59.2402 63.4647 59.1068 63.4883 58.9693C62.6151 58.6783 62.2054 59.0063 61.3972 59.3875C61.3972 59.0425 61.3972 58.6975 61.3972 58.342C60.5807 58.342 60.063 58.485 59.3061 58.7602C59.3061 58.6222 59.3061 58.4842 59.3061 58.342C59.03 58.411 58.754 58.48 58.4696 58.5511C58.4696 58.4131 58.4696 58.2751 58.4696 58.1329C58.3316 58.1329 58.1936 58.1329 58.0514 58.1329C57.9824 57.9259 57.9134 57.7188 57.8423 57.5055C57.8423 57.6436 57.8423 57.7816 57.8423 57.9238C57.6353 57.9238 57.4282 57.9238 57.2149 57.9238C57.2839 57.7167 57.353 57.5097 57.4241 57.2964C56.9833 56.6353 56.8881 56.5684 56.1825 56.3293C56.0382 56.2792 55.894 56.229 55.7454 56.1774C55.6093 56.1326 55.4732 56.0879 55.3329 56.0418C55.1259 55.9728 54.9189 55.9038 54.7056 55.8327ZM59.9334 64.6153C59.3271 65.1162 59.2011 65.5171 59.0969 66.2882C59.5084 66.2817 59.5084 66.2817 59.9334 66.0791C60.2062 65.4526 60.2062 65.4526 60.3516 64.8244C60.2136 64.7554 60.0756 64.6864 59.9334 64.6153Z" fill="white"/>
<path d="M66.8341 49.7686C67.363 49.8415 67.6279 49.9382 68.0234 50.3044C68.4982 51.1861 68.507 52.1203 68.507 53.1143C68.7398 53.179 68.7398 53.179 68.9775 53.245C69.7354 53.624 69.9847 54.0509 70.389 54.7872C70.6448 55.6187 70.615 56.4311 70.5981 57.2966C70.0679 56.9784 69.5389 56.6606 69.0167 56.3294C68.5349 56.0228 68.5349 56.0228 68.0495 55.9504C67.6705 55.8328 67.6705 55.8328 67.4483 55.4407C67.3836 55.2941 67.3189 55.1474 67.2523 54.9963C67.0473 54.7832 66.8387 54.5734 66.625 54.369C66.5559 54.231 66.4869 54.093 66.4158 53.9508C65.7513 54.1969 65.5184 54.4437 65.0566 55.0094C64.5338 55.6237 64.5338 55.6237 64.0503 55.8066C63.9338 55.8153 63.8174 55.8239 63.6974 55.8328C63.5536 55.493 63.5536 55.493 63.4883 54.9963C63.5896 54.813 63.691 54.6297 63.7954 54.4409C64.1662 53.6312 64.1877 52.9645 64.1548 52.0949C64.152 51.951 64.1492 51.807 64.1462 51.6587C64.1389 51.3074 64.1277 50.9562 64.1156 50.605C64.9224 50.5528 65.3717 50.6498 66.0499 51.0886C66.1933 51.1783 66.3367 51.2681 66.4845 51.3606C66.8341 51.6506 66.8341 51.6506 67.0432 52.2779C67.1812 52.2089 67.3192 52.1399 67.4614 52.0688C67.2479 51.7906 67.2479 51.7906 67.0301 51.5068C66.625 50.8141 66.625 50.8141 66.6772 50.2129C66.729 50.0663 66.7807 49.9196 66.8341 49.7686ZM64.5338 51.0232C64.6719 51.1612 64.8099 51.2992 64.9521 51.4414C64.9521 51.3034 64.9521 51.1654 64.9521 51.0232C64.814 51.0232 64.676 51.0232 64.5338 51.0232ZM65.5794 51.4414C65.5104 51.5795 65.4414 51.7175 65.3703 51.8597C65.1633 51.9287 64.9562 51.9977 64.7429 52.0688C64.6739 52.4138 64.6049 52.7588 64.5338 53.1143C64.6719 53.1143 64.8099 53.1143 64.9521 53.1143C65.0211 53.3904 65.0901 53.6664 65.1612 53.9508C65.2992 53.8128 65.4372 53.6748 65.5794 53.5326C65.9952 53.4494 66.4136 53.3783 66.8341 53.3234C66.9721 53.6685 67.1101 54.0135 67.2523 54.369C67.3903 54.369 67.5283 54.369 67.6705 54.369C67.7395 54.576 67.8085 54.783 67.8796 54.9963C68.0176 54.9963 68.1556 54.9963 68.2978 54.9963C68.2978 55.1343 68.2978 55.2724 68.2978 55.4146C68.4962 55.5138 68.6946 55.613 68.899 55.7152C69.2563 55.8938 69.6135 56.0724 69.9707 56.251C69.8848 55.1558 69.7234 54.5171 68.9252 53.7417C68.6485 53.6639 68.3695 53.594 68.0887 53.5326C67.8001 53.2639 67.5232 52.9826 67.2523 52.6961C66.9977 52.4668 66.7405 52.2404 66.4812 52.0165C66.3553 51.9076 66.2294 51.7987 66.0997 51.6865C65.8271 51.4199 65.8271 51.4199 65.5794 51.4414ZM64.3247 54.369C64.3937 54.507 64.4627 54.645 64.5338 54.7872C64.6028 54.6492 64.6719 54.5112 64.7429 54.369C64.6049 54.369 64.4669 54.369 64.3247 54.369Z" fill="white"/>
<path d="M43.2073 43.7043C43.7523 43.7136 44.2738 43.7436 44.8148 43.7958C45.9304 43.9003 46.9108 43.9029 48.0168 43.7043C48.0168 43.9804 48.0168 44.2564 48.0168 44.5408C48.2196 44.4718 48.4223 44.4028 48.6311 44.3317C49.26 44.2325 49.456 44.3153 49.9969 44.6756C50.4811 45.1008 50.9396 45.5182 51.3626 46.0046C51.3626 46.1426 51.3626 46.2806 51.3626 46.4228C51.6387 46.4918 51.9147 46.5608 52.1991 46.6319C52.1651 46.7489 52.1311 46.8659 52.0961 46.9864C51.9826 47.5017 51.9622 47.9605 51.9638 48.4878C51.9646 48.7627 51.9646 48.7627 51.9655 49.0432C51.977 49.5957 51.977 49.5957 52.1468 50.2652C52.164 50.4464 52.1813 50.6275 52.1991 50.8141C51.9297 51.1021 51.6495 51.3801 51.3626 51.6506C51.0955 52.4108 51.0955 52.4108 50.9444 53.1144C50.7374 53.1144 50.5304 53.1144 50.3171 53.1144C50.2136 53.3214 50.2136 53.3214 50.108 53.5326C49.6249 53.5326 49.1419 53.5326 48.6442 53.5326C48.6269 53.4032 48.6097 53.2738 48.5919 53.1405C48.4783 52.6613 48.4783 52.6613 48.0299 52.4739C47.8876 52.4093 47.7453 52.3446 47.5986 52.2779C47.1804 51.6506 47.1804 51.6506 46.9974 50.9448C46.8133 50.1753 46.8133 50.1753 46.3047 49.6509C45.9257 49.1412 45.9257 49.1412 45.978 48.4486C46.0298 48.2631 46.0815 48.0776 46.1348 47.8866C45.9968 47.8866 45.8588 47.8866 45.7166 47.8866C45.6347 47.6925 45.5527 47.4984 45.4683 47.2984C45.0531 46.5682 44.7558 46.4062 44.0437 46.0046C43.9043 45.7258 43.7649 45.4469 43.6255 45.1681C43.1968 44.9997 43.1968 44.9997 42.7891 44.959C42.7891 44.1226 42.7891 44.1226 43.2073 43.7043ZM43.4164 44.1226C43.4164 44.3296 43.4164 44.5366 43.4164 44.7499C43.6234 44.7499 43.8304 44.7499 44.0437 44.7499C44.1666 45.054 44.1666 45.054 44.292 45.3642C44.6033 46.0509 44.6033 46.0509 45.2331 46.1875C45.4724 46.2005 45.4724 46.2005 45.7166 46.2137C45.8546 46.6277 45.9926 47.0418 46.1348 47.4683C46.2729 47.4683 46.4109 47.4683 46.5531 47.4683C46.5385 47.6539 46.5385 47.6539 46.5237 47.8433C46.4623 48.9459 46.4623 48.9459 46.9451 49.9123C47.0918 50.0719 47.2384 50.2315 47.3895 50.3959C47.5388 50.8107 47.6794 51.2288 47.8077 51.6506C47.9457 51.8576 48.0838 52.0646 48.226 52.2779C48.502 52.2779 48.778 52.2779 49.0624 52.2779C49.0624 52.5539 49.0624 52.83 49.0624 53.1144C49.4764 53.0108 49.4764 53.0108 49.8988 52.9052C49.8988 52.7672 49.8988 52.6292 49.8988 52.487C50.1749 52.487 50.4509 52.487 50.7353 52.487C50.7525 52.2541 50.7698 52.0212 50.7876 51.7813C50.9444 51.0232 50.9444 51.0232 51.3757 50.7226C51.5094 50.6838 51.6431 50.645 51.7808 50.605C51.7075 50.3721 51.6342 50.1392 51.5587 49.8993C51.2904 48.8526 51.4115 47.8977 51.5717 46.841C51.4337 46.841 51.2957 46.841 51.1535 46.841C51.0155 46.565 50.8775 46.289 50.7353 46.0046C50.5973 46.0046 50.4593 46.0046 50.3171 46.0046C50.2136 45.694 50.2136 45.694 50.108 45.3772C49.3067 44.9531 48.4914 44.8549 47.5986 44.7499C47.5986 44.6119 47.5986 44.4739 47.5986 44.3317C47.3355 44.336 47.0724 44.3403 46.8014 44.3447C45.6654 44.3466 44.5454 44.2407 43.4164 44.1226Z" fill="white"/>
<path d="M39.4396 52.4868C40.1614 52.5717 40.5165 52.7177 41.1255 53.1403C41.6892 53.5899 41.6892 53.5899 42.2364 53.4801C42.3486 53.4283 42.4607 53.3766 42.5762 53.3233C42.8523 53.8063 43.1283 54.2894 43.4127 54.787C43.2057 55.0976 43.2057 55.0976 42.9945 55.4144C42.914 55.7606 42.8423 56.1091 42.7854 56.4599C42.5783 56.4599 42.3713 56.4599 42.158 56.4599C41.9489 56.1114 41.7398 55.7629 41.5307 55.4144C41.3237 55.4144 41.1167 55.4144 40.9034 55.4144C40.9767 55.5653 41.05 55.7163 41.1255 55.8718C41.3433 56.5252 41.2988 56.8534 41.1125 57.5055C40.7674 57.5745 40.4224 57.6435 40.0669 57.7146C39.9261 57.4147 39.787 57.1139 39.6487 56.8128C39.5711 56.6454 39.4934 56.478 39.4134 56.3055C39.2305 55.8326 39.2305 55.8326 39.2305 55.2053C39.5065 55.0672 39.7825 54.9292 40.0669 54.787C39.9634 54.718 39.8599 54.649 39.7532 54.5779C39.2552 53.9138 39.3995 53.3018 39.4396 52.4868ZM39.8578 53.3233C40.0648 53.4268 40.0648 53.4268 40.276 53.5324C40.4067 54.0682 40.4067 54.0682 40.4851 54.5779C41.2423 54.7899 42.0071 54.8914 42.7854 54.9962C42.7164 54.7891 42.6473 54.5821 42.5762 54.3688C42.1609 54.2211 41.7422 54.0826 41.3216 53.9506C41.0418 53.7428 40.7628 53.5339 40.4851 53.3233C40.2781 53.3233 40.0711 53.3233 39.8578 53.3233ZM40.0669 55.8326C40.0669 55.9706 40.0669 56.1086 40.0669 56.2508C40.2739 56.1818 40.481 56.1128 40.6942 56.0417C40.4872 55.9727 40.2802 55.9037 40.0669 55.8326Z" fill="white"/>
<path d="M72.5232 68.3426C72.6469 68.3548 72.7707 68.3669 72.8981 68.3794C72.8981 68.5174 72.8981 68.6554 72.8981 68.7976C73.0793 68.7523 73.0793 68.7523 73.2641 68.7061C73.6997 68.5972 74.1354 68.4883 74.571 68.3794C74.5535 68.5533 74.536 68.7271 74.5179 68.9063C74.4966 69.1335 74.4753 69.3607 74.4534 69.5949C74.4316 69.8205 74.4097 70.0461 74.3872 70.2786C74.3252 70.9023 74.3252 70.9023 74.571 71.5161C74.502 71.6541 74.433 71.7921 74.3619 71.9343C73.9437 72.004 73.5255 72.0737 73.1072 72.1434C73.0382 72.2814 72.9692 72.4194 72.8981 72.5616C71.4762 72.9958 70.1692 73.009 68.7159 72.7707C68.6512 72.6025 68.5865 72.4343 68.5199 72.261C68.3472 71.748 68.3472 71.748 68.0886 71.5161C68.0801 71.1677 68.0796 70.8189 68.0886 70.4705C68.2123 70.4072 68.336 70.3438 68.4635 70.2786C69.2653 69.8534 69.8839 69.5224 70.4933 68.8368C71.184 68.2325 71.6355 68.292 72.5232 68.3426ZM69.5523 70.2614C69.206 70.5429 68.8585 70.8231 68.5068 71.0979C68.6448 71.2359 68.7828 71.3739 68.925 71.5161C69.0557 71.9604 69.0557 71.9604 69.1341 72.3525C69.6089 72.3638 70.0838 72.3719 70.5587 72.3787C70.9553 72.3859 70.9553 72.3859 71.36 72.3934C72.0897 72.4102 72.0897 72.4102 72.689 71.9343C72.689 71.7963 72.689 71.6583 72.689 71.5161C73.0341 71.4471 73.3791 71.3781 73.7346 71.307C73.8197 70.4623 73.8197 70.4623 73.7346 69.6341C73.1331 69.0613 72.6815 68.8458 71.8787 68.6539C70.8626 68.8774 70.2875 69.5564 69.5523 70.2614Z" fill="white"/>
<path d="M71.0182 39.522C71.4364 39.535 71.4364 39.535 71.8547 39.7311C71.9971 40.0784 72.1364 40.427 72.2729 40.7766C72.6947 41.0577 72.6947 41.0577 73.1093 41.1949C73.1747 43.1575 73.1747 43.1575 72.6911 43.7042C72.0115 44.0179 72.0115 44.0179 71.2273 44.1224C70.5085 43.7303 70.5085 43.7303 69.9727 43.286C70.1556 42.4757 70.1556 42.4757 70.3909 42.2404C70.4503 41.6532 70.4847 41.066 70.5208 40.4769C70.6 39.9402 70.6 39.9402 71.0182 39.522ZM71.2273 40.1493C70.9377 41.1835 70.8091 42.2133 70.8091 43.286C71.0851 43.286 71.3612 43.286 71.6455 43.286C71.8526 43.286 72.0596 43.286 72.2729 43.286C72.7518 42.5676 72.7284 42.2435 72.6911 41.404C72.4841 41.335 72.2771 41.266 72.0638 41.1949C71.8154 40.659 71.8154 40.659 71.6455 40.1493C71.5075 40.1493 71.3695 40.1493 71.2273 40.1493Z" fill="white"/>
<path d="M57.8424 94.1001C57.7044 94.3761 57.5664 94.6521 57.4242 94.9365C57.2861 94.9365 57.1481 94.9365 57.0059 94.9365C56.9887 95.0659 56.9714 95.1953 56.9537 95.3286C56.7968 95.773 56.7968 95.773 56.457 96.0474C55.7172 96.2616 55.2352 96.1931 54.4966 95.9821C53.9738 95.407 53.9738 95.407 53.6602 94.7274C53.7124 94.1262 53.7124 94.1262 53.8693 93.6819C55.5059 93.1363 56.3357 93.4206 57.8424 94.1001ZM55.5422 93.6819C55.1174 93.8773 54.6983 94.0859 54.2875 94.3092C54.473 94.8967 54.6043 95.2709 55.0847 95.6684C55.5721 95.8272 55.5721 95.8272 56.1172 95.5247C56.3501 95.3371 56.3501 95.3371 56.5877 95.1456C56.5877 94.9386 56.5877 94.7316 56.5877 94.5183C56.7257 94.4493 56.8637 94.3803 57.0059 94.3092C56.842 94.2445 56.6782 94.1798 56.5093 94.1132C55.9604 93.891 55.9604 93.891 55.5422 93.6819Z" fill="white"/>
<path d="M49.0619 98.0731C49.2 98.2112 49.338 98.3492 49.4802 98.4914C50.0354 98.6096 50.5867 98.6457 51.1531 98.7005C51.0877 99.1971 51.0877 99.1971 50.9439 99.746C50.3166 100.164 50.3166 100.164 49.8853 100.086C49.7516 100.043 49.6179 99.9996 49.4802 99.9551C49.1947 99.9551 48.9092 99.9628 48.6241 99.9772C48.4581 99.9829 48.292 99.9885 48.1209 99.9944C47.9549 100.002 47.7888 100.009 47.6178 100.016C47.4733 99.9962 47.3288 99.976 47.1799 99.9551C47.0419 99.7481 46.9039 99.5411 46.7617 99.3278C46.9708 98.7005 46.9708 98.7005 47.4413 98.3476C48.0527 98.0558 48.395 97.983 49.0619 98.0731ZM47.3891 99.1187C47.5271 99.2567 47.6651 99.3947 47.8073 99.5369C48.4554 99.4696 48.4554 99.4696 49.0619 99.3278C48.9239 99.0518 48.7859 98.7758 48.6437 98.4914C48.193 98.4914 47.7621 98.8892 47.3891 99.1187ZM49.8984 99.1187C49.8984 99.2567 49.8984 99.3947 49.8984 99.5369C50.1744 99.4679 50.4504 99.3989 50.7348 99.3278C50.4588 99.2588 50.1828 99.1898 49.8984 99.1187Z" fill="white"/>
<path d="M56.3803 49.9775C56.6982 50.9912 56.4574 51.7722 56.1842 52.7613C56.1434 52.9162 56.1025 53.0711 56.0605 53.2306C55.96 53.6106 55.8567 53.9898 55.7529 54.3689C55.4769 54.3689 55.2009 54.3689 54.9165 54.3689C54.5346 53.4253 54.4656 52.8469 54.7074 51.8595C54.7634 51.6008 54.8195 51.342 54.8773 51.0754C55.1256 50.3958 55.1256 50.3958 55.5438 50.0952C55.962 49.9775 55.962 49.9775 56.3803 49.9775ZM55.7529 50.6049C55.6412 50.8651 55.5329 51.1268 55.4262 51.389C55.3655 51.5346 55.3049 51.6802 55.2424 51.8301C55.1092 52.3405 55.1669 52.6208 55.3347 53.1142C55.7578 52.4795 55.8201 52.2371 55.8836 51.5067C55.8993 51.3377 55.9149 51.1686 55.931 50.9945C55.9412 50.8659 55.9515 50.7373 55.962 50.6049C55.893 50.6049 55.824 50.6049 55.7529 50.6049Z" fill="white"/>
<path d="M42.2516 103.667C42.4133 103.796 42.4133 103.796 42.5783 103.928C42.5783 104.342 42.5783 104.756 42.5783 105.183C42.1643 105.39 42.1643 105.39 41.7419 105.601C41.6729 105.532 41.6039 105.463 41.5328 105.392C41.3861 105.452 41.2395 105.513 41.0884 105.575C40.4758 105.815 39.858 106.025 39.2325 106.228C39.1635 105.883 39.0945 105.538 39.0234 105.183C39.439 104.899 39.8567 104.621 40.2781 104.346C40.4034 104.262 40.5288 104.177 40.6579 104.09C41.627 103.475 41.627 103.475 42.2516 103.667ZM41.7419 104.137C41.7419 104.344 41.7419 104.551 41.7419 104.765C41.8799 104.765 42.0179 104.765 42.1601 104.765C42.0911 104.558 42.0221 104.351 41.951 104.137C41.882 104.137 41.813 104.137 41.7419 104.137Z" fill="white"/>
<path d="M54.9165 32.4515C55.3936 32.6453 55.6414 32.848 55.962 33.2487C55.962 33.3867 55.962 33.5247 55.962 33.6669C55.755 33.6669 55.548 33.6669 55.3347 33.6669C55.408 33.8179 55.4813 33.9688 55.5569 34.1243C55.7747 34.7778 55.7301 35.1059 55.5438 35.758C55.1988 35.827 54.8537 35.896 54.4982 35.9671C54.4379 35.7429 54.3775 35.5186 54.3153 35.2875C54.1202 34.5402 54.1202 34.5402 53.8317 34.0459C53.6618 33.6669 53.6618 33.6669 53.701 33.2226C53.9516 32.6443 54.278 32.3916 54.9165 32.4515ZM54.2891 33.0396C54.4093 33.8615 54.4093 33.8615 54.9165 34.5034C54.9855 34.0203 55.0545 33.5373 55.1256 33.0396C54.8495 33.0396 54.5735 33.0396 54.2891 33.0396ZM54.9165 34.5034C54.8475 34.8484 54.7785 35.1934 54.7074 35.5489C54.8454 35.5489 54.9834 35.5489 55.1256 35.5489C55.1256 35.2039 55.1256 34.8589 55.1256 34.5034C55.0566 34.5034 54.9876 34.5034 54.9165 34.5034Z" fill="white"/>
<path d="M62.8195 46.542C63.454 46.9537 63.9015 47.4918 64.378 48.0695C64.522 48.2356 64.522 48.2356 64.6688 48.4052C65.2253 49.0727 65.3713 49.2859 65.3713 50.1867C64.4439 49.8776 63.9397 49.1885 63.2802 48.4877C62.8266 48.0624 62.3587 47.7695 61.8164 47.4683C61.8948 47.0631 61.8948 47.0631 62.0255 46.6318C62.4437 46.4227 62.4437 46.4227 62.8195 46.542ZM62.4437 47.05C62.4437 47.1881 62.4437 47.3261 62.4437 47.4683C62.6508 47.3993 62.8578 47.3303 63.0711 47.2592C62.8641 47.1902 62.657 47.1211 62.4437 47.05Z" fill="white"/>
<path d="M54.0798 43.4951C54.8976 43.3891 55.3582 43.3716 56.0533 43.8349C56.4629 44.4576 56.4465 44.8551 56.38 45.5862C56.242 45.5862 56.104 45.5862 55.9618 45.5862C55.8928 45.8623 55.8238 46.1383 55.7527 46.4227C54.8365 46.318 54.298 46.05 53.6615 45.3771C53.5387 44.517 53.5924 44.2261 54.0798 43.4951ZM54.498 43.9134C54.36 44.2584 54.222 44.6034 54.0798 44.9589C54.3558 45.2349 54.6318 45.511 54.9162 45.7954C55.3378 45.6457 55.3378 45.6457 55.7527 45.3771C55.921 44.9485 55.921 44.9485 55.9618 44.5407C55.3228 43.9996 55.3228 43.9996 54.498 43.9134Z" fill="white"/>
<path d="M58.4708 51.2322C58.7382 51.2192 59.0056 51.2063 59.2811 51.193C59.5068 51.182 59.5068 51.182 59.7369 51.1709C59.8712 51.1911 60.0054 51.2113 60.1437 51.2322C60.5619 51.8595 60.5619 51.8595 60.4835 52.4215C60.4404 52.5811 60.3973 52.7406 60.3528 52.9051C59.8954 53.0619 59.8954 53.0619 59.3073 53.1142C58.7191 52.709 58.7191 52.709 58.2617 52.2777C58.3307 51.9327 58.3997 51.5877 58.4708 51.2322ZM58.8891 51.6504C58.8891 51.7884 58.8891 51.9264 58.8891 52.0686C59.4041 52.4125 59.4041 52.4125 59.9346 52.6959C59.8656 52.3509 59.7966 52.0059 59.7255 51.6504C59.4495 51.6504 59.1734 51.6504 58.8891 51.6504Z" fill="white"/>
<path d="M18.3202 83.6445C18.6652 83.6445 19.0102 83.6445 19.3657 83.6445C19.6271 85.239 19.6271 85.239 19.1566 85.9448C18.7515 85.8663 18.7515 85.8663 18.3202 85.7356C18.0338 85.1629 18.0847 84.6962 18.111 84.0628C18.1801 83.9247 18.2491 83.7867 18.3202 83.6445ZM18.7384 84.0628C18.6694 84.4078 18.6004 84.7528 18.5293 85.1083C18.7363 85.2118 18.7363 85.2118 18.9475 85.3174C18.9475 84.9034 18.9475 84.4893 18.9475 84.0628C18.8785 84.0628 18.8095 84.0628 18.7384 84.0628Z" fill="white"/>
<path d="M66.6255 74.6528C66.9705 74.7218 67.3156 74.7908 67.6711 74.8619C67.7401 75.345 67.8091 75.828 67.8802 76.3257C66.6141 76.3666 66.6141 76.3666 66.2073 76.3257C66.0693 76.1877 65.9313 76.0497 65.7891 75.9075C65.7891 75.6315 65.7891 75.3554 65.7891 75.0711C66.0651 75.0711 66.3411 75.0711 66.6255 75.0711C66.6255 74.933 66.6255 74.795 66.6255 74.6528ZM66.8346 75.2802C66.6966 75.4182 66.5586 75.5562 66.4164 75.6984C66.6924 75.7674 66.9685 75.8364 67.2528 75.9075C67.2528 75.7005 67.2528 75.4935 67.2528 75.2802C67.1148 75.2802 66.9768 75.2802 66.8346 75.2802Z" fill="white"/>
<path d="M73.0187 64.1841C73.2559 64.1884 73.4931 64.1927 73.7375 64.1972C73.8065 64.4732 73.8755 64.7492 73.9466 65.0336C73.6768 65.139 73.4066 65.2434 73.1363 65.3473C72.9107 65.4346 72.9107 65.4346 72.6805 65.5237C72.2737 65.6609 72.2737 65.6609 71.8555 65.6609C72.073 64.2007 72.073 64.2007 73.0187 64.1841Z" fill="white"/>
<path d="M74.7815 74.8618C75.2912 75.0056 75.2912 75.0056 75.8271 75.28C75.997 75.829 75.997 75.829 76.0362 76.3256C75.6221 76.5326 75.6221 76.5326 75.1997 76.7438C74.7684 76.3779 74.7684 76.3779 74.3633 75.9074C74.403 75.4435 74.4501 75.1932 74.7815 74.8618ZM74.9906 75.4892C75.0596 75.6962 75.1286 75.9032 75.1997 76.1165C75.1997 75.9095 75.1997 75.7024 75.1997 75.4892C75.1307 75.4892 75.0617 75.4892 74.9906 75.4892Z" fill="white"/>
<path d="M41.1153 41.1948C41.821 41.3093 42.1781 41.4154 42.7882 41.8222C42.8274 42.4756 42.8274 42.4756 42.7882 43.0768C42.1668 42.8417 41.6727 42.612 41.1153 42.2404C41.0761 41.6915 41.0761 41.6915 41.1153 41.1948Z" fill="white"/>
<path d="M54.4984 3.55493C54.9428 3.63335 54.9428 3.63335 55.3349 3.76404C55.2636 4.42304 55.2134 4.72759 54.7206 5.18861C54.2893 5.43693 54.2893 5.43693 53.8711 5.43693C54.0279 4.02543 54.0279 4.02543 54.4984 3.55493Z" fill="white"/>
<path d="M50.5234 0.836426C51.0065 0.836426 51.4895 0.836426 51.9872 0.836426C52.0671 1.18274 52.1365 1.53163 52.1963 1.88198C51.9872 2.09109 51.9872 2.09109 51.4775 2.1303C50.9417 2.09109 50.9417 2.09109 50.5234 1.67287C50.5234 1.39684 50.5234 1.12082 50.5234 0.836426ZM50.9417 1.25465C51.2522 1.46167 51.2522 1.46167 51.569 1.67287C51.569 1.53486 51.569 1.39684 51.569 1.25465C51.362 1.25465 51.155 1.25465 50.9417 1.25465Z" fill="white"/>
<path d="M39.8583 58.5512C39.8583 58.8962 39.8583 59.2413 39.8583 59.5968C39.4443 59.5968 39.0302 59.5968 38.6036 59.5968C38.5346 59.3207 38.4656 59.0447 38.3945 58.7603C39.1526 58.316 39.1526 58.316 39.8583 58.5512Z" fill="white"/>
<path d="M67.67 60.2241C67.9461 60.2241 68.2221 60.2241 68.5065 60.2241C68.5755 60.5692 68.6445 60.9142 68.7156 61.2697C68.3706 61.3387 68.0255 61.4077 67.67 61.4788C67.5901 61.1325 67.5208 60.7836 67.4609 60.4332C67.5299 60.3642 67.599 60.2952 67.67 60.2241Z" fill="white"/>
<path d="M81.8906 63.5698C82.51 63.698 82.8067 63.832 83.3544 64.1972C83.3544 64.4042 83.3544 64.6112 83.3544 64.8245C82.7333 64.721 82.7333 64.721 82.0997 64.6154C82.0307 64.2703 81.9617 63.9253 81.8906 63.5698Z" fill="white"/>
<path d="M55.963 34.0852C56.5841 34.1887 56.5841 34.1887 57.2177 34.2943C57.2177 34.6393 57.2177 34.9844 57.2177 35.3399C56.2244 34.9478 56.2244 34.9478 55.7539 34.7125C55.8229 34.5055 55.8919 34.2985 55.963 34.0852Z" fill="white"/>
<path d="M54.1963 98.2693C54.4335 98.2736 54.6707 98.2779 54.9151 98.2824C54.9151 98.4894 54.9151 98.6964 54.9151 98.9097C54.706 99.1188 54.706 99.1188 54.1963 99.1711C54.0194 99.1538 53.8426 99.1366 53.6604 99.1188C53.5224 98.9118 53.3844 98.7048 53.2422 98.4915C53.4513 98.2824 53.4513 98.2824 54.1963 98.2693Z" fill="white"/>
<path d="M50.3164 53.9507C50.5234 53.9507 50.7304 53.9507 50.9437 53.9507C51.0127 54.3647 51.0818 54.7788 51.1529 55.2054C50.9458 55.2744 50.7388 55.3434 50.5255 55.4145C50.4565 54.9314 50.3875 54.4484 50.3164 53.9507Z" fill="white"/>
<path d="M57.2156 50.3958C57.4227 50.4648 57.6297 50.5338 57.843 50.6049C57.774 51.0189 57.705 51.4329 57.6339 51.8595C57.4269 51.7905 57.2198 51.7215 57.0065 51.6504C56.9976 51.302 56.998 50.9533 57.0065 50.6049C57.0755 50.5359 57.1446 50.4668 57.2156 50.3958Z" fill="white"/>
</svg>
