<svg width="108" height="99" viewBox="0 0 108 99" fill="none" xmlns="http://www.w3.org/2000/svg">
<rect width="115.084" height="98.5024" transform="translate(-3.53516 0.133911)" fill=""/>
<path d="M29.8853 10.2196C36.2964 11.5733 41.3937 16.3141 46.1045 20.6277C46.8219 21.2831 47.5512 21.9227 48.2871 22.5571C48.445 22.6953 48.445 22.6953 48.6062 22.8363C48.9648 23.1498 49.325 23.4613 49.6855 23.7726C49.7999 23.8731 49.9143 23.9736 50.0322 24.0772C51.0122 24.9174 51.8289 25.3029 53.113 25.3932C53.3189 25.4086 53.5247 25.4239 53.7369 25.4398C53.9569 25.4546 54.1769 25.4694 54.4036 25.4847C54.6317 25.5017 54.8598 25.5186 55.0949 25.5361C55.8228 25.5903 56.5508 25.6423 57.2789 25.6938C58.2375 25.7616 59.1958 25.8316 60.1542 25.9029C60.3742 25.9177 60.5942 25.9326 60.8209 25.9478C61.0268 25.9632 61.2327 25.9786 61.4448 25.9944C61.625 26.0071 61.8053 26.0197 61.991 26.0328C62.5668 26.1213 63.0284 26.2763 63.5522 26.5302C64.029 27.1836 64.3031 27.8727 64.5978 28.6213C64.8121 28.6243 65.0264 28.6273 65.2472 28.6303C65.5317 28.6401 65.8162 28.6502 66.1008 28.6606C66.2416 28.6618 66.3825 28.663 66.5276 28.6642C67.3091 28.6985 67.6979 28.8015 68.3152 29.2912C68.7649 29.857 69.1386 30.4057 69.4858 31.0392C69.5952 31.2336 69.7046 31.4279 69.8174 31.6281C70.0505 32.2161 70.0562 32.436 69.8256 33.0127C70.0585 33.0644 70.2914 33.1162 70.5313 33.1695C71.2893 33.4309 71.2893 33.4309 71.5638 33.8099C71.6704 34.1491 71.7746 34.489 71.8775 34.8293C71.9594 34.9889 72.0414 35.1485 72.1258 35.3129C72.474 35.3843 72.8225 35.454 73.1713 35.522C73.3859 35.8672 73.5944 36.2162 73.7987 36.5676C74.4327 37.0368 74.4327 37.0368 75.0533 37.404C75.2625 37.6131 75.2625 37.6131 75.3409 38.332C75.384 38.5778 75.4271 38.8236 75.4716 39.0769C75.6786 39.2149 75.8856 39.3529 76.0989 39.4951C76.1455 40.0792 76.1455 40.0792 76.112 40.789C76.0895 41.8578 76.0812 42.6964 76.5171 43.6774C76.6527 43.7386 76.7883 43.7997 76.928 43.8628C77.4991 44.1752 77.5402 44.4507 77.7326 45.0627C78.1571 46.192 78.656 47.1426 79.6538 47.8596C80.3591 48.048 81.0171 48.0921 81.7449 48.0687C81.6759 48.4137 81.6069 48.7588 81.5358 49.1143C81.6673 49.1329 81.7989 49.1515 81.9344 49.1706C82.0789 49.221 82.2234 49.2714 82.3722 49.3234C82.5459 49.7502 82.719 50.1772 82.8901 50.605C83.5235 51.7986 84.4916 52.7776 85.4001 53.7696C85.718 54.1329 85.718 54.1329 86.0115 54.5338C86.8358 55.6319 87.5331 55.8003 88.8547 56.0149C89.4952 56.106 90.1361 56.1759 90.78 56.2387C90.957 56.2567 91.1341 56.2747 91.3165 56.2932C91.6884 56.3307 92.0604 56.3675 92.4325 56.4038C92.9943 56.459 93.5557 56.5166 94.1172 56.5745C94.4816 56.611 94.846 56.6472 95.2105 56.6831C95.3868 56.7006 95.5631 56.7182 95.7448 56.7362C96.7325 56.8278 97.6835 56.8504 98.6764 56.804C99.6496 56.7874 99.6496 56.7874 100.332 57.3415C100.456 57.5593 100.581 57.7771 100.709 58.0015C100.904 58.3217 100.904 58.3217 101.103 58.6484C101.734 60.1547 101.631 61.3234 101.196 62.8454C101.15 63.0117 101.105 63.1781 101.058 63.3496C100.963 63.699 100.866 64.0479 100.767 64.3965C100.617 64.9274 100.472 65.4594 100.328 65.9918C100.234 66.3328 100.14 66.6737 100.045 67.0145C100.002 67.172 99.9591 67.3295 99.9146 67.4918C99.4823 69.012 99.0992 70.0245 97.6827 70.8337C96.9335 71.2172 96.1702 71.5441 95.3878 71.8535C95.217 71.9223 95.0461 71.9912 94.8701 72.0622C94.3209 72.2827 93.7705 72.5005 93.2199 72.7177C93.0314 72.7924 92.843 72.867 92.6488 72.9439C87.3553 75.0374 82.174 76.4882 76.5433 77.4088C76.274 77.4531 76.0047 77.4974 75.7273 77.5431C75.2168 77.6256 74.7059 77.7051 74.1944 77.781C71.9085 78.1448 69.831 78.9172 67.9436 80.2718C67.8268 80.3516 67.7101 80.4314 67.5899 80.5136C66.5648 81.2937 65.8908 82.3062 65.1644 83.3531C63.4045 85.8872 63.4045 85.8872 62.5067 86.3361C61.814 86.4276 61.814 86.4276 61.0429 86.3361C60.8871 86.1285 60.7313 85.9209 60.5708 85.7071C60.1103 85.118 60.049 85.0894 59.2516 84.9662C58.9727 84.977 58.6941 84.9938 58.4159 85.016C58.117 85.0274 57.818 85.038 57.519 85.0479C57.2986 85.0576 57.2986 85.0576 57.0737 85.0674C55.7433 85.1115 54.4716 85.0952 53.2927 84.441C51.5361 83.553 49.004 83.9181 47.1108 84.1796C46.2071 84.2997 45.5599 84.0887 44.7338 83.7214C44.3041 83.5749 44.3041 83.5749 43.8582 83.7745C43.2618 84.184 43.2116 84.5924 43.0593 85.2905C43.0677 85.6043 43.0811 85.9181 43.0985 86.2315C43.114 86.9379 43.0448 87.3367 42.615 87.9044C41.9619 88.4722 41.6116 88.5966 40.7591 88.6363C40.7036 88.495 40.648 88.3538 40.5908 88.2083C40.48 87.9285 40.48 87.9285 40.367 87.643C40.2578 87.3664 40.2578 87.3664 40.1465 87.0843C39.7536 86.1137 39.7536 86.1137 39.0862 85.3297C38.668 84.8723 38.668 84.8723 38.5373 84.2188C38.2904 83.1612 37.4346 82.5579 36.6757 81.8361C35.6692 80.8264 35.0731 79.6249 34.4841 78.34C34.296 77.9584 34.296 77.9584 33.9679 77.7004C33.4897 77.1658 33.3793 76.5777 33.1788 75.8936C32.4981 73.7256 31.5163 71.9119 29.8224 70.3644C29.4671 70.0254 29.4671 70.0254 29.0489 69.398C28.8305 69.3603 28.6122 69.3226 28.3872 69.2837C27.181 68.9798 26.6669 67.825 26.0429 66.8364C25.9116 66.6394 25.7803 66.4423 25.6451 66.2393C25.0019 65.2489 24.5919 64.5207 24.4484 63.3338C24.4139 63.1052 24.3794 62.8767 24.3439 62.6411C24.3094 62.3867 24.2749 62.1322 24.2393 61.87C24.2172 61.711 24.1951 61.552 24.1723 61.3881C24.1513 61.2237 24.1303 61.0592 24.1086 60.8898C24.0887 60.7381 24.0687 60.5863 24.0482 60.43C24.0302 59.988 24.0302 59.988 24.1298 59.618C24.4567 58.2253 24.1932 57.115 23.6642 55.832C23.6064 55.6865 23.5486 55.5411 23.489 55.3913C23.374 55.1025 23.258 54.814 23.141 54.526C23.0076 54.1908 22.8858 53.851 22.7665 53.5105C22.0562 51.5067 20.8263 50.4243 19.0891 49.2662C18.154 48.5853 17.339 47.6951 16.9204 46.6049C16.8901 46.1089 16.8743 45.6119 16.8681 45.115C16.8071 43.4735 16.3104 42.1873 15.1046 41.0431C14.8293 40.7498 14.8293 40.7498 14.7901 40.1878C14.8095 39.9485 14.8095 39.9485 14.8293 39.7042C14.637 39.6216 14.637 39.6216 14.4408 39.5372C12.9571 38.7053 12.1353 36.0836 11.3659 34.581C11.2267 34.3106 11.0874 34.0402 10.9481 33.7699C10.6834 33.256 10.4197 32.7417 10.1569 32.2269C9.94802 31.8179 9.7384 31.4094 9.52728 31.0016C8.97418 29.9232 8.97418 29.9232 8.97418 29.4578C8.81056 29.4451 8.64694 29.4325 8.47836 29.4194C8.16095 29.3931 8.16095 29.3931 7.83714 29.3663C7.52054 29.3408 7.52054 29.3408 7.19755 29.3148C6.67396 29.2487 6.67396 29.2487 6.46484 29.0396C6.54578 27.651 6.95009 26.4917 7.47119 25.2102C7.54303 25.0236 7.61487 24.8369 7.68888 24.6446C7.76072 24.4654 7.83255 24.2863 7.90657 24.1018C7.97094 23.9405 8.03532 23.7792 8.10164 23.613C8.39257 23.1045 8.68512 22.8602 9.18329 22.5571C9.64889 22.5726 9.64889 22.5726 10.1504 22.7009C10.4258 22.7636 10.4258 22.7636 10.7067 22.8275C11.0767 22.9238 11.4446 23.0286 11.8094 23.1428C12.5729 23.356 13.1095 23.4934 13.8638 23.1992C14.7305 22.6556 15.3007 22.0808 15.8879 21.2502C16.5075 20.4734 17.0619 20.3352 18.0068 20.2016C18.6903 20.1298 19.3705 20.0808 20.0571 20.0478C20.1175 19.8852 20.1778 19.7227 20.24 19.5552C20.5044 18.9338 20.7983 18.599 21.3117 18.1658C21.4498 18.1658 21.5878 18.1658 21.73 18.1658C21.141 16.8214 20.2265 15.7607 19.3015 14.6321C19.181 14.4801 19.0605 14.3281 18.9364 14.1714C18.8254 14.0349 18.7144 13.8983 18.6 13.7576C18.3842 13.3562 18.3842 13.3562 18.3889 12.9132C18.5933 12.5198 18.5933 12.5198 19.0212 12.2829C19.7958 12.0555 20.5762 11.8757 21.3657 11.7095C21.7025 11.6365 22.0393 11.5636 22.3761 11.4906C22.9042 11.3773 23.4324 11.2644 23.9607 11.152C24.4726 11.0427 24.9841 10.9318 25.4956 10.8208C25.6538 10.7876 25.8119 10.7545 25.9748 10.7204C28.9889 10.0633 28.9889 10.0633 29.8853 10.2196ZM27.7552 10.7103C26.9606 11.1772 26.179 11.31 25.2808 11.4832C25.1012 11.5195 24.9217 11.5557 24.7367 11.593C24.1661 11.7078 23.595 11.8198 23.0238 11.9317C22.6357 12.0092 22.2475 12.0869 21.8594 12.1649C20.9105 12.355 19.9612 12.5426 19.0115 12.7289C19.2681 13.4315 19.5476 13.9863 20.0121 14.5717C20.1231 14.7146 20.234 14.8574 20.3483 15.0046C20.5814 15.3002 20.815 15.5953 21.0491 15.8901C22.1756 17.3445 22.1756 17.3445 22.1482 18.1658C21.8705 18.5587 21.8705 18.5587 21.4686 18.9107C20.8761 19.4402 20.8761 19.4402 20.4124 20.0796C19.8786 20.6601 19.3764 20.6105 18.6064 20.6751C17.5339 20.7484 17.5339 20.7484 16.641 21.2837C16.3965 21.5908 16.1637 21.9076 15.9402 22.2304C15.1791 23.0738 14.2517 23.7654 13.0853 23.8453C12.3314 23.7718 11.6497 23.5903 10.9215 23.3805C10.2309 23.185 9.6863 23.1695 8.97418 23.1845C8.20377 24.9744 7.52265 26.7815 6.88307 28.6213C7.0913 28.6375 7.0913 28.6375 7.30374 28.654C7.58071 28.6896 7.58071 28.6896 7.86328 28.7259C8.04523 28.7453 8.22718 28.7647 8.41464 28.7847C10.0929 29.5491 10.9815 32.611 11.7791 34.2397C12.9692 37.0928 12.9692 37.0928 14.8493 39.4044C15.4102 39.8267 15.4891 40.2965 15.6657 40.9589C15.8038 40.9589 15.9418 40.9589 16.084 40.9589C16.1357 41.0969 16.1875 41.2349 16.2408 41.3771C16.4687 41.9708 16.4687 41.9708 16.7162 42.3508C17.2766 43.2889 17.3683 43.9411 17.3125 45.0366C17.277 46.2172 17.4223 46.82 18.2094 47.6995C18.3361 47.8213 18.4628 47.9432 18.5933 48.0687C18.7243 48.1949 18.8553 48.321 18.9903 48.451C19.673 49.0717 20.3816 49.6125 21.1418 50.1337C22.0705 50.8216 22.4693 51.6551 22.9846 52.6691C23.0638 52.8245 23.143 52.9798 23.2246 53.1399C24.4375 55.6193 24.8279 57.6985 24.6755 60.4496C24.6301 61.3489 24.8144 62.0519 25.0757 62.9156C25.034 63.0824 24.9923 63.2492 24.9492 63.421C24.8417 64.1243 25.0113 64.3315 25.4188 64.903C25.5393 65.0751 25.6598 65.2472 25.7839 65.4245C25.9125 65.6015 26.0411 65.7785 26.1736 65.9608C26.2989 66.1386 26.4243 66.3163 26.5534 66.4995C26.8937 66.9805 27.2372 67.4587 27.5851 67.9343C27.6897 68.0868 27.7944 68.2393 27.9022 68.3965C28.3376 68.9217 28.8258 68.9822 29.4671 69.1889C31.917 71.0751 33.2132 73.8723 34.0569 76.7717C34.2366 77.4049 34.2366 77.4049 34.904 77.7625C35.2233 78.3595 35.5078 78.9614 35.7862 79.5779C36.2075 80.471 36.6875 81.0719 37.4133 81.7356C38.2916 82.6367 38.8357 83.4865 39.31 84.6525C39.5 85.1208 39.5 85.1208 39.9226 85.5911C40.5398 86.3818 40.8355 87.2817 41.1773 88.2181C41.7581 87.8898 42.0492 87.7069 42.432 87.1725C42.5838 86.4287 42.6542 85.7082 42.7007 84.9507C42.8869 84.0717 43.1999 83.7518 43.8958 83.1994C44.5431 83.1069 44.9444 83.0784 45.515 83.4135C46.1799 83.7011 46.7369 83.6497 47.4588 83.6291C47.7515 83.6238 48.0442 83.6186 48.3369 83.6135C48.7939 83.6032 49.2508 83.5916 49.7077 83.5775C51.3669 83.5296 52.7629 83.5296 54.2956 84.2576C55.1156 84.5975 55.9436 84.6034 56.8215 84.624C57.0784 84.6359 57.0784 84.6359 57.3406 84.6481C58.1946 84.6806 58.9525 84.6582 59.7882 84.4541C60.2457 84.4802 60.2457 84.4802 60.6247 84.6632C60.7152 84.9219 60.7152 84.9219 60.8076 85.186C60.9975 85.7635 60.9975 85.7635 61.6049 85.957C62.4108 85.9114 62.7887 85.6757 63.3717 85.1263C64.0287 84.3454 64.5287 83.4781 65.0381 82.5974C66.6465 79.9477 69.2701 78.3873 72.241 77.6518C73.6604 77.3298 75.0934 77.0913 76.5294 76.8566C82.1258 75.941 87.2596 74.5803 92.5216 72.4104C93.2448 72.117 93.9723 71.8384 94.7024 71.5627C95.158 71.3858 95.6136 71.2088 96.069 71.0317C96.2788 70.955 96.4885 70.8782 96.7046 70.7991C97.929 70.3157 97.929 70.3157 98.7581 69.3417C98.8857 69.0169 98.9977 68.6858 99.1011 68.3525C99.2184 67.9792 99.2184 67.9792 99.338 67.5984C99.5621 66.8592 99.768 66.1159 99.9683 65.3699C100.094 64.9025 100.224 64.4363 100.355 63.9701C100.437 63.6688 100.519 63.3674 100.601 63.0659C100.639 62.9288 100.678 62.7918 100.718 62.6506C101.037 61.44 101.212 60.2856 100.685 59.1197C100.49 58.8314 100.49 58.8314 100.29 58.5373C100.098 58.2434 100.098 58.2434 99.9008 57.9435C99.5445 57.4252 99.5445 57.4252 98.892 57.2696C98.5514 57.2643 98.2106 57.2695 97.8702 57.2802C96.1068 57.2943 94.3639 57.118 92.6108 56.9467C92.0284 56.8904 91.4457 56.8379 90.8629 56.7856C90.4883 56.7498 90.1138 56.7137 89.7393 56.6774C89.5672 56.6623 89.3951 56.6473 89.2178 56.6318C87.7311 56.4799 86.5131 56.1513 85.522 54.9563C85.3834 54.7911 85.2449 54.6258 85.1021 54.4556C84.9603 54.2801 84.8185 54.1046 84.6725 53.9238C84.4468 53.6509 84.4468 53.6509 84.2167 53.3724C83.2787 52.2231 82.4744 51.1426 81.954 49.7416C81.54 49.7416 81.1259 49.7416 80.6993 49.7416C80.8374 49.3275 80.9754 48.9135 81.1176 48.4869C80.9963 48.4888 80.875 48.4907 80.75 48.4926C79.8328 48.4578 79.1973 48.3814 78.556 47.6897C77.9138 46.8353 77.5725 45.8649 77.1918 44.874C76.9545 44.2575 76.9545 44.2575 76.3734 43.7427C75.6811 43.0504 75.5521 42.3374 75.4716 41.3771C75.5104 41.1097 75.5492 40.8423 75.5892 40.5668C75.6194 40.3512 75.6496 40.1355 75.6807 39.9134C75.4063 39.5866 75.4063 39.5866 75.0533 39.286C74.9757 38.9367 74.9757 38.9367 74.8965 38.5803C74.5855 37.6782 74.2827 37.4976 73.5062 37.0119C73.0875 36.7178 72.972 36.3937 72.7531 35.9402C72.4058 35.7978 72.0572 35.6585 71.7076 35.522C71.1111 34.905 71.0802 34.746 71.0802 33.8491C70.7374 33.7521 70.7374 33.7521 70.3875 33.6531C69.8834 33.4383 69.667 33.3253 69.4237 32.8273C69.3318 32.5063 69.2441 32.184 69.1598 31.8609C68.8497 30.9142 68.2335 29.9568 67.5253 29.2487C67.006 29.2045 66.4903 29.1701 65.9701 29.1441C64.4448 29.0677 64.4448 29.0677 63.9704 28.8305C63.7952 28.4129 63.6639 27.9885 63.5269 27.557C63.3516 27.0841 63.3516 27.0841 62.7158 26.7393C62.1503 26.6535 61.5988 26.5914 61.0298 26.5433C60.8532 26.5263 60.6765 26.5092 60.4945 26.4916C59.4012 26.3886 58.3073 26.3041 57.2116 26.2313C56.5779 26.1883 55.9444 26.1411 55.311 26.0936C54.9962 26.0712 54.6813 26.0509 54.3662 26.0326C52.4858 25.9234 50.9991 25.7539 49.5418 24.4391C49.3798 24.2949 49.2178 24.1507 49.0508 24.0021C48.9325 23.8746 48.8142 23.7471 48.6923 23.6157C48.0365 22.9328 47.3573 22.3042 46.6395 21.6872C46.149 21.2617 45.6696 20.8251 45.1896 20.3876C44.0914 19.399 42.9596 18.4597 41.8046 17.5385C41.6687 17.4292 41.5328 17.3199 41.3928 17.2073C37.8605 14.3749 34.4618 11.8317 30.0029 10.7423C29.8419 10.7011 29.6808 10.6599 29.5149 10.6174C29.3614 10.5832 29.2079 10.5489 29.0497 10.5136C28.9134 10.4819 28.7772 10.4503 28.6368 10.4176C28.1832 10.3939 28.1832 10.3939 27.7552 10.7103Z" fill="white"/>
</svg>
