<svg width="108" height="108" viewBox="0 0 108 108" fill="none" xmlns="http://www.w3.org/2000/svg">
<rect width="107.065" height="107.065" transform="translate(0.867188)" fill=""/>
<path d="M46.649 19.8264C46.8014 19.8238 46.9538 19.8213 47.1109 19.8186C47.9107 19.8164 48.2813 19.8298 48.9623 20.2838C48.9623 20.4908 48.9623 20.6979 48.9623 20.9112C49.3195 20.5694 49.5759 20.3112 49.7987 19.8656C50.1438 19.9346 50.4888 20.0036 50.8443 20.0747C50.9133 20.2817 50.9823 20.4887 51.0534 20.702C51.4409 20.9708 51.4409 20.9708 51.916 21.1987C52.6829 21.6028 53.3774 22.0397 54.07 22.5595C54.433 22.8291 54.433 22.8291 55.0134 23.1068C55.2269 23.2621 55.2269 23.2621 55.4447 23.4205C55.5101 23.9825 55.5101 23.9825 55.4447 24.466C55.5784 24.5049 55.7121 24.5437 55.8499 24.5837C56.2812 24.8843 56.2812 24.8843 56.438 25.6423C56.4553 25.8752 56.4725 26.1081 56.4903 26.348C56.6973 26.4171 56.9043 26.4861 57.1176 26.5572C57.9541 27.5795 57.9541 27.5795 57.9541 28.3477C57.6995 28.9681 57.3359 29.3875 56.9085 29.9029C56.6957 30.3193 56.487 30.7377 56.2812 31.1576C55.9495 31.7268 55.5971 32.2798 55.2356 32.8305C55.0415 33.1346 55.0415 33.1346 54.8435 33.4448C54.2175 34.0524 53.7998 34.0708 52.9354 34.0852C52.3689 33.9715 51.8207 33.8183 51.2625 33.6669C51.0555 33.7705 51.0555 33.7705 50.8443 33.8761C51.1893 33.9451 51.5343 34.0141 51.8898 34.0852C51.8898 34.6372 51.8898 35.1893 51.8898 35.7581C52.0969 35.7581 52.3039 35.7581 52.5172 35.7581C52.7242 35.4475 52.7242 35.4475 52.9354 35.1307C53.2812 34.9172 53.6302 34.7088 53.9809 34.5034C54.4119 34.1744 54.8318 33.8426 55.2487 33.497C55.4624 33.3232 55.6762 33.1493 55.8964 32.9702C56.6581 32.2546 57.1541 31.4953 57.6273 30.5695C57.9541 30.112 57.9541 30.112 58.4899 30.0075C58.6581 29.973 58.8263 29.9385 58.9996 29.9029C59.2442 29.3961 59.2442 29.3961 59.4178 28.8574C60.1706 28.3555 60.4103 28.3271 61.2998 28.4392C61.9303 28.7173 62.5059 29.069 63.0904 29.4324C63.2455 29.5252 63.4006 29.6179 63.5604 29.7134C64.2336 30.121 64.8399 30.5174 65.4371 31.0334C65.8629 31.4202 65.8629 31.4202 66.3169 31.3112C66.4468 31.2432 66.5767 31.1753 66.7106 31.1053C67.5433 30.7238 68.1272 30.6825 69.037 30.7394C69.0351 30.9186 69.0332 31.0979 69.0312 31.2826C69.0257 32.6813 69.0257 32.6813 69.5859 33.9128C69.8502 34.1447 70.1186 34.372 70.3913 34.5941C70.7098 34.9216 70.7098 34.9216 70.8013 35.745C70.7711 35.9563 70.741 36.1677 70.7098 36.3854C70.809 36.2862 70.9082 36.187 71.0104 36.0848C71.7798 35.6157 72.5421 35.6039 73.4283 35.5489C73.7514 36.0631 74.0336 36.5251 74.2182 37.1058C74.7394 38.195 75.913 38.653 76.9832 39.1038C78.0135 39.3603 79.0621 39.4513 80.1199 39.5221C80.1889 39.177 80.2579 38.832 80.329 38.4765C80.4799 38.4679 80.6309 38.4592 80.7864 38.4504C81.4404 38.3178 81.4404 38.3178 81.7666 37.627C82.0231 37.2864 82.0231 37.2864 82.4201 37.0127C84.1289 36.7746 85.7817 36.9891 87.4387 37.4309C87.6458 37.4309 87.8528 37.4309 88.0661 37.4309C88.191 37.7859 88.191 37.7859 88.3185 38.1481C88.4303 38.458 88.5422 38.7679 88.6542 39.0777C88.7361 39.3118 88.7361 39.3118 88.8196 39.5506C88.8742 39.7003 88.9288 39.8499 88.985 40.004C89.0589 40.211 89.0589 40.211 89.1344 40.4221C89.3237 40.8509 89.3237 40.8509 89.9481 41.1949C89.8102 42.822 89.2851 44.0769 88.5374 45.497C87.9601 46.6042 87.4718 47.7287 87.0205 48.8929C86.9573 49.0541 86.894 49.2153 86.8288 49.3814C86.5833 50.0248 86.3932 50.5377 86.3932 51.2323C86.6692 51.3703 86.9452 51.5083 87.2296 51.6505C87.2296 51.9265 87.2296 52.2026 87.2296 52.487C87.783 52.4576 88.3362 52.427 88.8895 52.3955C89.0473 52.3872 89.2051 52.379 89.3677 52.3706C90.1404 52.3949 90.1404 52.3949 90.7845 52.0687C91.1106 52.0359 91.4381 52.0163 91.7656 52.0026C91.963 51.9938 92.1605 51.985 92.3639 51.976C92.5716 51.9678 92.7793 51.9596 92.9933 51.9511C93.2018 51.9421 93.4103 51.933 93.6251 51.9237C94.142 51.9015 94.6589 51.8802 95.1759 51.8596C95.9007 53.4026 95.9007 53.4026 95.7379 54.2121C95.5752 54.9663 95.5752 54.9663 95.5941 55.6236C95.3181 55.6236 95.042 55.6236 94.7576 55.6236C94.457 55.1662 94.457 55.1662 94.1303 54.5781C93.7898 54.2217 93.4428 53.8712 93.0848 53.5325C93.1538 53.9466 93.2228 54.3606 93.2939 54.7872C93.5699 54.8562 93.8459 54.9252 94.1303 54.9963C94.0613 55.2723 93.9923 55.5483 93.9212 55.8327C93.4115 55.6759 93.4115 55.6759 92.8756 55.4145C92.7376 54.98 92.7376 54.98 92.6665 54.5781C91.1744 54.4546 90.2953 54.5244 89.0765 55.4031C88.6934 55.6236 88.6934 55.6236 87.9485 55.6106C87.4496 55.4745 86.9531 55.3301 86.4585 55.1793C85.7879 55.0021 85.5595 54.9954 84.9294 55.2054C84.5112 54.9963 84.5112 54.9963 84.3021 54.369C82.2888 54.234 80.5538 54.5812 78.6561 55.2054C78.5871 55.2744 78.5181 55.3434 78.447 55.4145C78.0733 55.4776 77.6984 55.5328 77.323 55.5844C76.4529 55.7224 75.6727 55.9037 74.8529 56.2248C73.9095 56.5927 72.965 56.8341 71.9776 57.0482C70.5802 57.3572 69.2369 57.7629 67.8868 58.2375C67.717 58.297 67.5472 58.3566 67.3723 58.4179C65.3605 59.1407 63.6145 60.0064 61.8618 61.2312C60.818 61.921 60.818 61.921 60.0852 61.7998C59.592 61.4543 59.3423 61.1727 59.0388 60.6554C58.9512 60.5112 58.8636 60.3669 58.7733 60.2184C58.5814 59.8059 58.5814 59.8059 58.5814 59.1785C58.4434 59.1785 58.3054 59.1785 58.1632 59.1785C58.2322 59.3855 58.3012 59.5926 58.3723 59.8059C58.3033 59.9439 58.2343 60.0819 58.1632 60.2241C58.0252 60.2241 57.8871 60.2241 57.7449 60.2241C58.0376 60.8094 58.5007 60.9587 59.0641 61.2492C59.4178 61.4787 59.4178 61.4787 59.8361 62.1061C59.7914 62.6487 59.6807 62.8849 59.3084 63.284C59.1806 63.3869 59.0528 63.4899 58.9212 63.596C58.7945 63.7 58.6678 63.8041 58.5373 63.9113C57.6082 64.6213 57.6082 64.6213 56.8954 64.5631C56.2812 64.4063 56.2812 64.4063 55.8629 63.9881C55.7939 64.7472 55.7249 65.5062 55.6538 66.2883C54.6721 66.5337 54.2111 66.5836 53.3536 66.0792C53.0004 65.8063 52.6509 65.5285 52.3081 65.2427C52.4806 65.4325 52.6531 65.6223 52.8308 65.8178C53.3605 66.4004 53.3536 66.4708 53.3536 67.3339C53.1466 67.4029 52.9396 67.4719 52.7263 67.543C53.2783 67.612 53.8304 67.681 54.3992 67.7521C54.5821 68.1703 54.5821 68.1703 54.6083 68.7976C54.0392 69.8098 53.2459 70.8701 52.0989 71.2286C51.9609 71.2544 51.8229 71.2803 51.6807 71.307C51.5427 71.3587 51.4047 71.4105 51.2625 71.4638C50.8443 71.5161 50.8443 71.5161 50.3738 71.2416C50.1926 71.0669 50.1926 71.0669 50.0078 70.8887C50.0078 70.7507 50.0078 70.6127 50.0078 70.4705C49.8871 70.4231 49.7663 70.3756 49.6419 70.3268C49.0548 69.9843 48.755 69.5352 48.3349 69.0067C48.1279 68.9377 47.9209 68.8687 47.7076 68.7976C47.4939 68.5933 47.2853 68.3834 47.0803 68.1703C46.7918 67.9436 46.4998 67.7215 46.2046 67.5038C46.055 67.393 45.9054 67.2822 45.7513 67.168C45.581 67.0431 45.581 67.0431 45.4074 66.9156C45.4764 66.7086 45.5454 66.5016 45.6165 66.2883C46.9141 66.3893 48.1257 66.5671 49.3805 66.9156C49.3805 66.6396 49.3805 66.3636 49.3805 66.0792C48.9653 66.086 48.55 66.0928 48.1348 66.0996C47.7076 66.0792 47.7076 66.0792 47.0803 65.8701C46.6322 65.9515 46.6322 65.9515 46.2438 66.0792C46.1748 65.9412 46.1058 65.8032 46.0347 65.661C45.8104 65.7127 45.5862 65.7645 45.3551 65.8178C45.0963 65.835 44.8376 65.8523 44.5709 65.8701C44.1658 65.5041 44.1658 65.5041 43.7345 65.0336C43.348 64.8887 42.9608 64.7451 42.5697 64.613C41.5031 64.1791 40.5374 63.5336 39.5523 62.9425C39.4143 62.8735 39.2762 62.8045 39.134 62.7334C38.789 63.4235 38.444 64.1135 38.0885 64.8245C37.0588 64.6186 36.553 64.3596 35.6837 63.8051C35.453 63.659 35.2222 63.5129 34.9845 63.3624C34.7667 63.2238 34.5489 63.0853 34.3245 62.9425C33.9767 62.7322 33.6285 62.5226 33.2789 62.3152C33.3479 61.9011 33.4169 61.4871 33.488 61.0605C34.0089 60.9168 34.4037 60.8514 34.9518 60.8514C34.9518 60.9894 34.9518 61.1274 34.9518 61.2696C35.3659 61.2006 35.7799 61.1316 36.2065 61.0605C36.2755 61.1985 36.3445 61.3365 36.4156 61.4787C36.839 61.6151 36.839 61.6151 37.252 61.6879C36.7741 61.1732 36.3595 60.8184 35.7491 60.4593C35.1609 60.015 35.1609 60.015 34.978 59.3615C34.9632 59.0219 34.9518 58.682 34.9518 58.3421C34.8138 58.4801 34.6758 58.6181 34.5336 58.7603C33.3342 59.1101 32.6762 58.8517 31.5578 58.3535C30.7184 58.0338 29.8722 57.9195 28.9856 57.7972C28.4694 57.7147 28.4694 57.7147 28.0511 57.5056C27.6339 57.4305 27.2156 57.3603 26.7965 57.2965C26.5895 57.5725 26.3824 57.8486 26.1691 58.133C24.7576 57.767 24.7576 57.767 24.2871 57.2965C24.2181 57.3655 24.1491 57.4345 24.078 57.5056C23.699 57.5334 23.699 57.5334 23.2416 57.5318C23.0906 57.5323 22.9397 57.5328 22.7842 57.5334C22.4051 57.5056 22.4051 57.5056 22.196 57.2965C22.1273 57.434 22.0586 57.5715 21.9877 57.7131C21.5687 58.133 21.5687 58.133 20.7902 58.1999C20.4876 58.1905 20.185 58.1767 19.8827 58.1591C19.3256 58.1326 18.7817 58.1244 18.2229 58.133C18.0849 58.271 17.9469 58.409 17.8047 58.5512C17.085 58.4774 16.7448 58.3325 16.1318 57.9238C16.2396 58.0058 16.3474 58.0877 16.4585 58.1722C16.5577 58.2972 16.6569 58.4223 16.7591 58.5512C16.6938 59.1132 16.6938 59.1132 16.55 59.5967C16.3861 59.6183 16.2222 59.6399 16.0534 59.6621C15.4354 59.759 15.4354 59.759 15.0862 60.4332C14.5765 60.3548 14.5765 60.3548 14.0407 60.2241C13.9717 60.0861 13.9027 59.948 13.8316 59.8059C13.3486 59.5855 12.8607 59.3757 12.3678 59.1785C12.3678 59.0405 12.3678 58.9025 12.3678 58.7603C12.1608 58.7603 11.9538 58.7603 11.7405 58.7603C11.3811 58.4164 11.3811 58.4164 11.0086 57.9631C10.573 57.4387 10.1397 56.934 9.64935 56.4601C8.92259 56.5729 8.92259 56.5729 8.18557 56.8783C7.86533 57.5069 7.86533 57.5069 7.76735 58.133C7.9086 58.2036 8.04985 58.2742 8.19538 58.347C9.02855 58.7636 9.86173 59.1801 10.6949 59.5967C10.7038 59.9451 10.7034 60.2939 10.6949 60.6423C10.4858 60.8514 10.4858 60.8514 9.94995 60.8645C9.78175 60.8602 9.61354 60.8559 9.44024 60.8514C9.39927 61.0808 9.3583 61.3102 9.31608 61.5465C8.84462 63.914 8.84462 63.914 8.24194 64.6228C7.81203 64.8896 7.40772 65.0738 6.93091 65.2427C5.72337 65.6296 5.72337 65.6296 4.81284 66.4345C4.66719 66.7983 4.54345 67.1706 4.42157 67.543C4.0932 67.9016 4.0932 67.9016 3.79424 68.1703C3.86971 68.3417 3.94519 68.5132 4.02295 68.6898C4.11999 68.9152 4.21703 69.1405 4.31702 69.3727C4.41406 69.5959 4.5111 69.8191 4.61108 70.049C4.83979 70.6796 4.83979 70.6796 4.83979 71.5161C4.70178 71.5851 4.56377 71.6541 4.42157 71.7252C4.46686 71.9108 4.46686 71.9108 4.51306 72.1001C4.71605 72.9642 4.8975 73.7584 4.83979 74.6527C3.77554 75.0822 2.84378 75.3704 1.70312 75.4892C1.75093 75.1835 1.80427 74.8787 1.85996 74.5743C1.88907 74.4045 1.91818 74.2347 1.94818 74.0597C2.12135 73.6072 2.12135 73.6072 2.5167 73.3376C2.95779 73.189 2.95779 73.189 3.58513 73.189C3.19262 72.1652 3.19262 72.1652 2.53957 71.307C1.9082 68.9554 1.9082 68.9554 2.31331 67.8607C2.59185 67.4646 2.59185 67.4646 3.1669 66.9156C3.30492 66.9156 3.44293 66.9156 3.58513 66.9156C3.51261 65.95 3.51261 65.95 3.12034 65.0941C2.8476 64.2909 3.2615 63.6219 3.57206 62.8641C4.18144 61.383 4.18144 61.383 4.00335 59.8059C3.79633 59.7368 3.58931 59.6678 3.37602 59.5967C3.29749 58.445 3.29749 58.445 3.65946 57.9704C4.10002 57.375 4.28925 56.7818 4.52613 56.0811C5.09174 54.442 5.09174 54.442 5.40178 53.7416C5.67304 53.1216 5.88242 52.502 6.09446 51.8596C6.16832 51.655 6.24218 51.4504 6.31828 51.2396C6.73457 50.0663 7.0102 49.1287 6.93091 47.8865C6.99991 47.6795 7.06892 47.4725 7.14002 47.2592C7.05861 46.8111 7.05861 46.8111 6.93091 46.4227C7.42324 46.1238 7.65868 45.9864 8.23785 46.0829C8.35861 46.1261 8.47938 46.1692 8.6038 46.2136C8.6038 46.4206 8.6038 46.6277 8.6038 46.841C8.772 46.897 8.9402 46.9531 9.11351 47.0109C9.29034 47.0928 9.46716 47.1747 9.64935 47.2592C9.71836 47.4662 9.78737 47.6732 9.85846 47.8865C10.2725 47.9555 10.6865 48.0245 11.1131 48.0956C10.9208 47.9032 10.7266 47.7126 10.5324 47.5222C10.3088 47.3014 10.3088 47.3014 10.0806 47.0762C9.85786 46.857 9.85786 46.857 9.63057 46.6335C9.08927 46.0645 8.81291 45.7611 8.81291 44.959C9.22695 44.8554 9.22695 44.8554 9.64935 44.7498C9.75286 44.3358 9.75286 44.3358 9.85846 43.9134C10.4105 43.8444 10.9626 43.7754 11.5314 43.7043C11.4623 43.2902 11.3933 42.8762 11.3222 42.4496C11.1152 42.3806 10.9082 42.3116 10.6949 42.2405C10.7639 41.8955 10.8329 41.5504 10.904 41.1949C11.4216 41.0914 11.4216 41.0914 11.9496 40.9858C12.0186 41.1238 12.0876 41.2619 12.1587 41.4041C12.4684 41.3968 12.4684 41.3968 12.7844 41.3894C13.1863 41.3837 13.1863 41.3837 13.5963 41.3779C13.8632 41.3731 14.1301 41.3682 14.405 41.3632C15.0862 41.4041 15.0862 41.4041 15.5045 41.8223C15.6503 42.0978 15.7909 42.3762 15.9227 42.6587C15.3646 41.641 15.5483 40.8388 15.7136 39.7312C14.7475 39.7312 13.7814 39.7312 12.786 39.7312C12.648 40.0072 12.51 40.2832 12.3678 40.5676C12.1608 40.4986 11.9538 40.4296 11.7405 40.3585C11.9055 40.0228 12.0712 39.6874 12.2371 39.3522C12.3293 39.1653 12.4215 38.9785 12.5165 38.7861C12.786 38.2674 12.786 38.2674 13.2042 37.6401C13.2642 36.7727 13.2642 36.7727 12.9951 35.9672C13.165 35.4836 13.165 35.4836 13.4134 34.9216C13.4867 34.7362 13.56 34.5507 13.6355 34.3596C13.8316 33.8761 13.8316 33.8761 14.0407 33.4578C14.1739 33.4373 14.307 33.4169 14.4442 33.3957C14.9287 33.2872 14.9287 33.2872 15.1271 32.7619C15.2233 32.4594 15.2233 32.4594 15.3215 32.1509C15.4193 31.8517 15.4193 31.8517 15.5192 31.5464C15.5833 31.3491 15.6475 31.1518 15.7136 30.9485C16.0747 29.935 16.3679 29.2579 17.3636 28.7708C17.5954 28.6872 17.8272 28.6037 18.0661 28.5176C18.3084 28.4286 18.5507 28.3397 18.8004 28.248C19.3105 28.077 19.8044 27.9325 20.3271 27.8118C21.0989 27.5491 21.2792 27.192 21.7778 26.5572C23.6803 24.8172 25.1846 24.1948 27.7326 24.1328C28.6506 24.2875 28.9246 24.602 29.5149 25.3025C29.7133 25.4836 29.9117 25.6648 30.1161 25.8514C30.69 26.7629 30.5593 27.2591 30.4069 28.2921C30.3303 29.0716 30.4955 29.5955 30.7696 30.3212C30.4936 30.3902 30.2175 30.4592 29.9331 30.5303C29.9105 30.6548 29.8879 30.7793 29.8645 30.9077C29.6307 31.6718 29.0779 32.1264 28.4694 32.6214C27.8682 32.9089 27.8682 32.9089 27.4238 33.0396C27.5618 33.1776 27.6998 33.3156 27.842 33.4578C27.842 33.6648 27.842 33.8719 27.842 34.0852C27.98 34.0852 28.1181 34.0852 28.2603 34.0852C28.2797 33.8587 28.2797 33.8587 28.2995 33.6277C28.5662 32.7044 29.2068 32.2142 29.9724 31.6673C30.4078 31.3219 30.5295 31.0254 30.7696 30.5303C30.9162 30.4009 31.0629 30.2715 31.214 30.1382C31.6565 29.717 31.6565 29.717 31.6975 29.1057C31.5863 28.2951 31.3321 27.7116 30.9787 26.9754C31.1857 26.7684 31.1857 26.7684 31.3969 26.5572C31.7759 26.6225 31.7759 26.6225 32.2334 26.7663C33.2696 27.071 34.3473 27.1296 35.37 26.7663C35.8597 26.2739 36.2387 25.7513 36.6394 25.1849C37.134 24.5601 37.5774 24.3187 38.2984 24.0151C39.6073 23.4619 40.7322 22.5517 41.8362 21.6741C42.7221 20.9713 43.5142 20.5052 44.5709 20.0747C45.2284 19.746 45.928 19.827 46.649 19.8264ZM46.2438 20.1139C45.9268 20.1378 45.9268 20.1378 45.6034 20.1621C44.931 20.2953 44.5114 20.5355 43.9436 20.9112C43.7668 20.9802 43.5899 21.0492 43.4078 21.1203C42.8776 21.3378 42.4894 21.5765 42.0616 21.9567C42.0616 22.0947 42.0616 22.2327 42.0616 22.3749C41.9093 22.4297 41.757 22.4844 41.6001 22.5408C41.0051 22.7979 40.5544 23.0993 40.0358 23.4858C39.3161 24.0079 38.6275 24.4097 37.814 24.7666C36.8691 25.2102 36.4554 25.7044 35.9843 26.6258C35.7883 26.9754 35.7883 26.9754 35.37 27.1845C34.8821 27.1845 34.3942 27.1845 33.9063 27.1845C33.682 27.2276 33.4577 27.2707 33.2267 27.3152C32.6516 27.3936 32.6516 27.3936 32.0243 26.9754C31.8172 26.9754 31.6102 26.9754 31.3969 26.9754C31.6892 27.7167 31.6892 27.7167 32.0243 28.4392C32.1336 29.0955 32.1198 29.53 31.7808 30.1112C31.0002 31.1701 30.104 32.0736 29.1228 32.9481C28.9029 33.2004 28.9029 33.2004 28.6785 33.4578C28.756 34.0803 29.0122 34.5518 29.3189 35.0915C29.7515 35.924 29.8014 36.5031 29.724 37.4309C29.517 37.5345 29.517 37.5345 29.3058 37.6401C29.2454 37.3813 29.1851 37.1225 29.1228 36.8559C28.9684 36.2339 28.7946 35.6882 28.4694 35.1307C28.3314 35.1307 28.1933 35.1307 28.0511 35.1307C27.9929 35.5189 27.9929 35.5189 27.9335 35.9149C27.8013 36.4671 27.718 36.7321 27.2792 37.1009C26.8749 37.3264 26.8749 37.3264 26.1691 37.6401C26.1691 37.433 26.1691 37.226 26.1691 37.0127C26.3681 36.9371 26.3681 36.9371 26.571 36.86C27.037 36.6337 27.037 36.6337 27.1788 36.1787C27.2224 35.9381 27.2224 35.9381 27.267 35.6927C27.2982 35.5339 27.3295 35.3752 27.3617 35.2116C27.4453 34.6234 27.4453 34.6234 27.4238 33.6669C26.7337 33.6669 26.0437 33.6669 25.3327 33.6669C25.2637 33.4599 25.1947 33.2529 25.1236 33.0396C25.0071 33.1129 24.8907 33.1862 24.7707 33.2618C24.1693 33.5056 23.8628 33.3921 23.2416 33.2487C22.9311 33.3522 22.9311 33.3522 22.6143 33.4578C22.6833 33.2508 22.7523 33.0438 22.8234 32.8305C22.9495 32.8178 23.0757 32.8052 23.2056 32.7921C23.3728 32.7746 23.5399 32.7571 23.7121 32.739C23.8771 32.722 24.042 32.705 24.212 32.6875C24.7025 32.6359 24.7025 32.6359 25.1465 32.4833C25.5418 32.4123 25.5418 32.4123 26.1691 32.8305C27.2558 32.7399 28.2661 32.2727 29.162 31.6673C29.7204 30.8607 29.7978 30.0242 29.9331 29.0665C29.976 28.8592 30.0189 28.6519 30.063 28.4383C30.2183 27.4957 30.2979 26.8446 29.8335 25.987C29.2005 25.2172 28.7047 24.7522 27.7505 24.4399C27.5047 24.4485 27.2589 24.4572 27.0056 24.466C26.8616 24.4647 26.7177 24.4633 26.5694 24.462C24.9161 24.5229 23.6409 25.3755 22.4443 26.4657C22.1407 26.804 21.8484 27.1529 21.5687 27.5112C20.8981 28.0561 20.4433 28.2031 19.6213 28.4392C17.9349 28.8942 17.9349 28.8942 16.55 29.9029C15.97 31.0121 15.6389 32.2139 15.5045 33.4578C15.2069 33.5419 15.2069 33.5419 14.9033 33.6277C14.197 33.8237 14.197 33.8237 13.8316 34.5034C13.6932 34.9312 13.6932 34.9312 13.5963 35.379C13.5359 35.6421 13.4756 35.9052 13.4134 36.1763C13.5514 36.1763 13.6894 36.1763 13.8316 36.1763C13.6245 37.1876 13.4224 38.1579 12.9951 39.1038C13.6883 39.5281 14.1309 39.5487 14.9294 39.4436C15.1159 39.4205 15.3025 39.3973 15.4947 39.3734C15.6359 39.3534 15.7772 39.3335 15.9227 39.3129C16.1297 39.6235 16.1297 39.6235 16.3409 39.9403C16.5479 39.9403 16.755 39.9403 16.9682 39.9403C16.9682 40.1473 16.9682 40.3543 16.9682 40.5676C16.4507 40.6711 16.4507 40.6711 15.9227 40.7767C16.0607 41.5358 16.1987 42.2949 16.3409 43.0769C15.9959 43.0769 15.6508 43.0769 15.2954 43.0769C15.2264 42.6629 15.1573 42.2489 15.0862 41.8223C14.6072 41.8054 14.1279 41.7932 13.6486 41.7831C13.3817 41.7758 13.1149 41.7685 12.8399 41.761C12.5027 41.7913 12.5027 41.7913 12.1587 41.8223C11.7057 42.5017 11.6959 42.5748 11.8189 43.3253C11.862 43.5884 11.9051 43.8514 11.9496 44.1225C11.7749 44.0578 11.7749 44.0578 11.5967 43.9918C10.9446 43.8861 10.6446 44.0143 10.0676 44.3316C9.5875 44.8573 9.5875 44.8573 9.23113 45.3772C10.0466 46.5394 10.0466 46.5394 11.0739 47.5075C11.5314 47.8865 11.5314 47.8865 11.7013 48.4616C11.7142 48.6168 11.7271 48.7721 11.7405 48.9321C11.9475 49.0011 12.1545 49.0701 12.3678 49.1412C12.3678 49.2792 12.3678 49.4172 12.3678 49.5594C11.9538 49.6284 11.5397 49.6974 11.1131 49.7685C11.0096 49.0439 11.0096 49.0439 10.904 48.3047C10.6323 48.2336 10.6323 48.2336 10.3551 48.161C9.45538 47.8111 8.63273 47.317 8.18557 46.4227C7.77153 46.5262 7.77153 46.5262 7.34913 46.6318C7.3746 46.8534 7.3746 46.8534 7.40059 47.0795C7.59081 50.1695 6.14603 53.0636 4.89452 55.8237C4.60925 56.4751 4.60925 56.4751 4.41259 57.2467C4.21246 57.9238 4.21246 57.9238 3.79424 58.3421C3.68956 58.847 3.68956 58.847 3.79424 59.3876C4.00773 59.5817 4.00773 59.5817 4.22553 59.7797C4.63068 60.2241 4.63068 60.2241 4.64375 60.8383C4.43991 61.8597 3.97443 62.8126 3.55654 63.761C3.34682 64.5106 3.42126 64.7831 3.79424 65.4519C3.86324 65.5209 3.93225 65.5899 4.00335 65.661C4.07493 66.3231 4.05695 66.6239 3.68968 67.1901C3.58617 67.3065 3.48266 67.423 3.37602 67.543C3.79395 67.4218 3.79395 67.4218 4.21246 67.1247C4.25451 66.9269 4.29656 66.729 4.33989 66.5252C4.66363 65.7958 4.72336 65.7613 5.41975 65.4845C5.74008 65.3679 6.06085 65.2525 6.38199 65.1382C7.7527 64.5981 7.7527 64.5981 8.60625 63.4612C8.87006 62.5089 9.02202 61.63 9.02202 60.6423C9.36705 60.6423 9.71209 60.6423 10.0676 60.6423C10.1366 60.3663 10.2056 60.0902 10.2767 59.8059C9.8718 59.6006 9.46658 59.3959 9.06123 59.1916C8.83561 59.0776 8.60999 58.9635 8.37753 58.8461C7.77527 58.5389 7.77527 58.5389 7.14002 58.3421C7.26344 57.9969 7.39046 57.6529 7.51903 57.3096C7.58939 57.1179 7.65974 56.9263 7.73223 56.7288C7.97646 56.251 7.97646 56.251 8.6038 56.0418C8.70731 56.2489 8.70731 56.2489 8.81291 56.4601C9.35004 56.1915 9.42906 55.9652 9.64935 55.4145C9.64935 55.1385 9.64935 54.8625 9.64935 54.5781C10.0545 54.748 10.0545 54.748 10.4858 54.9963C10.5548 55.2033 10.6238 55.4103 10.6949 55.6236C10.4189 55.6926 10.1429 55.7616 9.85846 55.8327C10.3338 56.7571 10.9307 57.2828 11.7405 57.9238C11.9496 58.133 12.1587 58.3421 12.3678 58.5512C12.5058 58.6202 12.6438 58.6892 12.786 58.7603C13.2042 58.9694 13.2042 58.9694 13.4134 59.3876C13.6204 59.3186 13.8274 59.2496 14.0407 59.1785C14.2477 59.5926 14.2477 59.5926 14.4589 60.015C14.873 59.8079 14.873 59.8079 15.2954 59.5967C15.2954 59.4587 15.2954 59.3207 15.2954 59.1785C15.6404 59.1785 15.9854 59.1785 16.3409 59.1785C16.1243 58.712 15.9215 58.3407 15.5829 57.95C15.2035 57.3636 15.2487 56.9351 15.2954 56.251C15.9227 56.4601 15.9227 56.4601 16.2756 57.1005C16.3661 57.3032 16.4567 57.5059 16.55 57.7147C16.688 57.7147 16.8261 57.7147 16.9682 57.7147C16.9682 57.8527 16.9682 57.9908 16.9682 58.133C17.2443 58.064 17.5203 57.9949 17.8047 57.9238C17.8047 57.4408 17.8047 56.9578 17.8047 56.4601C17.9427 56.4601 18.0807 56.4601 18.2229 56.4601C18.2919 56.8741 18.3609 57.2882 18.432 57.7147C19.4045 57.7711 19.4045 57.7711 20.314 57.5056C20.383 57.2986 20.452 57.0916 20.5231 56.8783C20.6612 56.8093 20.7992 56.7403 20.9414 56.6692C20.9414 57.0142 20.9414 57.3592 20.9414 57.7147C21.1484 57.7147 21.3554 57.7147 21.5687 57.7147C21.6377 57.3697 21.7067 57.0247 21.7778 56.6692C21.9848 56.6692 22.1918 56.6692 22.4051 56.6692C22.4051 56.8072 22.4051 56.9452 22.4051 57.0874C22.9064 57.2295 22.9064 57.2295 23.4507 57.2965C23.9157 56.8939 23.9157 56.8939 24.078 56.251C24.216 56.251 24.3541 56.251 24.4963 56.251C24.5998 56.7685 24.5998 56.7685 24.7054 57.2965C25.1884 57.4345 25.6715 57.5725 26.1691 57.7147C26.1001 57.4387 26.0311 57.1627 25.96 56.8783C25.822 56.8783 25.684 56.8783 25.5418 56.8783C25.6108 56.6713 25.6798 56.4643 25.7509 56.251C25.8674 56.3113 25.9838 56.3717 26.1038 56.4339C26.6051 56.6778 27.1135 56.8854 27.6329 57.0874C27.5639 56.9494 27.4949 56.8114 27.4238 56.6692C27.2858 56.6692 27.1478 56.6692 27.0056 56.6692C27.3282 55.3891 27.7158 54.3267 28.4718 53.2384C28.7152 52.9113 28.7152 52.9113 28.6785 52.487C28.8855 52.487 29.0925 52.487 29.3058 52.487C28.7521 54.0426 28.7521 54.0426 28.3256 54.7218C28.01 55.278 27.9972 55.6217 28.0511 56.251C28.1892 56.251 28.3272 56.251 28.4694 56.251C28.5147 56.5033 28.5147 56.5033 28.5609 56.7607C28.6244 57.28 28.6244 57.28 28.8876 57.5056C29.2697 57.5739 29.6535 57.6333 30.0377 57.6886C30.8734 57.8188 31.6362 57.9838 32.4294 58.2767C33.135 58.5333 33.5933 58.6015 34.3245 58.3421C34.3245 58.1351 34.3245 57.928 34.3245 57.7147C34.6695 57.8527 35.0145 57.9908 35.37 58.133C35.37 58.409 35.37 58.685 35.37 58.9694C35.4441 59.5092 35.5069 59.737 35.9051 60.1162C36.0347 60.2036 36.1644 60.2909 36.298 60.3809C36.4271 60.4704 36.5562 60.5599 36.6892 60.6521C37.036 60.8856 37.036 60.8856 37.4612 60.8514C37.3921 61.1964 37.3231 61.5415 37.252 61.897C37.0105 61.8323 36.769 61.7676 36.5202 61.7009C35.6515 61.4822 34.7964 61.365 33.9063 61.2696C33.8373 61.5457 33.7682 61.8217 33.6971 62.1061C34.2023 62.4114 34.7077 62.7163 35.2132 63.0209C35.3558 63.1072 35.4984 63.1935 35.6453 63.2823C35.7841 63.3659 35.923 63.4495 36.066 63.5355C36.193 63.6122 36.32 63.6889 36.4509 63.7678C36.8501 63.9974 37.2566 64.2042 37.6703 64.4063C37.8404 64.1363 38.0102 63.8662 38.18 63.596C38.3219 63.3704 38.3219 63.3704 38.4667 63.1402C38.721 62.7381 38.721 62.7381 38.9249 62.3152C39.9576 62.6907 40.8745 63.2397 41.8165 63.7953C42.3555 64.1093 42.8794 64.3989 43.46 64.6285C43.9436 64.8245 43.9436 64.8245 44.3635 65.1782C44.767 65.5074 44.767 65.5074 45.2751 65.3922C45.5346 65.3118 45.5346 65.3118 45.7995 65.2297C46.359 65.0916 46.359 65.0916 46.8712 65.0336C47.292 65.3085 47.7103 65.5872 48.1258 65.8701C49.0886 65.8268 49.8375 65.5654 50.6352 65.0336C51.2666 64.852 51.8611 64.7728 52.5172 64.8245C53.0024 65.1176 53.3532 65.48 53.7718 65.8701C54.3297 65.9226 54.3297 65.9226 54.8174 65.8701C54.9554 66.0081 55.0934 66.1461 55.2356 66.2883C55.3046 65.3912 55.3736 64.4941 55.4447 63.5699C55.7207 63.7079 55.9968 63.8459 56.2812 63.9881C56.7829 64.1878 56.7829 64.1878 57.3267 64.1972C57.9038 63.9069 57.9038 63.9069 58.4376 63.4784C58.6223 63.3406 58.8069 63.2029 58.9972 63.061C59.136 62.9529 59.2748 62.8448 59.4178 62.7334C59.3772 62.3301 59.3772 62.3301 59.2087 61.897C58.7894 61.592 58.354 61.3715 57.8944 61.1324C57.7761 61.0397 57.6578 60.9469 57.5358 60.8514C57.5358 60.5754 57.5358 60.2994 57.5358 60.015C57.6738 59.946 57.8119 59.8769 57.9541 59.8059C57.9541 59.0468 57.9541 58.2877 57.9541 57.5056C58.2301 57.3676 58.5061 57.2296 58.7905 57.0874C58.7905 56.9494 58.7905 56.8114 58.7905 56.6692C59.1355 56.6692 59.4806 56.6692 59.8361 56.6692C59.8361 57.0832 59.8361 57.4973 59.8361 57.9238C59.422 58.0619 59.008 58.1999 58.5814 58.3421C58.9329 59.628 59.3333 60.5079 60.2543 61.4787C61.0017 61.2054 61.6156 60.8756 62.267 60.4201C62.7995 60.0484 63.1885 59.8036 63.8092 59.5967C63.8092 59.4587 63.8092 59.3207 63.8092 59.1785C63.9237 59.1454 64.0383 59.1122 64.1563 59.078C65.2721 58.7496 66.3787 58.3974 67.4817 58.0284C67.6178 57.983 67.7539 57.9375 67.8941 57.8907C68.4509 57.7043 69.0068 57.5162 69.5605 57.321C70.4492 57.0101 71.3319 56.7797 72.252 56.5777C73.1276 56.3837 73.9503 56.1537 74.7875 55.8327C75.8396 55.4306 76.8934 55.1743 77.9936 54.9383C78.5897 54.8023 79.1585 54.632 79.7408 54.4474C81.356 53.9883 83.0522 54.004 84.7203 53.9507C84.7893 54.2268 84.8583 54.5028 84.9294 54.7872C85.0976 54.7397 85.2658 54.6923 85.4391 54.6434C86.1836 54.5781 86.4526 54.6454 87.1251 54.9048C87.7977 55.152 88.0186 55.2145 88.7457 55.0747C89.3189 54.805 89.3189 54.805 89.797 54.458C90.4793 54.1007 90.9218 54.0954 91.6863 54.1206C91.9098 54.1263 92.1332 54.132 92.3635 54.1378C92.5325 54.1451 92.7015 54.1523 92.8756 54.1598C92.9446 53.8838 93.0137 53.6078 93.0848 53.3234C93.4298 53.3234 93.7748 53.3234 94.1303 53.3234C94.2209 53.5757 94.2209 53.5757 94.3133 53.8331C94.4926 54.3967 94.4926 54.3967 94.9668 54.5781C95.3548 53.6843 95.3548 53.6843 95.1873 52.7573C95.1145 52.5991 95.0417 52.4409 94.9668 52.2778C93.0449 52.1968 91.3552 52.3567 89.4857 52.7679C88.6354 52.9152 87.881 52.9281 87.0205 52.9052C87.0033 52.7413 86.986 52.5774 86.9682 52.4085C86.8716 51.8277 86.8716 51.8277 86.3834 51.6162C86.2486 51.5585 86.1138 51.5008 85.975 51.4414C86.1908 50.2111 86.5457 49.0948 87.0075 47.9388C87.0868 47.7388 87.0868 47.7388 87.1677 47.5348C87.4798 46.7702 87.8471 46.0813 88.2752 45.3772C88.431 45.0188 88.5794 44.6572 88.7196 44.2924C89.0992 43.311 89.0992 43.311 89.3207 42.8678C89.4754 41.6306 89.1204 40.9075 88.5358 39.8243C88.2052 39.1755 88.0258 38.5553 87.857 37.8492C87.5939 37.819 87.3308 37.7888 87.0597 37.7577C86.5131 37.695 86.0849 37.607 85.5567 37.4309C83.7937 37.1904 83.7937 37.1904 82.1873 37.743C81.8666 38.1255 81.8666 38.1255 81.6277 38.5337C81.3211 38.9708 81.0247 39.1097 80.5381 39.3129C80.5381 39.451 80.5381 39.589 80.5381 39.7312C78.0263 39.8143 76.2591 39.5036 74.2647 37.8492C73.8739 37.2953 73.6713 36.8169 73.4283 36.1763C73.3593 36.1073 73.2903 36.0383 73.2192 35.9672C71.9289 35.9894 71.3213 36.2382 70.4052 37.1434C70.0825 37.4309 70.0825 37.4309 69.4552 37.6401C69.6662 37.2861 69.8772 36.9321 70.0882 36.5782C70.3897 35.9865 70.3897 35.9865 70.5007 35.3398C70.1592 34.9122 70.1592 34.9122 69.6904 34.5034C68.7515 33.5235 68.6322 32.7612 68.6057 31.4312C68.61 31.2719 68.6143 31.1126 68.6187 30.9485C68.1774 31.0612 67.7377 31.18 67.2987 31.3014C67.0537 31.3669 66.8087 31.4324 66.5562 31.4999C65.7891 31.8333 65.6012 32.0737 65.273 32.8305C65.1226 33.6032 65.1226 33.6032 65.0638 34.2943C64.9172 34.3503 64.7706 34.4064 64.6195 34.4642C63.9838 34.7267 63.3757 35.0267 62.7636 35.3398C62.8326 34.9948 62.9016 34.6498 62.9727 34.2943C63.0935 34.277 63.2143 34.2598 63.3387 34.242C63.938 34.0422 64.2272 33.712 64.6456 33.2487C64.5766 33.0417 64.5076 32.8347 64.4365 32.6214C63.9011 32.4059 63.9011 32.4059 63.2733 32.2685C63.0617 32.2159 62.8501 32.1634 62.6321 32.1092C62.4685 32.0712 62.3049 32.0332 62.1363 31.9941C62.0673 32.3391 61.9983 32.6841 61.9272 33.0396C61.7892 33.0396 61.6511 33.0396 61.5089 33.0396C61.4917 32.8757 61.4744 32.7118 61.4567 32.543C61.4049 32.3618 61.3532 32.1807 61.2998 31.9941C61.0251 31.8468 60.7453 31.7089 60.4634 31.5758C60.224 31.2459 60.224 31.2459 59.9798 30.9093C59.4664 30.2451 59.4664 30.2451 58.6729 30.2427C57.8932 30.5546 57.8424 30.606 57.5097 31.3144C57.445 31.4665 57.3803 31.6185 57.3137 31.7751C56.7598 32.9844 55.4471 33.7585 54.422 34.5516C53.9642 34.8859 53.9642 34.8859 53.7718 35.3398C53.3405 35.5751 53.3405 35.5751 52.9354 35.7581C52.9354 35.8961 52.9354 36.0341 52.9354 36.1763C52.4523 36.1763 51.9693 36.1763 51.4716 36.1763C51.4026 35.6242 51.3336 35.0722 51.2625 34.5034C50.7449 34.7104 50.7449 34.7104 50.2169 34.9216C50.2954 34.3073 50.2954 34.3073 50.4261 33.6669C51.2514 33.2543 52.1956 33.4388 53.0792 33.5885C53.8269 33.6732 54.0052 33.6606 54.6083 33.2487C54.9586 32.7375 54.9586 32.7375 55.2487 32.1378C55.8647 30.9401 56.5061 29.8538 57.3496 28.8043C57.5775 28.442 57.5775 28.442 57.4811 28.0054C57.295 27.5199 57.0281 27.1664 56.6994 26.7663C56.2459 26.8721 55.863 26.9753 55.4447 27.1845C55.5525 27.0335 55.6604 26.8826 55.7715 26.7271C56.1169 26.0512 56.0853 25.801 55.8629 25.0934C55.3109 25.0934 54.7588 25.0934 54.1901 25.0934C54.121 24.8864 54.052 24.6793 53.9809 24.466C54.326 24.466 54.671 24.466 55.0265 24.466C55.002 23.9669 55.002 23.9669 54.8174 23.4205C54.3589 23.0122 54.3589 23.0122 53.7718 22.6886C53.5653 22.5646 53.3589 22.4406 53.1461 22.3129C52.434 21.9096 51.7168 21.5188 50.9864 21.1497C50.6352 20.9112 50.6352 20.9112 50.4261 20.2838C50.288 20.2838 50.15 20.2838 50.0078 20.2838C49.9647 20.4175 49.9216 20.5512 49.8771 20.689C49.5896 21.1203 49.5896 21.1203 48.9361 21.2771C48.7377 21.2943 48.5393 21.3116 48.3349 21.3294C48.3349 21.4674 48.3349 21.6054 48.3349 21.7476C48.1969 21.7476 48.0589 21.7476 47.9167 21.7476C48.0366 21.148 48.0969 20.9401 48.5441 20.4929C47.7269 20.1039 47.1424 20.0348 46.2438 20.1139ZM59.4178 29.4847C59.6521 30.1874 59.881 30.4085 60.4242 30.8962C60.6397 31.0951 60.6397 31.0951 60.8596 31.2981C61.2748 31.6178 61.2748 31.6178 61.7368 31.5603C62.2282 31.3222 62.4138 31.0763 62.7113 30.6218C62.8008 30.4878 62.8903 30.3538 62.9825 30.2158C63.0483 30.1125 63.1141 30.0093 63.1818 29.9029C61.3037 28.5354 61.3037 28.5354 59.4178 29.4847ZM63.3909 30.3212C63.0487 30.731 63.0487 30.731 62.7636 31.1576C62.8494 31.5924 62.8494 31.5924 63.1818 31.9941C63.7457 32.1379 64.2696 32.1654 64.8547 32.2032C64.9927 31.9271 65.1308 31.6511 65.273 31.3667C65.0386 31.1913 64.8031 31.0173 64.5672 30.8439C64.4362 30.7469 64.3052 30.6499 64.1702 30.5499C63.8215 30.2839 63.8215 30.2839 63.3909 30.3212ZM64.8547 32.4123C65.0638 32.8305 65.0638 32.8305 65.0638 32.8305L64.8547 32.4123ZM24.2871 32.8305C24.4963 33.2487 24.4963 33.2487 24.4963 33.2487L24.2871 32.8305ZM25.5418 32.8305C25.6108 33.0375 25.6798 33.2445 25.7509 33.4578C25.9579 33.3198 26.165 33.1818 26.3783 33.0396C26.1022 32.9706 25.8262 32.9016 25.5418 32.8305ZM28.2603 34.2943C28.2603 34.4323 28.2603 34.5703 28.2603 34.7125C28.3983 34.6435 28.5363 34.5745 28.6785 34.5034C28.5405 34.4344 28.4025 34.3654 28.2603 34.2943ZM27.6329 34.5034C27.842 34.9216 27.842 34.9216 27.842 34.9216L27.6329 34.5034ZM27.4238 35.1307C27.4238 35.5448 27.4238 35.9588 27.4238 36.3854C27.4928 36.3854 27.5618 36.3854 27.6329 36.3854C27.6329 35.9713 27.6329 35.5573 27.6329 35.1307C27.5639 35.1307 27.4949 35.1307 27.4238 35.1307ZM28.8876 35.1307C29.0967 35.5489 29.0967 35.5489 29.0967 35.5489L28.8876 35.1307ZM29.0967 35.5489C29.3058 35.9672 29.3058 35.9672 29.3058 35.9672L29.0967 35.5489ZM29.3058 35.9672C29.5149 36.3854 29.5149 36.3854 29.5149 36.3854L29.3058 35.9672ZM11.1131 41.4041C11.0441 41.6111 10.9751 41.8181 10.904 42.0314C11.18 41.9624 11.4561 41.8934 11.7405 41.8223C11.7405 41.6843 11.7405 41.5463 11.7405 41.4041C11.5334 41.4041 11.3264 41.4041 11.1131 41.4041ZM11.1131 48.723C11.1821 48.999 11.2511 49.275 11.3222 49.5594C11.5293 49.4904 11.7363 49.4214 11.9496 49.3503C11.8116 49.3503 11.6736 49.3503 11.5314 49.3503C11.4623 49.1433 11.3933 48.9362 11.3222 48.723C11.2532 48.723 11.1842 48.723 11.1131 48.723ZM9.85846 54.9963C9.85846 55.1343 9.85846 55.2723 9.85846 55.4145C9.99648 55.4145 10.1345 55.4145 10.2767 55.4145C10.2767 55.2765 10.2767 55.1385 10.2767 54.9963C10.1387 54.9963 10.0007 54.9963 9.85846 54.9963ZM27.4238 55.8327C27.4238 56.0398 27.4238 56.2468 27.4238 56.4601C27.5618 56.4601 27.6998 56.4601 27.842 56.4601C27.773 56.253 27.704 56.046 27.6329 55.8327C27.5639 55.8327 27.4949 55.8327 27.4238 55.8327ZM27.842 56.4601C28.0511 56.8783 28.0511 56.8783 28.0511 56.8783L27.842 56.4601ZM15.5045 56.6692C15.5045 56.9452 15.5045 57.2212 15.5045 57.5056C15.6425 57.4366 15.7805 57.3676 15.9227 57.2965C15.7847 57.0895 15.6467 56.8825 15.5045 56.6692ZM59.2087 56.8783C58.9327 57.1543 58.6567 57.4303 58.3723 57.7147C58.4413 57.8527 58.5103 57.9908 58.5814 58.133C58.9264 57.9949 59.2715 57.8569 59.6269 57.7147C59.4889 57.4387 59.3509 57.1627 59.2087 56.8783ZM58.1632 58.133C58.3723 58.9694 58.3723 58.9694 58.3723 58.9694L58.1632 58.133ZM49.5896 66.2883C49.7257 66.7146 49.7257 66.7146 50.0078 67.1247C51.0071 67.4166 52.1465 67.4241 53.1445 67.1247C52.9019 66.3969 52.7069 66.1249 52.0989 65.661C51.0497 65.5274 50.4426 65.6679 49.5896 66.2883ZM45.8256 66.7065C46.4309 67.3288 46.9204 67.8048 47.7076 68.1703C47.7766 68.3083 47.8456 68.4463 47.9167 68.5885C48.0763 68.6791 48.2359 68.7697 48.4003 68.863C49.02 69.2521 49.3511 69.6903 49.7987 70.2614C49.9367 70.2614 50.0747 70.2614 50.2169 70.2614C50.2859 70.4684 50.355 70.6755 50.4261 70.8887C50.8443 71.1415 50.8443 71.1415 51.2625 71.307C51.4005 71.169 51.5385 71.0309 51.6807 70.8887C51.905 70.8111 52.1293 70.7335 52.3603 70.6535C53.3381 70.2579 53.881 69.4824 54.3992 68.5885C54.3992 68.4505 54.3992 68.3125 54.3992 68.1703C53.1389 67.87 51.9991 67.7108 50.703 67.7986C50.2169 67.7521 50.2169 67.7521 49.7415 67.4531C48.9829 67.0162 48.2938 66.9603 47.4331 66.8764C47.2783 66.8593 47.1234 66.8422 46.9639 66.8246C46.5847 66.783 46.2052 66.7444 45.8256 66.7065ZM49.7987 67.3339C49.7987 67.4029 49.7987 67.4719 49.7987 67.543C50.1438 67.543 50.4888 67.543 50.8443 67.543C50.8443 67.474 50.8443 67.405 50.8443 67.3339C50.4992 67.3339 50.1542 67.3339 49.7987 67.3339ZM2.95779 67.9612C2.81978 68.0992 2.68177 68.2372 2.53957 68.3794C2.55014 69.0009 2.55014 69.0009 2.67026 69.6994C2.70315 69.9358 2.73604 70.1722 2.76992 70.4158C2.97688 71.1671 3.2712 71.5745 3.79424 72.1434C3.86324 71.9364 3.93225 71.7294 4.00335 71.5161C4.14136 71.4471 4.27938 71.3781 4.42157 71.307C4.05603 70.1637 3.65665 69.0573 3.1669 67.9612C3.0979 67.9612 3.02889 67.9612 2.95779 67.9612ZM3.79424 72.3525C4.00335 72.9799 4.00335 72.9799 4.00335 72.9799L3.79424 72.3525ZM3.50671 73.2805C2.95779 73.6072 2.95779 73.6072 2.33046 73.8163C2.26145 74.2303 2.19245 74.6444 2.12135 75.071C2.42645 75.0063 2.73137 74.9408 3.03621 74.8749C3.20603 74.8385 3.37585 74.8021 3.55082 74.7647C4.00951 74.6688 4.00951 74.6688 4.42157 74.4436C4.35256 73.9606 4.28356 73.4775 4.21246 72.9799C3.93641 72.9618 3.93641 72.9618 3.50671 73.2805Z" fill="white"/>
<path d="M23.4529 58.7603C23.6642 58.8638 23.8756 58.9673 24.0933 59.0739C24.6984 59.338 24.9845 59.3876 25.6747 59.3876C26.4832 59.3876 26.8076 59.5026 27.426 60.0149C27.7005 60.5769 27.7005 60.5769 27.8442 61.0605C27.9822 61.0605 28.1203 61.0605 28.2625 61.0605C28.2625 61.1985 28.2625 61.3365 28.2625 61.4787C28.3789 61.5348 28.4954 61.5908 28.6153 61.6486C29.3657 62.0339 30.0702 62.4748 30.7718 62.9425C30.811 63.4914 30.811 63.4914 30.7718 63.988C30.6338 63.988 30.4958 63.988 30.3536 63.988C30.2156 64.2641 30.0775 64.5401 29.9353 64.8245C28.9002 64.6175 28.9002 64.6175 27.8442 64.4063C27.8227 64.6348 27.8011 64.8634 27.7789 65.0989C27.6351 65.87 27.6351 65.87 27.3737 66.2883C27.0078 66.4974 27.0078 66.4974 26.5504 66.4974C25.7254 66.2041 24.9718 65.7944 24.2893 65.2427C24.1858 64.9322 24.1858 64.9322 24.0802 64.6154C23.8732 64.6844 23.6662 64.7534 23.4529 64.8245C23.5564 65.4455 23.5564 65.4455 23.662 66.0791C24.076 66.2172 24.4901 66.3552 24.9167 66.4974C25.0202 67.2219 25.0202 67.2219 25.1258 67.9612C24.8972 67.9137 24.6686 67.8663 24.4331 67.8174C24.1786 67.7958 23.9242 67.7743 23.662 67.752C23.4483 67.9565 23.2396 68.1662 23.0347 68.3794C22.2078 68.5857 21.5471 68.6503 20.7344 68.3794C20.2642 67.5173 20.2049 66.6225 20.1071 65.6609C19.7966 65.7644 19.7966 65.7644 19.4798 65.87C18.9178 65.674 18.9178 65.674 18.4342 65.4518C18.1798 65.821 18.1798 65.821 18.016 66.2883C18.0915 66.4155 18.167 66.5427 18.2447 66.6738C18.4342 67.1247 18.4342 67.1247 18.2463 67.6181C18.1445 67.783 18.0426 67.948 17.9376 68.118C17.7864 68.3687 17.7864 68.3687 17.6321 68.6244C17.5518 68.7506 17.4714 68.8767 17.3887 69.0067C17.4577 69.0757 17.5267 69.1447 17.5978 69.2158C17.9428 68.7328 18.2878 68.2497 18.6433 67.752C19.195 68.3037 19.3721 68.5058 19.6235 69.1897C19.6761 69.3272 19.7287 69.4646 19.7828 69.6063C19.9261 70.1612 19.9889 70.5263 19.898 71.0978C19.5395 71.5268 19.2166 71.8605 18.8002 72.2218C18.6975 72.3186 18.5948 72.4153 18.489 72.515C18.1826 72.7887 18.1826 72.7887 17.5978 73.1889C17.1044 73.1448 17.1044 73.1448 16.7613 72.9798C16.7409 71.9793 16.8092 71.0399 16.9704 70.0523C17.1085 70.0523 17.2465 70.0523 17.3887 70.0523C17.3197 70.8803 17.2507 71.7084 17.1796 72.5616C17.6362 72.6092 17.6362 72.6092 17.9899 72.1957C18.2098 71.9628 18.2098 71.9628 18.4342 71.7252C18.705 71.4385 18.9824 71.1577 19.2707 70.8887C19.4087 70.8887 19.5467 70.8887 19.6889 70.8887C19.4129 70.1986 19.1368 69.5086 18.8524 68.7976C18.7144 68.7976 18.5764 68.7976 18.4342 68.7976C18.0903 69.3127 18.0903 69.3127 17.8069 69.8432C17.4017 69.7778 17.4017 69.7778 16.9704 69.634C16.8669 69.3235 16.8669 69.3235 16.7613 69.0067C16.9843 68.5779 16.9843 68.5779 17.2972 68.1049C17.7795 67.3108 17.7795 67.3108 17.6631 66.3797C17.5273 66.1274 17.5273 66.1274 17.3887 65.87C17.7337 65.525 18.0787 65.18 18.4342 64.8245C18.624 64.8935 18.8138 64.9625 19.0093 65.0336C19.7036 65.2837 19.7036 65.2837 20.5253 65.2427C20.538 65.3664 20.5507 65.4902 20.5637 65.6176C20.5812 65.7829 20.5988 65.9481 20.6168 66.1184C20.6338 66.2809 20.6508 66.4434 20.6683 66.6109C20.7361 67.1373 20.8338 67.6512 20.9436 68.1703C21.2837 68.1113 21.6234 68.0498 21.963 67.9873C22.2468 67.9363 22.2468 67.9363 22.5364 67.8844C23.0692 67.7875 23.0692 67.7875 23.4529 67.3338C24.1064 67.3077 24.1064 67.3077 24.7076 67.3338C24.6041 66.9198 24.6041 66.9198 24.4984 66.4974C24.3389 66.4887 24.1793 66.4801 24.0149 66.4712C23.4529 66.2883 23.4529 66.2883 23.0739 65.6479C22.9919 65.4451 22.91 65.2424 22.8256 65.0336C23.0326 64.7576 23.2396 64.4815 23.4529 64.1971C24.2596 64.3124 24.5703 64.6704 25.1258 65.2427C25.7047 65.6732 26.0076 65.87 26.7333 65.87C27.269 65.6993 27.269 65.6993 27.4914 65.1251C27.5388 64.9569 27.5862 64.7887 27.6351 64.6154C27.4971 64.5464 27.3591 64.4774 27.2169 64.4063C27.4628 64.082 27.4628 64.082 27.8442 63.7789C28.3629 63.8091 28.3629 63.8091 28.929 63.9488C29.1174 63.9933 29.3058 64.0378 29.5 64.0836C29.6436 64.1211 29.7873 64.1585 29.9353 64.1971C30.0734 63.9211 30.2114 63.6451 30.3536 63.3607C29.9472 62.8826 29.5998 62.6666 29.0336 62.3674C28.1754 61.8963 27.5528 61.2437 27.0078 60.4331C27.0078 60.2951 27.0078 60.1571 27.0078 60.0149C26.7805 59.9996 26.7805 59.9996 26.5487 59.9839C25.4573 59.8995 24.4779 59.8031 23.4529 59.3876C23.2155 60.0997 23.2754 60.2904 23.5052 60.9821C23.558 61.1486 23.6108 61.3152 23.6653 61.4869C23.848 61.9712 23.848 61.9712 24.4984 62.106C24.3949 62.6236 24.3949 62.6236 24.2893 63.1516C23.8058 63.2039 23.8058 63.2039 23.2438 63.1516C22.7567 62.6825 22.6106 62.2964 22.4073 61.6486C22.3383 61.4545 22.2693 61.2604 22.1982 61.0605C21.9912 60.9915 21.7842 60.9225 21.5709 60.8514C21.7089 60.7824 21.8469 60.7134 21.9891 60.6423C22.6989 61.296 23.1614 61.806 23.4529 62.7334C23.6599 62.6644 23.8669 62.5954 24.0802 62.5243C23.8845 62.4058 23.8845 62.4058 23.6849 62.2849C23.1258 61.7932 23.0468 61.4255 22.8778 60.7076C22.8272 60.4998 22.7765 60.2919 22.7243 60.0778C22.6887 59.919 22.6531 59.7603 22.6164 59.5967C22.8925 59.3207 23.1685 59.0446 23.4529 58.7603Z" fill="white"/>
<path d="M99.9876 28.4392C100.614 28.461 101.233 28.5245 101.857 28.5871C102.516 28.6585 102.516 28.6585 103.255 28.6614C104.544 29.0194 105.645 29.9591 106.417 31.0425C106.691 31.5993 106.793 32.0192 106.849 32.6345C106.868 32.8094 106.886 32.9844 106.905 33.1646C106.886 33.7352 106.728 33.9995 106.47 34.5034C106.327 35.2532 106.205 36.0044 106.088 36.7587C105.843 37.431 105.843 37.431 105.271 37.8484C104.588 38.0583 104.588 38.0583 103.976 37.9505C103.111 37.8142 102.57 38.1265 101.83 38.5288C101.702 38.5943 101.573 38.6598 101.44 38.7273C100.789 39.0673 100.287 39.4159 99.7785 39.9403C99.2688 39.9403 99.2688 39.9403 98.733 39.7312C97.8965 38.8496 97.8965 38.8496 97.8965 38.2674C97.7585 38.2674 97.6205 38.2674 97.4783 38.2674C97.1319 37.8394 97.1319 37.8394 96.7464 37.2742C96.6192 37.0898 96.4919 36.9054 96.3609 36.7154C96.0145 36.1763 96.0145 36.1763 95.7997 35.7148C95.5961 35.2669 95.5961 35.2669 94.9559 34.9347C94.3416 34.5034 94.3416 34.5034 94.1456 33.9545C94.1325 33.4579 94.1325 33.4579 94.3416 33.0397C94.1297 33.0506 94.1297 33.0506 93.9136 33.0617C93.7271 33.0674 93.5405 33.073 93.3483 33.0789C93.0718 33.0898 93.0718 33.0898 92.7896 33.1009C92.1571 33.029 91.8833 32.8301 91.4141 32.4123C91.5201 31.6347 91.6474 31.0041 92.0414 30.3212C92.6629 30.5564 93.1569 30.7861 93.7143 31.1577C93.7833 31.3647 93.8523 31.5717 93.9234 31.785C94.1304 31.854 94.3374 31.923 94.5507 31.9941C94.4817 31.882 94.4127 31.7698 94.3416 31.6543C94.085 31.0449 94.1027 30.5578 94.1325 29.903C94.7598 29.6939 94.7598 29.6939 95.4787 29.7331C96.2326 29.7806 96.2326 29.7806 96.601 29.2822C97.2176 28.7117 97.6306 28.7406 98.4585 28.7137C99.2893 28.7573 99.2893 28.7573 99.9876 28.4392ZM100.197 28.6483C100.059 28.7863 99.9207 28.9243 99.7785 29.0665C99.1888 29.1074 99.1888 29.1074 98.4977 29.0927C98.2686 29.0889 98.0395 29.0851 97.8034 29.0812C97.6271 29.0764 97.4508 29.0715 97.2692 29.0665C97.2692 29.2736 97.2692 29.4806 97.2692 29.6939C95.3014 30.174 95.3014 30.174 94.3416 30.1121C94.3791 30.2407 94.4166 30.3693 94.4552 30.5017C94.4996 30.6707 94.5441 30.8398 94.5899 31.0139C94.636 31.1813 94.6821 31.3487 94.7296 31.5211C94.7598 31.9941 94.7598 31.9941 94.4568 32.369C94.3498 32.4523 94.2428 32.5356 94.1325 32.6214C94.3395 32.6214 94.5465 32.6214 94.7598 32.6214C94.6218 33.1045 94.4838 33.5875 94.3416 34.0852C94.4575 34.1637 94.5734 34.2421 94.6929 34.3229C96.1975 35.3858 96.1975 35.3858 96.4327 36.3854C96.6398 36.3854 96.8468 36.3854 97.0601 36.3854C97.0859 36.545 97.1118 36.7046 97.1385 36.869C97.2443 37.4734 97.2443 37.4734 97.6874 38.0583C97.8254 38.0583 97.9634 38.0583 98.1056 38.0583C98.1617 38.2179 98.2178 38.3775 98.2755 38.5419C98.5158 39.0856 98.6645 39.3943 99.1512 39.7312C99.5832 39.7453 99.5832 39.7453 99.9876 39.5221C100.075 39.3919 100.163 39.2617 100.253 39.1276C101.016 38.1957 102.462 37.7158 103.639 37.5813C104.025 37.587 104.412 37.6121 104.797 37.6401C105.004 37.5711 105.211 37.5021 105.425 37.431C105.633 36.9944 105.633 36.9944 105.764 36.4639C105.816 36.2754 105.868 36.087 105.922 35.8929C106.07 35.2987 106.07 35.2987 106.169 34.5165C106.261 33.8761 106.261 33.8761 106.679 33.2488C106.606 33.1194 106.533 32.99 106.457 32.8567C106.392 32.71 106.328 32.5634 106.261 32.4123C106.33 32.2743 106.399 32.1363 106.47 31.9941C106.074 31.1822 105.568 30.6462 104.889 30.0598C104.725 29.9164 104.56 29.773 104.391 29.6253C103.723 29.0824 103.279 29.0262 102.432 28.962C101.825 28.9156 101.263 28.8625 100.671 28.7202C100.515 28.6965 100.358 28.6728 100.197 28.6483ZM92.2505 30.9485C92.1125 31.0866 91.9745 31.2246 91.8323 31.3668C91.8513 31.8978 91.8513 31.8978 92.0414 32.4123C92.623 32.9004 92.623 32.9004 93.2307 32.7521C93.3903 32.709 93.5499 32.6659 93.7143 32.6214C93.5829 32.0003 93.5829 32.0003 93.2961 31.3668C92.7712 31.0658 92.7712 31.0658 92.2505 30.9485Z" fill="white"/>
<path d="M74.2667 29.2757C74.3357 29.4137 74.4047 29.5517 74.4758 29.6939C74.8713 29.8437 75.2735 29.9762 75.6782 30.099C76.5414 30.3616 77.2905 30.6327 78.0307 31.1577C78.0307 31.2957 78.0307 31.4337 78.0307 31.5759C78.2124 31.5457 78.394 31.5155 78.5812 31.4844C78.9427 31.4262 78.9427 31.4262 79.3115 31.3668C79.5492 31.328 79.787 31.2892 80.0319 31.2492C80.8876 31.14 81.6693 31.0891 82.5176 31.263C83.3966 31.4345 84.2772 31.3585 85.169 31.3333C85.7678 31.3668 85.7678 31.3668 86.186 31.785C86.2269 32.329 86.2269 32.329 86.2122 32.9613C86.2084 33.171 86.2046 33.3807 86.2007 33.5968C86.1959 33.758 86.191 33.9192 86.186 34.0852C85.6371 34.1202 85.0882 34.1551 84.5393 34.1898C84.3052 34.2048 84.3052 34.2048 84.0663 34.22C82.8876 34.2943 82.8876 34.2943 82.422 34.2943C82.3746 34.4237 82.3271 34.5531 82.2782 34.6864C81.9146 35.2752 81.6086 35.3322 80.9582 35.549C80.1898 35.7038 79.4422 35.7907 78.658 35.7581C78.096 35.3791 78.096 35.3791 77.8216 34.9217C77.8216 34.7837 77.8216 34.6457 77.8216 34.5035C77.6836 34.5035 77.5455 34.5035 77.4033 34.5035C77.3343 34.3654 77.2653 34.2274 77.1942 34.0852C77.0562 34.0852 76.9182 34.0852 76.776 34.0852C76.914 34.2491 77.052 34.413 77.1942 34.5819C77.6125 35.1308 77.6125 35.1308 77.6125 35.549C77.7505 35.549 77.8885 35.549 78.0307 35.549C78.0307 35.687 78.0307 35.825 78.0307 35.9672C77.6386 35.915 77.6386 35.915 77.1942 35.7581C77.048 35.4828 76.9083 35.2039 76.776 34.9217C76.569 34.8527 76.362 34.7837 76.1487 34.7126C75.9004 34.2813 75.9004 34.2813 75.7305 33.8761C75.9375 33.8071 76.1445 33.7381 76.3578 33.667C76.2419 33.6115 76.126 33.556 76.0065 33.4987C75.8551 33.4249 75.7036 33.351 75.5475 33.2749C75.3971 33.2021 75.2467 33.1294 75.0917 33.0544C74.6849 32.8306 74.6849 32.8306 74.2667 32.4123C73.8072 32.2709 73.8072 32.2709 73.2995 32.1771C73.0432 32.1245 73.0432 32.1245 72.7817 32.0709C72.6507 32.0456 72.5196 32.0202 72.3847 31.9941C72.3847 31.8561 72.3847 31.7181 72.3847 31.5759C72.2467 31.5759 72.1086 31.5759 71.9664 31.5759C71.5482 30.9486 71.5482 30.9486 71.5352 30.5434C72.0526 29.5391 73.1967 29.146 74.2667 29.2757ZM72.5938 29.903C72.5938 30.041 72.5938 30.179 72.5938 30.3212C72.3178 30.3902 72.0417 30.4592 71.7573 30.5303C71.8954 30.8064 72.0334 31.0824 72.1756 31.3668C72.3136 31.3668 72.4516 31.3668 72.5938 31.3668C72.5938 31.5048 72.5938 31.6428 72.5938 31.785C72.8698 31.716 73.1458 31.647 73.4302 31.5759C73.4302 31.7139 73.4302 31.8519 73.4302 31.9941C73.6372 32.0631 73.8443 32.1321 74.0576 32.2032C74.6173 31.9162 74.6173 31.9162 75.1031 31.5759C74.9651 31.8519 74.8271 32.128 74.6849 32.4123C75.2832 32.8999 75.8441 33.1916 76.5669 33.4579C76.7049 33.5269 76.8429 33.5959 76.9851 33.667C76.9851 33.529 76.9851 33.391 76.9851 33.2488C77.1921 33.2488 77.3992 33.2488 77.6125 33.2488C77.6125 33.5938 77.6125 33.9389 77.6125 34.2943C77.7505 34.2943 77.8885 34.2943 78.0307 34.2943C78.0911 34.4237 78.1514 34.5531 78.2136 34.6864C78.4358 35.1587 78.4358 35.1587 78.8671 35.549C80.0122 35.5971 81.035 35.3209 82.0038 34.7126C82.1202 34.5616 82.2367 34.4107 82.3567 34.2551C83.0711 33.6952 83.7234 33.8229 84.6054 33.8671C85.166 33.9062 85.166 33.9062 85.7678 33.667C85.8368 33.115 85.9058 32.5629 85.9769 31.9941C84.8275 31.5762 83.8229 31.5452 82.6034 31.5816C82.0038 31.5759 82.0038 31.5759 81.4606 31.4664C80.9435 31.3639 80.5748 31.3815 80.0564 31.4583C79.1628 31.5752 78.3041 31.5923 77.4033 31.5759C77.3343 31.3689 77.2653 31.1619 77.1942 30.9486C76.5521 30.6454 76.5521 30.6454 75.7827 30.3996C75.525 30.3107 75.2673 30.2217 75.0018 30.1301C73.8004 29.7242 73.8004 29.7242 72.5938 29.903Z" fill="white"/>
<path d="M90.5749 43.0769C90.7819 43.1459 90.9889 43.2149 91.2022 43.286C91.0642 43.7001 90.9262 44.1141 90.784 44.5407C90.991 44.6097 91.198 44.6787 91.4113 44.7498C91.4113 44.8878 91.4113 45.0258 91.4113 45.168C91.5493 45.168 91.6873 45.168 91.8295 45.168C91.8468 45.0171 91.864 44.8661 91.8818 44.7106C92.0695 44.0068 92.3965 43.6172 92.8751 43.0769C93.8843 43.1832 94.5187 43.4679 95.3583 44.031C95.5604 44.1649 95.7626 44.2989 95.9709 44.4369C96.1224 44.5402 96.2739 44.6434 96.43 44.7498C96.361 45.0948 96.292 45.4399 96.2209 45.7954C95.5935 46.0045 95.5935 46.0045 94.9662 45.7954C94.8972 45.5883 94.8282 45.3813 94.7571 45.168C94.7312 45.2845 94.7053 45.4009 94.6787 45.5209C94.5355 46.0507 94.3407 46.5438 94.1297 47.05C93.9917 47.05 93.8537 47.05 93.7115 47.05C93.7115 47.326 93.7115 47.6021 93.7115 47.8865C93.5606 47.8175 93.4096 47.7485 93.2541 47.6774C92.6624 47.467 92.2417 47.4327 91.6204 47.4682C91.6204 47.6063 91.6204 47.7443 91.6204 47.8865C91.46 47.8991 91.2996 47.9118 91.1344 47.9249C90.5377 48.0437 90.5377 48.0437 90.244 48.5734C90.1591 48.7651 90.0742 48.9567 89.9867 49.1542C89.8991 49.3464 89.8115 49.5386 89.7213 49.7366C89.6579 49.8851 89.5946 50.0337 89.5293 50.1867C89.3913 50.1867 89.2533 50.1867 89.1111 50.1867C89.0421 50.4627 88.9731 50.7387 88.902 51.0231C88.7639 51.0231 88.6259 51.0231 88.4837 51.0231C87.9827 49.4198 88.8268 47.9348 89.504 46.5101C89.893 45.7276 89.893 45.7276 89.8038 44.8936C89.7087 44.0765 90.0899 43.7088 90.5749 43.0769ZM92.7575 43.4951C92.333 44.0856 92.0974 44.7011 91.8295 45.3771C91.3465 45.3081 90.8634 45.2391 90.3657 45.168C89.0535 47.7737 89.0535 47.7737 88.6929 50.6049C88.7619 50.3979 88.8309 50.1909 88.902 49.9776C89.04 49.9776 89.178 49.9776 89.3202 49.9776C89.4064 49.7706 89.4927 49.5635 89.5816 49.3502C89.8894 48.6277 90.2374 47.9321 90.6026 47.2371C90.7889 46.8301 90.8982 46.441 90.9931 46.0045C91.1311 46.0735 91.2691 46.1425 91.4113 46.2136C91.3423 46.6276 91.2733 47.0417 91.2022 47.4682C91.3402 47.3992 91.4782 47.3302 91.6204 47.2591C92.3268 47.2291 92.8278 47.2434 93.5024 47.4682C93.5714 47.2612 93.6404 47.0542 93.7115 46.8409C93.8495 46.7719 93.9875 46.7029 94.1297 46.6318C94.1673 45.8064 94.1493 45.2521 93.7115 44.5407C94.3326 44.6442 94.3326 44.6442 94.9662 44.7498C95.0352 45.0258 95.1042 45.3018 95.1753 45.5862C95.4513 45.5862 95.7274 45.5862 96.0117 45.5862C96.0808 45.3792 96.1498 45.1722 96.2209 44.9589C95.8558 44.7179 95.4897 44.4786 95.123 44.2401C94.9192 44.1067 94.7155 43.9732 94.5055 43.8357C93.6493 43.2906 93.6493 43.2906 92.7575 43.4951ZM90.5749 44.5407C90.5058 44.6787 90.4368 44.8167 90.3657 44.9589C90.5038 44.9589 90.6418 44.9589 90.784 44.9589C90.715 44.8209 90.6459 44.6829 90.5749 44.5407ZM90.9931 46.2136C91.2022 46.6318 91.2022 46.6318 91.2022 46.6318L90.9931 46.2136Z" fill="white"/>
<path d="M20.1064 58.9695C20.3134 58.9695 20.5204 58.9695 20.7337 58.9695C20.6193 59.6752 20.5131 60.0323 20.1064 60.6424C20.0503 60.802 19.9942 60.9615 19.9365 61.1259C19.6133 61.8574 19.1715 62.3441 18.6426 62.9426C18.9531 63.1496 18.9531 63.1496 19.2699 63.3608C19.408 63.0848 19.546 62.8088 19.6882 62.5244C19.9642 62.5244 20.2402 62.5244 20.5246 62.5244C20.4923 62.285 20.4923 62.285 20.4593 62.0408C20.4808 61.8553 20.5024 61.6699 20.5246 61.4788C21.0474 61.0998 21.0474 61.0998 21.5702 60.8515C21.5012 61.0585 21.4321 61.2655 21.3611 61.4788C21.223 61.4788 21.085 61.4788 20.9428 61.4788C20.986 61.6211 21.0291 61.7635 21.0735 61.9101C21.173 62.6892 20.9798 63.25 20.7337 63.9882C20.4577 63.9191 20.1817 63.8501 19.8973 63.779C19.8973 63.503 19.8973 63.227 19.8973 62.9426C19.6212 63.2186 19.3452 63.4947 19.0608 63.779C18.2505 63.4131 18.2505 63.4131 18.0153 62.9426C18.1797 62.7022 18.3455 62.4628 18.5119 62.2238C18.6041 62.0903 18.6963 61.9569 18.7913 61.8194C19.0608 61.4788 19.0608 61.4788 19.4791 61.2697C19.6311 60.8559 19.7714 60.4375 19.8973 60.015C18.7799 59.8478 18.1548 60.4091 17.2965 61.0345C17.1516 61.1371 17.0067 61.2398 16.8574 61.3455C16.4053 61.6666 15.9556 61.9908 15.5059 62.3153C15.2161 62.5216 14.9262 62.7278 14.636 62.9336C13.9483 63.4221 13.2628 63.9134 12.5784 64.4064C12.6734 64.5708 12.6734 64.5708 12.7703 64.7386C13.0567 65.2367 13.3404 65.7364 13.6239 66.2361C13.7237 66.4086 13.8234 66.5811 13.9262 66.7589C14.0677 67.0096 14.0677 67.0096 14.2121 67.2653C14.2997 67.4186 14.3873 67.5719 14.4775 67.7299C14.6695 68.1704 14.6695 68.1704 14.6695 69.0068C15.291 69.5272 15.7098 69.8246 16.5254 69.8955C16.672 69.8783 16.8186 69.861 16.9697 69.8433C16.8317 69.9813 16.6937 70.1193 16.5515 70.2615C15.5185 70.2145 14.8164 69.898 14.0422 69.2159C14.0502 69.0343 14.0583 68.8526 14.0667 68.6654C14.0325 67.6837 13.6063 67.0721 13.1012 66.2492C12.9235 65.955 12.747 65.6601 12.5718 65.3645C12.4536 65.1712 12.4536 65.1712 12.3329 64.9739C12.1602 64.6155 12.1602 64.6155 12.1602 63.9882C12.6666 63.5936 13.1661 63.2399 13.7024 62.8903C14.0109 62.6843 14.3194 62.4782 14.6278 62.272C14.7787 62.1721 14.9295 62.0722 15.085 61.9692C15.6205 61.6114 16.1451 61.2391 16.6691 60.8646C18.7814 59.3877 18.7814 59.3877 19.8973 59.3877C19.9663 59.2497 20.0353 59.1117 20.1064 58.9695Z" fill="white"/>
<path d="M34.5325 75.9075C34.7395 75.9075 34.9466 75.9075 35.1598 75.9075C35.2547 76.0714 35.3496 76.2353 35.4474 76.4041C35.8544 77.0616 36.0888 77.1941 36.8327 77.3712C37.3243 77.3115 37.3243 77.3115 37.8783 77.1621C38.5045 77.0819 39.1322 77.0173 39.7603 76.953C40.0421 77.5167 40.028 77.984 40.0478 78.6128C40.0581 78.8347 40.0683 79.0565 40.0789 79.2851C39.9694 79.8806 39.9694 79.8806 39.4564 80.2408C39.1928 80.373 39.1928 80.373 38.9239 80.5079C38.6823 81.0247 38.6823 81.0247 38.5056 81.5535C38.1149 82.1004 37.905 82.1743 37.2379 82.3376C36.6236 82.3899 36.6236 82.3899 36.2054 82.1808C36.2054 81.9738 36.2054 81.7668 36.2054 81.5535C36.0803 81.5319 35.9553 81.5103 35.8264 81.4881C35.2801 81.3164 35.0775 81.1808 34.7416 80.717C34.6109 80.155 34.6109 80.155 34.5325 79.4624C34.4894 79.1993 34.4463 78.9362 34.4018 78.6651C34.2839 77.7269 34.3925 76.8381 34.5325 75.9075ZM34.9507 76.5348C34.5545 77.7732 34.6937 78.8952 35.1598 80.0897C35.2289 79.9517 35.2979 79.8137 35.369 79.6715C35.507 79.6715 35.645 79.6715 35.7872 79.6715C35.7872 79.5335 35.7872 79.3954 35.7872 79.2533C37.7174 79.7831 37.7174 79.7831 38.2965 80.0897C38.4664 80.5341 38.4664 80.5341 38.5056 80.9261C38.5056 80.6501 38.5056 80.3741 38.5056 80.0897C38.6738 80.0638 38.842 80.0379 39.0153 80.0113C39.1922 79.9682 39.369 79.925 39.5512 79.8806C39.7859 79.4111 39.7883 79.1456 39.7864 78.6259C39.787 78.4793 39.7875 78.3326 39.7881 78.1816C39.7841 77.7703 39.7841 77.7703 39.5512 77.3712C38.6853 77.3274 38.6853 77.3274 37.8783 77.5804C36.3218 77.6668 36.3218 77.6668 35.5781 77.1621C35.2121 76.8223 35.2121 76.8223 34.9507 76.5348ZM36.2054 79.4624C35.9163 79.8024 35.6368 80.1509 35.369 80.5079C35.9143 81.2959 35.9143 81.2959 36.7282 81.7626C37.3812 81.7626 37.6166 81.5712 38.0874 81.1353C38.0774 80.7424 38.0774 80.7424 37.8783 80.2988C37.1231 79.6716 37.1231 79.6716 36.2054 79.4624Z" fill="white"/>
<path d="M53.7737 72.3525C53.9376 72.387 54.1015 72.4215 54.2703 72.4571C54.9232 72.5814 55.4463 72.5415 56.1001 72.4571C56.5012 72.4053 56.5012 72.4053 56.9104 72.3525C56.8414 72.6976 56.7723 73.0426 56.7012 73.3981C56.4252 73.3981 56.1492 73.3981 55.8648 73.3981C55.8648 73.5361 55.8648 73.6741 55.8648 73.8163C56.0589 73.8077 56.253 73.7991 56.4529 73.7902C57.1195 73.8163 57.1195 73.8163 57.7468 74.2345C57.7468 74.4416 57.7468 74.6486 57.7468 74.8619C57.4708 74.8619 57.1948 74.8619 56.9104 74.8619C56.8414 75.1379 56.7723 75.4139 56.7012 75.6983C56.5719 75.6638 56.4425 75.6293 56.3092 75.5938C55.873 75.4732 55.873 75.4732 55.4466 75.4892C55.3776 75.8342 55.3086 76.1793 55.2375 76.5348C54.5151 76.4813 54.3438 76.2658 53.826 75.7245C53.3555 75.071 53.3555 75.071 53.3555 74.4437C53.8385 74.4437 54.3216 74.4437 54.8192 74.4437C54.8192 74.2366 54.8192 74.0296 54.8192 73.8163C54.6122 73.8163 54.4052 73.8163 54.1919 73.8163C54.1617 73.6912 54.1315 73.5662 54.1004 73.4373C54.0064 73.0716 53.8931 72.7108 53.7737 72.3525ZM55.4466 72.7708C55.2396 73.0813 55.2396 73.0813 55.0284 73.3981C55.1526 73.6692 55.2794 73.9391 55.4074 74.2084C55.5129 74.434 55.5129 74.434 55.6206 74.6642C55.8637 75.1349 55.8637 75.1349 56.4921 75.4892C56.4231 75.1442 56.3541 74.7991 56.283 74.4437C56.076 74.3746 55.869 74.3056 55.6557 74.2345C55.6557 73.9585 55.6557 73.6825 55.6557 73.3981C55.9317 73.2601 56.2077 73.1221 56.4921 72.9799C56.4921 72.9109 56.4921 72.8419 56.4921 72.7708C55.9869 72.7184 55.9869 72.7184 55.4466 72.7708ZM53.7737 74.6528C54.0753 75.3566 54.4706 75.8051 55.0284 76.3257C55.0284 75.9116 55.0284 75.4976 55.0284 75.071C54.6143 74.933 54.2003 74.795 53.7737 74.6528Z" fill="white"/>
<path d="M35.1613 70.4705C36.9255 70.5995 37.9265 71.7124 39.0544 72.9667C39.3848 73.4596 39.4736 73.86 39.5526 74.4436C38.7885 74.6983 38.5894 74.562 37.8797 74.2345C37.7417 74.1655 37.6037 74.0964 37.4615 74.0254C37.3451 74.0555 37.2286 74.0857 37.1086 74.1168C36.2615 74.3229 35.5349 74.438 34.7414 74.0057C34.325 73.6887 34.0061 73.4031 33.6975 72.9798C33.606 72.1695 33.606 72.1695 33.6975 71.516C33.8226 71.4988 33.9477 71.4815 34.0765 71.4637C34.6587 71.2641 34.8336 70.9783 35.1613 70.4705ZM35.3704 70.6796C35.2267 71.2004 35.1613 71.5952 35.1613 72.1433C35.0233 72.1433 34.8853 72.1433 34.7431 72.1433C34.6741 72.0053 34.6051 71.8673 34.534 71.7251C34.3269 71.7251 34.1199 71.7251 33.9066 71.7251C33.9695 72.459 34.112 72.7661 34.5862 73.3457C35.1807 73.8322 35.4478 74.0064 36.2069 74.0254C36.7824 73.8476 36.7824 73.8476 37.2524 73.6071C37.2524 73.4691 37.2524 73.3311 37.2524 73.1889C37.4077 73.3614 37.5629 73.5339 37.7229 73.7117C38.2716 74.3282 38.2716 74.3282 39.1344 74.2345C38.9519 72.9178 37.6442 71.9919 36.6545 71.2081C36.0652 70.7922 36.0652 70.7922 35.3704 70.6796Z" fill="white"/>
<path d="M27.2153 76.5347C27.2843 76.6727 27.3533 76.8107 27.4244 76.9529C27.7694 76.9529 28.1145 76.9529 28.47 76.9529C28.539 77.2979 28.608 77.643 28.6791 77.9984C28.8171 77.9984 28.9551 77.9984 29.0973 77.9984C29.0973 78.1365 29.0973 78.2745 29.0973 78.4167C29.2353 78.4167 29.3733 78.4167 29.5155 78.4167C29.5155 78.6237 29.5155 78.8307 29.5155 79.044C28.9384 79.2066 28.4245 79.2799 27.8255 79.2809C27.5847 79.2813 27.5847 79.2813 27.3391 79.2817C27.0902 79.2805 27.0902 79.2805 26.8363 79.2793C26.6728 79.2801 26.5093 79.2809 26.3409 79.2817C25.356 79.2801 24.4226 79.2074 23.4513 79.044C23.3823 78.837 23.3133 78.63 23.2422 78.4167C23.5297 78.103 23.5297 78.103 23.8695 77.7893C24.0075 77.7893 24.1455 77.7893 24.2877 77.7893C24.3222 77.6599 24.3568 77.5306 24.3923 77.3973C24.8227 76.7875 25.2387 76.7527 25.9459 76.5967C26.3789 76.5347 26.3789 76.5347 27.2153 76.5347ZM26.588 76.7438C25.3795 77.1397 24.5935 77.5535 23.6604 78.4167C24.4949 79.2512 26.0429 79.0549 27.1761 79.0701C27.8393 79.0631 28.452 79.0014 29.0973 78.8349C29.0283 78.6279 28.9593 78.4209 28.8882 78.2076C28.4668 78.0542 28.4668 78.0542 28.0517 77.9984C28.0517 77.8604 28.0517 77.7224 28.0517 77.5802C27.9267 77.5587 27.8016 77.5371 27.6727 77.5149C27.1526 77.3514 26.9545 77.1356 26.588 76.7438Z" fill="white"/>
<path d="M69.2461 31.9941C70.7643 32.211 71.5338 32.9908 72.5175 34.0983C72.801 34.5035 72.801 34.5035 72.801 35.1308C72.1428 34.9846 71.5409 34.7626 70.919 34.5035C70.919 34.2965 70.919 34.0894 70.919 33.8761C70.712 33.8071 70.5049 33.7381 70.2917 33.667C69.7297 33.1704 69.7297 33.1704 69.2461 32.6215C69.2461 32.4145 69.2461 32.2074 69.2461 31.9941ZM70.2917 32.8306C70.5677 33.1066 70.8437 33.3826 71.1281 33.667C70.9901 33.391 70.8521 33.115 70.7099 32.8306C70.5719 32.8306 70.4338 32.8306 70.2917 32.8306ZM71.3372 33.8761C71.3372 34.0142 71.3372 34.1522 71.3372 34.2944C71.4752 34.2254 71.6132 34.1564 71.7554 34.0853C71.6174 34.0162 71.4794 33.9472 71.3372 33.8761Z" fill="white"/>
<path d="M26.7958 81.3443C28.1179 81.268 28.1179 81.268 28.7693 81.6187C29.096 81.9716 29.096 81.9716 29.096 82.5989C28.889 82.6679 28.682 82.7369 28.4687 82.808C28.3997 83.0151 28.3307 83.2221 28.2596 83.4354C27.9026 83.6412 27.9026 83.6412 27.4624 83.8013C27.3187 83.8563 27.175 83.9113 27.027 83.968C26.5278 84.0754 26.2299 84.0131 25.7503 83.8536C25.6122 83.3706 25.4742 82.8875 25.332 82.3898C25.6361 82.3057 25.6361 82.3057 25.9463 82.2199C26.1576 82.138 26.369 82.056 26.5867 81.9716C26.6557 81.7646 26.7247 81.5576 26.7958 81.3443ZM27.214 81.5534C27.1623 81.6871 27.1105 81.8208 27.0572 81.9585C26.7958 82.3898 26.7958 82.3898 26.3514 82.5467C26.1574 82.5725 26.1574 82.5725 25.9594 82.5989C26.0284 83.013 26.0974 83.427 26.1685 83.8536C27.6571 83.3214 27.6571 83.3214 28.6778 82.1807C28.1844 81.6873 27.8876 81.6597 27.214 81.5534Z" fill="white"/>
<path d="M29.9459 84.873C30.1294 84.9112 30.313 84.9495 30.5021 84.989C30.9783 85.1082 30.9783 85.1082 31.3966 85.3173C31.1752 86.029 30.9765 86.5748 30.5601 87.1993C29.1486 87.0425 29.1486 87.0425 28.6781 86.572C28.6781 86.365 28.6781 86.158 28.6781 85.9447C28.4711 85.9447 28.2641 85.9447 28.0508 85.9447C28.1198 85.5996 28.1888 85.2546 28.2599 84.8991C28.959 84.6661 29.2391 84.721 29.9459 84.873ZM28.6781 85.1082C28.6781 85.879 28.8221 86.185 29.3054 86.7811C29.9592 86.8684 29.9592 86.8684 30.5601 86.7811C30.6981 86.3671 30.8361 85.953 30.9783 85.5264C30.6305 85.1786 30.1874 85.2419 29.7106 85.1997C29.5184 85.1822 29.3262 85.1647 29.1282 85.1466C28.9054 85.1276 28.9054 85.1276 28.6781 85.1082Z" fill="white"/>
<path d="M33.2801 70.6797C33.2801 71.2317 33.2801 71.7838 33.2801 72.3525C32.559 72.7818 32.1683 72.9931 31.3196 72.9145C31.1385 72.8671 30.9574 72.8196 30.7707 72.7708C30.5159 72.1684 30.5693 71.9082 30.7577 71.2678C31.189 70.6797 31.189 70.6797 31.5892 70.5457C32.2122 70.4596 32.7065 70.3929 33.2801 70.6797ZM31.3981 71.0979C31.3981 71.3049 31.3981 71.5119 31.3981 71.7252C31.0844 72.0781 31.0844 72.0781 30.7707 72.3525C31.0141 72.6414 31.0141 72.6414 31.6856 72.6139C32.4147 72.6224 32.4147 72.6224 32.8488 72.3133C33.1397 71.8171 33.1168 71.454 33.071 70.8888C32.5004 70.8888 31.9592 71.0003 31.3981 71.0979Z" fill="white"/>
<path d="M42.2698 76.9529C43.049 77.0093 43.4026 77.3909 43.9035 77.9592C44.0342 78.1029 44.1649 78.2466 44.2996 78.3946C44.57 78.8349 44.57 78.8349 44.5071 79.3078C44.4589 79.4278 44.4106 79.5477 44.3609 79.6713C43.4548 79.566 42.7634 79.4372 42.0607 78.8349C41.8646 78.0899 41.8646 78.0899 41.8516 77.3711C41.9896 77.2331 42.1276 77.0951 42.2698 76.9529ZM42.2698 77.3711C41.991 77.9984 41.991 77.9984 42.2698 78.6258C42.9416 79.0201 43.3669 79.2531 44.1518 79.2531C43.8264 78.4544 43.3245 77.944 42.688 77.3711C42.55 77.3711 42.412 77.3711 42.2698 77.3711Z" fill="white"/>
<path d="M56.4922 24.4661C57.0697 24.5416 57.2916 24.6349 57.6921 25.0705C57.8008 25.2333 57.9094 25.3962 58.0213 25.5639C58.1883 25.8049 58.1883 25.8049 58.3587 26.0507C58.6309 26.6645 58.5658 26.9708 58.3742 27.6027C57.5109 27.315 57.3533 26.9247 56.9104 26.139C56.7317 25.5829 56.6109 25.0396 56.4922 24.4661ZM57.3286 25.5116C57.442 26.3054 57.7889 26.6559 58.3742 27.1845C58.1262 26.4788 57.8983 26.0036 57.3286 25.5116Z" fill="white"/>
<path d="M33.6982 73.6072C33.6982 73.9522 33.6982 74.2972 33.6982 74.6527C33.15 74.6527 32.7552 74.5873 32.2344 74.4436C32.2344 74.2366 32.2344 74.0296 32.2344 73.8163C32.7552 73.6726 33.15 73.6072 33.6982 73.6072Z" fill="white"/>
<path d="M50.8438 75.6982C51.0508 75.6982 51.2578 75.6982 51.4711 75.6982C51.4711 75.8363 51.4711 75.9743 51.4711 76.1165C51.6781 76.1165 51.8851 76.1165 52.0984 76.1165C52.0294 76.3925 51.9604 76.6685 51.8893 76.9529C51.6823 76.9529 51.4753 76.9529 51.262 76.9529C51.262 76.8149 51.262 76.6769 51.262 76.5347C51.124 76.5347 50.9859 76.5347 50.8438 76.5347C50.8438 76.2587 50.8438 75.9826 50.8438 75.6982Z" fill="white"/>
<path d="M51.8906 72.3525C52.2958 72.5224 52.2958 72.5224 52.7271 72.7708C52.7961 72.9778 52.8651 73.1848 52.9362 73.3981C52.6602 73.3291 52.3841 73.2601 52.0997 73.189C52.0307 72.913 51.9617 72.6369 51.8906 72.3525Z" fill="white"/>
<path d="M18.4336 27.8118C18.5716 27.8118 18.7096 27.8118 18.8518 27.8118C18.8518 27.9498 18.8518 28.0878 18.8518 28.23C18.7138 28.23 18.5758 28.23 18.4336 28.23C18.4336 28.092 18.4336 27.954 18.4336 27.8118Z" fill="white"/>
</svg>
