<svg width="108" height="108" viewBox="0 0 108 108" fill="none" xmlns="http://www.w3.org/2000/svg">
<rect width="107.065" height="107.065" fill=""/>
<path d="M2.5103 31.3667C3.04701 31.4434 3.35656 31.5827 3.80336 31.8968C4.54931 32.2848 5.08497 32.2518 5.92142 32.2424C7.00764 32.2705 7.73218 32.4038 8.53532 33.1834C8.99214 33.7027 9.18945 34.0351 9.35706 34.7117C9.7324 35.608 10.311 35.8253 11.1492 36.2547C12.2745 36.8739 13.0429 37.3604 13.6242 38.5467C13.8638 39.0148 14.1917 39.2571 14.6388 39.522C14.6388 39.384 14.6388 39.246 14.6388 39.1038C15.3978 39.2418 16.1569 39.3798 16.939 39.522C17.0425 40.0396 17.0425 40.0396 17.1481 40.5676C17.3465 40.5547 17.5449 40.5417 17.7493 40.5284C17.9649 40.5413 18.1806 40.5543 18.4028 40.5676C18.821 41.1949 18.821 41.1949 18.7426 41.8615C18.6994 42.0556 18.6563 42.2496 18.6119 42.4496C18.7456 42.4668 18.8793 42.4841 19.017 42.5019C19.9095 42.7204 20.7095 43.1064 21.5394 43.4952C21.4339 44.2789 21.3132 45.0272 21.1212 45.7954C21.7423 46.0024 22.3633 46.2094 23.0032 46.4227C23.0237 46.5664 23.0442 46.7101 23.0653 46.8581C23.0965 47.0465 23.1278 47.2349 23.16 47.4291C23.2037 47.7093 23.2037 47.7093 23.2483 47.9951C23.4609 48.6319 23.6863 48.8049 24.2579 49.1412C24.6719 49.2925 25.0898 49.4345 25.5125 49.5594C25.5815 49.4214 25.6506 49.2834 25.7216 49.1412C25.3076 49.1412 24.8936 49.1412 24.467 49.1412C24.2579 48.5138 24.2579 48.5138 24.4278 48.0695C24.6761 47.6774 24.6761 47.6774 25.0943 47.4683C25.8262 47.416 25.8262 47.416 26.5581 47.4683C27.0025 48.1348 27.0813 48.5693 27.1854 49.3503C27.5995 49.4883 28.0135 49.6263 28.4401 49.7685C28.5198 50.1849 28.5892 50.6034 28.6492 51.0232C28.5802 51.0922 28.5112 51.1612 28.4401 51.2323C27.8774 51.1954 27.3258 51.103 26.7672 51.0232C26.2787 51.7864 26.3326 52.4365 26.349 53.3234C26.28 53.4614 26.211 53.5994 26.1399 53.7416C26.0913 54.3088 26.0522 54.8724 26.0222 55.4406C26.0087 55.6772 26.0087 55.6772 25.9949 55.9185C25.9727 56.3081 25.9516 56.6977 25.9308 57.0874C25.4079 57.0874 24.8849 57.0799 24.3624 57.0612C23.6595 57.0864 23.3857 57.1761 22.7941 57.5056C21.999 56.8353 21.2051 56.1636 20.4125 55.4904C20.1417 55.2612 19.8692 55.0341 19.5962 54.8076C17.7092 53.2163 15.211 50.9498 14.4509 48.5473C14.1495 47.6826 13.6718 47.0116 13.1488 46.2659C12.1294 44.8027 12.1294 44.8027 12.1294 44.3316C11.9396 44.31 11.7499 44.2885 11.5544 44.2663C10.7392 43.843 10.7022 43.6422 10.4042 42.8025C10.223 42.2199 10.0453 41.6364 9.87003 41.052C9.54736 40.4267 9.2285 40.2943 8.60066 39.9925C7.58963 39.4325 7.22203 38.9474 6.86324 37.8598C6.67326 37.3825 6.42991 37.1561 6.06519 36.8036C6.06519 36.6656 6.06519 36.5276 6.06519 36.3854C5.81935 36.3466 5.57351 36.3077 5.32023 36.2677C4.10506 35.9618 3.34967 35.1799 2.69817 34.1333C2.28526 33.2786 2.22634 32.5114 2.30118 31.5758C2.37019 31.5068 2.4392 31.4378 2.5103 31.3667ZM2.92852 32.2031C2.80888 32.8868 2.8288 33.3119 3.22503 33.8916C4.0032 34.7892 4.74738 35.543 5.84301 36.0325C6.87041 36.5986 7.40286 37.3076 7.81649 38.3981C8.27092 39.3419 8.67985 39.5129 9.62008 39.9403C9.75809 39.9403 9.89611 39.9403 10.0383 39.9403C10.0763 40.0567 10.1143 40.1732 10.1535 40.2931C10.2637 40.6278 10.3757 40.9618 10.4892 41.2954C10.5996 41.6251 10.705 41.9566 10.8029 42.2903C10.8482 42.4334 10.8934 42.5766 10.9401 42.7241C10.9781 42.8526 11.0161 42.9812 11.0553 43.1137C11.2893 43.5515 11.2893 43.5515 11.8688 43.8546C12.7356 44.4637 13.1725 45.1535 13.7239 46.0437C13.8209 46.1937 13.918 46.3437 14.018 46.4983C14.5031 47.2637 14.9164 48.0173 15.2645 48.8544C15.655 49.7689 16.1704 50.4472 16.8344 51.18C17.0327 51.4053 17.231 51.6308 17.4291 51.8563C17.5243 51.963 17.6195 52.0698 17.7176 52.1797C17.9575 52.4558 18.1828 52.7444 18.406 53.0342C18.8655 53.586 19.3561 54.002 19.9188 54.4474C20.9002 55.2338 21.8553 56.0417 22.7941 56.8783C22.9886 56.7723 22.9886 56.7723 23.187 56.6643C23.7342 56.4123 23.9037 56.4985 24.467 56.6692C24.8155 56.6743 25.1641 56.6749 25.5125 56.6692C25.5188 56.4572 25.5188 56.4572 25.5251 56.2409C25.545 55.5994 25.568 54.9581 25.591 54.3167C25.5974 54.0943 25.6039 53.8719 25.6106 53.6428C25.6186 53.4285 25.6267 53.2142 25.6351 52.9934C25.6449 52.6977 25.6449 52.6977 25.655 52.3961C25.7229 51.8495 25.8632 51.495 26.1399 51.0232C25.5481 50.1109 25.0352 49.8096 24.0283 49.512C23.5533 49.3189 23.3166 49.1284 23.0032 48.7229C22.9109 48.3104 22.9109 48.3104 22.8856 47.8734C22.8808 47.0497 22.8808 47.0497 22.3759 46.6318C21.9646 46.4911 21.9646 46.4911 21.5133 46.3966C21.2459 46.3362 20.9785 46.2758 20.703 46.2136C20.6619 45.3314 20.7443 44.7142 21.1212 43.9134C20.9832 43.7754 20.8452 43.6374 20.703 43.4952C20.5305 43.4995 20.3579 43.5038 20.1802 43.5082C20.0077 43.5039 19.8352 43.4996 19.6574 43.4952C19.5194 43.2881 19.3814 43.0811 19.2392 42.8678C18.8086 42.7165 18.8086 42.7165 18.4028 42.6587C18.2992 41.9341 18.2992 41.9341 18.1936 41.1949C17.7106 41.1259 17.2275 41.0569 16.7299 40.9858C16.6609 40.6408 16.5919 40.2958 16.5208 39.9403C16.0377 39.8713 15.5547 39.8022 15.057 39.7312C15.057 39.8692 15.057 40.0072 15.057 40.1494C14.2173 39.8615 13.6118 39.5066 12.9659 38.8947C12.8869 38.6995 12.8079 38.5044 12.7265 38.3033C12.1276 37.2795 11.207 36.8968 10.1882 36.3413C9.0521 35.6861 9.0521 35.6861 8.71175 34.8995C8.66647 34.6998 8.62118 34.5001 8.57452 34.2943C8.12954 33.5937 7.70734 33.099 6.90163 32.8305C6.16634 32.7736 5.43109 32.7374 4.69453 32.7006C4.02367 32.6268 3.53534 32.4881 2.92852 32.2031ZM25.3034 47.8865C25.1654 48.1625 25.0274 48.4385 24.8852 48.7229C25.1246 48.7359 25.1246 48.7359 25.3688 48.7491C25.9308 48.932 25.9308 48.932 26.2444 49.5463C26.3479 49.7576 26.4514 49.969 26.5581 50.1867C27.0928 50.4848 27.0928 50.4848 27.6037 50.6049C27.5346 50.3979 27.4656 50.1909 27.3945 49.9776C27.1875 49.9776 26.9805 49.9776 26.7672 49.9776C26.6292 49.3565 26.4912 48.7355 26.349 48.0956C26.0039 48.0266 25.6589 47.9576 25.3034 47.8865Z" fill="white"/>
<path d="M69.215 40.3584C69.3539 40.7243 69.3539 40.7243 69.4241 41.1948C68.9177 42.1695 68.0789 43.1736 67.1239 43.7042C66.0188 43.9429 65.041 43.9796 63.9431 43.7115C62.8822 43.4596 61.8596 43.4109 60.7721 43.4036C60.4935 43.3933 60.4935 43.3933 60.2093 43.3828C59.7041 43.3785 59.253 43.387 58.7594 43.4951C58.2245 44.0907 58.1321 44.3708 58.1321 45.168C58.39 45.9416 58.7785 46.3105 59.3868 46.8408C59.9029 46.6 60.2332 46.4126 60.6414 46.0044C61.1294 46.0044 61.6173 46.0044 62.1052 46.0044C62.3122 45.8664 62.5193 45.7284 62.7326 45.5862C63.3885 45.4996 63.3885 45.4996 64.131 45.4555C64.3776 45.4399 64.6243 45.4242 64.8784 45.4081C65.0674 45.3979 65.2563 45.3876 65.451 45.3771C65.451 45.7911 65.451 46.2051 65.451 46.6317C65.1275 46.6447 65.1275 46.6447 64.7975 46.6579C63.8729 46.8667 63.6585 47.1063 63.0577 47.7818C62.5315 48.2895 61.9509 48.4773 61.2688 48.7228C61.3672 48.814 61.4655 48.9051 61.5669 48.9989C62.3492 49.7472 62.9894 50.3993 63.3599 51.4413C63.3168 51.5836 63.2736 51.7259 63.2292 51.8726C63.1904 52.0731 63.1904 52.0731 63.1508 52.2777C63.6518 52.831 63.6518 52.831 64.1963 53.3233C64.1963 53.4613 64.1963 53.5993 64.1963 53.7415C64.4724 53.8105 64.7484 53.8795 65.0328 53.9506C64.9746 54.287 64.9746 54.287 64.9151 54.6302C64.8382 55.2898 64.8143 55.6441 65.0328 56.2509C64.6187 56.4579 64.6187 56.4579 64.1963 56.6691C64.1963 56.8071 64.1963 56.9451 64.1963 57.0873C63.7258 57.1526 63.7258 57.1526 63.1508 57.0873C62.6672 56.6168 62.6672 56.6168 62.3143 56.0417C62.3143 55.7657 62.3143 55.4897 62.3143 55.2053C62.1159 55.2139 61.9175 55.2226 61.7131 55.2314C61.0597 55.2053 61.0597 55.2053 60.6414 54.7871C60.6608 54.4377 60.6608 54.4377 60.6806 54.0813C60.6677 53.8312 60.6548 53.581 60.6414 53.3233C60.1435 52.8587 60.1435 52.8587 59.5959 52.4869C59.2914 51.8778 59.3902 51.6387 59.5828 50.9708C59.6928 50.6861 59.6928 50.6861 59.805 50.3957C59.2874 50.4992 59.2874 50.4992 58.7594 50.6049C58.7594 52.606 58.7594 54.6072 58.7594 56.6691C56.6683 57.0873 56.6683 57.0873 56.041 56.6691C55.9698 56.2185 55.9698 56.2185 55.9797 55.6676C55.9817 55.4709 55.9838 55.2741 55.9859 55.0713C55.9911 54.8654 55.9964 54.6595 56.0018 54.4473C56.0046 54.2397 56.0074 54.0322 56.0104 53.8183C56.0178 53.3047 56.0281 52.7913 56.041 52.2777C55.696 52.2777 55.3509 52.2777 54.9954 52.2777C54.5806 51.6677 54.5798 51.4154 54.6556 50.6571C54.7203 50.3207 54.7203 50.3207 54.7863 49.9775C55.0969 49.874 55.0969 49.874 55.4137 49.7684C55.405 49.5571 55.3964 49.3457 55.3875 49.128C55.4212 48.0675 55.5158 47.1865 56.2501 46.3834C56.814 45.5904 56.8549 44.8545 56.9632 43.9002C57.1318 43.0606 57.3981 42.4609 58.1117 41.9627C58.3223 41.8673 58.3223 41.8673 58.5373 41.7699C58.6772 41.7041 58.8171 41.6384 58.9612 41.5706C59.9936 41.1664 60.69 41.2547 61.7654 41.4954C64.4662 42.0772 64.4662 42.0772 67.0749 41.5322C67.5612 41.2034 67.5612 41.2034 67.9734 40.7374C68.3786 40.3584 68.3786 40.3584 69.215 40.3584ZM68.5877 40.7766C68.4869 40.8648 68.386 40.9529 68.2822 41.0437C68.1501 41.1583 68.018 41.2729 67.8819 41.3909C67.7509 41.5049 67.6199 41.6189 67.4849 41.7364C66.7706 42.3198 66.1496 42.306 65.2419 42.3711C64.9788 42.391 64.7157 42.411 64.4446 42.4315C63.7781 42.4495 63.7781 42.4495 63.3599 42.2404C62.8773 42.1639 62.3935 42.0953 61.9092 42.0313C60.5001 41.8448 60.5001 41.8448 59.805 41.6131C59.736 41.8201 59.667 42.0271 59.5959 42.2404C59.4018 42.2577 59.2077 42.2749 59.0078 42.2927C58.3234 42.3873 58.3234 42.3873 57.9491 42.8808C57.8715 43.0145 57.7939 43.1482 57.7139 43.286C57.7829 43.424 57.8519 43.562 57.923 43.7042C57.992 43.4972 58.061 43.2901 58.1321 43.0768C58.9728 43.0665 59.8134 43.0589 60.6541 43.0539C60.9397 43.0518 61.2252 43.0489 61.5108 43.0453C61.9229 43.0402 62.3351 43.0381 62.7473 43.036C62.9947 43.0338 63.2422 43.0316 63.4972 43.0294C64.2158 43.0782 64.7775 43.2499 65.451 43.4951C66.3841 43.4664 67.0107 43.1749 67.712 42.5671C67.863 42.3903 68.0139 42.2135 68.1694 42.0313C68.3786 41.8222 68.5877 41.6131 68.7968 41.404C68.6933 41.0934 68.6933 41.0934 68.5877 40.7766ZM57.5048 43.7042C57.7139 44.1224 57.7139 44.1224 57.7139 44.1224L57.5048 43.7042ZM57.2957 45.5862C56.4099 46.8702 55.8968 47.95 55.711 49.507C55.6228 49.9775 55.6228 49.9775 55.2045 50.3957C55.1697 51.0405 55.1697 51.0405 55.2045 51.6504C55.4075 51.7221 55.6105 51.7938 55.8196 51.8677C56.4592 52.2777 56.4592 52.2777 56.6348 52.9884C56.6416 53.2628 56.6483 53.5372 56.6553 53.8199C56.6658 54.0933 56.6763 54.3666 56.6871 54.6482C56.6714 55.2885 56.6133 55.8412 56.4592 56.46C57.3908 56.3565 57.3908 56.3565 58.3412 56.2509C58.3401 56.0746 58.339 55.8983 58.3379 55.7167C58.3343 55.0647 58.3317 54.4127 58.3297 53.7608C58.3287 53.4782 58.3272 53.1956 58.3254 52.9131C58.3229 52.5077 58.3218 52.1023 58.3208 51.697C58.3191 51.3307 58.3191 51.3307 58.3175 50.957C58.3412 50.3957 58.3412 50.3957 58.5503 50.1866C59.1054 50.0916 59.6632 50.0397 60.2232 49.9775C60.196 50.1188 60.1688 50.26 60.1407 50.4055C60.053 50.9729 59.9895 51.4946 60.0141 52.0686C60.5041 52.5234 60.5041 52.5234 61.0597 52.9051C61.2181 53.4744 61.239 53.9824 61.2688 54.578C61.5793 54.6815 61.5793 54.6815 61.8961 54.7871C62.0341 54.5801 62.1721 54.373 62.3143 54.1597C62.9678 53.9114 62.9678 53.9114 63.569 53.7415C63.413 53.0934 63.413 53.0934 62.9155 52.7352C62.7861 52.5842 62.6567 52.4333 62.5234 52.2777C62.5946 51.9931 62.5946 51.9931 62.6672 51.7027C62.8032 51.029 62.8032 51.029 62.4385 50.5705C62.0646 50.1369 61.7001 49.727 61.2688 49.3502C61.1308 49.3502 60.9927 49.3502 60.8505 49.3502C60.7125 48.9361 60.5745 48.5221 60.4323 48.0955C60.6393 48.1279 60.6393 48.1279 60.8505 48.1609C61.778 48.0643 62.4302 47.6271 63.1508 47.05C63.5676 46.5029 63.5676 46.5029 63.7781 46.0044C63.6393 46.0322 63.5005 46.0599 63.3574 46.0885C61.687 46.4226 61.687 46.4226 61.1144 46.5206C60.624 46.5906 60.624 46.5906 60.3278 46.9585C60.0141 47.2591 60.0141 47.2591 59.4521 47.2983C59.2925 47.2853 59.133 47.2724 58.9685 47.2591C58.9254 47.1383 58.8823 47.0175 58.8379 46.8931C58.4463 46.2524 57.9294 45.9719 57.2957 45.5862ZM64.6146 45.7953C64.7526 45.9333 64.8906 46.0713 65.0328 46.2135C65.0328 46.0755 65.0328 45.9375 65.0328 45.7953C64.8948 45.7953 64.7567 45.7953 64.6146 45.7953ZM62.5234 54.3689C62.5924 54.5069 62.6615 54.6449 62.7326 54.7871C62.8016 54.6491 62.8706 54.511 62.9417 54.3689C62.8036 54.3689 62.6656 54.3689 62.5234 54.3689ZM62.9417 55.2053C63.0595 55.889 63.2552 56.2144 63.7781 56.6691C63.7781 56.5311 63.7781 56.3931 63.7781 56.2509C64.0541 56.1128 64.3302 55.9748 64.6146 55.8326C64.4765 55.6946 64.3385 55.5566 64.1963 55.4144C64.2747 54.8655 64.2747 54.8655 64.4054 54.3689C63.9053 54.3689 63.3421 54.9327 62.9417 55.2053Z" fill="white"/>
<path d="M87.4101 45.3772C87.7854 45.4225 87.7854 45.4225 88.1682 45.4687C88.8739 45.5863 88.8739 45.5863 89.2325 45.833C89.6148 46.3744 89.5342 46.7493 89.4882 47.4029C89.4593 48.5948 89.6004 49.4414 90.3377 50.3958C90.8265 50.8467 90.8265 50.8467 91.3833 51.0232C91.9491 50.9656 92.1663 50.872 92.5554 50.4498C92.6646 50.3026 92.7738 50.1554 92.8862 50.0038C93.5717 49.1682 94.138 48.894 95.1848 48.6739C95.3104 48.6211 95.4361 48.5683 95.5655 48.5138C95.6437 48.2373 95.7138 47.9583 95.7746 47.6774C96.9289 47.2926 98.0436 47.3008 99.1571 47.8122C99.447 47.9603 99.7354 48.1115 100.022 48.2655C101.297 48.9118 102.494 49.3804 103.904 49.6697C104.348 49.7685 104.348 49.7685 104.557 49.9776C104.577 50.4267 104.582 50.8764 104.581 51.3259C104.581 51.4666 104.581 51.6074 104.581 51.7524C104.581 52.2197 104.579 52.687 104.578 53.1543C104.577 53.4775 104.577 53.8007 104.577 54.1239C104.576 54.9761 104.574 55.8283 104.572 56.6806C104.569 57.5496 104.569 58.4186 104.567 59.2876C104.565 60.9938 104.562 62.7001 104.557 64.4063C103.476 64.2237 103.04 63.8243 102.27 63.0667C101.752 62.6665 101.448 62.5482 100.793 62.5243C100.631 62.6227 100.468 62.7211 100.301 62.8224C99.5734 63.2554 99.0576 63.2144 98.2186 63.1908C97.9563 63.1852 97.694 63.1795 97.4238 63.1737C97.125 63.1628 97.125 63.1628 96.8202 63.1516C96.7565 62.3064 96.8753 61.8822 97.3821 61.2043C97.5386 60.9855 97.5386 60.9855 97.6983 60.7624C98.0748 60.4332 98.0748 60.4332 98.6409 60.385C98.7991 60.4009 98.9573 60.4168 99.1204 60.4332C99.0263 59.4547 98.9113 58.8858 98.2839 58.133C98.2257 57.968 98.1675 57.803 98.1075 57.6331C97.6299 56.5551 96.5397 55.8635 95.4781 55.4055C95.1708 55.3041 94.8613 55.209 94.5493 55.1229C94.1017 54.9963 94.1017 54.9963 93.5961 54.7872C93.03 54.5679 92.4874 54.4502 91.893 54.3297C90.4435 53.984 89.2797 53.2909 88.0375 52.487C87.9012 52.6899 87.9012 52.6899 87.7622 52.897C87.4101 53.3234 87.4101 53.3234 86.7959 53.4541C86.1555 53.3234 86.1555 53.3234 85.685 52.7483C85.4808 52.3692 85.2807 51.9876 85.0969 51.5982C84.899 51.1599 84.899 51.1599 84.2735 50.8141C84.2735 50.538 84.2735 50.262 84.2735 49.9776C85.4759 49.9515 85.4759 49.9515 85.9464 50.1867C86.0154 49.9107 86.0844 49.6347 86.1555 49.3503C85.9312 49.3675 85.7069 49.3848 85.4759 49.4026C84.6917 49.3503 84.6917 49.3503 84.182 48.9713C83.8553 48.5138 83.8553 48.5138 83.8553 47.8865C83.4671 47.9189 83.4671 47.9189 83.0711 47.9519C82.3371 47.9532 82.2301 47.9284 81.6465 47.416C81.3459 46.8409 81.3459 46.8409 81.332 46.4227C81.6454 45.8351 82.078 45.7492 82.6913 45.5593C82.9181 45.495 82.9181 45.495 83.1495 45.4294C83.3691 45.3603 83.3691 45.3603 83.593 45.2898C84.9627 44.8806 86.0769 44.8105 87.4101 45.3772ZM83.8553 46.0045C83.2335 46.1743 82.6064 46.3031 81.9733 46.4227C82.046 46.8358 82.046 46.8358 82.1824 47.2592C82.6606 47.4983 82.9336 47.4899 83.4632 47.4814C83.7306 47.477 83.998 47.4727 84.2735 47.4683C84.3382 47.671 84.4029 47.8737 84.4695 48.0825C84.628 48.6896 84.628 48.6896 84.9008 48.9321C85.3877 49.0089 85.8757 49.0789 86.3646 49.1412C86.3646 49.4862 86.3646 49.8312 86.3646 50.1867C86.0196 50.3247 85.6745 50.4628 85.319 50.605C85.4369 50.9505 85.5599 51.2944 85.685 51.6374C85.7869 51.9249 85.7869 51.9249 85.8908 52.2182C86.1106 52.7255 86.1106 52.7255 86.5778 52.8929C86.7144 52.897 86.8511 52.901 86.9919 52.9052C87.1256 52.7672 87.2593 52.6291 87.3971 52.487C87.5394 52.3489 87.6817 52.2109 87.8284 52.0687C88.622 52.135 89.07 52.3788 89.6842 52.866C90.6326 53.5277 91.562 53.7912 92.6783 54.0626C94.6337 54.5404 96.8838 55.1238 98.2839 56.6692C98.5555 57.1447 98.7657 57.609 98.9554 58.1223C99.123 58.6047 99.123 58.6047 99.5386 59.1785C99.5925 59.742 99.5572 60.2838 99.5386 60.8514C99.3143 60.8514 99.0901 60.8514 98.859 60.8514C98.0777 60.972 98.0777 60.972 97.7914 61.4469C97.5846 61.8702 97.4005 62.2912 97.2384 62.7334C98.5376 62.8192 98.5376 62.8192 99.7477 62.4067C100.635 61.9815 101.328 61.9977 102.257 62.3152C102.754 62.6655 103.177 63.0397 103.61 63.4661C103.88 63.8033 103.88 63.8033 104.139 63.779C104.139 59.3625 104.139 54.9461 104.139 50.3958C103.207 50.0462 102.281 49.7029 101.342 49.3764C100.545 49.0914 99.8137 48.7582 99.0681 48.357C98.1796 47.8958 97.6034 47.7625 96.611 47.8865C96.473 47.9555 96.335 48.0245 96.1928 48.0956C96.1584 48.301 96.1584 48.301 96.1234 48.5106C96.0542 48.7192 96.0542 48.7192 95.9837 48.9321C95.55 49.0922 95.55 49.0922 95.0035 49.1935C94.1033 49.4211 93.7353 49.6443 93.2261 50.422C92.7891 51.0872 92.7064 51.2074 91.9191 51.4937C91.0035 51.4294 90.3643 51.2475 89.7104 50.605C89.0771 49.5925 88.7927 48.6689 88.9654 47.4814C88.9996 47.3328 89.0339 47.1843 89.0691 47.0313C89.1242 46.6141 89.1242 46.6141 88.8323 46.2798C88.1594 45.7879 87.3797 45.7302 86.5737 45.5863C86.3192 45.5302 86.0648 45.4741 85.8026 45.4164C84.9536 45.3683 84.597 45.604 83.8553 46.0045Z" fill="white"/>
<path d="M49.9377 34.634C50.1066 34.6289 50.2755 34.6237 50.4495 34.6185C51.3014 34.6143 51.7549 34.6503 52.5018 35.0963C52.9045 35.5488 52.9045 35.5488 52.9045 36.1762C52.5594 36.3142 52.2144 36.4522 51.8589 36.5944C51.967 36.7133 52.0751 36.8321 52.1865 36.9546C53.2981 38.2577 53.2981 38.2577 53.3733 38.9273C53.3096 39.3259 53.3096 39.3259 53.1136 39.9402C53.2354 39.9957 53.3573 40.0512 53.4828 40.1084C53.9629 40.3653 54.3272 40.6518 54.7342 41.0119C54.8625 41.1245 54.9908 41.2372 55.123 41.3533C55.219 41.439 55.3149 41.5247 55.4138 41.6131C55.3448 41.9581 55.2758 42.3031 55.2047 42.6586C54.4364 42.9045 53.7055 42.8831 52.9045 42.8677C52.5486 43.5794 52.4606 44.1769 52.4209 44.9588C52.3544 45.745 52.3114 45.9606 51.8066 46.6056C51.2316 47.05 51.2316 47.05 50.6434 47.3898C50.0908 47.9897 50.1408 48.1201 50.173 48.9058C50.1835 49.105 50.194 49.3042 50.2048 49.5095C50.1701 50.7592 49.7356 51.9337 49.3496 53.1142C49.0735 53.1142 48.7975 53.1142 48.5131 53.1142C48.4441 52.9762 48.3751 52.8382 48.304 52.696C48.1954 52.7563 48.0868 52.8167 47.9748 52.8789C46.4899 53.6694 46.4899 53.6694 45.5856 53.5324C45.3765 53.3233 45.3765 53.3233 45.3634 52.7874C45.3677 52.6192 45.372 52.451 45.3765 52.2777C45.2352 52.2699 45.094 52.2621 44.9484 52.254C44.7619 52.2403 44.5754 52.2266 44.3832 52.2124C44.1988 52.2003 44.0144 52.1881 43.8245 52.1756C43.2178 52.0552 42.9106 51.8436 42.4489 51.4413C42.2718 51.5375 42.2718 51.5375 42.0911 51.6357C41.6062 51.8624 41.168 51.9846 40.6453 52.0948C40.483 52.1298 40.3208 52.1648 40.1536 52.201C39.7305 52.2777 39.7305 52.2777 39.3122 52.2777C39.2432 51.8637 39.1742 51.4497 39.1031 51.0231C38.7926 51.1266 38.7926 51.1266 38.4758 51.2322C37.4466 51.3543 36.6519 51.3992 35.7573 50.8401C35.1187 49.8422 34.871 48.7357 34.9634 47.5507C34.9725 47.0248 34.9725 47.0248 34.5623 46.6865C34.4089 46.5778 34.2555 46.4692 34.0975 46.3573C33.2864 45.7072 33.2864 45.7072 33.1051 45.1353C33.069 44.7289 33.0527 44.321 33.0389 43.9133C32.9009 43.7753 32.7629 43.6373 32.6207 43.4951C32.5057 42.345 32.7119 41.3732 33.248 40.3584C33.5837 39.9957 33.5837 39.9957 33.8753 39.7311C35.0573 40.0176 35.6552 40.9182 36.3847 41.8222C36.5354 41.7866 36.686 41.751 36.8413 41.7143C37.4218 41.6145 37.9037 41.6255 38.4889 41.6653C39.0338 41.6886 39.0338 41.6886 39.5213 41.6131C39.655 41.4405 39.7887 41.268 39.9265 41.0903C40.3578 40.5675 40.3578 40.5675 40.8806 40.4834C41.9316 40.4708 42.7375 40.5491 43.7036 40.9857C43.8071 40.8822 43.8071 40.8822 43.9127 40.7766C44.4678 40.6816 45.0255 40.6297 45.5856 40.5675C45.6236 40.39 45.6236 40.39 45.6624 40.2089C45.6974 40.0555 45.7324 39.9022 45.7685 39.7441C45.8195 39.5149 45.8195 39.5149 45.8715 39.281C46.0038 38.8946 46.0038 38.8946 46.422 38.6855C46.574 38.2717 46.7144 37.8533 46.8402 37.4308C46.9783 37.4308 47.1163 37.4308 47.2585 37.4308C47.2965 37.189 47.2965 37.189 47.3352 36.9424C47.3703 36.7326 47.4053 36.5229 47.4414 36.3069C47.4754 36.0982 47.5094 35.8896 47.5444 35.6746C47.8533 34.4046 48.8455 34.6357 49.9377 34.634ZM48.0949 35.5488C47.9513 35.9784 47.9513 35.9784 47.8858 36.4637C47.7401 37.229 47.5603 37.6675 47.0494 38.2673C46.9778 38.5456 46.9077 38.8244 46.8402 39.1037C46.7022 39.1727 46.5642 39.2417 46.422 39.3128C46.2746 39.7984 46.1351 40.2864 46.0038 40.7766C45.4216 41.3588 44.0856 41.3892 43.2984 41.4562C42.8671 41.4039 42.8671 41.4039 42.4489 40.9857C41.8115 40.8708 41.2035 40.8636 40.5669 40.9857C40.4634 41.1582 40.3599 41.3308 40.2532 41.5085C40.1497 41.681 40.0462 41.8535 39.9396 42.0313C39.4703 42.1065 39.0459 42.0813 38.5722 42.0468C38.0399 42.0307 37.6312 42.128 37.1166 42.2535C36.6518 42.3188 36.6518 42.3188 36.1756 42.2404C35.6056 41.798 35.1518 41.3226 34.6799 40.7774C34.5524 40.6391 34.4249 40.5009 34.2936 40.3584C34.1555 40.3584 34.0175 40.3584 33.8753 40.3584C33.131 41.7548 33.131 41.7548 33.0389 43.286C33.1769 43.424 33.3149 43.562 33.4571 43.7042C33.4657 43.9586 33.4744 44.2131 33.4833 44.4753C33.5377 45.0747 33.582 45.3014 34.0363 45.7095C34.1859 45.8155 34.3355 45.9214 34.4896 46.0305C35.1295 46.5221 35.3178 46.7602 35.5278 47.5539C35.592 48.0672 35.6447 48.582 35.6838 49.0978C35.7523 49.7228 35.8066 50.1 36.1756 50.6048C37.349 50.8679 38.3413 50.7945 39.5213 50.6048C39.5904 50.9499 39.6594 51.2949 39.7305 51.6504C40.7792 51.5815 40.7792 51.5815 41.6125 51.0231C42.1091 50.9577 42.1091 50.9577 42.658 51.0231C42.7788 51.1223 42.8995 51.2215 43.024 51.3237C43.5651 51.6995 43.8039 51.6887 44.4485 51.7157C44.9452 51.7517 44.9452 51.7517 45.3765 51.8595C45.8078 52.4999 45.8078 52.4999 46.0038 53.1142C46.1251 53.0562 46.2464 52.9983 46.3714 52.9386C46.6164 52.8249 46.6164 52.8249 46.8664 52.709C47.1066 52.5962 47.1066 52.5962 47.3516 52.4811C47.9453 52.2551 48.5125 52.1551 49.1405 52.0686C49.6874 50.3103 49.6874 50.3103 49.6371 48.5137C49.5983 48.2032 49.5983 48.2032 49.5587 47.8864C50.0683 47.2378 50.5944 46.8473 51.2839 46.3965C52.0376 45.6085 51.9686 45.0908 52.0182 44.0391C52.068 43.4951 52.068 43.4951 52.3686 42.8416C53.1793 42.2484 54.0124 42.261 54.9956 42.2404C54.6263 41.3346 54.0629 41.0195 53.2557 40.5169C52.7563 39.9942 52.8992 39.6009 52.9045 38.8946C52.5944 38.3317 52.5944 38.3317 52.1726 37.8229C51.4407 36.8906 51.4407 36.8906 51.4407 35.9671C51.6477 35.829 51.8547 35.691 52.068 35.5488C51.3212 35.051 50.9667 35.0743 50.0815 35.0783C49.8421 35.0773 49.6027 35.0762 49.3561 35.0751C48.6853 35.0828 48.6853 35.0828 48.0949 35.5488Z" fill="white"/>
<path d="M28.1891 57.2442C28.334 57.248 28.4789 57.2517 28.6282 57.2556C28.983 57.2654 29.3376 57.2804 29.6921 57.2965C29.6921 57.4345 29.6921 57.5725 29.6921 57.7147C29.9466 57.7276 30.201 57.7406 30.4632 57.7539C31.4151 57.866 31.7546 58.2789 32.4106 58.9694C33.0037 59.1642 33.0037 59.1642 33.6652 59.1785C33.9369 59.2 34.2087 59.2216 34.4886 59.2438C35.1602 59.2413 35.5534 59.1004 36.1223 58.7472C36.8019 58.342 36.8019 58.342 37.2201 58.3682C37.3581 58.4286 37.4962 58.4889 37.6383 58.5511C39.1536 58.9919 40.5243 59.2205 42.095 59.2961C42.2698 59.3051 42.4446 59.3142 42.6248 59.3235C43.0537 59.3455 43.4827 59.3667 43.9117 59.3876C43.8537 59.7829 43.8537 59.7829 43.7026 60.224C42.9576 60.59 42.9576 60.59 42.2388 60.8514C42.8311 61.1475 43.3836 61.1329 44.0424 61.1781C44.2909 61.1956 44.5394 61.2131 44.7955 61.2312C45.0826 61.2502 45.0826 61.2502 45.3755 61.2696C45.479 61.5801 45.479 61.5801 45.5846 61.8969C45.8433 61.884 46.1021 61.871 46.3687 61.8577C47.0028 61.8543 47.2203 61.8747 47.7802 62.2106C47.8838 62.3141 47.9873 62.4176 48.0939 62.5243C48.0249 62.8003 47.9559 63.0763 47.8848 63.3607C46.4994 63.596 46.4994 63.596 45.7937 63.3607C45.5867 63.6712 45.5867 63.6712 45.3755 63.988C45.0789 63.9285 44.7828 63.8671 44.4867 63.8051C44.2393 63.7541 44.2393 63.7541 43.9868 63.7021C43.4935 63.5698 43.4935 63.5698 43.0979 63.3466C42.5825 63.1186 42.3493 63.1455 41.8018 63.2455C40.6869 63.3995 39.6738 63.2784 38.5663 63.1124C38.3793 63.0885 38.1924 63.0647 37.9998 63.0401C36.9029 62.882 36.0733 62.6094 35.1046 62.0791C34.4626 61.7821 33.8419 61.7745 33.1425 61.7532C32.7329 61.735 32.7329 61.735 32.315 61.7164C31.9483 61.7023 31.9483 61.7023 31.5741 61.6878C30.1419 61.5843 28.7755 61.218 27.3919 60.8514C27.3771 60.7231 27.3622 60.5947 27.347 60.4626C27.2215 59.9771 27.2215 59.9771 26.7507 59.7503C26.5784 59.6823 26.4062 59.6144 26.2287 59.5444C26.0559 59.4743 25.8831 59.4043 25.7051 59.332C25.5717 59.2814 25.4383 59.2307 25.3008 59.1785C25.3583 58.4879 25.4559 58.1894 25.9412 57.682C26.7066 57.2016 27.3169 57.2008 28.1891 57.2442ZM25.719 58.7603C26.3179 59.2055 26.3179 59.2055 26.9867 59.3615C27.601 59.5967 27.601 59.5967 27.7881 60.0076C27.9848 60.467 27.9848 60.467 28.4456 60.6447C29.7815 60.9938 31.0804 61.1337 32.4551 61.1988C33.7616 61.2631 34.9632 61.3692 36.1223 62.0015C37.8914 62.818 39.9065 62.7887 41.8204 62.6996C42.9136 62.667 43.5766 62.8988 44.539 63.3607C44.677 63.3607 44.815 63.3607 44.9572 63.3607C45.1244 62.6734 45.1866 62.3757 44.9572 61.6878C44.7683 61.6776 44.5793 61.6673 44.3846 61.6568C44.138 61.6411 43.8913 61.6255 43.6372 61.6094C43.3922 61.5948 43.1472 61.5803 42.8947 61.5653C42.2388 61.4787 42.2388 61.4787 41.6115 61.0605C41.6115 60.7845 41.6115 60.5084 41.6115 60.224C42.2325 60.1205 42.2325 60.1205 42.8661 60.0149C42.8661 59.9459 42.8661 59.8769 42.8661 59.8058C42.7419 59.7953 42.6176 59.7849 42.4896 59.7741C41.9179 59.725 41.3465 59.674 40.775 59.6228C40.5796 59.6064 40.3842 59.59 40.1828 59.573C39.275 59.4905 38.4331 59.3917 37.5599 59.1246C36.8186 58.8885 36.8186 58.8885 36.2791 59.2504C36.1066 59.3647 35.9341 59.4789 35.7563 59.5967C35.1768 59.668 34.6614 59.7034 34.0835 59.7013C33.9374 59.7072 33.7913 59.7131 33.6407 59.7192C32.795 59.7224 32.4512 59.6308 31.7963 59.0805C31.654 58.9058 31.5116 58.7311 31.365 58.5511C31.1194 58.2629 31.1194 58.2629 30.4371 58.2505C29.6921 58.1329 29.6921 58.1329 29.2739 57.7147C27.7428 57.477 26.7753 57.6183 25.719 58.7603ZM45.7937 62.5243C46.1481 62.8732 46.1481 62.8732 46.6301 63.1516C47.1944 63.1052 47.1944 63.1052 47.6757 62.9425C47.2666 62.4383 47.2666 62.4383 46.4994 62.4981C46.1501 62.5111 46.1501 62.5111 45.7937 62.5243Z" fill="white"/>
<path d="M65.0048 62.0448C65.238 62.0468 65.4712 62.0489 65.7114 62.051C66.0749 62.0588 66.0749 62.0588 66.4457 62.0669C66.6913 62.0697 66.9369 62.0725 67.1899 62.0755C67.7958 62.0828 68.4015 62.0932 69.0074 62.1061C69.0074 62.3821 69.0074 62.6581 69.0074 62.9425C68.6669 63.283 68.2636 63.2144 67.7935 63.2489C67.4875 63.2733 67.4875 63.2733 67.1752 63.2983C66.7429 63.3311 66.3105 63.3632 65.878 63.3947C65.6734 63.4112 65.4689 63.4278 65.2581 63.4449C65.0699 63.4589 64.8818 63.4729 64.688 63.4873C64.1428 63.5448 64.1428 63.5448 63.5705 63.9881C62.5567 64.289 61.4949 64.2356 60.4469 64.2364C60.2626 64.239 60.0784 64.2415 59.8886 64.2442C58.8788 64.2464 58.0243 64.2073 57.088 63.779C57.019 63.641 56.95 63.503 56.8789 63.3608C57.4433 62.6766 57.7367 62.343 58.6302 62.2106C59.3882 62.3152 59.3882 62.3152 60.1463 62.6419C60.9106 62.9675 61.1278 62.9563 61.8976 62.7334C62.0744 62.7421 62.2512 62.7507 62.4334 62.7596C62.9588 62.7838 62.9588 62.7838 63.3166 62.422C63.9153 62.0135 64.2851 62.0338 65.0048 62.0448ZM63.9887 62.5243C63.9197 62.6623 63.8507 62.8003 63.7796 62.9425C64.0556 62.9425 64.3316 62.9425 64.616 62.9425C64.616 62.8045 64.616 62.6665 64.616 62.5243C64.409 62.5243 64.202 62.5243 63.9887 62.5243ZM57.5062 63.1516C57.5062 63.2897 57.5062 63.4277 57.5062 63.5699C59.3259 63.7867 61.1348 63.9506 62.9431 63.5699C62.9431 63.5009 62.9431 63.4319 62.9431 63.3608C62.6969 63.3717 62.6969 63.3717 62.4457 63.3828C61.0919 63.4177 60.1739 63.3481 58.97 62.7334C58.3206 62.7334 58.0598 62.8462 57.5062 63.1516Z" fill="white"/>
<path d="M52.6964 61.897C53.6896 62.0799 53.6896 62.0799 54.1601 62.3152C54.3283 62.3066 54.4965 62.2979 54.6698 62.2891C55.2057 62.3152 55.2057 62.3152 55.5978 62.5635C55.833 62.9425 55.833 62.9425 55.7432 63.489C55.6841 63.736 55.6841 63.736 55.6239 63.9881C51.8043 64.8437 51.8043 64.8437 50.3961 64.6154C50.2581 64.4774 50.1201 64.3394 49.9779 64.1972C49.2286 64.1623 49.2286 64.1623 48.5141 64.1972C48.305 63.5699 48.305 63.5699 48.6056 62.9033C48.7134 62.7092 48.8213 62.5152 48.9324 62.3152C49.4844 62.3152 50.0365 62.3152 50.6052 62.3152C50.6743 62.4532 50.7433 62.5912 50.8144 62.7334C50.9826 62.6623 50.9826 62.6623 51.1542 62.5897C51.8726 62.4951 52.2902 62.8021 52.9055 63.1516C52.7675 63.0136 52.6294 62.8756 52.4872 62.7334C52.5657 62.2891 52.5657 62.2891 52.6964 61.897ZM49.3506 62.7334C49.2126 63.0785 49.0746 63.4235 48.9324 63.779C49.3401 63.7383 49.3401 63.7383 49.7688 63.5699C50.0374 63.155 50.0374 63.155 50.187 62.7334C49.911 62.7334 49.635 62.7334 49.3506 62.7334ZM53.7419 62.9425C53.6729 63.2186 53.6039 63.4946 53.5328 63.779C54.0849 63.71 54.6369 63.641 55.2057 63.5699C55.2057 63.3628 55.2057 63.1558 55.2057 62.9425C54.7226 62.9425 54.2396 62.9425 53.7419 62.9425ZM51.0235 63.1516C50.8855 63.4277 50.7474 63.7037 50.6052 63.9881C51.4035 64.2755 52.0842 64.1302 52.9055 63.9881C52.6984 63.8501 52.4914 63.7121 52.2781 63.5699C52.0711 63.4318 51.8641 63.2938 51.6508 63.1516C51.4438 63.1516 51.2368 63.1516 51.0235 63.1516Z" fill="white"/>
<path d="M74.8596 39.313C75.0666 39.313 75.2736 39.313 75.4869 39.313C75.4869 39.589 75.4869 39.865 75.4869 40.1494C75.6249 40.1494 75.7629 40.1494 75.9051 40.1494C75.9741 40.3565 76.0431 40.5635 76.1142 40.7768C76.4593 40.7078 76.8043 40.6388 77.1598 40.5677C77.3822 41.2753 77.4138 41.5255 77.0683 42.2013C76.9605 42.3523 76.8527 42.5032 76.7416 42.6588C76.8796 42.7968 77.0176 42.9348 77.1598 43.077C77.1598 43.284 77.1598 43.491 77.1598 43.7043C76.6768 43.7043 76.1937 43.7043 75.696 43.7043C75.765 44.3944 75.834 45.0845 75.9051 45.7954C74.8964 45.5432 74.8964 45.5432 74.4414 44.959C74.2232 44.3487 74.1323 43.7149 74.0231 43.077C73.9897 42.9177 73.9563 42.7584 73.9218 42.5942C73.7069 41.3537 73.962 40.5682 74.6505 39.5221C74.7195 39.4531 74.7885 39.3841 74.8596 39.313ZM74.8596 40.1494C74.2153 41.1158 74.3398 42.0785 74.5361 43.2003C74.6355 43.6498 74.7418 44.0958 74.8596 44.5408C74.9286 44.5408 74.9976 44.5408 75.0687 44.5408C75.0687 44.0577 75.0687 43.5747 75.0687 43.077C75.3447 43.077 75.6207 43.077 75.9051 43.077C75.9375 42.8829 75.9375 42.8829 75.9705 42.6849C76.1142 42.2405 76.1142 42.2405 76.7416 41.8223C76.6726 41.6153 76.6036 41.4083 76.5325 41.195C76.1874 41.264 75.8424 41.333 75.4869 41.4041C75.461 41.2359 75.4352 41.0677 75.4085 40.8944C75.3654 40.7176 75.3222 40.5407 75.2778 40.3585C75.1398 40.2895 75.0018 40.2205 74.8596 40.1494Z" fill="white"/>
<path d="M81.3457 50.814C81.7678 51.4308 81.7836 51.7124 81.6855 52.4477C81.6424 52.5987 81.5993 52.7496 81.5548 52.9051C80.8556 52.7886 80.2932 52.6225 79.6728 52.2778C79.6728 52.1398 79.6728 52.0018 79.6728 51.8596C79.4529 51.8984 79.2329 51.9372 79.0063 51.9772C78.2847 52.06 77.8556 52.0092 77.1635 51.8596C76.734 51.9452 76.734 51.9452 76.3271 52.0687C75.4906 52.0687 75.4906 52.0687 74.8633 51.8596C75.0201 50.8663 75.0201 50.8663 75.4906 50.3958C76.082 50.3092 76.082 50.3092 76.7976 50.2651C77.1485 50.2417 77.1485 50.2417 77.5066 50.2177C78.9063 50.1559 80.0745 50.1681 81.3457 50.814ZM75.6997 50.814C76.1198 51.3189 76.1198 51.3189 76.7322 51.4953C76.9457 51.4815 76.9457 51.4815 77.1635 51.4675C77.7601 51.4336 78.0395 51.4546 78.6273 51.6505C78.6273 51.5125 78.6273 51.3744 78.6273 51.2322C79.1103 51.3012 79.5934 51.3703 80.0911 51.4414C80.1601 51.6484 80.2291 51.8554 80.3002 52.0687C80.7216 52.222 80.7216 52.222 81.1366 52.2778C81.0676 51.9328 80.9986 51.5877 80.9275 51.2322C79.1261 50.5815 77.5896 50.585 75.6997 50.814Z" fill="white"/>
<path d="M69.2142 63.988C69.33 64.6496 69.3075 65.0896 68.9545 65.6691C68.1802 66.6218 67.4576 67.1234 66.3161 67.5544C65.8484 67.7609 65.5493 67.9949 65.1758 68.3402C64.6138 68.7976 64.6138 68.7976 64.1171 68.7584C64.005 68.7023 63.8929 68.6463 63.7773 68.5885C63.9273 67.7365 64.2827 67.419 64.9128 66.865C65.2836 66.4876 65.2836 66.4876 65.518 65.8733C65.9483 65.0991 66.3157 64.9081 67.1101 64.537C67.3276 64.4318 67.5451 64.3267 67.7692 64.2184C68.3778 63.988 68.3778 63.988 69.2142 63.988ZM68.3778 64.6154C68.2268 64.7103 68.0759 64.8051 67.9204 64.9029C67.3322 65.2427 67.3322 65.2427 66.7833 65.4257C66.1389 65.7309 65.9482 66.0646 65.6593 66.7065C65.7284 66.8445 65.7974 66.9825 65.8685 67.1247C67.4824 66.5209 67.4824 66.5209 68.5869 65.2427C68.5179 65.0357 68.4489 64.8287 68.3778 64.6154Z" fill="white"/>
<path d="M67.1264 47.6773C67.6579 47.6716 68.1893 47.6675 68.7208 47.6642C68.8699 47.6624 69.019 47.6607 69.1725 47.6589C70.0484 47.6549 70.8638 47.7135 71.7268 47.8864C71.5888 48.5074 71.4508 49.1285 71.3086 49.7684C70.4721 49.5593 70.4721 49.5593 70.076 49.2342C69.4998 48.8386 69.1369 48.8744 68.4464 48.9058C68.0763 48.9205 67.7059 48.9307 67.3355 48.9319C67.1264 48.7228 67.1264 48.7228 67.1133 48.187C67.1176 48.0188 67.1219 47.8506 67.1264 47.6773ZM67.5446 48.0955C68.381 48.3046 68.381 48.3046 68.381 48.3046L67.5446 48.0955ZM70.0539 48.3046C70.3299 48.5116 70.606 48.7186 70.8904 48.9319C70.9594 48.7249 71.0284 48.5179 71.0995 48.3046C70.7544 48.3046 70.4094 48.3046 70.0539 48.3046Z" fill="white"/>
<path d="M59.5951 66.0791C59.5298 66.4712 59.5298 66.4712 59.386 66.9156C58.7587 67.3338 58.7587 67.3338 58.249 67.2946C57.7131 67.1247 57.7131 67.1247 57.3341 66.8241C56.6669 66.3475 56.0025 66.2522 55.2038 66.0791C54.9685 65.295 54.9685 65.295 55.2038 64.8245C57.1498 64.4047 58.1239 64.8581 59.5951 66.0791ZM55.8311 65.2427C55.7621 65.3807 55.6931 65.5187 55.622 65.6609C55.7506 65.7013 55.8792 65.7418 56.0116 65.7834C56.1806 65.8379 56.3497 65.8923 56.5238 65.9484C56.6912 66.0018 56.8586 66.0552 57.0311 66.1102C57.504 66.2882 57.504 66.2882 58.1313 66.7065C58.5815 66.642 58.5815 66.642 58.9678 66.4973C58.9678 66.3593 58.9678 66.2213 58.9678 66.0791C58.6637 65.9303 58.6637 65.9303 58.3535 65.7785C57.7131 65.4518 57.7131 65.4518 57.504 65.2427C56.9456 65.2132 56.3906 65.2338 55.8311 65.2427Z" fill="white"/>
<path d="M89.7096 56.251C90.0547 56.32 90.3997 56.389 90.7552 56.4601C90.6975 57.7576 90.5238 58.5724 89.7096 59.5968C89.3646 59.5278 89.0196 59.4587 88.6641 59.3876C88.8792 58.2489 89.1338 57.2718 89.7096 56.251ZM89.9187 56.8783C89.7117 57.5684 89.5047 58.2584 89.2914 58.9694C90.0269 58.2339 90.0331 57.8829 90.1278 56.8783C90.0588 56.8783 89.9898 56.8783 89.9187 56.8783Z" fill="white"/>
<path d="M72.1025 50.7356C73.1079 50.7385 73.1079 50.7385 73.7362 51.3368C74.0237 51.8596 74.0237 51.8596 73.9191 52.2647C73.6055 52.696 73.6055 52.696 72.8082 52.9051C72.124 52.9575 71.9377 52.9079 71.3052 52.5653C70.887 52.0687 70.887 52.0687 70.8086 51.5067C70.946 50.6592 71.313 50.7656 72.1025 50.7356ZM71.5143 51.2322C71.5143 51.4393 71.5143 51.6463 71.5143 51.8596C71.9111 52.3509 71.9111 52.3509 72.586 52.3039C72.8836 52.291 72.8836 52.291 73.1872 52.2778C73.1872 52.0708 73.1872 51.8638 73.1872 51.6505C72.7904 51.1591 72.7904 51.1591 72.1155 51.2061C71.9171 51.2147 71.7188 51.2233 71.5143 51.2322Z" fill="white"/>
<path d="M11.7109 48.7228C12.362 48.6555 12.6526 48.6386 13.1714 49.0594C13.2933 49.2071 13.4151 49.3548 13.5407 49.507C13.6647 49.6526 13.7887 49.7981 13.9164 49.9481C14.2155 50.3887 14.3403 50.7118 14.4294 51.2322C13.963 51.3915 13.963 51.3915 13.3838 51.4413C12.9158 51.0794 12.9158 51.0794 12.482 50.5656C12.3362 50.3988 12.1904 50.2319 12.0401 50.06C11.7109 49.5593 11.7109 49.5593 11.7109 48.7228Z" fill="white"/>
<path d="M30.1134 49.5593C31.3419 49.7423 31.3419 49.7423 31.5771 49.9775C31.5857 50.3957 31.586 50.8141 31.5771 51.2322C30.9216 51.6207 30.4532 51.6926 29.6951 51.6504C29.4727 50.9428 29.4412 50.6926 29.7866 50.0168C29.8944 49.8658 30.0023 49.7149 30.1134 49.5593ZM30.3225 50.1867C30.2535 50.4627 30.1845 50.7387 30.1134 51.0231C30.4584 50.9541 30.8034 50.8851 31.1589 50.814C31.0899 50.607 31.0209 50.4 30.9498 50.1867C30.7428 50.1867 30.5358 50.1867 30.3225 50.1867Z" fill="white"/>
<path d="M9.8263 46.2136C10.1713 46.2136 10.5164 46.2136 10.8719 46.2136C11.3221 47.0203 11.5813 47.5836 11.4992 48.5138C11.0287 48.5923 11.0287 48.5923 10.4536 48.5138C9.95699 47.9519 9.95699 47.9519 9.61719 47.2592C9.66947 46.658 9.66947 46.658 9.8263 46.2136ZM10.2445 46.6318C10.3135 46.9079 10.3825 47.1839 10.4536 47.4683C10.5226 47.3303 10.5916 47.1923 10.6627 47.0501C10.5247 46.9121 10.3867 46.774 10.2445 46.6318ZM10.6627 47.4683C10.8719 47.8865 10.8719 47.8865 10.8719 47.8865L10.6627 47.4683Z" fill="white"/>
<path d="M72.7711 60.8513C72.6926 61.361 72.6926 61.361 72.5619 61.8968C71.8898 62.2329 71.2161 62.1179 70.4708 62.1059C70.4018 61.7609 70.3328 61.4159 70.2617 61.0604C71.1844 60.7528 71.8265 60.565 72.7711 60.8513ZM70.8891 61.2695C70.8891 61.4075 70.8891 61.5455 70.8891 61.6877C71.3031 61.6187 71.7171 61.5497 72.1437 61.4786C72.1437 61.4096 72.1437 61.3406 72.1437 61.2695C71.7297 61.2695 71.3156 61.2695 70.8891 61.2695Z" fill="white"/>
<path d="M80.506 44.1226C81.1961 44.1226 81.8861 44.1226 82.5971 44.1226C82.6661 44.4676 82.7351 44.8126 82.8062 45.1681C82.155 45.554 81.6805 45.6833 80.9242 45.5863C80.5321 45.3249 80.5321 45.3249 80.2969 44.959C80.3659 44.683 80.4349 44.4069 80.506 44.1226ZM81.1333 44.5408C81.1333 44.6788 81.1333 44.8168 81.1333 44.959C81.4784 44.89 81.8234 44.821 82.1789 44.7499C82.1789 44.6809 82.1789 44.6119 82.1789 44.5408C81.8338 44.5408 81.4888 44.5408 81.1333 44.5408Z" fill="white"/>
<path d="M6.68995 40.7766C7.25178 40.8525 7.64323 40.9165 8.10145 41.2602C8.40216 41.6661 8.5094 41.9491 8.57195 42.4495C8.50295 42.6565 8.43394 42.8635 8.36284 43.0768C7.63759 43.0164 7.35774 42.9061 6.82065 42.3972C6.48084 41.8222 6.48084 41.8222 6.53312 41.234C6.58487 41.0831 6.63663 40.9321 6.68995 40.7766ZM6.89906 41.1948C7.3131 41.8159 7.3131 41.8159 7.73551 42.4495C7.79351 41.7835 7.79351 41.7835 7.31729 41.1948C7.17927 41.1948 7.04126 41.1948 6.89906 41.1948Z" fill="white"/>
<path d="M83.3711 60.0804C83.6105 60.1515 83.6105 60.1515 83.8547 60.2241C83.4278 61.7016 83.4278 61.7016 82.8091 62.1061C82.3517 62.0408 82.3517 62.0408 81.9727 61.897C82.0976 60.7729 82.0976 60.7729 82.4432 60.2372C82.8091 60.015 82.8091 60.015 83.3711 60.0804Z" fill="white"/>
<path d="M80.925 47.6774C81.0557 48.0564 81.0557 48.0564 81.1341 48.5138C80.9271 48.8244 80.9271 48.8244 80.7159 49.1412C80.2328 49.0722 79.7498 49.0031 79.2521 48.932C79.1831 48.656 79.1141 48.38 79.043 48.0956C79.6985 47.7071 80.1669 47.6353 80.925 47.6774ZM79.6703 48.3047C79.9808 48.5117 79.9808 48.5117 80.2976 48.7229C80.3666 48.5849 80.4356 48.4469 80.5067 48.3047C80.2307 48.3047 79.9547 48.3047 79.6703 48.3047Z" fill="white"/>
<path d="M3.34583 37.6401C4.14484 37.7511 4.6134 37.9532 5.22783 38.4766C5.15882 38.7526 5.08982 39.0286 5.01872 39.313C4.11663 39.2128 3.7294 38.948 3.13672 38.2675C3.20573 38.0605 3.27473 37.8534 3.34583 37.6401Z" fill="white"/>
<path d="M74.6267 46.9978C75.2802 47.0501 75.2802 47.0501 75.6723 47.3245C75.9075 47.6774 75.9075 47.6774 75.9075 48.3047C75.2865 48.3047 74.6654 48.3047 74.0255 48.3047C73.9456 47.9584 73.8762 47.6095 73.8164 47.2592C74.0255 47.0501 74.0255 47.0501 74.6267 46.9978ZM74.4437 47.4683C74.3747 47.6063 74.3057 47.7443 74.2346 47.8865C74.5107 47.8175 74.7867 47.7485 75.0711 47.6774C74.8641 47.6084 74.657 47.5394 74.4437 47.4683Z" fill="white"/>
<path d="M92.6349 45.5862C93.2564 45.8213 93.7504 46.051 94.3078 46.4226C94.3078 46.6296 94.3078 46.8367 94.3078 47.05C93.602 47.0761 93.602 47.0761 92.844 47.05C92.706 46.9119 92.568 46.7739 92.4258 46.6317C92.5042 46.0828 92.5042 46.0828 92.6349 45.5862Z" fill="white"/>
<path d="M92.4258 47.6772C93.1849 47.6772 93.9439 47.6772 94.726 47.6772C94.726 47.9533 94.726 48.2293 94.726 48.5137C94.4211 48.5193 94.1161 48.5234 93.8111 48.5268C93.6413 48.5292 93.4715 48.5316 93.2965 48.5341C92.844 48.5137 92.844 48.5137 92.4258 48.3046C92.4258 48.0976 92.4258 47.8905 92.4258 47.6772Z" fill="white"/>
<path d="M76.7685 38.3065C76.8979 38.3626 77.0273 38.4186 77.1606 38.4764C77.3697 39.1037 77.3697 39.1037 77.1737 39.5612C77.0637 39.7488 77.0637 39.7488 76.9515 39.9402C76.6031 39.9491 76.2543 39.9487 75.9059 39.9402C75.6968 39.7311 75.6968 39.7311 75.6445 39.2214C75.6618 39.0445 75.679 38.8677 75.6968 38.6855C76.3241 38.2673 76.3241 38.2673 76.7685 38.3065ZM76.115 39.1037C76.115 39.2418 76.115 39.3798 76.115 39.522C76.253 39.522 76.3911 39.522 76.5333 39.522C76.5333 39.384 76.5333 39.2459 76.5333 39.1037C76.3952 39.1037 76.2572 39.1037 76.115 39.1037Z" fill="white"/>
</svg>
