<svg width="313" height="308" viewBox="0 0 313 308" fill="none" xmlns="http://www.w3.org/2000/svg">
<g clip-path="url(#clip0_1948_2889)">
<path d="M21.7769 193.199H14.8789V200.101H21.7769V193.199ZM21.7769 186.3H28.6791V179.402H21.7769V186.3ZM21.7769 255.297H28.6791V248.395H21.7769V255.297ZM35.5771 172.496H42.4793V165.602H35.5771V172.496ZM35.5771 262.195H42.4793V255.297H35.5771V262.195ZM56.2753 255.297H49.3773V262.195H56.2753V255.297ZM56.2753 282.893H63.1775V275.995H56.2753V282.893ZM63.1775 172.496H56.2753V179.402H70.0755V172.496H63.1775ZM63.1775 275.995H70.0755V269.102H63.1775V275.995ZM70.0755 269.102H76.9735V262.195H70.0755V269.102ZM70.0755 289.8H76.9735V275.995H70.0755V289.8ZM76.9735 179.402H70.0755V186.3H83.8757V179.402H76.9735ZM83.8757 186.3V193.199H90.7737V186.3H83.8757ZM90.7737 262.195V255.297H76.9735V262.195H90.7737ZM83.8757 275.995V282.893H97.6759V275.995H83.8757ZM97.6759 103.499V96.6055H90.7737V117.3H97.6759V103.499ZM90.7737 200.101H97.6759V193.199H90.7737V200.101ZM104.578 89.6991H97.6759V96.6055H104.578V89.6991ZM104.578 117.3H97.6759V131.104H104.578V117.3ZM111.472 82.8011H104.578V89.6991H111.472V82.8011ZM104.578 131.104V137.998H111.472V131.104H104.578ZM118.374 75.9073H111.472V82.8011H118.374V75.9073ZM111.472 137.998V144.904H118.374V137.998H111.472ZM111.472 255.297V262.195H118.374V255.297H111.472ZM125.272 69.0009H118.374V75.9073H125.272V69.0009ZM118.374 96.6055H125.272V89.6991H118.374V96.6055ZM118.374 144.904V151.802H125.272V144.904H118.374ZM118.374 269.102H125.272V262.195H118.374V269.102ZM132.178 62.1029H125.272V69.0009H132.178V62.1029ZM125.272 151.802V158.696H132.178V151.802H125.272ZM125.272 179.402V200.101H132.178V172.496H125.272V179.402ZM139.076 55.2008V48.3028H132.178V62.1029H139.076V55.2008ZM132.178 158.696V165.602H139.076V158.696H132.178ZM139.076 89.6991H145.97V82.8011H139.076V89.6991ZM139.076 165.602V172.496H145.97V165.602H139.076ZM152.877 41.4089H145.97V48.3028H152.877V41.4089ZM145.97 172.496V179.402H152.877V172.496H145.97ZM159.775 34.5026H152.877V41.4089H159.775V34.5026ZM152.877 186.3H159.775V179.402H152.877V186.3ZM159.775 206.999H152.877V213.901H159.775V206.999ZM152.877 227.697H159.775V220.799H152.877V227.697ZM152.877 241.497H159.775V234.599H152.877V241.497ZM152.877 255.297H159.775V248.395H152.877V255.297ZM152.877 262.195V269.102H166.677V262.195H152.877ZM152.877 289.8H159.775V282.893H152.877V289.8ZM166.677 48.3028V41.4089H159.775V48.3028H166.677ZM159.775 179.402H166.677V172.496H159.775V179.402ZM159.775 282.893H166.677V275.995H159.775V282.893ZM166.677 89.6991H173.575V82.8011H166.677V89.6991ZM166.677 172.496H173.575V165.602H166.677V172.496ZM180.469 48.3028H173.575V62.1029H180.469V48.3028ZM173.575 165.602H180.469V158.696H173.575V165.602ZM180.469 62.1029V69.0009H187.375V62.1029H180.469ZM180.469 158.696H187.375V151.802H180.469V158.696ZM187.375 193.199V172.496H180.469V200.101H187.375V193.199ZM187.375 69.0009V75.9073H194.273V69.0009H187.375ZM194.273 89.6991H187.375V96.6055H194.273V89.6991ZM187.375 151.802H194.273V144.904H187.375V151.802ZM187.375 269.102H194.273V262.195H187.375V269.102ZM194.273 75.9073V82.8011H201.175V75.9073H194.273ZM194.273 144.904H201.175V137.998H194.273V144.904ZM194.273 262.195H201.175V255.297H194.273V262.195ZM201.175 82.8011V89.6991H208.073V82.8011H201.175ZM201.175 137.998H208.073V131.104H201.175V137.998ZM208.073 89.6991V96.6055H214.971V89.6991H208.073ZM214.971 124.198V117.3H208.073V131.104H214.971V124.198ZM221.873 110.406V96.6055H214.971V117.3H221.873V110.406ZM214.971 200.101H221.873V193.199H214.971V200.101ZM214.971 275.995V282.893H228.771V275.995H214.971ZM221.873 193.199H228.771V186.3H221.873V193.199ZM228.771 255.297H221.873V262.195H235.674V255.297H228.771ZM242.572 186.3V179.402H228.771V186.3H242.572ZM235.674 262.195V269.102H242.572V262.195H235.674ZM235.674 282.893V289.8H242.572V275.995H235.674V282.893ZM242.572 269.102V275.995H249.47V269.102H242.572ZM256.372 179.402V172.496H242.572V179.402H256.372ZM249.47 255.297V262.195H256.372V248.395H249.47V255.297ZM249.47 282.893H256.372V275.995H249.47V282.893ZM256.372 248.395H263.27V241.497H256.372V248.395ZM277.07 165.602H270.168V172.496H277.07V165.602ZM270.168 248.395V255.297H283.968V248.395H270.168ZM290.87 179.402H283.968V186.3H290.87V179.402ZM283.968 241.497H290.87V234.599H283.968V241.497ZM297.768 193.199V200.101H290.87V193.199H297.768Z" fill="#35B22B"/>
<mask id="mask0_1948_2889" style="mask-type:luminance" maskUnits="userSpaceOnUse" x="14" y="0" width="284" height="297">
<path d="M14.7383 0H297.904V296.694H14.7383V0Z" fill="white"/>
</mask>
<g mask="url(#mask0_1948_2889)">
<path d="M14.875 193.198H21.773V186.3H14.875V193.198ZM28.6752 179.402H35.5732V172.496H28.6752V179.402ZM42.4754 165.602H49.3734V158.696H42.4754V165.602ZM56.2714 151.802V137.998H49.3734V158.696H56.2714V151.802ZM63.1736 131.104H56.2714V137.998H63.1736V131.104ZM56.2714 289.8H63.1736V282.893H56.2714V289.8ZM70.0716 144.904H76.9696V137.998H63.1736V144.904H70.0716ZM63.1736 282.893H70.0716V275.995H63.1736V282.893ZM76.9696 117.3V110.406H70.0716V124.198H76.9696V117.3ZM83.8718 131.104V124.198H76.9696V131.104H83.8718ZM83.8718 151.802V144.904H76.9696V151.802H83.8718ZM90.7698 137.998V131.104H83.8718V137.998H90.7698ZM97.672 144.904V137.998H90.7698V144.904H97.672ZM90.7698 165.602H97.672V158.696H90.7698V165.602ZM104.574 151.802V144.904H97.672V151.802H104.574ZM111.468 172.496H104.574V179.402H111.468V172.496ZM104.574 213.901H111.468V206.999H104.574V213.901ZM111.468 151.802V158.696H118.37V151.802H111.468ZM118.37 269.102V262.195H111.468V269.102H118.37ZM111.468 275.995H104.574V269.102H97.672V262.195H111.468V255.297H90.7698V262.195H76.9696V269.102H70.0716V275.995H76.9696V289.8H83.8718V275.995H97.672V289.8H104.574V282.893H118.37V275.995H111.468ZM118.37 158.696V165.602H125.268V158.696H118.37ZM118.37 220.799H125.268V213.901H118.37V220.799ZM118.37 289.8H125.268V282.893H118.37V289.8ZM132.175 13.8043H125.268V20.7065H132.175V13.8043ZM125.268 96.6055V103.499H132.175V96.6055H145.966V89.6991H139.073V82.8011H118.37V89.6991H125.268V96.6055ZM125.268 206.999H132.175V200.101H125.268V206.999ZM132.175 117.3V124.198H139.073V117.3H132.175ZM132.175 165.602H125.268V172.496H139.073V165.602H132.175ZM145.966 6.90634H139.073V13.8043H145.966V6.90634ZM139.073 124.198V131.104H145.966V124.198H139.073ZM139.073 172.496V179.402H145.966V172.496H139.073ZM152.873 137.998H166.673V131.104H145.966V137.998H152.873ZM145.966 179.402V186.3H152.873V179.402H145.966ZM159.771 6.90634H166.673V0.00415039H145.966V6.90634H159.771ZM159.771 103.499H152.873V110.406H159.771V103.499ZM152.873 193.198H159.771V186.3H152.873V193.198ZM159.771 213.901H152.873V220.799H159.771V213.901ZM152.873 234.599H159.771V227.697H152.873V234.599ZM152.873 248.395H159.771V241.497H152.873V248.395ZM152.873 262.195H159.771V255.297H152.873V262.195ZM152.873 296.694H159.771V289.8H152.873V296.694ZM159.771 186.3H166.673V179.402H159.771V186.3ZM159.771 275.995H166.673V269.102H159.771V275.995ZM159.771 289.8H166.673V282.893H159.771V289.8ZM173.571 13.8043V6.90634H166.673V13.8043H173.571ZM173.571 124.198H166.673V131.104H173.571V124.198ZM166.673 179.402H173.571V172.496H166.673V179.402ZM173.571 89.6991H166.673V96.6055H180.465V103.499H187.371V89.6991H194.269V82.8011H173.571V89.6991ZM180.465 117.3H173.571V124.198H180.465V117.3ZM187.371 13.8043H180.465V20.7065H187.371V13.8043ZM187.371 172.496V165.602H173.571V172.496H187.371ZM187.371 200.101H180.465V206.999H187.371V200.101ZM194.269 158.696H187.371V165.602H194.269V158.696ZM187.371 220.799H194.269V213.901H187.371V220.799ZM187.371 289.8H194.269V282.893H187.371V289.8ZM201.171 151.802H194.269V158.696H201.171V151.802ZM194.269 206.999H201.171V200.101H194.269V206.999ZM194.269 269.102H201.171V262.195H194.269V269.102ZM201.171 179.402H208.069V172.496H201.171V179.402ZM214.967 144.904H208.069V151.802H214.967V144.904ZM208.069 213.901H214.967V206.999H208.069V213.901ZM221.87 137.998H214.967V144.904H221.87V137.998ZM214.967 165.602H221.87V158.696H214.967V165.602ZM228.768 131.104H221.87V137.998H228.768V131.104ZM235.67 124.198H228.768V131.104H235.67V124.198ZM228.768 151.802H235.67V144.904H228.768V151.802ZM242.568 117.3V110.406H235.67V124.198H242.568V117.3ZM235.67 137.998V144.904H249.466V137.998H235.67ZM235.67 269.102V262.195H221.87V255.297H201.171V262.195H214.967V269.102H208.069V275.995H194.269V282.893H208.069V289.8H214.967V275.995H228.768V289.8H235.67V275.995H242.568V269.102H235.67ZM242.568 275.995V282.893H249.466V275.995H242.568ZM249.466 131.104V137.998H256.368V131.104H249.466ZM249.466 289.8H256.368V282.893H249.466V289.8ZM263.266 144.904V137.998H256.368V158.696H263.266V144.904ZM263.266 165.602H270.164V158.696H263.266V165.602ZM277.066 179.402H283.964V172.496H277.066V179.402ZM297.764 186.3V193.198H290.866V186.3H297.764Z" fill="#52E500"/>
</g>
<mask id="mask1_1948_2889" style="mask-type:luminance" maskUnits="userSpaceOnUse" x="1" y="6" width="311" height="291">
<path d="M1.07422 6.83105H311.564V296.694H1.07422V6.83105Z" fill="white"/>
</mask>
<g mask="url(#mask1_1948_2889)">
<path d="M118.37 151.802H125.268V158.696H118.37V151.802ZM125.268 158.696H132.174V165.602H125.268V158.696ZM180.464 165.602V158.696H187.371V165.602H180.464ZM187.371 158.696V151.802H194.269V158.696H187.371ZM249.465 289.8V282.894H242.567V289.8H228.767V282.894H214.967V289.8H208.069V282.894H194.269V289.8H187.371V282.894H194.269V275.996H208.069V269.102H214.967V262.195H201.171V269.102H187.371V262.195H194.269V255.297H235.669V262.195H242.567V269.102H249.465V275.996H256.367V289.8H249.465ZM118.37 289.8V282.894H104.574V289.8H97.6714V282.894H83.8712V289.8H70.071V282.894H63.173V289.8H56.2708V275.996H63.173V269.102H70.071V262.195H76.969V255.297H118.37V262.195H125.268V269.102H111.467V262.195H97.6714V269.102H104.574V275.996H118.37V282.894H125.268V289.8H118.37ZM97.6714 165.602H90.7692V158.696H97.6714V165.602ZM49.3728 262.195V255.297H56.2708V262.195H49.3728ZM111.467 172.496V179.403H104.574V172.496H111.467ZM125.268 220.799H118.37V213.901H125.268V220.799ZM111.467 206.999V213.901H104.574V206.999H111.467ZM21.7724 248.395H28.6746V255.297H21.7724V248.395ZM42.4748 262.195H35.5726V255.297H42.4748V262.195ZM56.2708 172.496H70.071V179.403H83.8712V186.301H90.7692V193.199H97.6714V200.101H90.7692V193.199H83.8712V186.301H70.071V179.403H56.2708V172.496ZM111.467 144.904V137.998H104.574V131.104H97.6714V117.3H90.7692V96.6057H97.6714V89.6993H104.574V82.8013H111.467V75.9075H118.37V69.0011H125.268V62.1031H132.174V48.3029H139.072V62.1031H132.174V69.0011H125.268V75.9075H118.37V82.8013H145.966V96.6057H132.174V103.499H125.268V96.6057H118.37V82.8013H111.467V89.6993H104.574V96.6057H97.6714V117.3H104.574V131.104H111.467V137.998H118.37V144.904H125.268V151.802H132.174V158.696H139.072V165.602H145.966V172.496H152.872V179.403H159.77V172.496H166.672V165.602H173.57V158.696H180.464V151.802H187.371V144.904H194.269V137.998H201.171V131.104H208.069V117.3H214.967V96.6057H208.069V89.6993H201.171V82.8013H194.269V96.6057H187.371V103.499H180.464V96.6057H166.672V82.8013H194.269V75.9075H187.371V69.0011H180.464V62.1031H173.57V48.3029H180.464V62.1031H187.371V69.0011H194.269V75.9075H201.171V82.8013H208.069V89.6993H214.967V96.6057H221.869V117.3H214.967V131.104H208.069V137.998H201.171V144.904H194.269V151.802H201.171V158.696H194.269V165.602H187.371V206.999H180.464V172.496H173.57V179.403H166.672V186.301H159.77V193.199H152.872V186.301H145.966V179.403H139.072V172.496H132.174V206.999H125.268V165.602H118.37V158.696H111.467V151.802H118.37V144.904H111.467ZM180.464 124.198H173.57V131.104H166.672V137.998H145.966V131.104H139.072V124.198H132.174V117.3H139.072V124.198H145.966V131.104H166.672V124.198H173.57V117.3H180.464V124.198ZM159.77 103.499V110.406H152.872V103.499H159.77ZM166.672 48.3029H159.77V41.4091H152.872V48.3029H145.966V41.4091H152.872V34.5027H159.77V41.4091H166.672V48.3029ZM221.869 158.696V165.602H214.967V158.696H221.869ZM249.465 255.297V248.395H256.367V241.497H263.265V248.395H256.367V262.195H249.465V255.297ZM194.269 220.799H187.371V213.901H194.269V220.799ZM208.069 172.496V179.403H201.171V172.496H208.069ZM256.367 179.403H242.567V186.301H228.767V193.199H221.869V200.101H214.967V193.199H221.869V186.301H228.767V179.403H242.567V172.496H256.367V179.403ZM208.069 206.999H214.967V213.901H208.069V206.999ZM283.963 255.297H270.163V248.395H283.963V255.297ZM290.866 241.497H283.963V234.599H290.866V241.497ZM194.269 200.101H201.171V206.999H194.269V200.101ZM304.662 220.799V206.999H297.764V200.101H290.866V186.301H283.963V179.403H277.065V172.496H270.163V165.602H263.265V158.696H256.367V137.998H249.465V144.904H235.669V151.802H228.767V144.904H235.669V137.998H249.465V117.3H242.567V124.198H235.669V131.104H228.767V137.998H221.869V144.904H214.967V151.802H208.069V144.904H214.967V137.998H221.869V131.104H228.767V124.198H235.669V110.406H228.767V69.0011H221.869V62.1031H214.967V48.3029H208.069V34.5027H201.171V27.6047H194.269V20.7067H180.464V13.8045H166.672V6.90649H145.966V13.8045H132.174V20.7067H118.37V27.6047H111.467V34.5027H104.574V48.3029H97.6714V62.1031H90.7692V69.0011H83.8712V110.406H76.969V124.198H83.8712V131.104H90.7692V137.998H97.6714V144.904H104.574V151.802H97.6714V144.904H90.7692V137.998H83.8712V131.104H76.969V124.198H70.071V117.3H63.173V137.998H76.969V144.904H83.8712V151.802H76.969V144.904H63.173V137.998H56.2708V158.696H49.3728V165.602H42.4748V172.496H35.5726V179.403H28.6746V186.301H21.7724V200.101H14.8744V206.999H7.97641V220.799H1.07422V262.195H7.97641V275.996H14.8744V282.894H21.7724V289.8H28.6746V296.694H152.872V282.894H159.77V269.102H152.872V206.999H159.77V262.195H166.672V289.8H159.77V296.694H277.065V289.8H283.963V282.894H290.866V275.996H297.764V269.102H304.662V255.297H311.564V220.799H304.662Z" fill="black"/>
</g>
<mask id="mask2_1948_2889" style="mask-type:luminance" maskUnits="userSpaceOnUse" x="123" y="96" width="13" height="13">
<path d="M123.598 96.2872H135.589V108.291H123.598V96.2872Z" fill="white"/>
</mask>
<g mask="url(#mask2_1948_2889)">
<path d="M135.482 102.402C135.419 102.511 135.306 102.57 135.201 102.633C135.248 102.7 135.243 102.787 135.222 102.863C135.206 102.942 135.168 103.014 135.147 103.089C135.126 103.169 135.13 103.269 135.176 103.336C135.113 103.34 135.063 103.391 135.038 103.445C135.013 103.504 135.009 103.566 135.005 103.629C134.996 103.688 134.988 103.755 134.959 103.805C135.046 103.843 135.139 103.881 135.201 103.952C135.222 103.973 135.235 103.998 135.248 104.023C135.268 104.082 135.26 104.149 135.235 104.207C135.21 104.266 135.172 104.32 135.134 104.371C135.18 104.421 135.264 104.475 135.285 104.542C135.302 104.584 135.302 104.63 135.31 104.676C135.331 104.831 135.415 104.982 135.411 105.141C135.407 105.158 135.398 105.171 135.382 105.179C135.369 105.187 135.352 105.192 135.34 105.2C135.289 105.225 135.264 105.279 135.252 105.334C135.243 105.388 135.243 105.447 135.231 105.501C135.21 105.61 135.122 105.702 135.051 105.79C135.088 105.841 135.13 105.891 135.155 105.95C135.176 106.012 135.18 106.084 135.147 106.138C135.105 106.205 135.005 106.234 134.925 106.255C134.984 106.31 135.042 106.368 135.055 106.448C135.059 106.502 135.046 106.557 135.051 106.611C135.059 106.657 135.08 106.699 135.109 106.737C135.143 106.77 135.18 106.8 135.214 106.829C135.147 106.93 135.155 107.072 135.185 107.185C135.218 107.298 135.273 107.407 135.302 107.52C135.34 107.667 135.34 107.826 135.294 107.972C135.097 108.019 134.871 108.019 134.678 107.952C134.59 107.922 134.506 107.88 134.414 107.864C134.322 107.843 134.213 107.847 134.138 107.901C134.104 107.847 134.054 107.801 133.991 107.776C133.924 107.746 133.844 107.746 133.769 107.734C133.694 107.725 133.614 107.692 133.568 107.629C133.551 107.709 133.514 107.78 133.463 107.843C133.442 107.864 133.421 107.889 133.392 107.893C133.371 107.893 133.35 107.889 133.329 107.88C133.254 107.851 133.179 107.805 133.112 107.755C133.07 107.755 133.036 107.78 133.007 107.809C132.982 107.838 132.957 107.872 132.923 107.893C132.835 107.947 132.718 107.905 132.626 107.939C132.546 107.972 132.479 108.044 132.437 108.115C132.412 108.094 132.374 108.086 132.341 108.081C132.303 108.077 132.265 108.081 132.232 108.073C132.182 108.06 132.136 108.031 132.085 108.014C132.01 107.989 131.93 107.998 131.859 107.972C131.78 107.947 131.717 107.885 131.654 107.822C131.579 107.88 131.545 107.893 131.457 107.926C131.419 107.939 131.382 107.952 131.348 107.943C131.315 107.935 131.29 107.914 131.269 107.893C131.202 107.83 131.151 107.742 131.114 107.658C131.017 107.709 130.9 107.671 130.795 107.704C130.724 107.725 130.661 107.788 130.636 107.859C130.582 107.809 130.502 107.809 130.431 107.83C130.364 107.851 130.301 107.893 130.234 107.914C130.142 107.943 130.037 107.935 129.949 107.897V107.876C129.916 108.006 129.824 108.115 129.706 108.174C129.673 108.19 129.635 108.203 129.598 108.194C129.568 108.19 129.539 108.174 129.514 108.157C129.422 108.09 129.342 108.006 129.283 107.905C129.179 107.922 129.07 107.943 128.974 107.901C128.923 107.876 128.877 107.843 128.827 107.822C128.747 107.792 128.651 107.813 128.588 107.872C128.576 107.809 128.521 107.759 128.463 107.734C128.408 107.704 128.341 107.7 128.282 107.692C128.22 107.688 128.153 107.679 128.098 107.654C128.086 107.742 128.052 107.813 127.989 107.88C127.964 107.91 127.935 107.935 127.897 107.939C127.872 107.943 127.851 107.939 127.826 107.935C127.742 107.91 127.663 107.872 127.591 107.822C127.478 107.859 127.411 107.981 127.294 108.006C127.235 108.019 127.177 108.01 127.122 108.023C127.08 108.031 127.039 108.052 126.997 108.065C126.921 108.09 126.838 108.077 126.771 108.119C126.733 108.035 126.645 107.972 126.561 107.947C126.511 107.935 126.461 107.931 126.406 107.922C126.31 107.901 126.205 107.826 126.146 107.746C126.1 107.784 126.096 107.792 126.042 107.822C125.992 107.855 125.933 107.872 125.874 107.864C125.82 107.855 125.77 107.826 125.736 107.784C125.703 107.742 125.673 107.671 125.665 107.616C125.623 107.692 125.539 107.734 125.455 107.742C125.397 107.751 125.338 107.738 125.284 107.751C125.204 107.763 125.12 107.834 125.087 107.905C125.016 107.855 124.919 107.847 124.836 107.859C124.693 107.88 124.563 107.939 124.429 107.977C124.274 108.019 124.052 108.019 123.931 107.972C123.885 107.826 123.885 107.671 123.923 107.524C123.952 107.407 124.011 107.302 124.04 107.185C124.069 107.072 124.078 106.93 124.011 106.829C124.048 106.8 124.086 106.77 124.115 106.737C124.145 106.699 124.17 106.657 124.174 106.611C124.182 106.557 124.165 106.502 124.174 106.448C124.182 106.373 124.245 106.31 124.299 106.255C124.224 106.234 124.124 106.205 124.082 106.138C124.048 106.084 124.048 106.012 124.073 105.95C124.094 105.891 124.136 105.841 124.174 105.79C124.103 105.702 124.019 105.615 123.994 105.501C123.981 105.447 123.985 105.393 123.973 105.334C123.964 105.279 123.935 105.225 123.885 105.2C123.872 105.192 123.856 105.187 123.843 105.179C123.83 105.171 123.818 105.158 123.818 105.141C123.809 104.982 123.893 104.831 123.918 104.676C123.923 104.63 123.927 104.584 123.939 104.542C123.96 104.475 124.044 104.421 124.094 104.371C124.057 104.32 124.015 104.266 123.99 104.207C123.969 104.149 123.956 104.082 123.981 104.023C123.99 103.998 124.006 103.973 124.023 103.952C124.086 103.881 124.178 103.843 124.266 103.805H124.27C124.237 103.755 124.228 103.688 124.224 103.629C124.216 103.566 124.216 103.504 124.191 103.445C124.165 103.391 124.111 103.34 124.048 103.336C124.094 103.269 124.098 103.169 124.078 103.089C124.061 103.014 124.023 102.942 124.002 102.863C123.981 102.787 123.981 102.7 124.027 102.633C123.918 102.57 123.809 102.511 123.742 102.402C123.722 102.364 123.705 102.318 123.713 102.272C123.717 102.239 123.738 102.205 123.759 102.18C123.793 102.134 123.835 102.092 123.881 102.055C123.91 102.034 123.943 102.008 123.969 101.979C123.99 101.95 124.006 101.908 123.994 101.87C123.985 101.812 123.99 101.736 124.006 101.678C124.027 101.615 124.078 101.56 124.094 101.493C124.119 101.418 124.103 101.33 124.048 101.267C124.086 101.255 124.124 101.238 124.149 101.209C124.174 101.183 124.186 101.146 124.195 101.112C124.22 101.016 124.228 100.915 124.237 100.819C124.237 100.811 124.237 100.798 124.232 100.79C124.228 100.781 124.195 100.773 124.191 100.781C124.082 100.756 123.99 100.66 123.973 100.551C123.952 100.438 124.002 100.321 124.094 100.258C124.015 100.208 123.956 100.115 123.927 100.023C123.897 99.9311 123.889 99.8348 123.876 99.7384C123.86 99.6463 123.839 99.55 123.789 99.4662C123.868 99.4076 123.952 99.3531 123.977 99.261C123.994 99.1982 123.99 99.127 124.006 99.06C124.027 98.9678 124.086 98.8882 124.17 98.8422C124.128 98.7919 124.09 98.7249 124.069 98.6621C124.048 98.6034 124.048 98.5322 124.082 98.4778C124.124 98.4066 124.216 98.3731 124.295 98.3521H124.299C124.262 98.3228 124.262 98.327 124.232 98.2851C124.199 98.2391 124.186 98.1762 124.174 98.1176C124.165 98.059 124.161 98.0003 124.145 97.9417C124.149 97.8998 124.124 97.8496 124.09 97.8286C124.069 97.8161 124.04 97.8035 124.027 97.7825C124.019 97.7658 124.023 97.7449 124.031 97.7323C124.044 97.7155 124.057 97.703 124.073 97.6946C124.069 97.5313 124.002 97.3763 123.96 97.2171C123.906 97.0245 123.893 96.8193 123.914 96.6182C124.036 96.5721 124.274 96.5847 124.429 96.6266C124.568 96.6601 124.697 96.7229 124.836 96.7397C124.919 96.7522 125.016 96.7481 125.087 96.6936C125.12 96.769 125.204 96.836 125.284 96.8528C125.338 96.8611 125.397 96.8528 125.455 96.8569C125.539 96.8653 125.623 96.9114 125.669 96.9826C125.673 96.9281 125.703 96.8611 125.736 96.8193C125.77 96.7774 125.82 96.7481 125.874 96.7397C125.933 96.7313 125.992 96.7481 126.042 96.7774C126.096 96.8067 126.105 96.8151 126.146 96.8569C126.205 96.7774 126.31 96.702 126.41 96.681C126.461 96.6685 126.511 96.6685 126.561 96.6517C126.649 96.6308 126.733 96.5638 126.771 96.4842C126.838 96.5219 126.921 96.5135 126.997 96.5345C127.043 96.547 127.08 96.5721 127.122 96.5805C127.181 96.5931 127.24 96.5805 127.294 96.5931C127.411 96.6182 127.478 96.7397 127.596 96.7774C127.663 96.7271 127.742 96.6894 127.826 96.6685C127.851 96.6601 127.876 96.6559 127.897 96.6601C127.935 96.6643 127.964 96.6894 127.989 96.7187C128.052 96.7857 128.09 96.8569 128.098 96.9491C128.157 96.924 128.22 96.9156 128.282 96.9072C128.345 96.903 128.408 96.8946 128.467 96.8695C128.521 96.8444 128.576 96.7899 128.588 96.7313C128.651 96.7899 128.747 96.8067 128.827 96.7774C128.877 96.7606 128.923 96.7229 128.974 96.702C129.07 96.6601 129.179 96.6769 129.283 96.6936C129.342 96.5973 129.422 96.5135 129.514 96.4465C129.539 96.4256 129.568 96.4088 129.598 96.4046C129.635 96.4004 129.673 96.413 129.706 96.4297C129.824 96.4842 129.916 96.5973 129.949 96.7229V96.7062C130.037 96.6643 130.142 96.6601 130.234 96.6894C130.301 96.7104 130.364 96.7481 130.431 96.769C130.502 96.7899 130.582 96.7899 130.636 96.7397C130.661 96.8109 130.724 96.8737 130.795 96.8946C130.9 96.9281 131.017 96.8946 131.114 96.9407C131.151 96.8569 131.202 96.7732 131.269 96.7062C131.29 96.6852 131.315 96.6643 131.348 96.6559C131.386 96.6475 131.424 96.6601 131.457 96.6727C131.545 96.7104 131.579 96.7229 131.654 96.7774C131.717 96.7187 131.78 96.6559 131.863 96.6266C131.935 96.6057 132.014 96.6098 132.085 96.5889C132.136 96.5721 132.182 96.5386 132.232 96.5303C132.27 96.5219 132.303 96.5219 132.341 96.5177C132.374 96.5177 132.412 96.5093 132.441 96.4842C132.483 96.5554 132.546 96.6308 132.626 96.6601C132.722 96.6978 132.839 96.6559 132.923 96.7104C132.957 96.7313 132.982 96.7648 133.007 96.7941C133.036 96.8193 133.074 96.8486 133.112 96.8444C133.179 96.7983 133.254 96.7522 133.329 96.7229C133.35 96.7145 133.371 96.7062 133.392 96.7104C133.421 96.7145 133.447 96.7355 133.463 96.7564C133.518 96.8193 133.551 96.8946 133.572 96.9742C133.614 96.9114 133.698 96.8779 133.769 96.8653C133.844 96.8528 133.924 96.8528 133.995 96.8234C134.054 96.7983 134.108 96.7564 134.142 96.6978C134.213 96.7564 134.326 96.7606 134.414 96.7397C134.506 96.7187 134.59 96.6769 134.678 96.6475C134.871 96.5805 135.118 96.5721 135.315 96.6182C135.335 96.8193 135.319 97.0245 135.268 97.2171C135.227 97.3763 135.16 97.5313 135.155 97.6946C135.168 97.703 135.185 97.7155 135.193 97.7323C135.206 97.7449 135.206 97.7658 135.201 97.7825C135.189 97.8035 135.16 97.8161 135.139 97.8286C135.101 97.8496 135.08 97.8998 135.08 97.9417C135.067 98.0003 135.063 98.059 135.051 98.1176C135.042 98.1762 135.03 98.2349 134.992 98.2851C134.967 98.327 134.967 98.3228 134.925 98.3521H134.929C135.009 98.3731 135.105 98.4066 135.147 98.4778C135.176 98.5322 135.176 98.6034 135.16 98.6621C135.139 98.7249 135.101 98.7919 135.059 98.8422C135.139 98.8882 135.201 98.972 135.222 99.06C135.235 99.127 135.235 99.1982 135.252 99.261C135.277 99.3531 135.361 99.4076 135.44 99.4662C135.39 99.55 135.369 99.6463 135.352 99.7384C135.34 99.8348 135.327 99.9311 135.298 100.023C135.268 100.115 135.214 100.203 135.13 100.258C135.227 100.321 135.277 100.438 135.256 100.551C135.235 100.66 135.147 100.756 135.038 100.781C135.034 100.773 135 100.781 134.996 100.79C134.992 100.798 134.992 100.811 134.992 100.819C135 100.92 135.009 101.016 135.034 101.112C135.042 101.146 135.055 101.179 135.08 101.209C135.105 101.238 135.143 101.255 135.176 101.267C135.126 101.33 135.109 101.418 135.13 101.493C135.151 101.56 135.197 101.615 135.222 101.678C135.239 101.736 135.243 101.812 135.235 101.87C135.222 101.908 135.235 101.95 135.26 101.979C135.285 102.008 135.319 102.034 135.348 102.055C135.39 102.092 135.432 102.134 135.469 102.18C135.49 102.205 135.511 102.239 135.516 102.272C135.524 102.318 135.507 102.364 135.482 102.402Z" fill="#FF0000"/>
</g>
<mask id="mask3_1948_2889" style="mask-type:luminance" maskUnits="userSpaceOnUse" x="123" y="96" width="13" height="13">
<path d="M123.598 96.2872H135.63V108.316H123.598V96.2872Z" fill="white"/>
</mask>
<g mask="url(#mask3_1948_2889)">
<path d="M123.598 96.2872H135.63V108.316H123.598V96.2872Z" fill="black"/>
</g>
<mask id="mask4_1948_2889" style="mask-type:luminance" maskUnits="userSpaceOnUse" x="176" y="96" width="13" height="13">
<path d="M176.855 96.2872H188.884V108.291H176.855V96.2872Z" fill="white"/>
</mask>
<g mask="url(#mask4_1948_2889)">
<path d="M188.74 102.402C188.677 102.511 188.568 102.57 188.459 102.633C188.505 102.7 188.505 102.787 188.484 102.863C188.463 102.942 188.426 103.014 188.405 103.089C188.388 103.169 188.392 103.269 188.434 103.336C188.375 103.34 188.321 103.391 188.296 103.445C188.271 103.504 188.267 103.566 188.262 103.629C188.258 103.688 188.25 103.755 188.216 103.805H188.22C188.308 103.843 188.401 103.881 188.463 103.952C188.48 103.973 188.497 103.998 188.505 104.023C188.526 104.082 188.518 104.149 188.493 104.207C188.472 104.266 188.43 104.32 188.392 104.371C188.442 104.421 188.526 104.475 188.547 104.542C188.56 104.584 188.564 104.63 188.568 104.676C188.589 104.831 188.673 104.982 188.669 105.141C188.669 105.158 188.656 105.171 188.644 105.179C188.631 105.187 188.614 105.192 188.597 105.2C188.551 105.225 188.522 105.279 188.514 105.334C188.501 105.388 188.505 105.447 188.493 105.501C188.468 105.61 188.384 105.702 188.308 105.79C188.35 105.841 188.392 105.891 188.413 105.95C188.438 106.012 188.438 106.084 188.405 106.138C188.363 106.205 188.262 106.234 188.187 106.255C188.241 106.31 188.304 106.368 188.313 106.448C188.321 106.502 188.304 106.557 188.313 106.611C188.317 106.657 188.342 106.699 188.371 106.737C188.401 106.77 188.438 106.8 188.476 106.829C188.409 106.93 188.417 107.072 188.447 107.185C188.476 107.298 188.53 107.407 188.564 107.52C188.602 107.667 188.597 107.826 188.556 107.972C188.359 108.019 188.128 108.019 187.94 107.952C187.852 107.922 187.764 107.88 187.676 107.864C187.584 107.843 187.475 107.847 187.4 107.901C187.366 107.847 187.312 107.801 187.253 107.776C187.182 107.746 187.106 107.746 187.031 107.734C186.956 107.725 186.872 107.692 186.83 107.629C186.813 107.709 186.776 107.78 186.725 107.843C186.704 107.864 186.683 107.889 186.654 107.893C186.633 107.893 186.612 107.889 186.591 107.88C186.516 107.851 186.44 107.805 186.369 107.755C186.332 107.755 186.294 107.78 186.269 107.809C186.239 107.838 186.214 107.872 186.181 107.893C186.097 107.947 185.98 107.905 185.883 107.939C185.808 107.972 185.741 108.044 185.699 108.115C185.67 108.094 185.636 108.086 185.599 108.081C185.565 108.077 185.527 108.081 185.494 108.073C185.44 108.06 185.393 108.031 185.343 108.014C185.272 107.989 185.192 107.998 185.121 107.972C185.037 107.947 184.975 107.885 184.916 107.822C184.841 107.88 184.803 107.893 184.715 107.926C184.681 107.939 184.644 107.952 184.606 107.943C184.577 107.935 184.552 107.914 184.526 107.893C184.464 107.83 184.409 107.742 184.372 107.658C184.279 107.709 184.158 107.671 184.057 107.704C183.986 107.725 183.919 107.788 183.894 107.859C183.844 107.809 183.76 107.809 183.693 107.83C183.622 107.851 183.563 107.893 183.492 107.914C183.4 107.943 183.299 107.935 183.207 107.897V107.876C183.174 108.006 183.086 108.115 182.964 108.174C182.931 108.19 182.893 108.203 182.86 108.194C182.826 108.19 182.801 108.174 182.776 108.157C182.679 108.09 182.604 108.006 182.541 107.905C182.437 107.922 182.332 107.943 182.231 107.901C182.181 107.876 182.139 107.843 182.089 107.822C182.005 107.792 181.909 107.813 181.846 107.872C181.833 107.809 181.783 107.759 181.725 107.734C181.666 107.704 181.603 107.7 181.54 107.692C181.477 107.688 181.415 107.679 181.356 107.654C181.348 107.742 181.31 107.813 181.251 107.88C181.226 107.91 181.193 107.935 181.159 107.939C181.134 107.943 181.109 107.939 181.088 107.935C181.004 107.91 180.925 107.872 180.853 107.822C180.74 107.859 180.669 107.981 180.552 108.006C180.497 108.019 180.439 108.01 180.384 108.023C180.338 108.031 180.301 108.052 180.259 108.065C180.183 108.09 180.095 108.077 180.028 108.119C179.995 108.035 179.907 107.972 179.823 107.947C179.773 107.935 179.718 107.931 179.668 107.922C179.572 107.901 179.467 107.826 179.404 107.746C179.362 107.784 179.354 107.792 179.304 107.822C179.254 107.855 179.191 107.872 179.132 107.864C179.078 107.855 179.032 107.826 178.998 107.784C178.96 107.742 178.935 107.671 178.927 107.616C178.881 107.692 178.801 107.734 178.713 107.742C178.659 107.751 178.6 107.738 178.542 107.751C178.462 107.763 178.378 107.834 178.345 107.905C178.273 107.855 178.181 107.847 178.093 107.859C177.955 107.88 177.825 107.939 177.691 107.977C177.532 108.019 177.314 108.019 177.189 107.972C177.147 107.826 177.143 107.671 177.185 107.524C177.214 107.407 177.268 107.302 177.298 107.185C177.331 107.072 177.339 106.93 177.272 106.829C177.306 106.8 177.344 106.77 177.373 106.737C177.407 106.699 177.427 106.657 177.436 106.611C177.44 106.557 177.423 106.502 177.432 106.448C177.444 106.373 177.503 106.31 177.561 106.255C177.482 106.234 177.381 106.205 177.339 106.138C177.306 106.084 177.31 106.012 177.331 105.95C177.356 105.891 177.394 105.841 177.436 105.79C177.36 105.702 177.277 105.615 177.252 105.501C177.243 105.447 177.243 105.393 177.235 105.334C177.222 105.279 177.197 105.225 177.147 105.2C177.134 105.192 177.118 105.187 177.105 105.179C177.088 105.171 177.076 105.158 177.076 105.141C177.071 104.982 177.155 104.831 177.176 104.676C177.185 104.63 177.185 104.584 177.201 104.542C177.222 104.475 177.302 104.421 177.352 104.371C177.314 104.32 177.277 104.266 177.252 104.207C177.226 104.149 177.218 104.082 177.239 104.023C177.252 103.998 177.264 103.973 177.285 103.952C177.348 103.881 177.44 103.843 177.528 103.805C177.499 103.755 177.49 103.688 177.482 103.629C177.478 103.566 177.474 103.504 177.448 103.445C177.423 103.391 177.373 103.34 177.31 103.336C177.356 103.269 177.36 103.169 177.339 103.089C177.319 103.014 177.281 102.942 177.26 102.863C177.243 102.787 177.239 102.7 177.285 102.633C177.176 102.57 177.067 102.511 177.004 102.402C176.979 102.364 176.963 102.318 176.971 102.272C176.979 102.239 177 102.205 177.021 102.18C177.055 102.134 177.097 102.092 177.143 102.055C177.172 102.034 177.205 102.008 177.226 101.979C177.252 101.95 177.264 101.908 177.252 101.87C177.247 101.812 177.247 101.736 177.268 101.678C177.289 101.615 177.335 101.56 177.356 101.493C177.377 101.418 177.36 101.33 177.31 101.267C177.348 101.255 177.386 101.238 177.411 101.209C177.432 101.183 177.444 101.146 177.453 101.112C177.478 101.016 177.486 100.915 177.494 100.819C177.499 100.811 177.499 100.798 177.494 100.79C177.486 100.781 177.457 100.773 177.448 100.781C177.339 100.756 177.252 100.66 177.231 100.551C177.21 100.438 177.264 100.321 177.356 100.258C177.272 100.208 177.218 100.115 177.189 100.023C177.159 99.9311 177.151 99.8348 177.134 99.7384C177.122 99.6463 177.101 99.55 177.051 99.4662C177.126 99.4076 177.21 99.3531 177.235 99.261C177.256 99.1982 177.252 99.127 177.268 99.06C177.289 98.9678 177.348 98.8882 177.427 98.8422C177.39 98.7919 177.348 98.7249 177.331 98.6621C177.31 98.6034 177.31 98.5322 177.344 98.4778C177.386 98.4066 177.478 98.3731 177.557 98.3521H177.561C177.52 98.3228 177.524 98.327 177.494 98.2851C177.461 98.2391 177.444 98.1762 177.436 98.1176C177.427 98.059 177.423 98.0003 177.407 97.9417C177.407 97.8998 177.386 97.8496 177.352 97.8286C177.327 97.8161 177.298 97.8035 177.289 97.7825C177.281 97.7658 177.285 97.7449 177.293 97.7323C177.302 97.7155 177.319 97.703 177.335 97.6946C177.331 97.5313 177.264 97.3763 177.218 97.2171C177.168 97.0245 177.151 96.8193 177.172 96.6182C177.298 96.5721 177.532 96.5847 177.691 96.6266C177.825 96.6601 177.955 96.7229 178.093 96.7397C178.181 96.7522 178.278 96.7481 178.345 96.6936C178.378 96.769 178.462 96.836 178.542 96.8528C178.6 96.8611 178.659 96.8528 178.717 96.8569C178.801 96.8653 178.881 96.9114 178.927 96.9826C178.935 96.9281 178.965 96.8611 178.998 96.8193C179.032 96.7774 179.082 96.7481 179.132 96.7397C179.191 96.7313 179.254 96.7481 179.304 96.7774C179.354 96.8067 179.362 96.8151 179.408 96.8569C179.467 96.7774 179.572 96.702 179.668 96.681C179.718 96.6685 179.773 96.6685 179.823 96.6517C179.907 96.6308 179.995 96.5638 180.028 96.4842C180.1 96.5219 180.183 96.5135 180.259 96.5345C180.301 96.547 180.342 96.5721 180.384 96.5805C180.439 96.5931 180.497 96.5805 180.556 96.5931C180.673 96.6182 180.74 96.7397 180.853 96.7774C180.925 96.7271 181.004 96.6894 181.088 96.6685C181.113 96.6601 181.134 96.6559 181.159 96.6601C181.197 96.6643 181.226 96.6894 181.251 96.7187C181.31 96.7857 181.348 96.8569 181.36 96.9491C181.415 96.924 181.477 96.9156 181.54 96.9072C181.603 96.903 181.666 96.8946 181.725 96.8695C181.783 96.8444 181.833 96.7899 181.846 96.7313C181.913 96.7899 182.009 96.8067 182.089 96.7774C182.139 96.7606 182.181 96.7229 182.231 96.702C182.332 96.6601 182.437 96.6769 182.545 96.6936C182.604 96.5973 182.684 96.5135 182.776 96.4465C182.801 96.4256 182.826 96.4088 182.86 96.4046C182.897 96.4004 182.935 96.413 182.964 96.4297C183.086 96.4842 183.178 96.5973 183.211 96.7229V96.7062C183.299 96.6643 183.4 96.6601 183.496 96.6894C183.563 96.7104 183.626 96.7481 183.693 96.769C183.76 96.7899 183.844 96.7899 183.894 96.7397C183.919 96.8109 183.986 96.8737 184.057 96.8946C184.158 96.9281 184.279 96.8946 184.376 96.9407C184.409 96.8569 184.464 96.7732 184.531 96.7062C184.552 96.6852 184.577 96.6643 184.606 96.6559C184.644 96.6475 184.681 96.6601 184.719 96.6727C184.807 96.7104 184.841 96.7229 184.916 96.7774C184.975 96.7187 185.042 96.6559 185.121 96.6266C185.192 96.6057 185.272 96.6098 185.343 96.5889C185.398 96.5721 185.444 96.5386 185.494 96.5303C185.527 96.5219 185.565 96.5219 185.599 96.5177C185.636 96.5177 185.674 96.5093 185.699 96.4842C185.741 96.5554 185.808 96.6308 185.888 96.6601C185.98 96.6978 186.097 96.6559 186.185 96.7104C186.219 96.7313 186.239 96.7648 186.269 96.7941C186.298 96.8193 186.332 96.8486 186.373 96.8444C186.44 96.7983 186.516 96.7522 186.591 96.7229C186.612 96.7145 186.633 96.7062 186.654 96.7104C186.683 96.7145 186.704 96.7355 186.725 96.7564C186.776 96.8193 186.813 96.8946 186.83 96.9742C186.872 96.9114 186.956 96.8779 187.031 96.8653C187.106 96.8528 187.182 96.8528 187.253 96.8234C187.316 96.7983 187.366 96.7564 187.4 96.6978C187.475 96.7564 187.584 96.7606 187.676 96.7397C187.768 96.7187 187.852 96.6769 187.94 96.6475C188.133 96.5805 188.375 96.5721 188.576 96.6182C188.597 96.8193 188.581 97.0245 188.526 97.2171C188.484 97.3763 188.417 97.5313 188.413 97.6946C188.43 97.703 188.447 97.7155 188.455 97.7323C188.463 97.7449 188.468 97.7658 188.459 97.7825C188.451 97.8035 188.422 97.8161 188.396 97.8286C188.363 97.8496 188.342 97.8998 188.342 97.9417C188.325 98.0003 188.321 98.059 188.313 98.1176C188.304 98.1762 188.288 98.2349 188.254 98.2851C188.225 98.327 188.229 98.3228 188.187 98.3521H188.191C188.271 98.3731 188.363 98.4066 188.405 98.4778C188.438 98.5322 188.438 98.6034 188.417 98.6621C188.401 98.7249 188.359 98.7919 188.321 98.8422C188.401 98.8882 188.459 98.972 188.48 99.06C188.497 99.127 188.493 99.1982 188.514 99.261C188.539 99.3531 188.623 99.4076 188.698 99.4662C188.648 99.55 188.627 99.6463 188.614 99.7384C188.597 99.8348 188.589 99.9311 188.56 100.023C188.53 100.115 188.476 100.203 188.392 100.258C188.484 100.321 188.535 100.438 188.518 100.551C188.497 100.66 188.409 100.756 188.3 100.781C188.292 100.773 188.262 100.781 188.254 100.79C188.25 100.798 188.25 100.811 188.25 100.819C188.262 100.92 188.271 101.016 188.296 101.112C188.304 101.146 188.317 101.179 188.338 101.209C188.363 101.238 188.401 101.255 188.438 101.267C188.388 101.33 188.367 101.418 188.392 101.493C188.413 101.56 188.459 101.615 188.48 101.678C188.501 101.736 188.501 101.812 188.497 101.87C188.484 101.908 188.497 101.95 188.522 101.979C188.543 102.008 188.576 102.034 188.606 102.055C188.652 102.092 188.694 102.134 188.727 102.18C188.748 102.205 188.769 102.239 188.778 102.272C188.782 102.318 188.765 102.364 188.74 102.402Z" fill="#FF0000"/>
</g>
<mask id="mask5_1948_2889" style="mask-type:luminance" maskUnits="userSpaceOnUse" x="176" y="96" width="13" height="13">
<path d="M176.855 96.2872H188.884V108.316H176.855V96.2872Z" fill="white"/>
</mask>
<g mask="url(#mask5_1948_2889)">
<path d="M176.855 96.2872H188.884V108.316H176.855V96.2872Z" fill="black"/>
</g>
<mask id="mask6_1948_2889" style="mask-type:luminance" maskUnits="userSpaceOnUse" x="129" y="103" width="36" height="36">
<path d="M129.699 103.185H164.989V138.312H129.699V103.185Z" fill="white"/>
</mask>
<g mask="url(#mask6_1948_2889)">
<path d="M164.557 121.132C164.369 121.438 164.051 121.622 163.737 121.798C163.871 121.99 163.862 122.25 163.804 122.476C163.745 122.707 163.636 122.916 163.577 123.146C163.515 123.372 163.531 123.674 163.661 123.867C163.481 123.875 163.33 124.017 163.255 124.185C163.184 124.353 163.171 124.537 163.154 124.721C163.138 124.901 163.117 125.09 163.02 125.245H163.025C163.284 125.349 163.556 125.458 163.741 125.668C163.795 125.73 163.841 125.802 163.866 125.877C163.933 126.053 163.904 126.254 163.833 126.426C163.762 126.597 163.649 126.748 163.535 126.899C163.682 127.041 163.921 127.205 163.988 127.402C164.03 127.527 164.034 127.661 164.051 127.791C164.118 128.256 164.361 128.687 164.348 129.156C164.344 129.207 164.31 129.244 164.268 129.269C164.231 129.295 164.185 129.307 164.143 129.328C163.996 129.404 163.921 129.567 163.887 129.73C163.858 129.889 163.862 130.057 163.829 130.216C163.762 130.543 163.51 130.807 163.293 131.058C163.41 131.209 163.531 131.359 163.598 131.535C163.665 131.711 163.674 131.921 163.573 132.08C163.452 132.277 163.154 132.369 162.932 132.427C163.096 132.587 163.272 132.767 163.305 132.993C163.326 133.152 163.276 133.311 163.297 133.47C163.314 133.604 163.385 133.73 163.473 133.835C163.561 133.939 163.67 134.027 163.778 134.115C163.582 134.404 163.603 134.819 163.695 135.154C163.783 135.493 163.946 135.807 164.034 136.142C164.147 136.574 164.139 137.034 164.013 137.462C163.435 137.6 162.765 137.6 162.204 137.407C161.944 137.319 161.697 137.198 161.429 137.139C161.161 137.081 160.838 137.089 160.625 137.256C160.524 137.093 160.369 136.959 160.193 136.888C159.988 136.808 159.758 136.804 159.54 136.766C159.322 136.733 159.075 136.641 158.954 136.452C158.899 136.687 158.79 136.905 158.639 137.085C158.585 137.152 158.518 137.215 158.434 137.227C158.371 137.235 158.309 137.215 158.25 137.189C158.024 137.101 157.802 136.967 157.605 136.829C157.488 136.825 157.383 136.9 157.303 136.984C157.22 137.068 157.153 137.164 157.052 137.227C156.801 137.386 156.457 137.265 156.181 137.37C155.951 137.462 155.758 137.675 155.632 137.885C155.553 137.818 155.444 137.793 155.343 137.784C155.239 137.776 155.13 137.78 155.029 137.759C154.874 137.721 154.74 137.633 154.594 137.583C154.38 137.516 154.15 137.537 153.94 137.466C153.697 137.39 153.513 137.206 153.333 137.026C153.115 137.194 153.01 137.227 152.755 137.332C152.65 137.374 152.537 137.407 152.428 137.382C152.34 137.361 152.265 137.298 152.202 137.231C152.01 137.039 151.855 136.796 151.746 136.544C151.465 136.691 151.117 136.582 150.816 136.678C150.602 136.745 150.414 136.926 150.343 137.135C150.192 136.988 149.949 136.988 149.748 137.051C149.547 137.11 149.363 137.227 149.162 137.29C148.889 137.374 148.588 137.357 148.328 137.24V137.181C148.232 137.558 147.964 137.885 147.616 138.052C147.516 138.098 147.407 138.136 147.298 138.119C147.21 138.107 147.126 138.056 147.055 138.002C146.783 137.809 146.548 137.558 146.376 137.269C146.066 137.323 145.752 137.374 145.463 137.252C145.317 137.189 145.191 137.081 145.04 137.026C144.802 136.938 144.521 136.997 144.337 137.164C144.299 136.984 144.144 136.833 143.976 136.758C143.805 136.683 143.62 136.662 143.436 136.645C143.252 136.624 143.068 136.603 142.9 136.528C142.871 136.796 142.762 137.001 142.582 137.202C142.506 137.282 142.418 137.357 142.314 137.374C142.243 137.382 142.171 137.37 142.104 137.349C141.857 137.282 141.627 137.173 141.422 137.022C141.082 137.139 140.886 137.487 140.538 137.566C140.375 137.6 140.203 137.571 140.04 137.604C139.914 137.633 139.797 137.7 139.671 137.738C139.449 137.805 139.198 137.772 139.001 137.893C138.896 137.654 138.641 137.462 138.394 137.39C138.247 137.349 138.092 137.344 137.945 137.315C137.661 137.252 137.347 137.034 137.175 136.8C137.049 136.917 137.024 136.938 136.873 137.026C136.722 137.114 136.542 137.168 136.371 137.143C136.216 137.118 136.073 137.03 135.973 136.909C135.872 136.783 135.789 136.582 135.768 136.423C135.638 136.637 135.395 136.766 135.148 136.792C134.98 136.808 134.808 136.779 134.641 136.812C134.406 136.854 134.159 137.055 134.063 137.269C133.858 137.118 133.581 137.097 133.326 137.135C132.915 137.189 132.538 137.37 132.141 137.474C131.68 137.6 131.039 137.6 130.675 137.462C130.549 137.034 130.541 136.574 130.654 136.142C130.746 135.807 130.905 135.493 130.997 135.158C131.085 134.819 131.106 134.404 130.913 134.115C131.018 134.027 131.127 133.944 131.215 133.835C131.303 133.73 131.374 133.608 131.391 133.47C131.412 133.311 131.362 133.152 131.387 132.993C131.42 132.767 131.592 132.591 131.759 132.427C131.533 132.373 131.24 132.277 131.114 132.08C131.014 131.921 131.022 131.711 131.089 131.535C131.156 131.359 131.278 131.209 131.395 131.058C131.177 130.807 130.93 130.543 130.859 130.216C130.825 130.057 130.834 129.889 130.8 129.73C130.771 129.567 130.691 129.404 130.549 129.328C130.507 129.307 130.461 129.295 130.419 129.269C130.377 129.244 130.344 129.207 130.344 129.156C130.327 128.692 130.57 128.256 130.637 127.791C130.654 127.661 130.658 127.527 130.7 127.402C130.767 127.205 131.006 127.046 131.152 126.899C131.039 126.748 130.926 126.597 130.855 126.426C130.784 126.254 130.754 126.053 130.821 125.877C130.851 125.802 130.897 125.73 130.951 125.672C131.131 125.458 131.403 125.345 131.663 125.245H131.667C131.575 125.09 131.55 124.901 131.533 124.721C131.521 124.537 131.508 124.353 131.433 124.185C131.362 124.022 131.211 123.875 131.027 123.867C131.156 123.67 131.173 123.372 131.114 123.146C131.052 122.92 130.943 122.707 130.884 122.48C130.825 122.25 130.821 121.99 130.955 121.798C130.637 121.622 130.319 121.442 130.13 121.132C130.059 121.015 130.009 120.876 130.034 120.742C130.055 120.642 130.113 120.55 130.176 120.47C130.277 120.336 130.398 120.215 130.528 120.11C130.62 120.039 130.712 119.976 130.784 119.884C130.855 119.796 130.897 119.674 130.859 119.57C130.838 119.389 130.842 119.176 130.901 119.004C130.964 118.811 131.106 118.652 131.165 118.46C131.228 118.238 131.177 117.974 131.027 117.802C131.131 117.756 131.244 117.71 131.32 117.622C131.387 117.542 131.42 117.442 131.45 117.341C131.521 117.061 131.546 116.768 131.571 116.479C131.575 116.454 131.579 116.42 131.563 116.395C131.546 116.374 131.454 116.349 131.437 116.37C131.114 116.294 130.855 116.014 130.796 115.691C130.738 115.365 130.888 115.017 131.161 114.833C130.922 114.682 130.754 114.418 130.671 114.15C130.583 113.878 130.557 113.597 130.511 113.317C130.469 113.04 130.407 112.755 130.26 112.512C130.49 112.345 130.733 112.177 130.809 111.918C130.863 111.725 130.851 111.52 130.897 111.323C130.96 111.055 131.135 110.816 131.374 110.678C131.257 110.531 131.14 110.339 131.085 110.159C131.027 109.979 131.022 109.773 131.123 109.614C131.244 109.405 131.517 109.3 131.751 109.246H131.764C131.646 109.162 131.651 109.166 131.567 109.049C131.466 108.906 131.42 108.73 131.395 108.559C131.37 108.383 131.357 108.207 131.307 108.039C131.311 107.918 131.248 107.776 131.148 107.713C131.081 107.667 130.993 107.642 130.964 107.57C130.943 107.52 130.951 107.466 130.976 107.424C131.006 107.382 131.052 107.34 131.098 107.315C131.081 106.833 130.884 106.381 130.763 105.916C130.608 105.346 130.562 104.747 130.624 104.161C130.989 104.019 131.684 104.056 132.141 104.178C132.538 104.283 132.92 104.463 133.33 104.521C133.581 104.555 133.858 104.534 134.067 104.383C134.163 104.601 134.411 104.798 134.645 104.84C134.808 104.873 134.98 104.844 135.152 104.861C135.399 104.89 135.638 105.015 135.772 105.229C135.793 105.07 135.872 104.869 135.973 104.747C136.078 104.626 136.22 104.534 136.375 104.513C136.547 104.484 136.722 104.538 136.877 104.626C137.028 104.714 137.049 104.735 137.179 104.852C137.351 104.618 137.661 104.4 137.945 104.341C138.096 104.308 138.251 104.303 138.398 104.262C138.645 104.19 138.9 103.998 139.005 103.763C139.202 103.88 139.453 103.847 139.675 103.914C139.801 103.952 139.914 104.019 140.044 104.048C140.207 104.082 140.379 104.052 140.542 104.086C140.89 104.165 141.087 104.517 141.422 104.63C141.627 104.479 141.861 104.371 142.109 104.303C142.176 104.287 142.247 104.27 142.314 104.283C142.423 104.299 142.511 104.371 142.586 104.454C142.766 104.651 142.875 104.861 142.9 105.129C143.072 105.049 143.256 105.028 143.44 105.007C143.625 104.99 143.809 104.969 143.976 104.894C144.148 104.819 144.299 104.668 144.337 104.488C144.525 104.659 144.806 104.714 145.04 104.626C145.191 104.572 145.321 104.467 145.468 104.404C145.756 104.278 146.071 104.333 146.381 104.383C146.552 104.094 146.783 103.847 147.055 103.65C147.13 103.596 147.21 103.55 147.302 103.533C147.411 103.516 147.52 103.554 147.616 103.6C147.968 103.767 148.236 104.094 148.332 104.471V104.412C148.592 104.299 148.893 104.278 149.166 104.366C149.367 104.425 149.547 104.542 149.748 104.605C149.949 104.664 150.192 104.664 150.347 104.521C150.418 104.727 150.606 104.907 150.816 104.974C151.117 105.07 151.469 104.965 151.75 105.108C151.855 104.856 152.01 104.613 152.202 104.421C152.269 104.354 152.345 104.295 152.433 104.27C152.541 104.245 152.654 104.283 152.755 104.32C153.01 104.425 153.115 104.463 153.337 104.626C153.513 104.45 153.702 104.266 153.94 104.186C154.15 104.115 154.384 104.136 154.594 104.069C154.744 104.019 154.878 103.931 155.033 103.897C155.134 103.872 155.239 103.876 155.343 103.868C155.448 103.86 155.557 103.834 155.637 103.767C155.762 103.977 155.951 104.195 156.181 104.283C156.462 104.387 156.805 104.266 157.056 104.425C157.157 104.488 157.224 104.584 157.303 104.668C157.387 104.752 157.492 104.831 157.609 104.823C157.806 104.685 158.028 104.551 158.25 104.463C158.313 104.442 158.371 104.417 158.438 104.429C158.522 104.438 158.585 104.5 158.639 104.567C158.794 104.747 158.903 104.969 158.954 105.2C159.079 105.015 159.322 104.919 159.544 104.886C159.762 104.848 159.988 104.848 160.197 104.764C160.373 104.693 160.524 104.563 160.625 104.4C160.842 104.563 161.165 104.572 161.433 104.513C161.701 104.454 161.948 104.333 162.204 104.245C162.769 104.052 163.489 104.023 164.072 104.161C164.134 104.747 164.084 105.346 163.933 105.916C163.808 106.381 163.611 106.833 163.598 107.315C163.644 107.34 163.69 107.378 163.716 107.424C163.745 107.466 163.753 107.524 163.732 107.566C163.699 107.642 163.615 107.667 163.548 107.709C163.448 107.776 163.381 107.918 163.385 108.039C163.339 108.207 163.326 108.383 163.301 108.559C163.272 108.73 163.23 108.906 163.129 109.049C163.045 109.166 163.05 109.162 162.932 109.246H162.941C163.175 109.3 163.448 109.405 163.573 109.61C163.67 109.773 163.67 109.979 163.611 110.159C163.552 110.339 163.439 110.531 163.322 110.678C163.556 110.816 163.737 111.055 163.795 111.323C163.841 111.52 163.829 111.721 163.887 111.913C163.963 112.177 164.206 112.341 164.432 112.512C164.285 112.755 164.227 113.036 164.18 113.317C164.139 113.597 164.113 113.878 164.026 114.15C163.942 114.418 163.774 114.682 163.535 114.833C163.808 115.013 163.959 115.369 163.9 115.691C163.841 116.014 163.582 116.294 163.259 116.37C163.242 116.349 163.146 116.374 163.133 116.395C163.117 116.42 163.121 116.449 163.121 116.479C163.146 116.772 163.175 117.061 163.247 117.341C163.272 117.442 163.309 117.542 163.376 117.622C163.452 117.71 163.561 117.756 163.67 117.802C163.515 117.974 163.464 118.238 163.531 118.455C163.59 118.652 163.732 118.811 163.795 119.004C163.85 119.176 163.858 119.389 163.837 119.57C163.799 119.674 163.841 119.796 163.908 119.884C163.979 119.972 164.076 120.039 164.164 120.11C164.298 120.215 164.415 120.336 164.52 120.47C164.583 120.55 164.641 120.642 164.662 120.742C164.679 120.876 164.629 121.015 164.557 121.132Z" fill="#FF0000"/>
</g>
<mask id="mask7_1948_2889" style="mask-type:luminance" maskUnits="userSpaceOnUse" x="129" y="103" width="36" height="36">
<path d="M129.699 103.185H164.989V138.475H129.699V103.185Z" fill="white"/>
</mask>
<g mask="url(#mask7_1948_2889)">
<path d="M129.699 103.185H164.989V138.475H129.699V103.185Z" fill="black"/>
</g>
<mask id="mask8_1948_2889" style="mask-type:luminance" maskUnits="userSpaceOnUse" x="147" y="103" width="36" height="36">
<path d="M147.387 103.185H182.652V138.312H147.387V103.185Z" fill="white"/>
</mask>
<g mask="url(#mask8_1948_2889)">
<path d="M182.222 121.132C182.033 121.438 181.711 121.622 181.397 121.798C181.531 121.99 181.527 122.25 181.464 122.476C181.405 122.707 181.296 122.916 181.238 123.146C181.175 123.372 181.191 123.674 181.325 123.867C181.141 123.875 180.99 124.017 180.915 124.185C180.844 124.353 180.831 124.537 180.815 124.721C180.802 124.901 180.777 125.09 180.681 125.245H180.685C180.944 125.349 181.217 125.458 181.401 125.668C181.455 125.73 181.501 125.802 181.527 125.877C181.594 126.053 181.568 126.254 181.493 126.426C181.422 126.597 181.309 126.748 181.196 126.899C181.342 127.041 181.581 127.205 181.648 127.402C181.69 127.527 181.694 127.661 181.715 127.791C181.778 128.256 182.025 128.687 182.008 129.156C182.008 129.207 181.97 129.244 181.929 129.269C181.891 129.295 181.845 129.307 181.803 129.328C181.656 129.404 181.581 129.567 181.547 129.73C181.518 129.889 181.522 130.057 181.489 130.216C181.422 130.543 181.171 130.807 180.953 131.058C181.074 131.209 181.191 131.359 181.258 131.535C181.325 131.711 181.334 131.921 181.233 132.08C181.112 132.277 180.815 132.369 180.593 132.427C180.756 132.587 180.932 132.767 180.965 132.993C180.986 133.152 180.94 133.311 180.957 133.47C180.978 133.604 181.045 133.73 181.133 133.835C181.225 133.939 181.33 134.027 181.439 134.115C181.246 134.404 181.263 134.819 181.355 135.154C181.447 135.493 181.606 135.807 181.694 136.142C181.807 136.574 181.803 137.034 181.673 137.462C181.095 137.6 180.425 137.6 179.864 137.407C179.604 137.319 179.357 137.198 179.089 137.139C178.821 137.081 178.503 137.089 178.285 137.256C178.184 137.093 178.029 136.959 177.853 136.888C177.648 136.808 177.418 136.804 177.2 136.766C176.982 136.733 176.735 136.641 176.614 136.452C176.559 136.687 176.45 136.905 176.3 137.085C176.245 137.152 176.178 137.215 176.094 137.227C176.032 137.235 175.969 137.215 175.91 137.189C175.684 137.101 175.462 136.967 175.265 136.829C175.148 136.825 175.043 136.9 174.964 136.984C174.884 137.068 174.813 137.164 174.712 137.227C174.461 137.386 174.118 137.265 173.841 137.37C173.611 137.462 173.418 137.675 173.292 137.885C173.213 137.818 173.108 137.793 173.003 137.784C172.899 137.776 172.794 137.78 172.689 137.759C172.539 137.721 172.405 137.633 172.254 137.583C172.04 137.516 171.81 137.537 171.6 137.466C171.362 137.39 171.173 137.206 170.997 137.026C170.775 137.194 170.671 137.227 170.415 137.332C170.31 137.374 170.197 137.407 170.088 137.382C170.001 137.361 169.925 137.298 169.862 137.231C169.67 137.039 169.515 136.796 169.406 136.544C169.125 136.691 168.778 136.582 168.476 136.678C168.267 136.745 168.078 136.926 168.003 137.135C167.852 136.988 167.609 136.988 167.408 137.051C167.207 137.11 167.027 137.227 166.826 137.29C166.554 137.374 166.248 137.357 165.988 137.24L165.992 137.181C165.892 137.558 165.624 137.885 165.276 138.052C165.176 138.098 165.067 138.136 164.962 138.119C164.87 138.107 164.79 138.056 164.715 138.002C164.443 137.809 164.212 137.558 164.037 137.269C163.727 137.323 163.412 137.374 163.123 137.252C162.977 137.189 162.851 137.081 162.7 137.026C162.466 136.938 162.181 136.997 161.997 137.164C161.959 136.984 161.804 136.833 161.637 136.758C161.469 136.683 161.281 136.662 161.096 136.645C160.916 136.624 160.728 136.603 160.56 136.528C160.531 136.796 160.422 137.001 160.242 137.202C160.171 137.282 160.079 137.357 159.974 137.374C159.903 137.382 159.832 137.37 159.765 137.349C159.522 137.282 159.287 137.173 159.082 137.022C158.747 137.139 158.546 137.487 158.198 137.566C158.039 137.6 157.863 137.571 157.7 137.604C157.574 137.633 157.461 137.7 157.335 137.738C157.113 137.805 156.862 137.772 156.661 137.893C156.556 137.654 156.305 137.462 156.054 137.39C155.907 137.349 155.752 137.344 155.606 137.315C155.321 137.252 155.007 137.034 154.835 136.8C154.709 136.917 154.684 136.938 154.533 137.026C154.383 137.114 154.207 137.168 154.035 137.143C153.876 137.118 153.733 137.03 153.633 136.909C153.532 136.783 153.449 136.582 153.428 136.423C153.298 136.637 153.055 136.766 152.808 136.792C152.64 136.808 152.469 136.779 152.301 136.812C152.067 136.854 151.824 137.055 151.723 137.269C151.518 137.118 151.241 137.097 150.986 137.135C150.58 137.189 150.199 137.37 149.801 137.474C149.34 137.6 148.699 137.6 148.335 137.462C148.209 137.034 148.201 136.574 148.314 136.142C148.406 135.807 148.565 135.493 148.657 135.158C148.745 134.819 148.766 134.404 148.574 134.115C148.682 134.027 148.787 133.944 148.875 133.835C148.967 133.73 149.034 133.608 149.051 133.47C149.072 133.311 149.022 133.152 149.047 132.993C149.08 132.767 149.252 132.591 149.42 132.427C149.193 132.373 148.9 132.277 148.779 132.08C148.678 131.921 148.682 131.711 148.749 131.535C148.821 131.359 148.938 131.209 149.055 131.058C148.842 130.807 148.59 130.543 148.519 130.216C148.486 130.057 148.494 129.889 148.461 129.73C148.431 129.567 148.356 129.404 148.209 129.328C148.167 129.307 148.121 129.295 148.079 129.269C148.037 129.244 148.004 129.207 148.004 129.156C147.987 128.692 148.234 128.256 148.297 127.791C148.318 127.661 148.322 127.527 148.364 127.402C148.427 127.205 148.666 127.046 148.817 126.899C148.703 126.748 148.59 126.597 148.515 126.426C148.444 126.254 148.419 126.053 148.481 125.877C148.511 125.802 148.557 125.73 148.611 125.672C148.791 125.458 149.064 125.345 149.327 125.245H149.332C149.235 125.09 149.21 124.901 149.193 124.721C149.181 124.537 149.168 124.353 149.093 124.185C149.022 124.022 148.871 123.875 148.687 123.867C148.821 123.67 148.833 123.372 148.775 123.146C148.712 122.92 148.607 122.707 148.544 122.48C148.486 122.25 148.481 121.99 148.615 121.798C148.297 121.622 147.979 121.442 147.79 121.132C147.719 121.015 147.669 120.876 147.694 120.742C147.715 120.642 147.774 120.55 147.836 120.47C147.937 120.336 148.058 120.215 148.192 120.11C148.28 120.039 148.377 119.976 148.444 119.884C148.515 119.796 148.557 119.674 148.519 119.57C148.498 119.389 148.507 119.176 148.561 119.004C148.624 118.811 148.766 118.652 148.825 118.46C148.892 118.238 148.837 117.974 148.687 117.802C148.796 117.756 148.904 117.71 148.98 117.622C149.047 117.542 149.08 117.442 149.11 117.341C149.181 117.061 149.206 116.768 149.235 116.479C149.235 116.454 149.24 116.42 149.223 116.395C149.206 116.374 149.114 116.349 149.097 116.37C148.779 116.294 148.515 116.014 148.456 115.691C148.398 115.365 148.548 115.017 148.821 114.833C148.582 114.682 148.414 114.418 148.331 114.15C148.243 113.878 148.218 113.597 148.172 113.317C148.13 113.04 148.067 112.755 147.924 112.512C148.151 112.345 148.393 112.177 148.469 111.918C148.523 111.725 148.511 111.52 148.557 111.323C148.62 111.055 148.796 110.816 149.034 110.678C148.917 110.531 148.804 110.339 148.745 110.159C148.687 109.979 148.682 109.773 148.783 109.614C148.904 109.405 149.181 109.3 149.411 109.246H149.424C149.307 109.162 149.311 109.166 149.227 109.049C149.126 108.906 149.08 108.73 149.055 108.559C149.03 108.383 149.018 108.207 148.967 108.039C148.971 107.918 148.909 107.776 148.808 107.713C148.741 107.667 148.653 107.642 148.624 107.57C148.603 107.52 148.611 107.466 148.636 107.424C148.666 107.382 148.712 107.34 148.758 107.315C148.741 106.833 148.548 106.381 148.423 105.916C148.268 105.346 148.222 104.747 148.285 104.161C148.649 104.019 149.344 104.056 149.805 104.178C150.199 104.283 150.58 104.463 150.99 104.521C151.241 104.555 151.522 104.534 151.727 104.383C151.824 104.601 152.071 104.798 152.305 104.84C152.473 104.873 152.645 104.844 152.812 104.861C153.059 104.89 153.302 105.015 153.432 105.229C153.453 105.07 153.537 104.869 153.637 104.747C153.738 104.626 153.88 104.534 154.035 104.513C154.211 104.484 154.387 104.538 154.538 104.626C154.688 104.714 154.709 104.735 154.839 104.852C155.011 104.618 155.321 104.4 155.606 104.341C155.756 104.308 155.911 104.303 156.058 104.262C156.309 104.19 156.561 103.998 156.665 103.763C156.862 103.88 157.113 103.847 157.335 103.914C157.461 103.952 157.574 104.019 157.704 104.048C157.867 104.082 158.039 104.052 158.202 104.086C158.55 104.165 158.747 104.517 159.082 104.63C159.291 104.479 159.522 104.371 159.769 104.303C159.836 104.287 159.907 104.27 159.974 104.283C160.083 104.299 160.175 104.371 160.246 104.454C160.426 104.651 160.535 104.861 160.564 105.129C160.732 105.049 160.916 105.028 161.101 105.007C161.285 104.99 161.469 104.969 161.637 104.894C161.808 104.819 161.963 104.668 161.997 104.488C162.185 104.659 162.466 104.714 162.705 104.626C162.855 104.572 162.981 104.467 163.128 104.404C163.417 104.278 163.731 104.333 164.041 104.383C164.212 104.094 164.447 103.847 164.719 103.65C164.795 103.596 164.874 103.55 164.962 103.533C165.071 103.516 165.18 103.554 165.28 103.6C165.628 103.767 165.896 104.094 165.992 104.471V104.412C166.252 104.299 166.554 104.278 166.826 104.366C167.027 104.425 167.211 104.542 167.412 104.605C167.609 104.664 167.852 104.664 168.007 104.521C168.078 104.727 168.267 104.907 168.476 104.974C168.778 105.07 169.129 104.965 169.41 105.108C169.515 104.856 169.674 104.613 169.862 104.421C169.929 104.354 170.005 104.295 170.093 104.27C170.202 104.245 170.315 104.283 170.415 104.32C170.675 104.425 170.775 104.463 170.997 104.626C171.177 104.45 171.362 104.266 171.6 104.186C171.814 104.115 172.044 104.136 172.258 104.069C172.405 104.019 172.539 103.931 172.694 103.897C172.794 103.872 172.899 103.876 173.003 103.868C173.108 103.86 173.217 103.834 173.297 103.767C173.422 103.977 173.615 104.195 173.841 104.283C174.122 104.387 174.465 104.266 174.716 104.425C174.817 104.488 174.884 104.584 174.968 104.668C175.047 104.752 175.152 104.831 175.269 104.823C175.466 104.685 175.688 104.551 175.91 104.463C175.973 104.442 176.036 104.417 176.099 104.429C176.182 104.438 176.249 104.5 176.304 104.567C176.455 104.747 176.563 104.969 176.618 105.2C176.739 105.015 176.982 104.919 177.204 104.886C177.422 104.848 177.648 104.848 177.858 104.764C178.034 104.693 178.189 104.563 178.285 104.4C178.503 104.563 178.825 104.572 179.093 104.513C179.361 104.454 179.608 104.333 179.868 104.245C180.429 104.052 181.15 104.023 181.732 104.161C181.795 104.747 181.749 105.346 181.594 105.916C181.468 106.381 181.271 106.833 181.258 107.315C181.305 107.34 181.351 107.378 181.38 107.424C181.405 107.466 181.413 107.524 181.393 107.566C181.363 107.642 181.275 107.667 181.208 107.709C181.108 107.776 181.045 107.918 181.049 108.039C180.999 108.207 180.986 108.383 180.961 108.559C180.932 108.73 180.89 108.906 180.789 109.049C180.706 109.166 180.71 109.162 180.593 109.246H180.605C180.835 109.3 181.112 109.405 181.233 109.61C181.33 109.773 181.33 109.979 181.271 110.159C181.212 110.339 181.099 110.531 180.982 110.678C181.221 110.816 181.397 111.055 181.46 111.323C181.501 111.52 181.493 111.721 181.547 111.913C181.623 112.177 181.866 112.341 182.092 112.512C181.945 112.755 181.887 113.036 181.845 113.317C181.799 113.597 181.774 113.878 181.686 114.15C181.602 114.418 181.434 114.682 181.196 114.833C181.468 115.013 181.619 115.369 181.56 115.691C181.501 116.014 181.242 116.294 180.919 116.37C180.902 116.349 180.81 116.374 180.794 116.395C180.781 116.42 180.781 116.449 180.781 116.479C180.81 116.772 180.835 117.061 180.907 117.341C180.936 117.442 180.969 117.542 181.037 117.622C181.112 117.71 181.225 117.756 181.33 117.802C181.179 117.974 181.124 118.238 181.191 118.455C181.25 118.652 181.393 118.811 181.455 119.004C181.51 119.176 181.518 119.389 181.497 119.57C181.46 119.674 181.501 119.796 181.573 119.884C181.64 119.972 181.736 120.039 181.824 120.11C181.958 120.215 182.075 120.336 182.18 120.47C182.243 120.55 182.301 120.642 182.322 120.742C182.339 120.876 182.293 121.015 182.222 121.132Z" fill="#FF0000"/>
</g>
<mask id="mask9_1948_2889" style="mask-type:luminance" maskUnits="userSpaceOnUse" x="147" y="103" width="36" height="36">
<path d="M147.359 103.185H182.649V138.475H147.359V103.185Z" fill="white"/>
</mask>
<g mask="url(#mask9_1948_2889)">
<path d="M147.359 103.185H182.649V138.475H147.359V103.185Z" fill="black"/>
</g>
<mask id="mask10_1948_2889" style="mask-type:luminance" maskUnits="userSpaceOnUse" x="70" y="197" width="173" height="111">
<path d="M70.6211 197.282H242.259V307.013H70.6211V197.282Z" fill="white"/>
</mask>
<g mask="url(#mask10_1948_2889)">
<path d="M75.0267 306.98V305.02C75.0267 304.932 74.9597 304.865 74.8717 304.865H72.9158V302.905C72.9158 302.817 72.8446 302.75 72.7609 302.75H70.8008V298.83H72.7609C72.8446 298.83 72.9158 298.758 72.9158 298.675V296.715H74.8717C74.9597 296.715 75.0267 296.643 75.0267 296.56V294.595H76.991C77.0747 294.595 77.1459 294.528 77.1459 294.44V230.976C77.1459 230.892 77.0747 230.821 76.991 230.821H75.0267V220.556H76.991C77.0747 220.556 77.1459 220.485 77.1459 220.401V203.631H79.106C79.1898 203.631 79.261 203.564 79.261 203.476V199.401H85.4512C85.5349 199.401 85.6061 199.33 85.6061 199.246V197.286H231.26V199.246C231.26 199.33 231.331 199.401 231.415 199.401H233.379V203.476C233.379 203.564 233.446 203.631 233.534 203.631H235.494V205.596C235.494 205.679 235.561 205.751 235.649 205.751H237.609V247.905C237.609 247.989 237.68 248.06 237.764 248.06H239.724V260.44H237.764C237.68 260.44 237.609 260.512 237.609 260.595V294.44C237.609 294.528 237.68 294.595 237.764 294.595H239.724V296.56C239.724 296.643 239.791 296.715 239.879 296.715H241.839V298.675C241.839 298.758 241.906 298.83 241.994 298.83V300.631C241.906 300.631 241.839 300.702 241.839 300.785V304.865H239.879C239.791 304.865 239.724 304.932 239.724 305.02V306.98H75.0267ZM83.1812 290.21C83.1812 290.294 83.2524 290.365 83.3361 290.365H229.3C229.388 290.365 229.455 290.294 229.455 290.21V288.25H231.415C231.503 288.25 231.57 288.179 231.57 288.095V260.75H233.534C233.618 260.75 233.689 260.679 233.689 260.595V247.905C233.689 247.817 233.618 247.75 233.534 247.75H231.57V207.711C231.57 207.623 231.503 207.556 231.415 207.556H229.455V205.596C229.455 205.508 229.388 205.441 229.3 205.441H170.07C169.982 205.441 169.915 205.508 169.915 205.596V207.556H167.955C167.871 207.556 167.8 207.623 167.8 207.711V209.667H146.955V207.711C146.955 207.623 146.884 207.556 146.8 207.556H144.84V205.596C144.84 205.508 144.769 205.441 144.685 205.441H85.4512C85.3674 205.441 85.2962 205.508 85.2962 205.596V207.556H83.3361C83.2524 207.556 83.1812 207.623 83.1812 207.711V220.246H81.2211C81.1331 220.246 81.0661 220.313 81.0661 220.401V230.976C81.0661 231.064 81.1331 231.131 81.2211 231.131H83.1812V290.21Z" fill="black"/>
</g>
<path d="M196.514 205.596H192.062L193.339 203.476H195.454L196.514 205.596ZM83.3355 262.71V257.341L81.2204 258.476V264.826L83.3355 265.868V262.71ZM201.799 205.596H229.299V207.711H231.414V237.326L233.534 238.942V205.596H231.414V203.476H197.569L196.773 205.596H201.799ZM184.879 290.21H83.3355V269.713L81.2204 271.171V292.325H233.534V260.595H235.649V247.905H233.534V240.45L231.414 241.556V247.905H233.534V260.595H231.414V288.095H229.299V290.21H184.879ZM235.649 296.56H74.8711V300.786H76.9903V302.905H237.764V296.56H235.649ZM81.2204 233.096V254.25L83.3355 255.946V230.976H81.2204V220.401H83.3355V207.711H85.4505V205.596H144.685V207.711H146.8V209.822H167.954V207.711H170.069V205.596H188.694L186.99 203.476H167.954V205.596H165.835V207.711H148.915V205.596H146.8V203.476H83.3355V205.596H81.2204V220.401H79.1054V230.976H81.2204V233.096ZM159.49 199.246H156.319L157.379 201.361H159.49V199.246Z" fill="#52E500"/>
<path d="M155.262 199.246H157.381V201.361H155.262V199.246ZM195.456 205.596H197.571V203.476H195.456V205.596ZM189.111 203.476H186.992V205.596H193.341V203.476H189.111ZM233.536 239.441V237.326H231.417V241.556H233.536V239.441ZM81.2227 256.365V258.476H83.3377V254.25H81.2227V256.365ZM81.2227 266.941V271.171H83.3377V264.826H81.2227V266.941ZM233.536 298.675V300.786H235.651V298.675H233.536ZM225.071 300.786H227.191V298.675H225.071V300.786ZM214.496 298.675H210.262V300.786H218.726V298.675H214.496ZM106.607 300.786H108.723V298.675H106.607V300.786ZM98.1473 298.675H96.028V300.786H102.377V298.675H98.1473ZM87.5678 300.786H89.6829V298.675H87.5678V300.786Z" fill="#F7F7F0"/>
<mask id="mask11_1948_2889" style="mask-type:luminance" maskUnits="userSpaceOnUse" x="70" y="197" width="173" height="111">
<path d="M70.6211 197.131H242.259V307.013H70.6211V197.131Z" fill="white"/>
</mask>
<g mask="url(#mask11_1948_2889)">
<path d="M241.997 298.675V296.56H239.882V294.44H237.767V260.595H239.882V247.905H237.767V205.596H235.652V203.476H233.537V199.246H231.418V197.131H85.4538V199.246H79.1086V203.476H76.9936V220.401H74.8744V230.976H76.9936V294.44H74.8744V296.56H237.767V302.905H76.9936V300.786H74.8744V296.56H72.7635V298.675H70.6484V302.905H72.7635V305.02H74.8744V307.135H239.882V305.02H241.997V298.675ZM233.537 205.596V247.905H235.652V260.595H233.537V292.325H81.2237V230.976H79.1086V220.401H81.2237V205.596H83.3388V203.476H146.803V205.596H148.918V207.711H165.838V205.596H167.958V203.476H231.418V205.596H233.537ZM157.382 199.246H159.493V201.361H155.263V199.246H157.382ZM229.302 300.786H227.192V298.675H233.537V300.786H229.302ZM220.842 300.786H218.727V298.675H225.072V300.786H220.842ZM91.799 300.786H89.6839V298.675H96.0291V300.786H91.799ZM81.2237 300.786H79.1086V298.675H87.5689V300.786H81.2237Z" fill="black"/>
</g>
</g>
<defs>
<clipPath id="clip0_1948_2889">
<rect width="312.006" height="307.985" fill="white" transform="translate(0.496094)"/>
</clipPath>
</defs>
</svg>
